<?xml version="1.0" encoding="UTF-8"?>
<svg xmlns="http://www.w3.org/2000/svg" xmlns:xlink="http://www.w3.org/1999/xlink" width="810pt" height="809.999993pt" viewBox="0 0 810 809.999993" version="1.2">
<defs>
<clipPath id="clip1">
  <path d="M 188 321 L 595 321 L 595 616 L 188 616 Z M 188 321 "/>
</clipPath>
<clipPath id="clip2">
  <path d="M 221.6875 284.6875 L 622.417969 372.238281 L 561.179688 652.519531 L 160.453125 564.964844 Z M 221.6875 284.6875 "/>
</clipPath>
<clipPath id="clip3">
  <path d="M 221.6875 284.6875 L 622.417969 372.238281 L 561.179688 652.519531 L 160.453125 564.964844 Z M 221.6875 284.6875 "/>
</clipPath>
</defs>
<g id="surface1">
<rect x="0" y="0" width="810" height="809.999993" style="fill:rgb(100%,100%,100%);fill-opacity:1;stroke:none;"/>
<rect x="0" y="0" width="810" height="809.999993" style="fill:rgb(100%,100%,100%);fill-opacity:1;stroke:none;"/>
<path style=" stroke:none;fill-rule:nonzero;fill:rgb(78.039551%,81.568909%,84.709167%);fill-opacity:1;" d="M 195.515625 714.371094 C 163.535156 714.371094 137.582031 686.578125 137.582031 656.929688 L 137.582031 138.90625 C 137.582031 130.566406 139.4375 122.230469 142.679688 114.816406 C 132.484375 124.542969 126.460938 137.976562 126.460938 153.03125 L 126.460938 670.828125 C 126.460938 700.011719 150.558594 724.097656 179.757812 724.097656 L 614.804688 724.097656 C 628.242188 724.097656 640.292969 719.003906 649.5625 711.128906 C 643.539062 713.445312 637.050781 714.371094 630.5625 714.371094 Z M 195.515625 714.371094 "/>
<path style=" stroke:none;fill-rule:nonzero;fill:rgb(96.078491%,96.469116%,96.859741%);fill-opacity:1;" d="M 142.21875 138.90625 L 142.21875 656.003906 C 142.21875 685.1875 166.316406 709.273438 195.515625 709.273438 L 630.5625 709.273438 C 659.757812 709.273438 683.859375 685.1875 683.859375 656.003906 L 683.859375 138.90625 C 683.859375 109.722656 659.757812 85.632812 630.5625 85.632812 L 195.515625 85.632812 C 165.855469 85.632812 142.21875 109.722656 142.21875 138.90625 Z M 142.21875 138.90625 "/>
<path style=" stroke:none;fill-rule:nonzero;fill:rgb(65.098572%,65.098572%,65.098572%);fill-opacity:1;" d="M 661.148438 705.105469 C 677.371094 694.914062 688.492188 676.847656 688.492188 656.003906 L 688.492188 138.90625 C 688.492188 106.941406 662.539062 81 630.5625 81 L 195.515625 81 C 176.511719 81 159.828125 90.265625 149.167969 104.164062 C 132.949219 114.355469 121.824219 132.417969 121.824219 153.53125 L 121.824219 670.363281 C 121.824219 702.328125 147.777344 728.265625 179.757812 728.265625 L 614.804688 728.265625 C 633.804688 728.265625 650.488281 719.003906 661.148438 705.105469 Z M 195.515625 85.632812 L 630.5625 85.632812 C 659.757812 85.632812 683.859375 109.722656 683.859375 138.90625 L 683.859375 656.003906 C 683.859375 685.1875 659.757812 709.273438 630.5625 709.273438 L 195.515625 709.273438 C 166.316406 709.273438 142.21875 685.1875 142.21875 656.003906 L 142.21875 138.90625 C 142.21875 109.722656 165.855469 85.632812 195.515625 85.632812 Z M 179.757812 724.097656 C 150.558594 724.097656 126.460938 699.546875 126.460938 670.363281 L 126.460938 153.53125 C 126.460938 138.441406 132.484375 125.007812 142.679688 115.28125 C 139.4375 122.691406 137.582031 130.566406 137.582031 139.367188 L 137.582031 656.46875 C 137.582031 688.429688 163.535156 714.371094 195.515625 714.371094 L 630.5625 714.371094 C 637.050781 714.371094 643.539062 712.980469 649.5625 711.128906 C 640.292969 719.003906 628.242188 724.097656 614.804688 724.097656 Z M 179.757812 724.097656 "/>
<g clip-path="url(#clip1)" clip-rule="nonzero">
<g clip-path="url(#clip2)" clip-rule="nonzero">
<g clip-path="url(#clip3)" clip-rule="nonzero">
<path style=" stroke:none;fill-rule:nonzero;fill:rgb(45.098877%,45.098877%,45.098877%);fill-opacity:1;" d="M 591.75 512.367188 C 591.25 514.664062 590.667969 516.9375 590.007812 519.191406 C 589.347656 521.449219 588.605469 523.683594 587.785156 525.894531 C 586.964844 528.105469 586.066406 530.292969 585.089844 532.457031 C 584.113281 534.621094 583.058594 536.757812 581.929688 538.867188 C 580.796875 540.976562 579.589844 543.058594 578.308594 545.109375 C 577.027344 547.160156 575.667969 549.175781 574.238281 551.164062 C 572.804688 553.152344 571.304688 555.105469 569.726562 557.023438 C 568.152344 558.941406 566.503906 560.820312 564.785156 562.667969 C 563.070312 564.511719 561.28125 566.316406 559.429688 568.082031 C 557.574219 569.851562 555.652344 571.578125 553.664062 573.261719 C 551.675781 574.945312 549.625 576.589844 547.511719 578.1875 C 545.394531 579.785156 543.21875 581.339844 540.980469 582.851562 C 538.742188 584.359375 536.445312 585.820312 534.089844 587.238281 C 531.734375 588.652344 529.324219 590.019531 526.855469 591.335938 C 524.390625 592.65625 521.871094 593.925781 519.296875 595.144531 C 516.722656 596.359375 514.101562 597.527344 511.429688 598.644531 C 508.757812 599.757812 506.039062 600.820312 503.273438 601.832031 C 500.507812 602.839844 497.699219 603.796875 494.84375 604.695312 C 491.992188 605.597656 489.101562 606.445312 486.171875 607.234375 C 483.238281 608.027344 480.269531 608.761719 477.265625 609.4375 C 474.261719 610.117188 471.226562 610.738281 468.15625 611.304688 C 465.085938 611.867188 461.988281 612.375 458.859375 612.824219 C 455.734375 613.273438 452.578125 613.664062 449.402344 614 C 446.222656 614.332031 443.023438 614.605469 439.804688 614.824219 C 436.582031 615.039062 433.347656 615.195312 430.089844 615.292969 C 426.835938 615.390625 423.566406 615.429688 420.28125 615.410156 C 417 615.390625 413.707031 615.3125 410.40625 615.175781 C 407.105469 615.039062 403.796875 614.84375 400.484375 614.585938 C 397.171875 614.332031 393.855469 614.019531 390.539062 613.644531 C 387.222656 613.273438 383.910156 612.84375 380.597656 612.355469 C 377.285156 611.867188 373.980469 611.324219 370.679688 610.71875 C 367.382812 610.117188 364.09375 609.457031 360.816406 608.742188 C 357.535156 608.023438 354.273438 607.253906 351.023438 606.425781 C 347.773438 605.597656 344.542969 604.714844 341.328125 603.777344 C 338.113281 602.839844 334.921875 601.847656 331.753906 600.800781 C 328.585938 599.757812 325.441406 598.660156 322.324219 597.511719 C 319.207031 596.359375 316.117188 595.160156 313.058594 593.90625 C 310 592.65625 306.976562 591.351562 303.984375 590.003906 C 300.992188 588.652344 298.039062 587.25 295.121094 585.804688 C 292.203125 584.359375 289.324219 582.863281 286.488281 581.324219 C 283.652344 579.785156 280.859375 578.203125 278.109375 576.574219 C 275.359375 574.945312 272.65625 573.273438 270 571.5625 C 267.347656 569.851562 264.742188 568.097656 262.1875 566.304688 C 259.632812 564.507812 257.132812 562.679688 254.683594 560.808594 C 252.238281 558.9375 249.847656 557.03125 247.511719 555.089844 C 245.175781 553.148438 242.902344 551.175781 240.683594 549.167969 C 238.46875 547.15625 236.316406 545.117188 234.222656 543.046875 C 232.128906 540.976562 230.101562 538.875 228.136719 536.746094 C 226.171875 534.621094 224.277344 532.464844 222.445312 530.285156 C 220.617188 528.105469 218.855469 525.902344 217.160156 523.671875 C 215.46875 521.445312 213.847656 519.199219 212.296875 516.929688 C 210.746094 514.660156 209.269531 512.375 207.863281 510.070312 C 206.460938 507.765625 205.128906 505.445312 203.875 503.109375 C 202.617188 500.773438 201.441406 498.425781 200.335938 496.066406 C 199.234375 493.703125 198.207031 491.335938 197.257812 488.953125 C 196.308594 486.574219 195.4375 484.1875 194.648438 481.796875 C 193.855469 479.402344 193.144531 477.007812 192.511719 474.605469 C 191.878906 472.203125 191.324219 469.804688 190.855469 467.402344 C 190.382812 464.996094 189.988281 462.597656 189.679688 460.199219 C 189.371094 457.800781 189.140625 455.40625 188.992188 453.015625 C 188.84375 450.628906 188.777344 448.246094 188.792969 445.871094 C 188.804688 443.5 188.902344 441.136719 189.078125 438.78125 C 189.257812 436.429688 189.515625 434.089844 189.855469 431.765625 C 190.195312 429.4375 190.613281 427.128906 191.117188 424.835938 C 191.617188 422.542969 192.199219 420.269531 192.859375 418.011719 C 193.519531 415.757812 194.261719 413.523438 195.082031 411.308594 C 195.902344 409.097656 196.800781 406.910156 197.777344 404.746094 C 198.753906 402.582031 199.808594 400.445312 200.9375 398.335938 C 202.070312 396.226562 203.277344 394.148438 204.558594 392.097656 C 205.839844 390.046875 207.199219 388.027344 208.628906 386.039062 C 210.0625 384.054688 211.566406 382.101562 213.140625 380.183594 C 214.71875 378.265625 216.363281 376.382812 218.082031 374.539062 C 219.800781 372.695312 221.585938 370.886719 223.441406 369.121094 C 225.292969 367.355469 227.214844 365.628906 229.203125 363.941406 C 231.191406 362.257812 233.242188 360.617188 235.355469 359.015625 C 237.472656 357.417969 239.648438 355.863281 241.886719 354.355469 C 244.125 352.84375 246.421875 351.382812 248.777344 349.96875 C 251.132812 348.550781 253.542969 347.183594 256.011719 345.867188 C 258.476562 344.546875 260.996094 343.28125 263.570312 342.0625 C 266.144531 340.84375 268.765625 339.675781 271.4375 338.5625 C 274.109375 337.445312 276.828125 336.382812 279.59375 335.375 C 282.359375 334.363281 285.167969 333.410156 288.023438 332.507812 C 290.875 331.605469 293.765625 330.761719 296.699219 329.96875 C 299.628906 329.179688 302.597656 328.445312 305.601562 327.765625 C 308.605469 327.085938 311.644531 326.464844 314.710938 325.902344 C 317.78125 325.335938 320.878906 324.828125 324.007812 324.378906 C 327.136719 323.929688 330.289062 323.539062 333.464844 323.207031 C 336.644531 322.871094 339.84375 322.597656 343.0625 322.382812 C 346.285156 322.164062 349.523438 322.007812 352.777344 321.910156 C 356.03125 321.8125 359.300781 321.773438 362.585938 321.792969 C 365.867188 321.8125 369.160156 321.890625 372.460938 322.027344 C 375.761719 322.167969 379.070312 322.363281 382.382812 322.617188 C 385.695312 322.871094 389.011719 323.1875 392.328125 323.558594 C 395.644531 323.929688 398.957031 324.359375 402.269531 324.847656 C 405.582031 325.335938 408.886719 325.882812 412.1875 326.484375 C 415.484375 327.085938 418.773438 327.746094 422.050781 328.464844 C 425.332031 329.179688 428.59375 329.953125 431.84375 330.78125 C 435.09375 331.605469 438.324219 332.488281 441.539062 333.429688 C 444.753906 334.367188 447.945312 335.355469 451.113281 336.402344 C 454.28125 337.445312 457.425781 338.542969 460.542969 339.695312 C 463.660156 340.84375 466.75 342.046875 469.808594 343.296875 C 472.867188 344.550781 475.890625 345.851562 478.882812 347.203125 C 481.875 348.554688 484.828125 349.953125 487.746094 351.398438 C 490.664062 352.847656 493.542969 354.339844 496.378906 355.878906 C 499.214844 357.417969 502.011719 359.003906 504.757812 360.628906 C 507.507812 362.257812 510.210938 363.929688 512.867188 365.640625 C 515.519531 367.355469 518.125 369.109375 520.679688 370.902344 C 523.234375 372.695312 525.734375 374.527344 528.183594 376.394531 C 530.628906 378.265625 533.019531 380.171875 535.355469 382.113281 C 537.691406 384.054688 539.964844 386.03125 542.183594 388.039062 C 544.398438 390.046875 546.554688 392.085938 548.644531 394.15625 C 550.738281 396.230469 552.765625 398.328125 554.730469 400.457031 C 556.695312 402.585938 558.589844 404.738281 560.421875 406.917969 C 562.25 409.101562 564.011719 411.304688 565.707031 413.53125 C 567.398438 415.757812 569.019531 418.007812 570.570312 420.273438 C 572.121094 422.542969 573.597656 424.832031 575.003906 427.136719 C 576.40625 429.441406 577.738281 431.761719 578.992188 434.097656 C 580.25 436.429688 581.429688 438.78125 582.53125 441.140625 C 583.636719 443.5 584.660156 445.871094 585.609375 448.25 C 586.558594 450.628906 587.429688 453.015625 588.21875 455.410156 C 589.011719 457.800781 589.722656 460.199219 590.355469 462.597656 C 590.988281 465 591.542969 467.402344 592.015625 469.804688 C 592.484375 472.207031 592.878906 474.605469 593.1875 477.007812 C 593.5 479.40625 593.726562 481.800781 593.875 484.1875 C 594.023438 486.578125 594.089844 488.957031 594.074219 491.332031 C 594.0625 493.707031 593.964844 496.070312 593.789062 498.421875 C 593.609375 500.773438 593.351562 503.113281 593.011719 505.441406 C 592.671875 507.765625 592.253906 510.074219 591.75 512.367188 Z M 591.75 512.367188 "/>
</g>
</g>
</g>
<path style=" stroke:none;fill-rule:nonzero;fill:rgb(100%,88.238525%,0%);fill-opacity:1;" d="M 269.636719 548.113281 C 194.539062 495.453125 181.992188 402.851562 211.953125 315.269531 C 221.925781 286.105469 240.390625 257.097656 272.46875 241.40625 C 298.980469 228.4375 331.675781 226.128906 362.703125 228.34375 C 492.941406 237.628906 607.175781 329.527344 618.816406 434.378906 C 626.960938 507.734375 584.019531 578.921875 487.53125 590.597656 C 416.347656 599.234375 325.488281 587.269531 269.636719 548.113281 Z M 269.636719 548.113281 "/>
<path style=" stroke:none;fill-rule:nonzero;fill:rgb(32.939148%,32.939148%,32.939148%);fill-opacity:1;" d="M 538.835938 466.476562 C 539.503906 467.941406 540.238281 469.359375 539.902344 471.03125 C 539.617188 472.464844 538.742188 473.753906 537.421875 474.457031 C 533.652344 476.480469 530.726562 472.832031 528.214844 470.523438 C 525.175781 467.734375 522.15625 464.914062 519.148438 462.078125 C 506.777344 450.417969 494.625 438.503906 482.171875 426.921875 C 469.941406 415.546875 457.441406 404.382812 444.066406 394.347656 C 441.15625 392.164062 438.199219 390.078125 435.242188 387.972656 C 434.558594 387.480469 433.824219 386.667969 432.933594 387.082031 C 432.21875 387.417969 431.632812 388.578125 431.136719 389.199219 C 429.707031 390.953125 428.257812 392.6875 426.796875 394.410156 C 421.199219 401.085938 415.488281 407.679688 409.683594 414.179688 C 397.945312 427.335938 385.84375 440.144531 373.519531 452.742188 C 367.378906 459.019531 361.195312 465.234375 354.960938 471.414062 C 351.777344 474.566406 348.597656 477.722656 345.402344 480.859375 C 344.511719 481.734375 343.621094 482.613281 342.730469 483.488281 C 342.09375 484.109375 341.425781 485.015625 340.644531 485.449219 C 339.566406 486.019531 338.515625 485.621094 337.433594 485.351562 C 336.496094 485.113281 335.589844 484.046875 335.683594 483.042969 C 336.605469 473.4375 339.007812 463.941406 341.457031 454.640625 C 347.085938 433.292969 353.972656 412.28125 361.082031 391.398438 C 364.707031 380.773438 368.398438 370.164062 372.261719 359.621094 C 366.09375 356.226562 359.90625 352.832031 353.71875 349.472656 C 329.992188 336.570312 306.121094 323.9375 282.105469 311.558594 C 280.785156 310.875 280.671875 309.550781 281.214844 308.53125 C 280.753906 307.324219 281.117188 305.839844 282.742188 305.507812 C 291.375 303.707031 299.933594 301.585938 308.472656 299.390625 C 325.300781 295.054688 342.046875 290.375 358.746094 285.578125 C 366.726562 283.285156 374.710938 280.957031 382.679688 278.570312 C 391.953125 261.8125 401.222656 245.054688 410.480469 228.3125 C 412.515625 224.632812 414.550781 220.953125 416.585938 217.273438 C 418.289062 214.214844 419.957031 210.453125 424.140625 211.105469 C 426.636719 211.503906 427.796875 213.320312 428.976562 215.265625 C 432.25 220.679688 435.527344 226.113281 438.820312 231.527344 C 445.261719 242.171875 451.683594 252.828125 458.125 263.46875 C 459.71875 266.113281 455.597656 268.5 454.007812 265.875 C 453.878906 265.667969 453.753906 265.460938 453.625 265.253906 C 447.25 255.089844 441.203125 244.703125 434.988281 234.429688 C 431.886719 229.300781 428.785156 224.152344 425.667969 219.023438 C 425.160156 218.179688 424.648438 216.824219 423.917969 216.140625 C 422.535156 214.820312 421.085938 218.976562 420.5 220.027344 C 418.652344 223.355469 416.808594 226.703125 414.964844 230.03125 C 407.648438 243.253906 400.332031 256.492188 393.015625 269.710938 C 391.171875 273.042969 389.328125 276.386719 387.484375 279.714844 C 386.734375 281.070312 386.242188 282.425781 384.714844 282.949219 C 383.570312 283.347656 382.378906 283.652344 381.199219 284 C 366.777344 288.269531 352.320312 292.429688 337.832031 296.457031 C 321.324219 301.046875 304.75 305.617188 287.988281 309.265625 C 293.652344 312.195312 299.328125 315.128906 304.972656 318.089844 C 328.910156 330.628906 352.703125 343.417969 376.367188 356.464844 C 377.226562 356.941406 377.8125 358.203125 377.464844 359.15625 C 376.015625 363.074219 374.617188 367.011719 373.21875 370.945312 C 366.570312 389.648438 360.191406 408.460938 354.308594 427.414062 C 351.0625 437.867188 347.945312 448.363281 345.242188 458.972656 C 343.605469 465.359375 341.964844 472.019531 340.996094 478.519531 C 342.9375 476.605469 344.875 474.710938 346.800781 472.800781 C 371.230469 448.648438 395.210938 424.023438 417.589844 397.929688 C 420.355469 394.695312 423.105469 391.445312 425.828125 388.164062 C 428.085938 385.457031 430.328125 381.507812 434.445312 382.269531 C 436.289062 382.621094 437.753906 383.929688 439.25 384.996094 C 440.503906 385.871094 441.746094 386.761719 442.984375 387.65625 C 446.152344 389.949219 449.269531 392.324219 452.351562 394.726562 C 465.21875 404.828125 477.355469 415.820312 489.28125 427.019531 C 501.367188 438.375 513.234375 449.972656 525.335938 461.3125 C 528.246094 464.039062 531.15625 466.746094 534.097656 469.421875 C 534.335938 469.628906 534.796875 470.203125 535.085938 470.265625 C 535.085938 470.265625 534.972656 470.664062 535.132812 470.296875 C 535.324219 469.867188 534.941406 469.359375 534.734375 468.898438 C 534.304688 467.941406 533.859375 466.984375 533.429688 466.03125 C 531.316406 461.363281 529.183594 456.695312 527.070312 452.027344 C 517.558594 431.03125 508.046875 410.035156 498.554688 389.027344 C 493.464844 377.777344 488.390625 366.53125 483.316406 355.285156 C 482.90625 354.363281 482.824219 353.121094 483.683594 352.386719 C 507.492188 332.316406 530.582031 311.433594 554.105469 291.042969 C 533.9375 289.992188 513.917969 288.09375 493.957031 284.828125 C 490.9375 284.335938 492.222656 279.730469 495.230469 280.226562 C 516.476562 283.699219 537.820312 285.5625 559.304688 286.519531 C 560.101562 286.550781 561.007812 286.933594 561.371094 287.695312 C 561.453125 287.871094 561.546875 288.046875 561.628906 288.222656 C 562.058594 289.128906 562.105469 290.390625 561.261719 291.121094 C 536.832031 312.195312 512.929688 333.859375 488.296875 354.695312 C 490.425781 359.09375 492.304688 363.632812 494.308594 368.078125 C 498.457031 377.269531 502.609375 386.476562 506.777344 395.667969 C 516.476562 417.125 526.179688 438.582031 535.910156 460.007812 C 536.898438 462.175781 537.867188 464.324219 538.835938 466.476562 Z M 388.515625 330.46875 C 388.355469 330.46875 388.5 330.546875 389.214844 330.675781 C 389.199219 330.660156 389.183594 330.660156 389.152344 330.660156 C 388.945312 330.59375 388.738281 330.546875 388.515625 330.46875 Z M 427.71875 327.472656 C 427.496094 327.777344 427.179688 328.175781 427.160156 328.207031 C 426.605469 328.921875 426.066406 329.640625 425.507812 330.355469 C 424.523438 331.632812 423.535156 332.90625 422.550781 334.179688 C 421.960938 334.945312 421.375 335.707031 420.785156 336.457031 C 418.828125 334.609375 416.808594 332.808594 414.773438 331.074219 C 407.617188 324.941406 397.023438 317.308594 387.816406 314.648438 C 384.222656 313.613281 382.457031 317.183594 381.613281 320.925781 C 380.738281 324.75 379.195312 326.277344 383.046875 327.394531 C 383.648438 327.570312 387.878906 330.246094 388.53125 330.46875 C 388.644531 330.46875 388.882812 330.53125 389.167969 330.644531 C 389.230469 330.660156 389.296875 330.675781 389.34375 330.691406 C 389.296875 330.691406 389.265625 330.675781 389.230469 330.675781 C 389.246094 330.675781 389.246094 330.675781 389.265625 330.691406 C 389.675781 330.882812 390.089844 331.089844 390.488281 331.296875 C 392.347656 332.253906 394.160156 333.351562 395.894531 334.515625 C 396.882812 335.167969 397.851562 335.851562 398.804688 336.539062 C 399.21875 336.839844 399.632812 337.144531 400.03125 337.445312 C 400.207031 337.574219 400.363281 337.699219 400.492188 337.78125 C 402.210938 338.972656 403.800781 340.472656 405.375 341.84375 C 409.191406 345.15625 412.898438 348.628906 416.347656 352.308594 C 418.75 354.886719 424.140625 355.300781 426.460938 352.308594 C 450.539062 321.261719 474.492188 290.214844 494.945312 256.617188 C 501.335938 246.121094 507.476562 235.449219 513.472656 224.726562 C 515.300781 221.460938 510.527344 219.328125 507.0625 217.496094 C 503.691406 215.710938 503.054688 214.007812 501.097656 217.496094 C 491.160156 235.289062 480.820312 252.859375 469.609375 269.871094 C 459.636719 284.988281 448.964844 299.597656 438.023438 314.011719 C 434.621094 318.503906 431.167969 322.996094 427.71875 327.472656 Z M 268.460938 286.917969 C 258.710938 294.960938 254.925781 309.425781 259.523438 321.214844 C 260.617188 324.046875 265.230469 322.820312 264.117188 319.9375 C 260.09375 309.550781 263.257812 297.367188 271.832031 290.292969 C 272.832031 289.464844 272.675781 287.777344 271.832031 286.917969 C 270.859375 285.914062 269.445312 286.089844 268.460938 286.917969 Z M 561.929688 452.074219 C 561.453125 449.046875 556.855469 450.339844 557.332031 453.347656 C 559.671875 468.257812 555.027344 483.980469 545.054688 495.277344 C 543.019531 497.570312 546.390625 500.964844 548.425781 498.652344 C 559.625 485.972656 564.554688 468.785156 561.929688 452.074219 Z M 561.929688 452.074219 "/>
</g>
</svg>
