<?xml version="1.0" encoding="UTF-8"?>
<svg xmlns="http://www.w3.org/2000/svg" xmlns:xlink="http://www.w3.org/1999/xlink" width="810pt" height="809.999993pt" viewBox="0 0 810 809.999993" version="1.2">
<defs>
<clipPath id="clip1">
  <path d="M 231.828125 187.460938 L 561 187.460938 L 561 610.640625 L 231.828125 610.640625 Z M 231.828125 187.460938 "/>
</clipPath>
</defs>
<g id="surface1">
<rect x="0" y="0" width="810" height="809.999993" style="fill:rgb(100%,100%,100%);fill-opacity:1;stroke:none;"/>
<rect x="0" y="0" width="810" height="809.999993" style="fill:rgb(100%,100%,100%);fill-opacity:1;stroke:none;"/>
<rect x="0" y="0" width="810" height="809.999993" style="fill:rgb(100%,100%,100%);fill-opacity:1;stroke:none;"/>
<path style=" stroke:none;fill-rule:nonzero;fill:rgb(78.039551%,81.568909%,84.709167%);fill-opacity:1;" d="M 194.617188 714.414062 C 162.730469 714.414062 136.851562 686.699219 136.851562 657.140625 L 136.851562 140.613281 C 136.851562 132.296875 138.703125 123.984375 141.9375 116.59375 C 131.769531 126.292969 125.761719 139.6875 125.761719 154.699219 L 125.761719 670.996094 C 125.761719 700.09375 149.792969 724.113281 178.90625 724.113281 L 612.691406 724.113281 C 626.09375 724.113281 638.109375 719.03125 647.351562 711.179688 C 641.34375 713.488281 634.875 714.414062 628.402344 714.414062 Z M 194.617188 714.414062 "/>
<path style=" stroke:none;fill-rule:nonzero;fill:rgb(96.078491%,96.469116%,96.859741%);fill-opacity:1;" d="M 141.472656 140.613281 L 141.472656 656.214844 C 141.472656 685.3125 165.503906 709.332031 194.617188 709.332031 L 628.402344 709.332031 C 657.515625 709.332031 681.546875 685.3125 681.546875 656.214844 L 681.546875 140.613281 C 681.546875 111.511719 657.515625 87.496094 628.402344 87.496094 L 194.617188 87.496094 C 165.042969 87.496094 141.472656 111.511719 141.472656 140.613281 Z M 141.472656 140.613281 "/>
<path style=" stroke:none;fill-rule:nonzero;fill:rgb(65.098572%,65.098572%,65.098572%);fill-opacity:1;" d="M 658.902344 705.175781 C 675.078125 695.015625 686.167969 677 686.167969 656.214844 L 686.167969 140.613281 C 686.167969 108.742188 660.289062 82.875 628.402344 82.875 L 194.617188 82.875 C 175.671875 82.875 159.035156 92.113281 148.40625 105.972656 C 132.230469 116.132812 121.140625 134.144531 121.140625 155.195312 L 121.140625 670.535156 C 121.140625 702.402344 147.019531 728.269531 178.90625 728.269531 L 612.691406 728.269531 C 631.640625 728.269531 648.273438 719.03125 658.902344 705.175781 Z M 194.617188 87.496094 L 628.402344 87.496094 C 657.515625 87.496094 681.546875 111.511719 681.546875 140.613281 L 681.546875 656.214844 C 681.546875 685.3125 657.515625 709.332031 628.402344 709.332031 L 194.617188 709.332031 C 165.503906 709.332031 141.472656 685.3125 141.472656 656.214844 L 141.472656 140.613281 C 141.472656 111.511719 165.042969 87.496094 194.617188 87.496094 Z M 178.90625 724.113281 C 149.792969 724.113281 125.761719 699.632812 125.761719 670.535156 L 125.761719 155.195312 C 125.761719 140.148438 131.769531 126.753906 141.9375 117.054688 C 138.703125 124.445312 136.851562 132.296875 136.851562 141.074219 L 136.851562 656.675781 C 136.851562 688.546875 162.730469 714.414062 194.617188 714.414062 L 628.402344 714.414062 C 634.875 714.414062 641.34375 713.027344 647.351562 711.179688 C 638.109375 719.03125 626.09375 724.113281 612.691406 724.113281 Z M 178.90625 724.113281 "/>
<path style=" stroke:none;fill-rule:nonzero;fill:rgb(59.21936%,92.939758%,66.668701%);fill-opacity:1;" d="M 285.324219 557.761719 L 298.382812 557.761719 L 298.382812 488.984375 L 285.324219 488.984375 Z M 303.085938 567.207031 L 280.617188 567.207031 C 278.015625 567.207031 275.914062 565.089844 275.914062 562.484375 L 275.914062 484.261719 C 275.914062 481.648438 278.015625 479.539062 280.617188 479.539062 L 303.085938 479.539062 C 305.6875 479.539062 307.789062 481.648438 307.789062 484.261719 L 307.789062 562.484375 C 307.789062 565.089844 305.6875 567.207031 303.085938 567.207031 "/>
<path style=" stroke:none;fill-rule:nonzero;fill:rgb(59.21936%,92.939758%,66.668701%);fill-opacity:1;" d="M 322.621094 557.761719 L 335.691406 557.761719 L 335.691406 509.695312 L 322.621094 509.695312 Z M 340.394531 567.207031 L 317.917969 567.207031 C 315.316406 567.207031 313.214844 565.089844 313.214844 562.484375 L 313.214844 504.972656 C 313.214844 502.363281 315.316406 500.253906 317.917969 500.253906 L 340.394531 500.253906 C 342.988281 500.253906 345.097656 502.363281 345.097656 504.972656 L 345.097656 562.484375 C 345.097656 565.089844 342.988281 567.207031 340.394531 567.207031 "/>
<path style=" stroke:none;fill-rule:nonzero;fill:rgb(59.21936%,92.939758%,66.668701%);fill-opacity:1;" d="M 359.921875 557.761719 L 372.988281 557.761719 L 372.988281 529.296875 L 359.921875 529.296875 Z M 377.695312 567.207031 L 355.21875 567.207031 C 352.625 567.207031 350.515625 565.089844 350.515625 562.484375 L 350.515625 524.574219 C 350.515625 521.96875 352.625 519.851562 355.21875 519.851562 L 377.695312 519.851562 C 380.289062 519.851562 382.398438 521.96875 382.398438 524.574219 L 382.398438 562.484375 C 382.398438 565.089844 380.289062 567.207031 377.695312 567.207031 "/>
<path style=" stroke:none;fill-rule:nonzero;fill:rgb(59.21936%,92.939758%,66.668701%);fill-opacity:1;" d="M 326.765625 335.382812 L 326.765625 302.953125 L 358.570312 302.953125 C 356.695312 319.804688 343.472656 333.226562 326.765625 335.382812 Z M 285.566406 302.953125 L 317.359375 302.953125 L 317.359375 335.382812 C 300.660156 333.226562 287.445312 319.804688 285.566406 302.953125 Z M 317.359375 262.28125 L 317.359375 293.507812 L 285.75 293.507812 C 288.109375 277.230469 301.066406 264.382812 317.359375 262.28125 Z M 358.386719 293.507812 L 326.765625 293.507812 L 326.765625 262.28125 C 343.070312 264.382812 356.027344 277.230469 358.386719 293.507812 Z M 322.09375 252.496094 C 322.085938 252.496094 322.070312 252.496094 322.0625 252.496094 C 322.054688 252.496094 322.046875 252.496094 322.042969 252.496094 C 296.605469 252.511719 275.914062 273.289062 275.914062 298.828125 C 275.914062 324.378906 296.617188 345.164062 322.0625 345.164062 C 347.515625 345.164062 368.21875 324.378906 368.21875 298.828125 C 368.21875 273.289062 347.53125 252.511719 322.09375 252.496094 "/>
<path style=" stroke:none;fill-rule:nonzero;fill:rgb(59.21936%,92.939758%,66.668701%);fill-opacity:1;" d="M 280.609375 458.363281 C 279.75 458.363281 278.882812 458.125 278.105469 457.632812 C 275.90625 456.238281 275.253906 453.324219 276.640625 451.117188 L 296.867188 419.003906 C 297.730469 417.632812 299.234375 416.804688 300.84375 416.804688 L 319.570312 416.804688 L 334.269531 387.304688 C 335.066406 385.703125 336.695312 384.695312 338.476562 384.695312 L 361.523438 384.695312 C 364.125 384.695312 366.226562 386.804688 366.226562 389.414062 C 366.226562 392.019531 364.125 394.136719 361.523438 394.136719 L 341.386719 394.136719 L 326.6875 423.636719 C 325.894531 425.238281 324.261719 426.25 322.480469 426.25 L 303.4375 426.25 L 284.59375 456.164062 C 283.699219 457.582031 282.167969 458.363281 280.609375 458.363281 "/>
<path style=" stroke:none;fill-rule:nonzero;fill:rgb(59.21936%,92.939758%,66.668701%);fill-opacity:1;" d="M 348.039062 410.886719 C 346.691406 410.886719 345.363281 410.3125 344.429688 409.207031 C 342.761719 407.207031 343.015625 404.226562 345.007812 402.550781 L 361.289062 388.832031 L 344.621094 375.609375 C 342.578125 373.988281 342.230469 371.019531 343.839844 368.976562 C 345.449219 366.933594 348.414062 366.578125 350.449219 368.203125 L 371.652344 385.019531 C 372.761719 385.894531 373.414062 387.230469 373.4375 388.65625 C 373.460938 390.074219 372.84375 391.429688 371.753906 392.335938 L 351.058594 409.78125 C 350.175781 410.527344 349.101562 410.886719 348.039062 410.886719 "/>
<path style=" stroke:none;fill-rule:nonzero;fill:rgb(32.939148%,32.939148%,32.939148%);fill-opacity:1;" d="M 507.59375 275.921875 L 409.753906 275.921875 C 407.152344 275.921875 405.050781 273.8125 405.050781 271.199219 C 405.050781 268.597656 407.152344 266.476562 409.753906 266.476562 L 507.59375 266.476562 C 510.1875 266.476562 512.296875 268.597656 512.296875 271.199219 C 512.296875 273.8125 510.1875 275.921875 507.59375 275.921875 "/>
<path style=" stroke:none;fill-rule:nonzero;fill:rgb(32.939148%,32.939148%,32.939148%);fill-opacity:1;" d="M 507.59375 303.550781 L 409.753906 303.550781 C 407.152344 303.550781 405.050781 301.4375 405.050781 298.828125 C 405.050781 296.222656 407.152344 294.105469 409.753906 294.105469 L 507.59375 294.105469 C 510.1875 294.105469 512.296875 296.222656 512.296875 298.828125 C 512.296875 301.4375 510.1875 303.550781 507.59375 303.550781 "/>
<path style=" stroke:none;fill-rule:nonzero;fill:rgb(32.939148%,32.939148%,32.939148%);fill-opacity:1;" d="M 507.59375 331.175781 L 409.753906 331.175781 C 407.152344 331.175781 405.050781 329.066406 405.050781 326.453125 C 405.050781 323.847656 407.152344 321.730469 409.753906 321.730469 L 507.59375 321.730469 C 510.1875 321.730469 512.296875 323.847656 512.296875 326.453125 C 512.296875 329.066406 510.1875 331.175781 507.59375 331.175781 "/>
<path style=" stroke:none;fill-rule:nonzero;fill:rgb(32.939148%,32.939148%,32.939148%);fill-opacity:1;" d="M 507.59375 389.867188 L 409.753906 389.867188 C 407.152344 389.867188 405.050781 387.753906 405.050781 385.144531 C 405.050781 382.539062 407.152344 380.421875 409.753906 380.421875 L 507.59375 380.421875 C 510.1875 380.421875 512.296875 382.539062 512.296875 385.144531 C 512.296875 387.753906 510.1875 389.867188 507.59375 389.867188 "/>
<path style=" stroke:none;fill-rule:nonzero;fill:rgb(32.939148%,32.939148%,32.939148%);fill-opacity:1;" d="M 507.59375 417.492188 L 409.753906 417.492188 C 407.152344 417.492188 405.050781 415.382812 405.050781 412.769531 C 405.050781 410.164062 407.152344 408.046875 409.753906 408.046875 L 507.59375 408.046875 C 510.1875 408.046875 512.296875 410.164062 512.296875 412.769531 C 512.296875 415.382812 510.1875 417.492188 507.59375 417.492188 "/>
<path style=" stroke:none;fill-rule:nonzero;fill:rgb(32.939148%,32.939148%,32.939148%);fill-opacity:1;" d="M 507.59375 445.117188 L 409.753906 445.117188 C 407.152344 445.117188 405.050781 443.007812 405.050781 440.394531 C 405.050781 437.789062 407.152344 435.671875 409.753906 435.671875 L 507.59375 435.671875 C 510.1875 435.671875 512.296875 437.789062 512.296875 440.394531 C 512.296875 443.007812 510.1875 445.117188 507.59375 445.117188 "/>
<path style=" stroke:none;fill-rule:nonzero;fill:rgb(32.939148%,32.939148%,32.939148%);fill-opacity:1;" d="M 507.59375 511.953125 L 409.753906 511.953125 C 407.152344 511.953125 405.050781 509.835938 405.050781 507.234375 C 405.050781 504.621094 407.152344 502.511719 409.753906 502.511719 L 507.59375 502.511719 C 510.1875 502.511719 512.296875 504.621094 512.296875 507.234375 C 512.296875 509.835938 510.1875 511.953125 507.59375 511.953125 "/>
<path style=" stroke:none;fill-rule:nonzero;fill:rgb(32.939148%,32.939148%,32.939148%);fill-opacity:1;" d="M 507.59375 539.582031 L 409.753906 539.582031 C 407.152344 539.582031 405.050781 537.464844 405.050781 534.859375 C 405.050781 532.246094 407.152344 530.136719 409.753906 530.136719 L 507.59375 530.136719 C 510.1875 530.136719 512.296875 532.246094 512.296875 534.859375 C 512.296875 537.464844 510.1875 539.582031 507.59375 539.582031 "/>
<path style=" stroke:none;fill-rule:nonzero;fill:rgb(32.939148%,32.939148%,32.939148%);fill-opacity:1;" d="M 507.59375 567.207031 L 409.753906 567.207031 C 407.152344 567.207031 405.050781 565.089844 405.050781 562.484375 C 405.050781 559.871094 407.152344 557.761719 409.753906 557.761719 L 507.59375 557.761719 C 510.1875 557.761719 512.296875 559.871094 512.296875 562.484375 C 512.296875 565.089844 510.1875 567.207031 507.59375 567.207031 "/>
<g clip-path="url(#clip1)" clip-rule="nonzero">
<path style=" stroke:none;fill-rule:nonzero;fill:rgb(32.939148%,32.939148%,32.939148%);fill-opacity:1;" d="M 544.882812 610.632812 L 247.191406 610.632812 C 238.71875 610.632812 231.824219 603.703125 231.824219 595.195312 L 231.824219 203.09375 C 231.824219 194.585938 238.71875 187.664062 247.191406 187.664062 L 490.054688 187.664062 C 497.164062 187.664062 506.578125 191.703125 511.496094 196.851562 L 551.574219 238.835938 C 556.445312 243.9375 560.261719 253.476562 560.261719 260.546875 L 560.261719 368.4375 C 560.261719 371.042969 558.152344 373.160156 555.554688 373.160156 C 552.953125 373.160156 550.851562 371.042969 550.851562 368.4375 L 550.851562 260.546875 C 550.851562 255.84375 548.015625 248.761719 544.78125 245.367188 L 504.703125 203.390625 C 501.515625 200.039062 494.664062 197.109375 490.054688 197.109375 L 247.191406 197.109375 C 243.90625 197.109375 241.230469 199.796875 241.230469 203.09375 L 241.230469 595.195312 C 241.230469 598.5 243.90625 601.1875 247.191406 601.1875 L 544.882812 601.1875 C 548.175781 601.1875 550.851562 598.5 550.851562 595.195312 L 550.851562 451.550781 C 550.851562 448.941406 552.953125 446.828125 555.554688 446.828125 C 558.152344 446.828125 560.261719 448.941406 560.261719 451.550781 L 560.261719 595.195312 C 560.261719 603.703125 553.359375 610.632812 544.882812 610.632812 "/>
</g>
<path style=" stroke:none;fill-rule:nonzero;fill:rgb(32.939148%,32.939148%,32.939148%);fill-opacity:1;" d="M 507.804688 207 L 507.804688 240.484375 C 507.804688 243.78125 510.480469 246.46875 513.765625 246.46875 L 544.695312 246.46875 Z M 544.882812 255.910156 L 513.765625 255.910156 C 505.292969 255.910156 498.398438 248.992188 498.398438 240.484375 L 498.398438 205.773438 C 498.398438 198.277344 502.558594 195.621094 506.121094 195.621094 C 508.738281 195.621094 511.332031 196.96875 513.832031 199.640625 L 551.683594 240.152344 C 556.144531 244.917969 555.425781 248.851562 554.59375 250.769531 C 553.769531 252.6875 551.402344 255.910156 544.882812 255.910156 "/>
<path style=" stroke:none;fill-rule:nonzero;fill:rgb(59.21936%,92.939758%,66.668701%);fill-opacity:1;" d="M 542.128906 466.566406 L 520.476562 456.53125 L 613.53125 254.246094 L 635.183594 264.28125 Z M 521.3125 483.171875 L 519.941406 466.886719 L 534.5 473.636719 Z M 626.582031 240.816406 C 628.320312 240.816406 630.230469 241.292969 632.257812 242.230469 C 635.476562 243.730469 637.492188 245.722656 638.410156 248.332031 C 639.253906 250.746094 639.078125 253.351562 638.636719 255.484375 L 629.964844 251.457031 L 617.890625 245.863281 C 619.710938 243.457031 622.609375 240.816406 626.582031 240.816406 Z M 647.308594 245.277344 C 645.539062 240.164062 641.804688 236.253906 636.199219 233.65625 C 632.925781 232.136719 629.691406 231.371094 626.582031 231.371094 C 613.414062 231.371094 607.578125 244.519531 606.929688 246.070312 L 509.964844 456.859375 C 509.445312 457.992188 509.394531 459.292969 509.820312 460.464844 C 509.863281 460.589844 509.9375 460.695312 509.980469 460.804688 L 512.632812 492.261719 C 512.78125 493.957031 513.816406 495.449219 515.359375 496.15625 C 515.984375 496.445312 516.65625 496.59375 517.324219 496.59375 C 518.292969 496.59375 519.257812 496.289062 520.070312 495.699219 L 545.371094 477.421875 C 546.78125 477.128906 548.046875 476.226562 548.699219 474.808594 L 645.65625 264.027344 C 646.082031 263.15625 650.367188 254.097656 647.308594 245.277344 "/>
</g>
</svg>
