<?xml version="1.0" encoding="UTF-8"?>
<svg xmlns="http://www.w3.org/2000/svg" xmlns:xlink="http://www.w3.org/1999/xlink" width="1230pt" height="693.000001pt" viewBox="0 0 1230 693.000001" version="1.2">
<defs>
<clipPath id="clip1">
  <path d="M 0.886719 0 L 1229.113281 0 L 1229.113281 692 L 0.886719 692 Z M 0.886719 0 "/>
</clipPath>
<clipPath id="clip2">
  <path d="M 0.886719 293 L 1229.113281 293 L 1229.113281 692 L 0.886719 692 Z M 0.886719 293 "/>
</clipPath>
<filter id="alpha" filterUnits="objectBoundingBox" x="0%" y="0%" width="100%" height="100%">
  <feColorMatrix type="matrix" in="SourceGraphic" values="0 0 0 0 1 0 0 0 0 1 0 0 0 0 1 0 0 0 1 0"/>
</filter>
<mask id="mask0">
  <g filter="url(#alpha)">
<rect x="0" y="0" width="1230" height="693.000001" style="fill:rgb(0%,0%,0%);fill-opacity:0.4471;stroke:none;"/>
  </g>
</mask>
<clipPath id="clip4">
  <path d="M 0.886719 56 L 1229.113281 56 L 1229.113281 399 L 0.886719 399 Z M 0.886719 56 "/>
</clipPath>
<clipPath id="clip5">
  <path d="M -114.753906 181.066406 L 1269.117188 9.324219 L 1393.632812 1012.667969 L 9.761719 1184.410156 Z M -114.753906 181.066406 "/>
</clipPath>
<clipPath id="clip6">
  <path d="M -114.753906 181.066406 L 1269.117188 9.324219 L 1393.632812 1012.667969 L 9.761719 1184.410156 Z M -114.753906 181.066406 "/>
</clipPath>
<clipPath id="clip3">
  <rect x="0" y="0" width="1230" height="399"/>
</clipPath>
<g id="surface5" clip-path="url(#clip3)">
<g clip-path="url(#clip4)" clip-rule="nonzero">
<g clip-path="url(#clip5)" clip-rule="nonzero">
<g clip-path="url(#clip6)" clip-rule="nonzero">
<path style=" stroke:none;fill-rule:evenodd;fill:rgb(100%,94.509888%,36.079407%);fill-opacity:1;" d="M 878.0625 59.789062 C 952.246094 49.949219 1018.539062 64.046875 1084.195312 83.617188 C 1142.742188 101.078125 1193.640625 131.5625 1237.957031 173.402344 C 1285.511719 218.304688 1300.964844 272.648438 1282.113281 334.898438 C 1273.289062 364.101562 1260.171875 392.167969 1247.121094 419.867188 C 1234.074219 447.476562 1223.558594 475.671875 1228.78125 506.222656 C 1234.066406 537.101562 1242.566406 567.46875 1250.234375 597.914062 C 1257.34375 626.167969 1267.761719 653.835938 1272.207031 682.457031 C 1286.058594 771.738281 1264.46875 853.179688 1213.34375 927.351562 C 1157.382812 1008.621094 1079.375 1051.523438 981.945312 1059.042969 C 963.070312 1060.503906 942.621094 1057.625 924.589844 1051.585938 C 894.902344 1041.617188 865.480469 1029.601562 838.003906 1014.632812 C 783.691406 985.058594 726.667969 967.171875 664.757812 966.65625 C 633.984375 966.386719 603.6875 970.035156 574.378906 980.65625 C 518.222656 1000.96875 460.589844 1013.414062 400.621094 1005.425781 C 349.367188 998.589844 302.195312 980.511719 260.480469 949.011719 C 230.113281 926.082031 218.699219 895.652344 221.589844 858.675781 C 225.015625 814.703125 228.464844 770.726562 231.652344 726.746094 C 233.824219 696.269531 227.089844 667.136719 216.835938 638.777344 C 210.605469 621.597656 198.898438 608.960938 180.859375 604.5625 C 163.492188 600.371094 145.773438 596.878906 128.007812 594.96875 C 93.691406 591.277344 59.453125 587.773438 27.507812 573.449219 C -17.109375 553.425781 -52.226562 524.015625 -70.34375 476.75 C -82.300781 445.59375 -81.882812 414.195312 -69.394531 384.691406 C -31.84375 295.925781 30.195312 230.984375 121.773438 196.648438 C 154.632812 184.320312 188.082031 185.832031 221.269531 194.066406 C 249.570312 201.0625 277.628906 209.3125 305.40625 218.1875 C 350.960938 232.761719 396.671875 240.296875 444.671875 231.929688 C 480.746094 225.652344 513.058594 210.535156 545.503906 195.140625 C 617.101562 161.167969 688.253906 126.222656 760.351562 93.28125 C 799.199219 75.550781 840.210938 63.527344 878.0625 59.789062 Z M 878.0625 59.789062 "/>
</g>
</g>
</g>
</g>
<clipPath id="clip7">
  <path d="M 0.886719 319 L 1229.113281 319 L 1229.113281 692 L 0.886719 692 Z M 0.886719 319 "/>
</clipPath>
<mask id="mask1">
  <g filter="url(#alpha)">
<rect x="0" y="0" width="1230" height="693.000001" style="fill:rgb(0%,0%,0%);fill-opacity:0.4471;stroke:none;"/>
  </g>
</mask>
<clipPath id="clip9">
  <path d="M 0.886719 55 L 1229.113281 55 L 1229.113281 373 L 0.886719 373 Z M 0.886719 55 "/>
</clipPath>
<clipPath id="clip10">
  <path d="M -121.894531 178.359375 L 1231.359375 9.222656 L 1353.960938 990.167969 L 0.707031 1159.300781 Z M -121.894531 178.359375 "/>
</clipPath>
<clipPath id="clip11">
  <path d="M -121.894531 178.359375 L 1231.359375 9.222656 L 1353.960938 990.167969 L 0.707031 1159.300781 Z M -121.894531 178.359375 "/>
</clipPath>
<clipPath id="clip8">
  <rect x="0" y="0" width="1230" height="373"/>
</clipPath>
<g id="surface8" clip-path="url(#clip8)">
<g clip-path="url(#clip9)" clip-rule="nonzero">
<g clip-path="url(#clip10)" clip-rule="nonzero">
<g clip-path="url(#clip11)" clip-rule="nonzero">
<path style=" stroke:none;fill-rule:evenodd;fill:rgb(99.21875%,79.998779%,46.269226%);fill-opacity:1;" d="M 848.957031 58.910156 C 921.5 49.222656 986.34375 62.953125 1050.570312 82.03125 C 1107.84375 99.050781 1157.644531 128.816406 1201.019531 169.6875 C 1247.5625 213.550781 1262.71875 266.671875 1244.335938 327.554688 C 1235.730469 356.113281 1222.925781 383.570312 1210.1875 410.664062 C 1197.449219 437.675781 1187.1875 465.25 1192.320312 495.117188 C 1197.511719 525.304688 1205.851562 554.988281 1213.375 584.75 C 1220.351562 612.371094 1230.5625 639.417969 1234.933594 667.398438 C 1248.554688 754.683594 1227.507812 834.332031 1177.570312 906.902344 C 1122.90625 986.414062 1046.652344 1028.433594 951.375 1035.871094 C 932.914062 1037.3125 912.917969 1034.515625 895.277344 1028.628906 C 866.234375 1018.90625 837.449219 1007.183594 810.566406 992.574219 C 757.425781 963.699219 701.644531 946.261719 641.097656 945.8125 C 611.003906 945.574219 581.375 949.167969 552.722656 959.578125 C 497.816406 979.488281 441.464844 991.707031 382.808594 983.949219 C 332.675781 977.3125 286.53125 959.679688 245.707031 928.914062 C 215.992188 906.519531 204.800781 876.777344 207.597656 840.621094 C 210.914062 797.621094 214.25 754.617188 217.332031 711.609375 C 219.429688 681.8125 212.820312 653.332031 202.769531 625.609375 C 196.660156 608.816406 185.203125 596.472656 167.554688 592.1875 C 150.566406 588.101562 133.238281 584.703125 115.863281 582.855469 C 82.300781 579.273438 48.808594 575.878906 17.558594 561.898438 C -26.089844 542.363281 -60.464844 513.632812 -78.21875 467.4375 C -89.9375 436.980469 -89.558594 406.28125 -77.367188 377.417969 C -40.714844 290.59375 19.902344 227.042969 109.4375 193.386719 C 141.5625 181.304688 174.277344 182.757812 206.738281 190.777344 C 234.425781 197.597656 261.871094 205.636719 289.042969 214.292969 C 333.605469 228.503906 378.320312 235.828125 425.253906 227.605469 C 460.527344 221.4375 492.117188 206.625 523.832031 191.542969 C 593.824219 158.265625 663.382812 124.03125 733.867188 91.761719 C 771.84375 74.390625 811.941406 62.601562 848.957031 58.910156 Z M 848.957031 58.910156 "/>
</g>
</g>
</g>
</g>
<clipPath id="clip12">
  <path d="M 0.886719 386 L 1229.113281 386 L 1229.113281 692 L 0.886719 692 Z M 0.886719 386 "/>
</clipPath>
<clipPath id="clip13">
  <path d="M -88.332031 471.191406 L 1231.171875 352.4375 L 1317.234375 1308.683594 L -2.269531 1427.441406 Z M -88.332031 471.191406 "/>
</clipPath>
<clipPath id="clip14">
  <path d="M -88.332031 471.191406 L 1231.171875 352.4375 L 1317.234375 1308.683594 L -2.269531 1427.441406 Z M -88.332031 471.191406 "/>
</clipPath>
<clipPath id="clip15">
  <path d="M 0.886719 554 L 1229.113281 554 L 1229.113281 692 L 0.886719 692 Z M 0.886719 554 "/>
</clipPath>
</defs>
<g id="surface1">
<g clip-path="url(#clip1)" clip-rule="nonzero">
<path style=" stroke:none;fill-rule:nonzero;fill:rgb(100%,100%,100%);fill-opacity:1;" d="M 0.886719 0 L 1229.113281 0 L 1229.113281 699.492188 L 0.886719 699.492188 Z M 0.886719 0 "/>
<path style=" stroke:none;fill-rule:nonzero;fill:rgb(100%,100%,100%);fill-opacity:1;" d="M 0.886719 0 L 1229.113281 0 L 1229.113281 692 L 0.886719 692 Z M 0.886719 0 "/>
<path style=" stroke:none;fill-rule:nonzero;fill:rgb(100%,100%,100%);fill-opacity:1;" d="M 0.886719 0 L 1229.113281 0 L 1229.113281 692 L 0.886719 692 Z M 0.886719 0 "/>
</g>
<g clip-path="url(#clip2)" clip-rule="nonzero">
<use xlink:href="#surface5" transform="matrix(1,0,0,1,0,293)" mask="url(#mask0)"/>
</g>
<g clip-path="url(#clip7)" clip-rule="nonzero">
<use xlink:href="#surface8" transform="matrix(1,0,0,1,0,319)" mask="url(#mask1)"/>
</g>
<g clip-path="url(#clip12)" clip-rule="nonzero">
<g clip-path="url(#clip13)" clip-rule="nonzero">
<g clip-path="url(#clip14)" clip-rule="nonzero">
<path style=" stroke:none;fill-rule:evenodd;fill:rgb(100%,50.19989%,25.878906%);fill-opacity:1;" d="M 858.246094 387.832031 C 928.996094 380.863281 991.492188 396.367188 1053.207031 417.039062 C 1108.238281 435.484375 1155.585938 466.042969 1196.324219 507.167969 C 1240.039062 551.304688 1252.96875 603.375 1233.074219 661.855469 C 1223.757812 689.285156 1210.40625 715.503906 1197.128906 741.378906 C 1183.851562 767.167969 1172.964844 793.585938 1176.941406 822.75 C 1180.96875 852.222656 1188.070312 881.316406 1194.375 910.457031 C 1200.21875 937.5 1209.222656 964.09375 1212.527344 991.402344 C 1222.816406 1076.578125 1199.707031 1153.183594 1148.78125 1221.941406 C 1093.039062 1297.285156 1017.597656 1335.511719 924.847656 1339.535156 C 906.875 1340.316406 887.554688 1336.929688 870.625 1330.625 C 842.753906 1320.210938 815.207031 1307.867188 789.597656 1292.785156 C 738.976562 1262.976562 685.402344 1244.179688 626.632812 1241.710938 C 597.425781 1240.46875 568.542969 1242.964844 540.371094 1252.105469 C 486.398438 1269.589844 431.277344 1279.558594 374.589844 1270.058594 C 326.144531 1261.933594 281.9375 1243.269531 243.335938 1212.039062 C 215.238281 1189.304688 205.375 1160.0625 209.304688 1125.0625 C 213.96875 1083.4375 218.652344 1041.808594 223.089844 1000.167969 C 226.128906 971.3125 220.667969 943.449219 211.839844 916.203125 C 206.476562 899.699219 195.765625 887.332031 178.777344 882.582031 C 162.421875 878.046875 145.710938 874.167969 128.902344 871.789062 C 96.4375 867.1875 64.039062 862.765625 34.167969 848.148438 C -7.554688 827.722656 -39.957031 798.683594 -55.644531 753.246094 C -65.996094 723.292969 -64.597656 693.507812 -51.789062 665.902344 C -13.289062 582.859375 47.699219 523.207031 135.753906 493.546875 C 167.351562 482.894531 199.0625 485.402344 230.308594 494.277344 C 256.957031 501.824219 283.335938 510.546875 309.425781 519.863281 C 352.210938 535.152344 395.375 543.761719 441.21875 537.355469 C 475.671875 532.550781 506.839844 519.234375 538.136719 505.660156 C 607.207031 475.707031 675.890625 444.816406 745.402344 415.859375 C 782.859375 400.273438 822.183594 390.171875 858.246094 387.832031 Z M 858.246094 387.832031 "/>
</g>
</g>
</g>
<g clip-path="url(#clip15)" clip-rule="nonzero">
<path style=" stroke:none;fill-rule:nonzero;fill:rgb(100%,50.19989%,25.878906%);fill-opacity:1;" d="M -18.726562 666.425781 L 1228.402344 554.183594 L 1262.507812 933.101562 L 15.375 1045.34375 Z M -18.726562 666.425781 "/>
</g>
</g>
</svg>
