<?xml version="1.0" encoding="UTF-8"?>
<svg xmlns="http://www.w3.org/2000/svg" xmlns:xlink="http://www.w3.org/1999/xlink" width="1230pt" height="693.000001pt" viewBox="0 0 1230 693.000001" version="1.2">
<defs>
<clipPath id="clip1">
  <path d="M 0.886719 0 L 1229.113281 0 L 1229.113281 692 L 0.886719 692 Z M 0.886719 0 "/>
</clipPath>
<clipPath id="clip2">
  <path d="M 385 160 L 849 160 L 849 576 L 385 576 Z M 385 160 "/>
</clipPath>
<clipPath id="clip3">
  <path d="M 400.378906 144.433594 L 852.402344 161.539062 L 836.121094 591.859375 L 384.097656 574.757812 Z M 400.378906 144.433594 "/>
</clipPath>
<clipPath id="clip4">
  <path d="M 400.378906 144.433594 L 852.402344 161.539062 L 836.121094 591.859375 L 384.097656 574.757812 Z M 400.378906 144.433594 "/>
</clipPath>
<clipPath id="clip5">
  <path d="M 458 147 L 619 147 L 619 308 L 458 308 Z M 458 147 "/>
</clipPath>
<clipPath id="clip6">
  <path d="M 482.554688 133.722656 L 632.886719 171.585938 L 595.023438 321.917969 L 444.691406 284.050781 Z M 482.554688 133.722656 "/>
</clipPath>
<clipPath id="clip7">
  <path d="M 482.554688 133.722656 L 632.886719 171.585938 L 595.023438 321.917969 L 444.691406 284.050781 Z M 482.554688 133.722656 "/>
</clipPath>
<clipPath id="clip8">
  <path d="M 1093 265 L 1229.113281 265 L 1229.113281 357 L 1093 357 Z M 1093 265 "/>
</clipPath>
<clipPath id="clip9">
  <path d="M 1105.496094 264.933594 L 1257.304688 325.015625 L 1219.546875 420.417969 L 1067.738281 360.335938 Z M 1105.496094 264.933594 "/>
</clipPath>
<clipPath id="clip10">
  <path d="M 1105.496094 264.933594 L 1257.304688 325.015625 L 1219.546875 420.417969 L 1067.738281 360.335938 Z M 1105.496094 264.933594 "/>
</clipPath>
<clipPath id="clip11">
  <path d="M 1068 328 L 1229.113281 328 L 1229.113281 421 L 1068 421 Z M 1068 328 "/>
</clipPath>
<clipPath id="clip12">
  <path d="M 1105.496094 264.933594 L 1257.304688 325.015625 L 1219.546875 420.417969 L 1067.738281 360.335938 Z M 1105.496094 264.933594 "/>
</clipPath>
<clipPath id="clip13">
  <path d="M 1105.496094 264.933594 L 1257.304688 325.015625 L 1219.546875 420.417969 L 1067.738281 360.335938 Z M 1105.496094 264.933594 "/>
</clipPath>
<clipPath id="clip14">
  <path d="M 0.886719 341 L 70 341 L 70 376 L 0.886719 376 Z M 0.886719 341 "/>
</clipPath>
<clipPath id="clip15">
  <path d="M -72.71875 341.570312 L 70.222656 346.976562 L 69.144531 375.417969 L -73.796875 370.007812 Z M -72.71875 341.570312 "/>
</clipPath>
<clipPath id="clip16">
  <path d="M -72.71875 341.570312 L 70.222656 346.976562 L 69.144531 375.417969 L -73.796875 370.007812 Z M -72.71875 341.570312 "/>
</clipPath>
<clipPath id="clip17">
  <path d="M 154 175 L 400 175 L 400 387 L 154 387 Z M 154 175 "/>
</clipPath>
<clipPath id="clip18">
  <path d="M 90.320312 205.242188 L 397.195312 173.078125 L 426.078125 448.671875 L 119.203125 480.832031 Z M 90.320312 205.242188 "/>
</clipPath>
<clipPath id="clip19">
  <path d="M 90.320312 205.242188 L 397.195312 173.078125 L 426.078125 448.671875 L 119.203125 480.832031 Z M 90.320312 205.242188 "/>
</clipPath>
<clipPath id="clip20">
  <path d="M 141.792969 199.847656 L 398.132812 172.980469 L 418.742188 369.628906 L 162.402344 396.492188 Z M 141.792969 199.847656 "/>
</clipPath>
<clipPath id="clip21">
  <path d="M 141.792969 199.847656 L 396.855469 173.117188 L 417.464844 369.761719 L 162.402344 396.492188 Z M 141.792969 199.847656 "/>
</clipPath>
<clipPath id="clip22">
  <path d="M 90 182 L 392 182 L 392 481 L 90 481 Z M 90 182 "/>
</clipPath>
<clipPath id="clip23">
  <path d="M 90.320312 205.242188 L 397.195312 173.078125 L 426.078125 448.671875 L 119.203125 480.832031 Z M 90.320312 205.242188 "/>
</clipPath>
<clipPath id="clip24">
  <path d="M 90.320312 205.242188 L 397.195312 173.078125 L 426.078125 448.671875 L 119.203125 480.832031 Z M 90.320312 205.242188 "/>
</clipPath>
<clipPath id="clip25">
  <path d="M 90.824219 208.070312 L 364.253906 179.414062 L 392.925781 453.007812 L 119.496094 481.664062 Z M 90.824219 208.070312 "/>
</clipPath>
<clipPath id="clip26">
  <path d="M 90.824219 208.070312 L 364.253906 179.414062 L 392.835938 452.152344 L 119.40625 480.808594 Z M 90.824219 208.070312 "/>
</clipPath>
<clipPath id="clip27">
  <path d="M 880 114 L 1035 114 L 1035 335 L 880 335 Z M 880 114 "/>
</clipPath>
<clipPath id="clip28">
  <path d="M 865.703125 130.492188 L 1023.113281 100.355469 L 1075.21875 372.511719 L 917.808594 402.648438 Z M 865.703125 130.492188 "/>
</clipPath>
<clipPath id="clip29">
  <path d="M 865.703125 130.492188 L 1023.113281 100.355469 L 1075.21875 372.511719 L 917.808594 402.648438 Z M 865.703125 130.492188 "/>
</clipPath>
<clipPath id="clip30">
  <path d="M 973 353 L 1011 353 L 1011 391 L 973 391 Z M 973 353 "/>
</clipPath>
<clipPath id="clip31">
  <path d="M 865.703125 130.492188 L 1023.113281 100.355469 L 1075.21875 372.511719 L 917.808594 402.648438 Z M 865.703125 130.492188 "/>
</clipPath>
<clipPath id="clip32">
  <path d="M 865.703125 130.492188 L 1023.113281 100.355469 L 1075.21875 372.511719 L 917.808594 402.648438 Z M 865.703125 130.492188 "/>
</clipPath>
<clipPath id="clip33">
  <path d="M 779 397 L 894 397 L 894 512 L 779 512 Z M 779 397 "/>
</clipPath>
<clipPath id="clip34">
  <path d="M 766.746094 379.855469 L 911.183594 385.320312 L 905.746094 529.011719 L 761.308594 523.546875 Z M 766.746094 379.855469 "/>
</clipPath>
<clipPath id="clip35">
  <path d="M 766.746094 379.855469 L 911.183594 385.320312 L 905.746094 529.011719 L 761.308594 523.546875 Z M 766.746094 379.855469 "/>
</clipPath>
<clipPath id="clip36">
  <path d="M 764 382 L 909 382 L 909 527 L 764 527 Z M 764 382 "/>
</clipPath>
<clipPath id="clip37">
  <path d="M 766.746094 379.855469 L 911.183594 385.320312 L 905.746094 529.011719 L 761.308594 523.546875 Z M 766.746094 379.855469 "/>
</clipPath>
<clipPath id="clip38">
  <path d="M 766.746094 379.855469 L 911.183594 385.320312 L 905.746094 529.011719 L 761.308594 523.546875 Z M 766.746094 379.855469 "/>
</clipPath>
</defs>
<g id="surface1">
<g clip-path="url(#clip1)" clip-rule="nonzero">
<path style=" stroke:none;fill-rule:nonzero;fill:rgb(100%,100%,100%);fill-opacity:1;" d="M 0.886719 0 L 1229.113281 0 L 1229.113281 699.492188 L 0.886719 699.492188 Z M 0.886719 0 "/>
<path style=" stroke:none;fill-rule:nonzero;fill:rgb(100%,100%,100%);fill-opacity:1;" d="M 0.886719 0 L 1229.113281 0 L 1229.113281 692 L 0.886719 692 Z M 0.886719 0 "/>
<path style=" stroke:none;fill-rule:nonzero;fill:rgb(100%,100%,100%);fill-opacity:1;" d="M 0.886719 0 L 1229.113281 0 L 1229.113281 692 L 0.886719 692 Z M 0.886719 0 "/>
</g>
<g clip-path="url(#clip2)" clip-rule="nonzero">
<g clip-path="url(#clip3)" clip-rule="nonzero">
<g clip-path="url(#clip4)" clip-rule="nonzero">
<path style=" stroke:none;fill-rule:nonzero;fill:rgb(26.269531%,76.858521%,39.99939%);fill-opacity:1;" d="M 848.898438 256.078125 C 844.875 249.890625 833.078125 213.691406 824.449219 183.695312 L 817.804688 160.597656 L 799.4375 176.085938 C 788.988281 184.894531 746.164062 212.648438 730.546875 222.59375 L 747.273438 248.902344 C 750.132812 247.082031 763.785156 238.363281 778.726562 228.503906 L 757.882812 299.011719 L 692.296875 268.113281 L 640.644531 370.6875 L 561.578125 363.546875 L 517.203125 442.402344 L 441.835938 458.863281 L 385.308594 543.980469 L 401.902344 575.0625 L 461.03125 488.351562 L 538.660156 471.894531 L 574.878906 405.425781 L 653.238281 412.960938 L 706.359375 309.210938 L 777.460938 342.699219 L 808.496094 237.734375 C 813.84375 253.699219 819.421875 268.398438 823.445312 274.066406 L 848.898438 256.078125 "/>
</g>
</g>
</g>
<g clip-path="url(#clip5)" clip-rule="nonzero">
<g clip-path="url(#clip6)" clip-rule="nonzero">
<g clip-path="url(#clip7)" clip-rule="nonzero">
<path style=" stroke:none;fill-rule:nonzero;fill:rgb(26.269531%,76.858521%,39.99939%);fill-opacity:1;" d="M 576.511719 157.386719 L 538.929688 147.921875 L 524.730469 204.292969 L 468.355469 190.09375 L 458.890625 227.675781 L 515.265625 241.878906 L 501.066406 298.25 L 538.648438 307.71875 L 552.847656 251.34375 L 609.222656 265.542969 L 618.6875 227.960938 L 562.3125 213.761719 L 576.511719 157.386719 "/>
</g>
</g>
</g>
<g clip-path="url(#clip8)" clip-rule="nonzero">
<g clip-path="url(#clip9)" clip-rule="nonzero">
<g clip-path="url(#clip10)" clip-rule="nonzero">
<path style=" stroke:none;fill-rule:nonzero;fill:rgb(26.269531%,76.858521%,39.99939%);fill-opacity:1;" d="M 1244.464844 356.726562 L 1093.15625 296.839844 L 1105.730469 265.066406 L 1257.042969 324.949219 L 1244.464844 356.726562 "/>
</g>
</g>
</g>
<g clip-path="url(#clip11)" clip-rule="nonzero">
<g clip-path="url(#clip12)" clip-rule="nonzero">
<g clip-path="url(#clip13)" clip-rule="nonzero">
<path style=" stroke:none;fill-rule:nonzero;fill:rgb(26.269531%,76.858521%,39.99939%);fill-opacity:1;" d="M 1219.3125 420.285156 L 1068 360.402344 L 1080.574219 328.625 L 1231.886719 388.511719 L 1219.3125 420.285156 "/>
</g>
</g>
</g>
<g clip-path="url(#clip14)" clip-rule="nonzero">
<g clip-path="url(#clip15)" clip-rule="nonzero">
<g clip-path="url(#clip16)" clip-rule="nonzero">
<path style=" stroke:none;fill-rule:nonzero;fill:rgb(26.269531%,76.858521%,39.99939%);fill-opacity:1;" d="M 61.988281 375.144531 L -66.636719 370.28125 C -70.925781 370.117188 -73.675781 367.164062 -73.515625 362.898438 L -72.976562 348.679688 C -72.816406 344.414062 -69.847656 341.679688 -65.5625 341.839844 L 63.066406 346.707031 C 67.351562 346.871094 70.101562 349.820312 69.941406 354.085938 L 69.402344 368.308594 C 69.242188 372.574219 66.277344 375.308594 61.988281 375.144531 Z M 61.988281 375.144531 "/>
</g>
</g>
</g>
<g clip-path="url(#clip17)" clip-rule="nonzero">
<g clip-path="url(#clip18)" clip-rule="nonzero">
<g clip-path="url(#clip19)" clip-rule="nonzero">
<g clip-path="url(#clip20)" clip-rule="nonzero">
<g clip-path="url(#clip21)" clip-rule="nonzero">
<path style=" stroke:none;fill-rule:nonzero;fill:rgb(26.269531%,76.858521%,39.99939%);fill-opacity:1;" d="M 246.496094 386.015625 L 154.695312 311.59375 L 176.257812 284.957031 L 241.445312 337.808594 L 372.777344 175.628906 L 399.390625 197.214844 L 246.496094 386.015625 "/>
</g>
</g>
</g>
</g>
</g>
<g clip-path="url(#clip22)" clip-rule="nonzero">
<g clip-path="url(#clip23)" clip-rule="nonzero">
<g clip-path="url(#clip24)" clip-rule="nonzero">
<g clip-path="url(#clip25)" clip-rule="nonzero">
<g clip-path="url(#clip26)" clip-rule="nonzero">
<path style=" stroke:none;fill-rule:nonzero;fill:rgb(26.269531%,76.858521%,39.99939%);fill-opacity:1;" d="M 341.59375 303.644531 L 353.972656 421.761719 L 149.902344 443.148438 L 128.5 238.953125 L 305.324219 220.421875 C 315.714844 207.203125 326.757812 193.304688 335.398438 182.808594 L 90.863281 208.4375 L 119.40625 480.808594 L 391.613281 452.28125 L 372.089844 265.988281 L 341.59375 303.644531 "/>
</g>
</g>
</g>
</g>
</g>
<g clip-path="url(#clip27)" clip-rule="nonzero">
<g clip-path="url(#clip28)" clip-rule="nonzero">
<g clip-path="url(#clip29)" clip-rule="nonzero">
<path style=" stroke:none;fill-rule:nonzero;fill:rgb(26.269531%,76.858521%,39.99939%);fill-opacity:1;" d="M 943.050781 115.683594 C 924.050781 119.320312 907.496094 129.824219 895.777344 145.046875 C 882.746094 162.210938 877.480469 184.664062 881.648438 206.433594 C 882.792969 212.421875 888.617188 216.386719 894.585938 215.242188 L 905.445312 213.164062 C 911.414062 212.019531 915.363281 206.1875 914.214844 200.199219 C 911.820312 187.679688 915.058594 175.210938 922.617188 164.734375 C 929.40625 156.101562 938.445312 150.417969 949.304688 148.339844 C 950.933594 148.03125 952.558594 147.71875 954.292969 147.949219 C 974.789062 146.285156 993.660156 159.597656 999.582031 178.777344 C 1005.1875 196.324219 999.191406 214.964844 985.121094 226.6875 C 964.617188 243.027344 954.882812 268.589844 959.675781 293.628906 L 965.824219 325.742188 C 966.96875 331.730469 972.792969 335.695312 978.761719 334.550781 L 989.621094 332.472656 C 995.589844 331.328125 999.539062 325.496094 998.390625 319.507812 L 992.242188 287.394531 C 989.847656 274.875 995.148438 261.445312 1005.84375 252.632812 C 1030.714844 232.636719 1040.722656 199.683594 1030.984375 169.386719 C 1020.953125 134.625 987.308594 111.722656 951.839844 114.5625 C 949.023438 114.539062 945.765625 115.164062 943.050781 115.683594 Z M 943.050781 115.683594 "/>
</g>
</g>
</g>
<g clip-path="url(#clip30)" clip-rule="nonzero">
<g clip-path="url(#clip31)" clip-rule="nonzero">
<g clip-path="url(#clip32)" clip-rule="nonzero">
<path style=" stroke:none;fill-rule:nonzero;fill:rgb(26.269531%,76.858521%,39.99939%);fill-opacity:1;" d="M 1006.011719 385.761719 L 984.300781 389.917969 C 981.300781 390.492188 978.40625 388.523438 977.828125 385.515625 L 973.660156 363.742188 C 973.085938 360.730469 975.050781 357.832031 978.046875 357.257812 L 999.757812 353.101562 C 1002.761719 352.527344 1005.652344 354.496094 1006.230469 357.507812 L 1010.398438 379.277344 C 1010.972656 382.289062 1009.011719 385.1875 1006.011719 385.761719 Z M 1006.011719 385.761719 "/>
</g>
</g>
</g>
<g clip-path="url(#clip33)" clip-rule="nonzero">
<g clip-path="url(#clip34)" clip-rule="nonzero">
<g clip-path="url(#clip35)" clip-rule="nonzero">
<path style=" stroke:none;fill-rule:nonzero;fill:rgb(26.269531%,76.858521%,39.99939%);fill-opacity:1;" d="M 893.078125 456.578125 C 891.894531 487.914062 865.496094 512.347656 834.109375 511.160156 C 802.726562 509.972656 778.25 483.613281 779.4375 452.277344 C 780.621094 420.945312 807.019531 396.507812 838.402344 397.695312 C 869.789062 398.882812 894.265625 425.242188 893.078125 456.578125 "/>
</g>
</g>
</g>
<g clip-path="url(#clip36)" clip-rule="nonzero">
<g clip-path="url(#clip37)" clip-rule="nonzero">
<g clip-path="url(#clip38)" clip-rule="nonzero">
<path style=" stroke:none;fill-rule:nonzero;fill:rgb(26.269531%,76.858521%,39.99939%);fill-opacity:1;" d="M 905.496094 457.046875 C 904.378906 482.941406 888.882812 506.140625 865.421875 517.207031 C 841.691406 528.402344 813.046875 524.449219 792.675781 508.226562 C 772.195312 491.910156 763.03125 464.523438 768.664062 439.128906 C 774.207031 414.132812 794.007812 394.066406 818.664062 387.492188 C 839.855469 381.839844 862.777344 387.039062 879.835938 400.628906 C 896.8125 414.160156 906.195312 435.492188 905.496094 457.046875 C 905.441406 458.847656 908.238281 458.960938 908.296875 457.152344 C 909.09375 432.347656 897.113281 408.800781 876.609375 394.773438 C 855.878906 380.589844 828.476562 378.761719 805.769531 389.183594 C 783.382812 399.457031 767.921875 421.214844 764.726562 445.464844 C 761.472656 470.171875 771.953125 494.949219 791.171875 510.589844 C 810.699219 526.480469 838.121094 530.566406 861.613281 521.820312 C 884.578125 513.269531 901.8125 492.976562 906.839844 469.082031 C 907.667969 465.152344 908.121094 461.15625 908.292969 457.15625 C 908.375 455.347656 905.574219 455.25 905.496094 457.050781 "/>
</g>
</g>
</g>
</g>
</svg>
