<?xml version="1.0" encoding="UTF-8"?>
<svg xmlns="http://www.w3.org/2000/svg" xmlns:xlink="http://www.w3.org/1999/xlink" width="1230pt" height="693.000001pt" viewBox="0 0 1230 693.000001" version="1.2">
<defs>
<clipPath id="clip1">
  <path d="M 0.886719 0 L 1229.113281 0 L 1229.113281 692 L 0.886719 692 Z M 0.886719 0 "/>
</clipPath>
<clipPath id="clip2">
  <path d="M 636 327 L 976 327 L 976 673 L 636 673 Z M 636 327 "/>
</clipPath>
<clipPath id="clip3">
  <path d="M 709.492188 675.367188 L 616.527344 410.355469 L 885.074219 316.152344 L 978.039062 581.164062 Z M 709.492188 675.367188 "/>
</clipPath>
<clipPath id="clip4">
  <path d="M 709.492188 675.367188 L 616.527344 410.355469 L 885.074219 316.152344 L 978.039062 581.164062 Z M 709.492188 675.367188 "/>
</clipPath>
<clipPath id="clip5">
  <path d="M 410 321 L 675 321 L 675 692 L 410 692 Z M 410 321 "/>
</clipPath>
<clipPath id="clip6">
  <path d="M 406.164062 323.429688 L 586.164062 287.824219 L 683.527344 780.066406 L 503.527344 815.667969 Z M 406.164062 323.429688 "/>
</clipPath>
<clipPath id="clip7">
  <path d="M 406.164062 323.429688 L 586.164062 287.824219 L 683.527344 780.066406 L 503.527344 815.667969 Z M 406.164062 323.429688 "/>
</clipPath>
<clipPath id="clip8">
  <path d="M 621 0 L 1229.113281 0 L 1229.113281 363 L 621 363 Z M 621 0 "/>
</clipPath>
<clipPath id="clip9">
  <path d="M 1313.089844 287.257812 L 919.394531 610.296875 L 608.707031 231.652344 L 1002.402344 -91.386719 Z M 1313.089844 287.257812 "/>
</clipPath>
<clipPath id="clip10">
  <path d="M 609.1875 231.667969 L 1002.882812 -91.371094 L 1313.570312 287.269531 L 919.875 610.308594 Z M 609.1875 231.667969 "/>
</clipPath>
<clipPath id="clip11">
  <path d="M 355 0 L 618 0 L 618 286 L 355 286 Z M 355 0 "/>
</clipPath>
<clipPath id="clip12">
  <path d="M 305.296875 230.90625 L 410.417969 -49.609375 L 680.417969 51.570312 L 575.296875 332.085938 Z M 305.296875 230.90625 "/>
</clipPath>
<clipPath id="clip13">
  <path d="M 575.460938 332.148438 L 680.582031 51.628906 L 410.582031 -49.546875 L 305.460938 230.96875 Z M 575.460938 332.148438 "/>
</clipPath>
<clipPath id="clip14">
  <path d="M 357 50 L 545 50 L 545 256 L 357 256 Z M 357 50 "/>
</clipPath>
<clipPath id="clip15">
  <path d="M 305.296875 230.90625 L 410.417969 -49.609375 L 680.417969 51.570312 L 575.296875 332.085938 Z M 305.296875 230.90625 "/>
</clipPath>
<clipPath id="clip16">
  <path d="M 575.460938 332.148438 L 680.582031 51.628906 L 410.582031 -49.546875 L 305.460938 230.96875 Z M 575.460938 332.148438 "/>
</clipPath>
<clipPath id="clip17">
  <path d="M 47 101 L 300 101 L 300 334 L 47 334 Z M 47 101 "/>
</clipPath>
<clipPath id="clip18">
  <path d="M 305.289062 319.015625 L 46.433594 368.914062 L -1.480469 120.355469 L 257.375 70.457031 Z M 305.289062 319.015625 "/>
</clipPath>
<clipPath id="clip19">
  <path d="M 46.628906 368.875 L 305.484375 318.976562 L 257.570312 70.417969 L -1.285156 120.316406 Z M 46.628906 368.875 "/>
</clipPath>
<clipPath id="clip20">
  <path d="M 24 447 L 427 447 L 427 648 L 24 648 Z M 24 447 "/>
</clipPath>
<clipPath id="clip21">
  <path d="M 14.226562 553.636719 L 398.824219 423.824219 L 440.019531 545.871094 L 55.421875 675.683594 Z M 14.226562 553.636719 "/>
</clipPath>
<clipPath id="clip22">
  <path d="M 399.023438 423.753906 L 14.425781 553.570312 L 55.621094 675.617188 L 440.21875 545.804688 Z M 399.023438 423.753906 "/>
</clipPath>
<clipPath id="clip23">
  <path d="M 0.886719 323 L 393 323 L 393 524 L 0.886719 524 Z M 0.886719 323 "/>
</clipPath>
<clipPath id="clip24">
  <path d="M -19.277344 430.078125 L 365.316406 300.265625 L 406.273438 421.605469 L 21.675781 551.417969 Z M -19.277344 430.078125 "/>
</clipPath>
<clipPath id="clip25">
  <path d="M 365.105469 300.335938 L -19.488281 430.148438 L 21.464844 551.488281 L 406.0625 421.675781 Z M 365.105469 300.335938 "/>
</clipPath>
<clipPath id="clip26">
  <path d="M 970 266 L 1155 266 L 1155 547 L 970 547 Z M 970 266 "/>
</clipPath>
<clipPath id="clip27">
  <path d="M 1031.464844 259.464844 L 1171.480469 512.375 L 1091.546875 556.628906 L 951.53125 303.71875 Z M 1031.464844 259.464844 "/>
</clipPath>
<clipPath id="clip28">
  <path d="M 1171.300781 512.046875 L 1031.285156 259.136719 L 951.347656 303.390625 L 1091.363281 556.300781 Z M 1171.300781 512.046875 "/>
</clipPath>
<clipPath id="clip29">
  <path d="M 957 279 L 1118 279 L 1118 556 L 957 556 Z M 957 279 "/>
</clipPath>
<clipPath id="clip30">
  <path d="M 1020.210938 271.816406 L 1133.542969 529.597656 L 1051.957031 565.46875 L 938.625 307.6875 Z M 1020.210938 271.816406 "/>
</clipPath>
<clipPath id="clip31">
  <path d="M 1133.546875 529.609375 L 1020.214844 271.828125 L 938.628906 307.695312 L 1051.960938 565.476562 Z M 1133.546875 529.609375 "/>
</clipPath>
</defs>
<g id="surface1">
<g clip-path="url(#clip1)" clip-rule="nonzero">
<path style=" stroke:none;fill-rule:nonzero;fill:rgb(100%,100%,100%);fill-opacity:1;" d="M 0.886719 0 L 1229.113281 0 L 1229.113281 699.492188 L 0.886719 699.492188 Z M 0.886719 0 "/>
<path style=" stroke:none;fill-rule:nonzero;fill:rgb(100%,100%,100%);fill-opacity:1;" d="M 0.886719 0 L 1229.113281 0 L 1229.113281 692 L 0.886719 692 Z M 0.886719 0 "/>
<path style=" stroke:none;fill-rule:nonzero;fill:rgb(100%,100%,100%);fill-opacity:1;" d="M 0.886719 0 L 1229.113281 0 L 1229.113281 692 L 0.886719 692 Z M 0.886719 0 "/>
</g>
<g clip-path="url(#clip2)" clip-rule="nonzero">
<g clip-path="url(#clip3)" clip-rule="nonzero">
<g clip-path="url(#clip4)" clip-rule="nonzero">
<path style=" stroke:none;fill-rule:nonzero;fill:rgb(1.568604%,67.83905%,88.238525%);fill-opacity:1;" d="M 707.390625 669.367188 C 708.21875 671.730469 710.828125 672.984375 713.191406 672.15625 C 713.191406 672.15625 713.246094 672.136719 713.246094 672.136719 C 731.21875 665.589844 801.972656 639.804688 867.355469 618.136719 C 943.019531 593.101562 975.105469 572.800781 975.105469 572.800781 L 888.949219 327.195312 C 888.949219 327.195312 809.988281 342.835938 753.195312 365.773438 C 696.398438 388.710938 653.832031 400.628906 639.671875 416.148438 C 625.511719 431.664062 666.875 545.273438 677.300781 579.296875 C 686.042969 607.824219 702.359375 654.855469 707.390625 669.367188 Z M 707.390625 669.367188 "/>
</g>
</g>
</g>
<g clip-path="url(#clip5)" clip-rule="nonzero">
<g clip-path="url(#clip6)" clip-rule="nonzero">
<g clip-path="url(#clip7)" clip-rule="nonzero">
<path style=" stroke:none;fill-rule:nonzero;fill:rgb(98.429871%,14.118958%,41.958618%);fill-opacity:1;" d="M 523.617188 809.597656 C 523.617188 809.597656 475.484375 632.410156 470.601562 589.546875 C 465.71875 546.679688 420.929688 386.402344 420.929688 386.402344 C 420.929688 386.402344 409.085938 337.628906 410.230469 332.308594 C 411.375 326.988281 432.324219 318.253906 485.800781 323.453125 C 539.28125 328.648438 565.566406 383.257812 570.832031 391.699219 C 576.097656 400.144531 621.363281 510.800781 630.445312 549.140625 C 639.527344 587.484375 673.15625 728.199219 674.597656 754.175781 C 674.597656 754.175781 656.542969 766.433594 602.199219 786.664062 C 547.859375 806.898438 523.617188 809.597656 523.617188 809.597656 Z M 523.617188 809.597656 "/>
</g>
</g>
</g>
<g clip-path="url(#clip8)" clip-rule="nonzero">
<g clip-path="url(#clip9)" clip-rule="nonzero">
<g clip-path="url(#clip10)" clip-rule="nonzero">
<path style=" stroke:none;fill-rule:nonzero;fill:rgb(100%,50.19989%,25.878906%);fill-opacity:1;" d="M 623.703125 223.796875 C 623.703125 223.796875 759.3125 116.066406 807.941406 72.625 C 856.570312 29.1875 961.65625 -57.542969 978.183594 -65.421875 C 994.714844 -73.300781 1007.59375 -71.613281 1020.648438 -53.394531 C 1033.703125 -35.175781 1109.554688 59.113281 1150.527344 104.582031 C 1191.5 150.050781 1282.414062 249.917969 1294.027344 263.761719 C 1305.640625 277.605469 1311.304688 289.128906 1295.5625 300.277344 C 1279.820312 311.425781 1199.207031 362.539062 1199.207031 362.539062 C 1199.207031 362.539062 1169.007812 344.367188 1118.019531 297.007812 C 1056.539062 239.941406 1017.238281 208.519531 976.761719 212.925781 C 936.28125 217.335938 796.664062 231.335938 691.40625 317.703125 C 691.40625 317.703125 670.738281 304.214844 650.683594 277.464844 C 630.628906 250.710938 615.570312 239.445312 623.703125 223.796875 Z M 623.703125 223.796875 "/>
</g>
</g>
</g>
<g clip-path="url(#clip11)" clip-rule="nonzero">
<g clip-path="url(#clip12)" clip-rule="nonzero">
<g clip-path="url(#clip13)" clip-rule="nonzero">
<path style=" stroke:none;fill-rule:nonzero;fill:rgb(26.269531%,76.858521%,39.99939%);fill-opacity:1;" d="M 591.757812 243.3125 C 619.1875 215.398438 629.265625 88.132812 598.300781 49.710938 C 567.335938 11.285156 540.84375 -0.734375 495.589844 -1.171875 C 450.332031 -1.609375 407.921875 23.574219 388.921875 57.816406 C 369.925781 92.058594 339.394531 140.480469 366.957031 187.984375 C 394.519531 235.484375 393.445312 249.511719 409.046875 257.394531 C 424.644531 265.277344 471.882812 293.332031 516.898438 283.382812 C 561.917969 273.433594 565.0625 270.480469 591.757812 243.3125 Z M 591.757812 243.3125 "/>
</g>
</g>
</g>
<g clip-path="url(#clip14)" clip-rule="nonzero">
<g clip-path="url(#clip15)" clip-rule="nonzero">
<g clip-path="url(#clip16)" clip-rule="nonzero">
<path style=" stroke:none;fill-rule:nonzero;fill:rgb(26.269531%,76.858521%,39.99939%);fill-opacity:1;" d="M 526.570312 225.277344 C 546.214844 205.308594 553.429688 114.203125 531.285156 86.664062 C 509.136719 59.128906 490.175781 50.550781 457.773438 50.234375 C 425.367188 49.917969 395.019531 67.964844 381.40625 92.515625 C 367.796875 117.0625 345.933594 151.703125 365.664062 185.6875 C 385.398438 219.675781 384.640625 229.691406 395.8125 235.347656 C 406.984375 241.007812 440.804688 261.09375 473.015625 253.925781 C 505.226562 246.757812 507.464844 244.710938 526.570312 225.277344 Z M 526.570312 225.277344 "/>
</g>
</g>
</g>
<g clip-path="url(#clip17)" clip-rule="nonzero">
<g clip-path="url(#clip18)" clip-rule="nonzero">
<g clip-path="url(#clip19)" clip-rule="nonzero">
<path style=" stroke:none;fill-rule:nonzero;fill:rgb(64.709473%,47.839355%,100%);fill-opacity:1;" d="M 54.730469 333.449219 C 54.730469 333.449219 113.71875 333.875 153.4375 333.558594 C 193.152344 333.242188 285.425781 322.84375 299.082031 317.277344 C 299.082031 317.277344 302.546875 304.8125 288.402344 261.882812 C 274.257812 218.953125 237.550781 105.203125 237.550781 105.203125 C 237.550781 105.203125 153.90625 99.207031 110.492188 103.175781 C 67.078125 107.140625 56.527344 113.578125 56.527344 113.578125 C 56.527344 113.578125 38.339844 324.816406 54.730469 333.449219 Z M 54.730469 333.449219 "/>
</g>
</g>
</g>
<g clip-path="url(#clip20)" clip-rule="nonzero">
<g clip-path="url(#clip21)" clip-rule="nonzero">
<g clip-path="url(#clip22)" clip-rule="nonzero">
<path style=" stroke:none;fill-rule:nonzero;fill:rgb(100%,88.238525%,0%);fill-opacity:1;" d="M 39.074219 621.914062 C 41.089844 628.902344 43.160156 636.039062 45.230469 643.175781 C 46.164062 646.441406 50.34375 648.265625 54.511719 647.03125 C 75.40625 641 96.507812 636.09375 117.816406 632.308594 C 125.648438 630.855469 133.425781 628.742188 141.101562 626.832031 C 154.933594 623.527344 168.761719 620.222656 182.488281 616.613281 C 197.332031 612.792969 212.332031 608.925781 226.917969 604.339844 C 249.078125 597.542969 271.445312 590.84375 293.917969 585.476562 C 305.203125 582.6875 316.234375 579.136719 327.46875 576.195312 C 350.398438 570.160156 373.117188 563.511719 396.460938 559.210938 C 403.53125 558.015625 410.445312 555.855469 417.046875 552.773438 C 419.078125 551.746094 421.058594 550.570312 422.832031 549.289062 C 425.523438 547.1875 426.988281 544.988281 426.566406 541.726562 C 423.058594 521.273438 419.90625 500.867188 416.859375 480.261719 C 415.8125 474.652344 413.34375 469.351562 409.507812 465.023438 C 405.769531 460.492188 401.574219 456.117188 399.207031 450.613281 C 397.664062 447.042969 393.484375 446.238281 388.453125 447.9375 C 382.8125 449.839844 377.378906 451.847656 371.683594 453.597656 C 359.230469 457.460938 346.574219 461.222656 334.070312 464.929688 C 324.210938 467.917969 314.195312 470.445312 304.488281 473.894531 C 273.792969 484.59375 242.683594 493.5625 211.574219 502.527344 C 195.816406 507.164062 179.59375 510.425781 163.578125 514.300781 C 154.019531 516.671875 144.617188 518.996094 134.953125 521.066406 C 121.476562 523.910156 108.105469 526.550781 94.78125 529.34375 C 88.121094 530.738281 81.410156 532.492188 74.75 534.402344 C 61.332031 538.417969 47.808594 542.640625 34.441406 546.8125 C 32.15625 547.585938 29.972656 548.664062 27.789062 549.738281 C 25.859375 550.5625 24.644531 552.503906 25.011719 554.59375 C 26.949219 566.378906 28.535156 578.109375 30.472656 589.894531 C 31.519531 596.011719 33.175781 601.929688 34.832031 607.84375 C 36.078125 612.535156 37.878906 616.867188 39.425781 621.457031 L 38.96875 621.609375 Z M 39.074219 621.914062 "/>
</g>
</g>
</g>
<g clip-path="url(#clip23)" clip-rule="nonzero">
<g clip-path="url(#clip24)" clip-rule="nonzero">
<g clip-path="url(#clip25)" clip-rule="nonzero">
<path style=" stroke:none;fill-rule:nonzero;fill:rgb(100%,88.238525%,0%);fill-opacity:1;" d="M 5.007812 498.101562 C 7.015625 505.046875 9.070312 512.140625 11.125 519.238281 C 12.050781 522.484375 16.226562 524.292969 20.394531 523.054688 C 41.289062 517.019531 62.386719 512.101562 83.691406 508.296875 C 91.523438 506.839844 99.300781 504.722656 106.976562 502.808594 C 120.804688 499.496094 134.632812 496.183594 148.359375 492.566406 C 163.203125 488.742188 178.199219 484.867188 192.785156 480.28125 C 214.945312 473.480469 237.3125 466.777344 259.78125 461.394531 C 271.066406 458.601562 282.097656 455.046875 293.332031 452.105469 C 316.257812 446.058594 338.980469 439.40625 362.320312 435.085938 C 369.386719 433.886719 376.300781 431.722656 382.902344 428.644531 C 384.9375 427.621094 386.917969 426.445312 388.691406 425.167969 C 391.382812 423.074219 392.851562 420.882812 392.4375 417.636719 C 388.96875 397.296875 385.855469 377.003906 382.84375 356.511719 C 381.808594 350.933594 379.351562 345.664062 375.523438 341.367188 C 371.796875 336.867188 367.613281 332.519531 365.257812 327.046875 C 363.71875 323.5 359.546875 322.707031 354.515625 324.40625 C 348.871094 326.308594 343.433594 328.316406 337.742188 330.066406 C 325.289062 333.933594 312.632812 337.695312 300.128906 341.40625 C 290.265625 344.398438 280.253906 346.929688 270.546875 350.375 C 239.847656 361.078125 208.742188 370.050781 177.632812 379.027344 C 161.875 383.667969 145.65625 386.941406 129.640625 390.824219 C 120.082031 393.203125 110.679688 395.527344 101.019531 397.605469 C 87.546875 400.457031 74.171875 403.109375 60.851562 405.910156 C 54.191406 407.3125 47.480469 409.070312 40.824219 410.976562 C 27.402344 415 13.882812 419.222656 0.515625 423.394531 C -1.769531 424.167969 -3.957031 425.246094 -6.140625 426.320312 C -8.070312 427.140625 -9.285156 429.074219 -8.925781 431.15625 C -7.007812 442.875 -5.445312 454.542969 -3.53125 466.257812 C -2.496094 472.347656 -0.847656 478.226562 0.796875 484.109375 C 2.03125 488.773438 3.824219 493.078125 5.363281 497.640625 L 4.90625 497.796875 Z M 5.007812 498.101562 "/>
</g>
</g>
</g>
<g clip-path="url(#clip26)" clip-rule="nonzero">
<g clip-path="url(#clip27)" clip-rule="nonzero">
<g clip-path="url(#clip28)" clip-rule="nonzero">
<path style=" stroke:none;fill-rule:nonzero;fill:rgb(100%,88.238525%,0%);fill-opacity:1;" d="M 986.722656 285.019531 C 982.101562 287.316406 977.382812 289.664062 972.664062 292.015625 C 970.507812 293.078125 969.769531 296.238281 971.167969 299 C 978.058594 312.871094 984.195312 327.027344 989.574219 341.46875 C 991.59375 346.769531 994.066406 351.949219 996.386719 357.085938 C 1000.46875 366.351562 1004.554688 375.617188 1008.835938 384.773438 C 1013.410156 394.6875 1018.035156 404.699219 1023.109375 414.335938 C 1030.699219 428.996094 1038.25 443.808594 1044.882812 458.867188 C 1048.277344 466.421875 1052.175781 473.695312 1055.671875 481.191406 C 1062.828125 496.484375 1070.386719 511.554688 1076.386719 527.359375 C 1078.128906 532.15625 1080.527344 536.726562 1083.523438 540.960938 C 1084.503906 542.253906 1085.578125 543.488281 1086.703125 544.570312 C 1088.511719 546.1875 1090.238281 546.9375 1092.460938 546.230469 C 1106.292969 541.191406 1120.136719 536.410156 1134.136719 531.671875 C 1137.917969 530.234375 1141.300781 527.835938 1143.832031 524.601562 C 1146.515625 521.414062 1149.03125 517.921875 1152.574219 515.570312 C 1154.867188 514.039062 1154.890625 511.011719 1153.058594 507.703125 C 1151.007812 503.992188 1148.90625 500.441406 1146.953125 496.675781 C 1142.660156 488.441406 1138.40625 480.054688 1134.210938 471.765625 C 1130.859375 465.238281 1127.808594 458.546875 1124.15625 452.183594 C 1112.742188 432.042969 1102.488281 411.390625 1092.230469 390.738281 C 1086.972656 380.289062 1082.613281 369.34375 1077.851562 358.617188 C 1074.96875 352.222656 1072.136719 345.929688 1069.453125 339.425781 C 1065.734375 330.351562 1062.175781 321.316406 1058.515625 312.339844 C 1056.683594 307.851562 1054.597656 303.375 1052.410156 298.953125 C 1047.882812 290.0625 1043.199219 281.128906 1038.570312 272.296875 C 1037.738281 270.792969 1036.703125 269.398438 1035.671875 268.007812 C 1034.851562 266.757812 1033.335938 266.15625 1031.925781 266.675781 C 1023.945312 269.519531 1015.957031 272.109375 1007.976562 274.953125 C 1003.839844 276.460938 999.921875 278.367188 996.003906 280.273438 C 992.886719 281.738281 990.09375 283.546875 987.089844 285.210938 L 986.921875 284.910156 Z M 986.722656 285.019531 "/>
</g>
</g>
</g>
<g clip-path="url(#clip29)" clip-rule="nonzero">
<g clip-path="url(#clip30)" clip-rule="nonzero">
<g clip-path="url(#clip31)" clip-rule="nonzero">
<path style=" stroke:none;fill-rule:nonzero;fill:rgb(100%,88.238525%,0%);fill-opacity:1;" d="M 974.625 293 C 969.933594 294.820312 965.140625 296.683594 960.347656 298.546875 C 958.15625 299.386719 957.15625 302.386719 958.269531 305.191406 C 963.71875 319.257812 968.410156 333.535156 972.339844 348.027344 C 973.828125 353.347656 975.765625 358.59375 977.558594 363.777344 C 980.695312 373.132812 983.832031 382.484375 987.171875 391.746094 C 990.722656 401.769531 994.320312 411.894531 998.386719 421.691406 C 1004.445312 436.589844 1010.449219 451.632812 1015.542969 466.828125 C 1018.164062 474.457031 1021.296875 481.859375 1024.023438 489.441406 C 1029.605469 504.914062 1035.59375 520.207031 1040.007812 536.070312 C 1041.269531 540.878906 1043.1875 545.523438 1045.722656 549.898438 C 1046.554688 551.238281 1047.492188 552.535156 1048.484375 553.683594 C 1050.097656 555.414062 1051.703125 556.292969 1053.929688 555.800781 C 1067.8125 552.136719 1081.679688 548.722656 1095.699219 545.363281 C 1099.5 544.300781 1103.003906 542.273438 1105.746094 539.359375 C 1108.640625 536.503906 1111.398438 533.339844 1115.042969 531.371094 C 1117.410156 530.085938 1117.703125 527.152344 1116.222656 523.78125 C 1114.558594 520 1112.839844 516.367188 1111.28125 512.539062 C 1107.84375 504.171875 1104.46875 495.65625 1101.136719 487.246094 C 1098.464844 480.613281 1096.101562 473.851562 1093.121094 467.355469 C 1083.84375 446.800781 1075.730469 425.855469 1067.621094 404.910156 C 1063.449219 394.308594 1060.195312 383.300781 1056.53125 372.472656 C 1054.300781 366.011719 1052.117188 359.65625 1050.09375 353.109375 C 1047.296875 343.972656 1044.648438 334.894531 1041.894531 325.859375 C 1040.519531 321.34375 1038.894531 316.816406 1037.167969 312.332031 C 1033.566406 303.304688 1029.816406 294.222656 1026.113281 285.242188 C 1025.4375 283.707031 1024.558594 282.265625 1023.679688 280.824219 C 1022.996094 279.539062 1021.578125 278.820312 1020.160156 279.199219 C 1012.160156 281.253906 1004.167969 283.058594 996.167969 285.113281 C 992.011719 286.210938 988.035156 287.714844 984.0625 289.21875 C 980.90625 290.359375 978.03125 291.867188 974.964844 293.21875 L 974.828125 292.910156 Z M 974.625 293 "/>
</g>
</g>
</g>
</g>
</svg>
