<?xml version="1.0" encoding="UTF-8"?>
<svg xmlns="http://www.w3.org/2000/svg" xmlns:xlink="http://www.w3.org/1999/xlink" width="1230pt" height="693.000001pt" viewBox="0 0 1230 693.000001" version="1.2">
<defs>
<clipPath id="clip1">
  <path d="M 0.886719 0 L 1229.113281 0 L 1229.113281 692 L 0.886719 692 Z M 0.886719 0 "/>
</clipPath>
<clipPath id="clip2">
  <path d="M 0.886719 213 L 1229.113281 213 L 1229.113281 692 L 0.886719 692 Z M 0.886719 213 "/>
</clipPath>
<filter id="alpha" filterUnits="objectBoundingBox" x="0%" y="0%" width="100%" height="100%">
  <feColorMatrix type="matrix" in="SourceGraphic" values="0 0 0 0 1 0 0 0 0 1 0 0 0 0 1 0 0 0 1 0"/>
</filter>
<mask id="mask0">
  <g filter="url(#alpha)">
<rect x="0" y="0" width="1230" height="693.000001" style="fill:rgb(0%,0%,0%);fill-opacity:0.4471;stroke:none;"/>
  </g>
</mask>
<clipPath id="clip4">
  <path d="M 0.886719 66 L 1229.113281 66 L 1229.113281 479 L 0.886719 479 Z M 0.886719 66 "/>
</clipPath>
<clipPath id="clip5">
  <path d="M -96.894531 223.09375 L 1281.0625 9.015625 L 1436.273438 1008.070312 L 58.320312 1222.152344 Z M -96.894531 223.09375 "/>
</clipPath>
<clipPath id="clip6">
  <path d="M -96.894531 223.09375 L 1281.0625 9.015625 L 1436.273438 1008.070312 L 58.320312 1222.152344 Z M -96.894531 223.09375 "/>
</clipPath>
<clipPath id="clip3">
  <rect x="0" y="0" width="1230" height="479"/>
</clipPath>
<g id="surface5" clip-path="url(#clip3)">
<g clip-path="url(#clip4)" clip-rule="nonzero">
<g clip-path="url(#clip5)" clip-rule="nonzero">
<g clip-path="url(#clip6)" clip-rule="nonzero">
<path style=" stroke:none;fill-rule:evenodd;fill:rgb(100%,94.509888%,36.079407%);fill-opacity:1;" d="M 891.738281 71.441406 C 965.582031 59.332031 1032.277344 71.394531 1098.503906 88.941406 C 1157.558594 104.601562 1209.367188 133.511719 1254.945312 173.972656 C 1303.851562 217.394531 1320.964844 271.238281 1304.03125 334.039062 C 1296.105469 363.496094 1283.855469 391.953125 1271.660156 420.039062 C 1259.464844 448.039062 1249.820312 476.539062 1255.972656 506.914062 C 1262.203125 537.617188 1271.632812 567.710938 1280.230469 597.90625 C 1288.203125 625.929688 1299.460938 653.265625 1304.785156 681.738281 C 1321.363281 770.550781 1302.285156 852.613281 1253.453125 928.320312 C 1200.007812 1011.265625 1123.355469 1056.542969 1026.203125 1067.042969 C 1007.378906 1069.082031 986.851562 1066.832031 968.644531 1061.347656 C 938.664062 1052.292969 908.886719 1041.183594 880.964844 1027.066406 C 825.773438 999.167969 768.230469 983.039062 706.328125 984.421875 C 675.566406 985.097656 645.394531 989.671875 616.425781 1001.183594 C 560.914062 1023.210938 503.691406 1037.414062 443.503906 1031.269531 C 392.066406 1026.007812 344.367188 1009.386719 301.703125 979.179688 C 270.648438 957.1875 258.304688 927.125 260.058594 890.078125 C 262.136719 846.019531 264.238281 801.957031 266.078125 757.898438 C 267.3125 727.375 259.6875 698.460938 248.570312 670.425781 C 241.8125 653.445312 229.726562 641.175781 211.558594 637.332031 C 194.070312 633.671875 176.257812 630.726562 158.441406 629.363281 C 124.027344 626.722656 89.695312 624.273438 57.328125 610.933594 C 12.121094 592.289062 -23.886719 563.96875 -43.441406 517.28125 C -56.347656 486.503906 -56.894531 455.109375 -45.316406 425.234375 C -10.503906 335.359375 49.515625 268.546875 140 231.417969 C 172.464844 218.089844 205.945312 218.578125 239.371094 225.789062 C 267.871094 231.917969 296.171875 239.300781 324.207031 247.324219 C 370.1875 260.492188 416.109375 266.621094 463.828125 256.789062 C 499.691406 249.40625 531.527344 233.304688 563.484375 216.921875 C 634.003906 180.773438 704.054688 143.660156 775.105469 108.527344 C 813.394531 89.613281 854.019531 76.339844 891.738281 71.441406 Z M 891.738281 71.441406 "/>
</g>
</g>
</g>
</g>
<clipPath id="clip7">
  <path d="M 0.886719 336 L 1229.113281 336 L 1229.113281 692 L 0.886719 692 Z M 0.886719 336 "/>
</clipPath>
<mask id="mask1">
  <g filter="url(#alpha)">
<rect x="0" y="0" width="1230" height="693.000001" style="fill:rgb(0%,0%,0%);fill-opacity:0.4471;stroke:none;"/>
  </g>
</mask>
<clipPath id="clip9">
  <path d="M 0.886719 36 L 1229.113281 36 L 1229.113281 356 L 0.886719 356 Z M 0.886719 36 "/>
</clipPath>
<clipPath id="clip10">
  <path d="M -67.9375 101.148438 L 1292.796875 10.007812 L 1358.863281 996.371094 L -1.867188 1087.511719 Z M -67.9375 101.148438 "/>
</clipPath>
<clipPath id="clip11">
  <path d="M -67.9375 101.148438 L 1292.796875 10.007812 L 1358.863281 996.371094 L -1.867188 1087.511719 Z M -67.9375 101.148438 "/>
</clipPath>
<clipPath id="clip8">
  <rect x="0" y="0" width="1230" height="356"/>
</clipPath>
<g id="surface8" clip-path="url(#clip8)">
<g clip-path="url(#clip9)" clip-rule="nonzero">
<g clip-path="url(#clip10)" clip-rule="nonzero">
<g clip-path="url(#clip11)" clip-rule="nonzero">
<path style=" stroke:none;fill-rule:evenodd;fill:rgb(99.21875%,79.998779%,46.269226%);fill-opacity:1;" d="M 908.175781 37.648438 C 981.152344 32.144531 1045.101562 49.574219 1108.125 72.3125 C 1164.328125 92.59375 1212.335938 125.167969 1253.292969 168.460938 C 1297.242188 214.925781 1309.324219 268.828125 1287.472656 328.558594 C 1277.242188 356.574219 1262.882812 383.25 1248.609375 409.570312 C 1234.339844 435.804688 1222.511719 462.742188 1225.917969 492.855469 C 1229.371094 523.292969 1235.992188 553.40625 1241.796875 583.550781 C 1247.171875 611.527344 1255.8125 639.113281 1258.570312 667.300781 C 1267.15625 755.222656 1241.570312 833.53125 1187.546875 903.113281 C 1128.40625 979.355469 1049.867188 1016.925781 954.320312 1018.878906 C 935.808594 1019.261719 916 1015.320312 898.730469 1008.429688 C 870.292969 997.054688 842.230469 983.699219 816.230469 967.570312 C 764.835938 935.691406 710.148438 915.078125 649.722656 911.152344 C 619.695312 909.1875 589.910156 911.074219 560.707031 919.820312 C 504.746094 936.546875 447.785156 945.507812 389.671875 934.394531 C 340.007812 924.890625 294.949219 904.632812 255.960938 871.578125 C 227.578125 847.511719 218.113281 817.175781 222.984375 781.238281 C 228.761719 738.5 234.5625 695.761719 240.109375 653 C 243.914062 623.371094 238.953125 594.5625 230.507812 566.308594 C 225.375 549.191406 214.644531 536.207031 197.273438 530.917969 C 180.546875 525.863281 163.441406 521.476562 146.199219 518.632812 C 112.898438 513.128906 79.660156 507.816406 49.261719 492.066406 C 6.804688 470.054688 -25.859375 439.398438 -40.933594 392.257812 C -50.882812 361.179688 -48.738281 330.550781 -34.910156 302.4375 C 6.664062 217.863281 70.832031 157.898438 162.152344 129.4375 C 194.917969 119.222656 227.496094 122.550781 259.445312 132.417969 C 286.691406 140.816406 313.632812 150.417969 340.261719 160.621094 C 383.933594 177.367188 428.152344 187.25 475.484375 181.738281 C 511.050781 177.601562 543.441406 164.628906 575.96875 151.394531 C 647.757812 122.191406 719.167969 92.007812 791.386719 63.839844 C 830.300781 48.679688 871.007812 39.210938 908.175781 37.648438 Z M 908.175781 37.648438 "/>
</g>
</g>
</g>
</g>
<clipPath id="clip12">
  <path d="M 0.886719 415 L 1229.113281 415 L 1229.113281 692 L 0.886719 692 Z M 0.886719 415 "/>
</clipPath>
</defs>
<g id="surface1">
<g clip-path="url(#clip1)" clip-rule="nonzero">
<path style=" stroke:none;fill-rule:nonzero;fill:rgb(100%,100%,100%);fill-opacity:1;" d="M 0.886719 0 L 1229.113281 0 L 1229.113281 1391.492188 L 0.886719 1391.492188 Z M 0.886719 0 "/>
<path style=" stroke:none;fill-rule:nonzero;fill:rgb(100%,100%,100%);fill-opacity:1;" d="M 0.886719 0 L 1229.113281 0 L 1229.113281 692 L 0.886719 692 Z M 0.886719 0 "/>
<path style=" stroke:none;fill-rule:nonzero;fill:rgb(100%,100%,100%);fill-opacity:1;" d="M 0.886719 0 L 1229.113281 0 L 1229.113281 692 L 0.886719 692 Z M 0.886719 0 "/>
</g>
<g clip-path="url(#clip2)" clip-rule="nonzero">
<use xlink:href="#surface5" transform="matrix(1,0,0,1,0,213)" mask="url(#mask0)"/>
</g>
<g clip-path="url(#clip7)" clip-rule="nonzero">
<use xlink:href="#surface8" transform="matrix(1,0,0,1,0,336)" mask="url(#mask1)"/>
</g>
<g clip-path="url(#clip12)" clip-rule="nonzero">
<path style=" stroke:none;fill-rule:evenodd;fill:rgb(100%,50.19989%,25.878906%);fill-opacity:1;" d="M 902.902344 415.582031 C 973.996094 414.984375 1034.847656 436.027344 1094.460938 462.148438 C 1147.617188 485.449219 1192.039062 520.132812 1228.925781 564.742188 C 1268.503906 612.621094 1276.714844 665.640625 1251.660156 722.101562 C 1239.921875 748.585938 1224.273438 773.503906 1208.730469 798.082031 C 1193.195312 822.578125 1179.984375 847.914062 1181.332031 877.316406 C 1182.703125 907.035156 1187.164062 936.644531 1190.832031 966.234375 C 1194.226562 993.691406 1200.8125 1020.984375 1201.65625 1048.480469 C 1204.265625 1134.234375 1174.382812 1208.460938 1117.5 1272.378906 C 1055.230469 1342.421875 976.667969 1373.734375 883.925781 1369.421875 C 865.957031 1368.59375 847.015625 1363.488281 830.722656 1355.6875 C 803.898438 1342.820312 777.566406 1328.054688 753.410156 1310.738281 C 705.664062 1276.511719 653.996094 1252.988281 595.683594 1245.261719 C 566.703125 1241.410156 537.710938 1241.304688 508.835938 1247.882812 C 453.511719 1260.460938 397.71875 1265.449219 342.113281 1250.90625 C 294.589844 1238.46875 252.234375 1215.917969 216.589844 1181.351562 C 190.640625 1156.191406 183.4375 1126.179688 190.488281 1091.671875 C 198.867188 1050.632812 207.265625 1009.59375 215.417969 968.519531 C 221.027344 940.054688 218.085938 911.8125 211.738281 883.886719 C 207.875 866.964844 198.316406 853.6875 181.820312 847.433594 C 165.9375 841.453125 149.644531 836.089844 133.117188 832.214844 C 101.195312 824.71875 69.320312 817.414062 40.878906 800.175781 C 1.160156 776.09375 -28.511719 744.265625 -40.0625 697.605469 C -47.6875 666.847656 -43.625 637.304688 -28.394531 610.960938 C 17.394531 531.699219 83.484375 477.757812 173.84375 456.105469 C 206.269531 448.332031 237.625 453.671875 267.953125 465.3125 C 293.816406 475.214844 319.308594 486.269531 344.457031 497.886719 C 385.703125 516.949219 427.917969 529.394531 474.152344 527.121094 C 508.894531 525.425781 541.132812 514.957031 573.523438 504.242188 C 645 480.601562 716.171875 455.992188 788.003906 433.378906 C 826.707031 421.214844 866.777344 414.679688 902.902344 415.582031 Z M 902.902344 415.582031 "/>
</g>
</g>
</svg>
