<?xml version="1.0" encoding="UTF-8"?>
<svg xmlns="http://www.w3.org/2000/svg" xmlns:xlink="http://www.w3.org/1999/xlink" width="1230pt" height="693.000001pt" viewBox="0 0 1230 693.000001" version="1.2">
<defs>
<clipPath id="clip1">
  <path d="M 0.886719 0 L 1229.113281 0 L 1229.113281 692 L 0.886719 692 Z M 0.886719 0 "/>
</clipPath>
<clipPath id="clip2">
  <path d="M 438 48 L 867 48 L 867 508 L 438 508 Z M 438 48 "/>
</clipPath>
<clipPath id="clip3">
  <path d="M 408.246094 80.09375 L 859.28125 45.65625 L 892.0625 475.035156 L 441.027344 509.472656 Z M 408.246094 80.09375 "/>
</clipPath>
<clipPath id="clip4">
  <path d="M 408.246094 80.09375 L 859.28125 45.65625 L 892.0625 475.035156 L 441.027344 509.472656 Z M 408.246094 80.09375 "/>
</clipPath>
<clipPath id="clip5">
  <path d="M 136 83 L 296 83 L 296 242 L 136 242 Z M 136 83 "/>
</clipPath>
<clipPath id="clip6">
  <path d="M 149.554688 75.390625 L 303.214844 95.90625 L 282.699219 249.566406 L 129.039062 229.050781 Z M 149.554688 75.390625 "/>
</clipPath>
<clipPath id="clip7">
  <path d="M 149.554688 75.390625 L 303.214844 95.90625 L 282.699219 249.566406 L 129.039062 229.050781 Z M 149.554688 75.390625 "/>
</clipPath>
<clipPath id="clip8">
  <path d="M 980 103 L 1147 103 L 1147 179 L 980 179 Z M 980 103 "/>
</clipPath>
<clipPath id="clip9">
  <path d="M 989.035156 103.316406 L 1146.695312 145.738281 L 1120.035156 244.816406 L 962.378906 202.394531 Z M 989.035156 103.316406 "/>
</clipPath>
<clipPath id="clip10">
  <path d="M 989.035156 103.316406 L 1146.695312 145.738281 L 1120.035156 244.816406 L 962.378906 202.394531 Z M 989.035156 103.316406 "/>
</clipPath>
<clipPath id="clip11">
  <path d="M 962 169 L 1129 169 L 1129 245 L 962 245 Z M 962 169 "/>
</clipPath>
<clipPath id="clip12">
  <path d="M 989.035156 103.316406 L 1146.695312 145.738281 L 1120.035156 244.816406 L 962.378906 202.394531 Z M 989.035156 103.316406 "/>
</clipPath>
<clipPath id="clip13">
  <path d="M 989.035156 103.316406 L 1146.695312 145.738281 L 1120.035156 244.816406 L 962.378906 202.394531 Z M 989.035156 103.316406 "/>
</clipPath>
<clipPath id="clip14">
  <path d="M 1028 454 L 1172 454 L 1172 493 L 1028 493 Z M 1028 454 "/>
</clipPath>
<clipPath id="clip15">
  <path d="M 1027.675781 464.515625 L 1170.304688 453.625 L 1172.46875 482 L 1029.84375 492.890625 Z M 1027.675781 464.515625 "/>
</clipPath>
<clipPath id="clip16">
  <path d="M 1027.675781 464.515625 L 1170.304688 453.625 L 1172.46875 482 L 1029.84375 492.890625 Z M 1027.675781 464.515625 "/>
</clipPath>
<clipPath id="clip17">
  <path d="M 147 261 L 379 261 L 379 486 L 147 486 Z M 147 261 "/>
</clipPath>
<clipPath id="clip18">
  <path d="M 71.886719 323.25 L 373.109375 256.382812 L 433.15625 526.898438 L 131.9375 593.765625 Z M 71.886719 323.25 "/>
</clipPath>
<clipPath id="clip19">
  <path d="M 71.886719 323.25 L 373.109375 256.382812 L 433.15625 526.898438 L 131.9375 593.765625 Z M 71.886719 323.25 "/>
</clipPath>
<clipPath id="clip20">
  <path d="M 122.410156 312.035156 L 374.027344 256.179688 L 416.875 449.203125 L 165.257812 505.058594 Z M 122.410156 312.035156 "/>
</clipPath>
<clipPath id="clip21">
  <path d="M 122.410156 312.035156 L 372.773438 256.457031 L 415.621094 449.484375 L 165.257812 505.058594 Z M 122.410156 312.035156 "/>
</clipPath>
<clipPath id="clip22">
  <path d="M 72 273 L 400 273 L 400 594 L 72 594 Z M 72 273 "/>
</clipPath>
<clipPath id="clip23">
  <path d="M 71.886719 323.25 L 373.109375 256.382812 L 433.15625 526.898438 L 131.9375 593.765625 Z M 71.886719 323.25 "/>
</clipPath>
<clipPath id="clip24">
  <path d="M 71.886719 323.25 L 373.109375 256.382812 L 433.15625 526.898438 L 131.9375 593.765625 Z M 71.886719 323.25 "/>
</clipPath>
<clipPath id="clip25">
  <path d="M 72.707031 326.003906 L 341.101562 266.425781 L 400.714844 534.980469 L 132.320312 594.558594 Z M 72.707031 326.003906 "/>
</clipPath>
<clipPath id="clip26">
  <path d="M 72.707031 326.003906 L 341.101562 266.425781 L 400.527344 534.140625 L 132.132812 593.71875 Z M 72.707031 326.003906 "/>
</clipPath>
<clipPath id="clip27">
  <path d="M 778 315 L 933 315 L 933 533 L 778 533 Z M 778 315 "/>
</clipPath>
<clipPath id="clip28">
  <path d="M 757.351562 342.445312 L 910.3125 294.597656 L 993.039062 559.058594 L 840.082031 606.910156 Z M 757.351562 342.445312 "/>
</clipPath>
<clipPath id="clip29">
  <path d="M 757.351562 342.445312 L 910.3125 294.597656 L 993.039062 559.058594 L 840.082031 606.910156 Z M 757.351562 342.445312 "/>
</clipPath>
<clipPath id="clip30">
  <path d="M 890 548 L 930 548 L 930 587 L 890 587 Z M 890 548 "/>
</clipPath>
<clipPath id="clip31">
  <path d="M 757.351562 342.445312 L 910.3125 294.597656 L 993.039062 559.058594 L 840.082031 606.910156 Z M 757.351562 342.445312 "/>
</clipPath>
<clipPath id="clip32">
  <path d="M 757.351562 342.445312 L 910.3125 294.597656 L 993.039062 559.058594 L 840.082031 606.910156 Z M 757.351562 342.445312 "/>
</clipPath>
<clipPath id="clip33">
  <path d="M 585 509 L 699 509 L 699 623 L 585 623 Z M 585 509 "/>
</clipPath>
<clipPath id="clip34">
  <path d="M 564.492188 499.878906 L 708.613281 488.875 L 719.558594 632.25 L 575.4375 643.253906 Z M 564.492188 499.878906 "/>
</clipPath>
<clipPath id="clip35">
  <path d="M 564.492188 499.878906 L 708.613281 488.875 L 719.558594 632.25 L 575.4375 643.253906 Z M 564.492188 499.878906 "/>
</clipPath>
<clipPath id="clip36">
  <path d="M 569 494 L 715 494 L 715 638 L 569 638 Z M 569 494 "/>
</clipPath>
<clipPath id="clip37">
  <path d="M 564.492188 499.878906 L 708.613281 488.875 L 719.558594 632.25 L 575.4375 643.253906 Z M 564.492188 499.878906 "/>
</clipPath>
<clipPath id="clip38">
  <path d="M 564.492188 499.878906 L 708.613281 488.875 L 719.558594 632.25 L 575.4375 643.253906 Z M 564.492188 499.878906 "/>
</clipPath>
</defs>
<g id="surface1">
<g clip-path="url(#clip1)" clip-rule="nonzero">
<path style=" stroke:none;fill-rule:nonzero;fill:rgb(100%,100%,100%);fill-opacity:1;" d="M 0.886719 0 L 1229.113281 0 L 1229.113281 699.492188 L 0.886719 699.492188 Z M 0.886719 0 "/>
<path style=" stroke:none;fill-rule:nonzero;fill:rgb(100%,100%,100%);fill-opacity:1;" d="M 0.886719 0 L 1229.113281 0 L 1229.113281 692 L 0.886719 692 Z M 0.886719 0 "/>
<path style=" stroke:none;fill-rule:nonzero;fill:rgb(100%,100%,100%);fill-opacity:1;" d="M 0.886719 0 L 1229.113281 0 L 1229.113281 692 L 0.886719 692 Z M 0.886719 0 "/>
</g>
<g clip-path="url(#clip2)" clip-rule="nonzero">
<g clip-path="url(#clip3)" clip-rule="nonzero">
<g clip-path="url(#clip4)" clip-rule="nonzero">
<path style=" stroke:none;fill-rule:nonzero;fill:rgb(26.269531%,76.858521%,39.99939%);fill-opacity:1;" d="M 866.554688 139.980469 C 861.855469 134.292969 846.015625 99.667969 834.03125 70.851562 L 824.800781 48.65625 L 808.3125 66.136719 C 798.933594 76.074219 759.546875 108.519531 745.164062 120.179688 L 764.773438 144.414062 C 767.40625 142.28125 779.980469 132.066406 793.703125 120.570312 L 781.015625 192.992188 L 712.339844 169.757812 L 672.695312 277.539062 L 593.324219 279.441406 L 558.210938 362.832031 L 485.207031 387.761719 L 438.730469 478.757812 L 458.753906 507.75 L 507.632812 414.875 L 582.886719 389.695312 L 611.304688 319.535156 L 690.015625 318.109375 L 730.984375 208.984375 L 805.433594 234.167969 L 824.328125 126.351562 C 831.457031 141.605469 838.671875 155.574219 843.316406 160.75 L 866.554688 139.980469 "/>
</g>
</g>
</g>
<g clip-path="url(#clip5)" clip-rule="nonzero">
<g clip-path="url(#clip6)" clip-rule="nonzero">
<g clip-path="url(#clip7)" clip-rule="nonzero">
<path style=" stroke:none;fill-rule:nonzero;fill:rgb(26.269531%,76.858521%,39.99939%);fill-opacity:1;" d="M 245.59375 88.210938 L 207.175781 83.082031 L 199.484375 140.707031 L 141.859375 133.011719 L 136.730469 171.429688 L 194.355469 179.121094 L 186.660156 236.746094 L 225.078125 241.875 L 232.769531 184.25 L 290.394531 191.945312 L 295.523438 153.527344 L 237.898438 145.835938 L 245.59375 88.210938 "/>
</g>
</g>
</g>
<g clip-path="url(#clip8)" clip-rule="nonzero">
<g clip-path="url(#clip9)" clip-rule="nonzero">
<g clip-path="url(#clip10)" clip-rule="nonzero">
<path style=" stroke:none;fill-rule:nonzero;fill:rgb(26.269531%,76.858521%,39.99939%);fill-opacity:1;" d="M 1137.546875 178.703125 L 980.40625 136.421875 L 989.285156 103.417969 L 1146.425781 145.703125 L 1137.546875 178.703125 "/>
</g>
</g>
</g>
<g clip-path="url(#clip11)" clip-rule="nonzero">
<g clip-path="url(#clip12)" clip-rule="nonzero">
<g clip-path="url(#clip13)" clip-rule="nonzero">
<path style=" stroke:none;fill-rule:nonzero;fill:rgb(26.269531%,76.858521%,39.99939%);fill-opacity:1;" d="M 1119.789062 244.710938 L 962.644531 202.429688 L 971.523438 169.429688 L 1128.667969 211.710938 L 1119.789062 244.710938 "/>
</g>
</g>
</g>
<g clip-path="url(#clip14)" clip-rule="nonzero">
<g clip-path="url(#clip15)" clip-rule="nonzero">
<g clip-path="url(#clip16)" clip-rule="nonzero">
<path style=" stroke:none;fill-rule:nonzero;fill:rgb(26.269531%,76.858521%,39.99939%);fill-opacity:1;" d="M 1165.328125 482.546875 L 1036.984375 492.34375 C 1032.707031 492.671875 1029.636719 490.050781 1029.3125 485.796875 L 1028.230469 471.605469 C 1027.902344 467.351562 1030.539062 464.296875 1034.816406 463.96875 L 1163.160156 454.167969 C 1167.441406 453.84375 1170.507812 456.460938 1170.835938 460.71875 L 1171.917969 474.90625 C 1172.242188 479.164062 1169.605469 482.21875 1165.328125 482.546875 Z M 1165.328125 482.546875 "/>
</g>
</g>
</g>
<g clip-path="url(#clip17)" clip-rule="nonzero">
<g clip-path="url(#clip18)" clip-rule="nonzero">
<g clip-path="url(#clip19)" clip-rule="nonzero">
<g clip-path="url(#clip20)" clip-rule="nonzero">
<g clip-path="url(#clip21)" clip-rule="nonzero">
<path style=" stroke:none;fill-rule:nonzero;fill:rgb(26.269531%,76.858521%,39.99939%);fill-opacity:1;" d="M 247.613281 485.082031 L 147.941406 421.589844 L 166.332031 392.671875 L 237.109375 437.765625 L 349.136719 261.691406 L 378.035156 280.113281 L 247.613281 485.082031 "/>
</g>
</g>
</g>
</g>
</g>
<g clip-path="url(#clip22)" clip-rule="nonzero">
<g clip-path="url(#clip23)" clip-rule="nonzero">
<g clip-path="url(#clip24)" clip-rule="nonzero">
<g clip-path="url(#clip25)" clip-rule="nonzero">
<g clip-path="url(#clip26)" clip-rule="nonzero">
<path style=" stroke:none;fill-rule:nonzero;fill:rgb(26.269531%,76.858521%,39.99939%);fill-opacity:1;" d="M 332.722656 392.425781 L 358.460938 508.367188 L 158.144531 552.835938 L 113.652344 352.402344 L 287.21875 313.871094 C 296.039062 299.554688 305.425781 284.488281 312.816406 273.082031 L 72.785156 326.363281 L 132.132812 593.71875 L 399.328125 534.40625 L 358.734375 351.542969 L 332.722656 392.425781 "/>
</g>
</g>
</g>
</g>
</g>
<g clip-path="url(#clip27)" clip-rule="nonzero">
<g clip-path="url(#clip28)" clip-rule="nonzero">
<g clip-path="url(#clip29)" clip-rule="nonzero">
<path style=" stroke:none;fill-rule:nonzero;fill:rgb(26.269531%,76.858521%,39.99939%);fill-opacity:1;" d="M 832.511719 318.933594 C 814.050781 324.710938 798.796875 337.03125 788.886719 353.484375 C 777.894531 372.023438 775.214844 394.925781 781.832031 416.085938 C 783.652344 421.902344 789.890625 425.175781 795.691406 423.363281 L 806.242188 420.0625 C 812.042969 418.246094 815.300781 412.003906 813.480469 406.183594 C 809.675781 394.019531 811.476562 381.261719 817.792969 369.992188 C 823.554688 360.640625 831.890625 353.96875 842.441406 350.667969 C 844.023438 350.175781 845.605469 349.679688 847.351562 349.714844 C 867.523438 345.726562 887.789062 356.808594 895.855469 375.1875 C 903.421875 391.984375 899.585938 411.1875 886.941406 424.433594 C 868.425781 443 861.664062 469.503906 869.273438 493.835938 L 879.035156 525.039062 C 880.855469 530.859375 887.09375 534.132812 892.894531 532.320312 L 903.445312 529.019531 C 909.246094 527.203125 912.503906 520.957031 910.683594 515.140625 L 900.921875 483.933594 C 897.117188 471.769531 900.855469 457.824219 910.480469 447.851562 C 932.914062 425.15625 939.109375 391.277344 925.984375 362.285156 C 912.066406 328.890625 876.03125 309.964844 841.117188 316.824219 C 838.316406 317.121094 835.148438 318.109375 832.511719 318.933594 Z M 832.511719 318.933594 "/>
</g>
</g>
</g>
<g clip-path="url(#clip30)" clip-rule="nonzero">
<g clip-path="url(#clip31)" clip-rule="nonzero">
<g clip-path="url(#clip32)" clip-rule="nonzero">
<path style=" stroke:none;fill-rule:nonzero;fill:rgb(26.269531%,76.858521%,39.99939%);fill-opacity:1;" d="M 925.792969 580.097656 L 904.695312 586.695312 C 901.78125 587.609375 898.679688 585.980469 897.765625 583.058594 L 891.144531 561.902344 C 890.230469 558.976562 891.855469 555.871094 894.765625 554.960938 L 915.863281 548.359375 C 918.78125 547.449219 921.878906 549.074219 922.792969 552 L 929.410156 573.15625 C 930.328125 576.082031 928.707031 579.183594 925.792969 580.097656 Z M 925.792969 580.097656 "/>
</g>
</g>
</g>
<g clip-path="url(#clip33)" clip-rule="nonzero">
<g clip-path="url(#clip34)" clip-rule="nonzero">
<g clip-path="url(#clip35)" clip-rule="nonzero">
<path style=" stroke:none;fill-rule:nonzero;fill:rgb(26.269531%,76.858521%,39.99939%);fill-opacity:1;" d="M 698.734375 561.730469 C 701.121094 592.996094 677.671875 620.277344 646.359375 622.667969 C 615.042969 625.058594 587.726562 601.652344 585.339844 570.386719 C 582.953125 539.121094 606.398438 511.839844 637.714844 509.449219 C 669.03125 507.058594 696.347656 530.464844 698.734375 561.730469 "/>
</g>
</g>
</g>
<g clip-path="url(#clip36)" clip-rule="nonzero">
<g clip-path="url(#clip37)" clip-rule="nonzero">
<g clip-path="url(#clip38)" clip-rule="nonzero">
<path style=" stroke:none;fill-rule:nonzero;fill:rgb(26.269531%,76.858521%,39.99939%);fill-opacity:1;" d="M 711.125 560.78125 C 712.957031 586.636719 700.203125 611.449219 678.15625 625.109375 C 655.851562 638.933594 626.941406 638.265625 604.859375 624.464844 C 582.65625 610.585938 570.4375 584.417969 573.140625 558.546875 C 575.804688 533.082031 593.191406 510.894531 616.941406 501.558594 C 637.351562 493.53125 660.71875 496.089844 679.210938 507.652344 C 697.617188 519.160156 709.367188 539.285156 711.125 560.78125 C 711.273438 562.578125 714.066406 562.371094 713.917969 560.570312 C 711.890625 535.835938 697.304688 513.804688 675.339844 502.199219 C 653.128906 490.464844 625.699219 491.765625 604.324219 504.707031 C 583.253906 517.460938 570.367188 540.835938 569.953125 565.289062 C 569.53125 590.207031 582.761719 613.632812 603.632812 626.984375 C 624.84375 640.550781 652.550781 641.492188 674.894531 630.128906 C 696.738281 619.019531 711.554688 596.898438 713.828125 572.585938 C 714.203125 568.589844 714.199219 564.566406 713.914062 560.570312 C 713.789062 558.769531 710.996094 558.988281 711.121094 560.785156 "/>
</g>
</g>
</g>
</g>
</svg>
