<?xml version="1.0" encoding="UTF-8"?>
<svg xmlns="http://www.w3.org/2000/svg" xmlns:xlink="http://www.w3.org/1999/xlink" width="1230pt" height="693.000001pt" viewBox="0 0 1230 693.000001" version="1.2">
<defs>
<clipPath id="clip1">
  <path d="M 0.886719 0 L 1229.113281 0 L 1229.113281 692 L 0.886719 692 Z M 0.886719 0 "/>
</clipPath>
<clipPath id="clip2">
  <path d="M 0.886719 245 L 1229.113281 245 L 1229.113281 692 L 0.886719 692 Z M 0.886719 245 "/>
</clipPath>
<filter id="alpha" filterUnits="objectBoundingBox" x="0%" y="0%" width="100%" height="100%">
  <feColorMatrix type="matrix" in="SourceGraphic" values="0 0 0 0 1 0 0 0 0 1 0 0 0 0 1 0 0 0 1 0"/>
</filter>
<mask id="mask0">
  <g filter="url(#alpha)">
<rect x="0" y="0" width="1230" height="693.000001" style="fill:rgb(0%,0%,0%);fill-opacity:0.4471;stroke:none;"/>
  </g>
</mask>
<clipPath id="clip4">
  <path d="M 0.886719 33 L 1229.113281 33 L 1229.113281 447 L 0.886719 447 Z M 0.886719 33 "/>
</clipPath>
<clipPath id="clip5">
  <path d="M -85.929688 84.890625 L 1306.59375 10.894531 L 1360.242188 1020.511719 L -32.277344 1094.507812 Z M -85.929688 84.890625 "/>
</clipPath>
<clipPath id="clip6">
  <path d="M -85.929688 84.890625 L 1306.59375 10.894531 L 1360.242188 1020.511719 L -32.277344 1094.507812 Z M -85.929688 84.890625 "/>
</clipPath>
<clipPath id="clip3">
  <rect x="0" y="0" width="1230" height="447"/>
</clipPath>
<g id="surface5" clip-path="url(#clip3)">
<g clip-path="url(#clip4)" clip-rule="nonzero">
<g clip-path="url(#clip5)" clip-rule="nonzero">
<g clip-path="url(#clip6)" clip-rule="nonzero">
<path style=" stroke:none;fill-rule:evenodd;fill:rgb(100%,94.509888%,36.079407%);fill-opacity:1;" d="M 912.960938 33.730469 C 987.648438 29.132812 1052.789062 47.859375 1116.90625 72 C 1174.082031 93.535156 1222.707031 127.523438 1263.972656 172.375 C 1308.25 220.511719 1319.84375 275.804688 1296.664062 336.578125 C 1285.804688 365.085938 1270.75 392.160156 1255.785156 418.871094 C 1240.828125 445.5 1228.355469 472.882812 1231.414062 503.722656 C 1234.515625 534.898438 1240.859375 565.789062 1246.367188 596.699219 C 1251.472656 625.382812 1259.917969 653.714844 1262.339844 682.578125 C 1269.878906 772.613281 1242.617188 852.332031 1186.398438 922.722656 C 1124.859375 999.859375 1044.03125 1037.171875 946.3125 1037.820312 C 927.378906 1037.949219 907.1875 1033.636719 889.625 1026.347656 C 860.710938 1014.3125 832.207031 1000.257812 805.851562 983.398438 C 753.753906 950.074219 698.128906 928.222656 636.40625 923.351562 C 605.730469 920.921875 575.253906 922.429688 545.269531 930.960938 C 487.820312 947.277344 429.457031 955.636719 370.199219 943.449219 C 319.550781 933.027344 273.769531 911.679688 234.371094 877.324219 C 205.695312 852.3125 196.445312 821.15625 201.929688 784.476562 C 208.4375 740.851562 214.972656 697.226562 221.246094 653.578125 C 225.554688 623.332031 220.886719 593.796875 212.652344 564.789062 C 207.644531 547.210938 196.855469 533.78125 179.171875 528.128906 C 162.140625 522.722656 144.714844 517.996094 127.125 514.84375 C 93.15625 508.746094 59.246094 502.84375 28.386719 486.304688 C -14.710938 463.195312 -47.675781 431.386719 -62.421875 382.964844 C -72.15625 351.046875 -69.535156 319.753906 -55 291.199219 C -11.300781 205.296875 55.152344 144.878906 148.917969 117.066406 C 182.566406 107.078125 215.824219 110.941406 248.351562 121.488281 C 276.089844 130.460938 303.5 140.660156 330.582031 151.46875 C 375 169.210938 420.066406 179.941406 468.539062 174.96875 C 504.960938 171.246094 538.257812 158.4375 571.703125 145.359375 C 645.511719 116.507812 718.949219 86.652344 793.183594 58.863281 C 833.183594 43.910156 874.9375 34.800781 912.960938 33.730469 Z M 912.960938 33.730469 "/>
</g>
</g>
</g>
</g>
<clipPath id="clip7">
  <path d="M 0.886719 281 L 1229.113281 281 L 1229.113281 692 L 0.886719 692 Z M 0.886719 281 "/>
</clipPath>
<mask id="mask1">
  <g filter="url(#alpha)">
<rect x="0" y="0" width="1230" height="693.000001" style="fill:rgb(0%,0%,0%);fill-opacity:0.4471;stroke:none;"/>
  </g>
</mask>
<clipPath id="clip9">
  <path d="M 0.886719 25 L 1229.113281 25 L 1229.113281 411 L 0.886719 411 Z M 0.886719 25 "/>
</clipPath>
<clipPath id="clip10">
  <path d="M -85.929688 57.527344 L 1277.039062 10.378906 L 1311.214844 998.359375 L -51.75 1045.507812 Z M -85.929688 57.527344 "/>
</clipPath>
<clipPath id="clip11">
  <path d="M -85.929688 57.527344 L 1277.039062 10.378906 L 1311.214844 998.359375 L -51.75 1045.507812 Z M -85.929688 57.527344 "/>
</clipPath>
<clipPath id="clip8">
  <rect x="0" y="0" width="1230" height="411"/>
</clipPath>
<g id="surface8" clip-path="url(#clip8)">
<g clip-path="url(#clip9)" clip-rule="nonzero">
<g clip-path="url(#clip10)" clip-rule="nonzero">
<g clip-path="url(#clip11)" clip-rule="nonzero">
<path style=" stroke:none;fill-rule:evenodd;fill:rgb(99.21875%,79.998779%,46.269226%);fill-opacity:1;" d="M 891.722656 25.585938 C 964.839844 22.441406 1028.195312 41.925781 1090.453125 66.6875 C 1145.96875 88.773438 1192.898438 122.878906 1232.4375 167.472656 C 1274.863281 215.332031 1285.195312 269.597656 1261.429688 328.589844 C 1250.296875 356.261719 1235.085938 382.460938 1219.96875 408.304688 C 1204.859375 434.0625 1192.167969 460.605469 1194.601562 490.8125 C 1197.070312 521.347656 1202.714844 551.660156 1207.539062 581.976562 C 1212.011719 610.109375 1219.753906 637.960938 1221.601562 666.222656 C 1227.34375 754.375 1199.242188 831.816406 1143 899.617188 C 1081.429688 973.910156 1001.71875 1008.925781 906.15625 1007.792969 C 887.640625 1007.578125 867.972656 1002.996094 850.929688 995.550781 C 822.875 983.265625 795.261719 969.007812 769.792969 952.046875 C 719.457031 918.527344 665.460938 896.160156 605.199219 890.285156 C 575.246094 887.351562 545.417969 888.273438 515.945312 896.074219 C 459.476562 910.984375 402.253906 918.101562 344.53125 905.117188 C 295.195312 894.011719 250.816406 872.3125 212.917969 838.011719 C 185.328125 813.042969 176.847656 782.417969 182.875 746.65625 C 190.03125 704.128906 197.210938 661.597656 204.136719 619.039062 C 208.894531 589.550781 204.863281 560.589844 197.339844 532.082031 C 192.757812 514.808594 182.453125 501.484375 165.261719 495.636719 C 148.707031 490.046875 131.753906 485.105469 114.613281 481.707031 C 81.507812 475.132812 48.457031 468.746094 18.582031 452.023438 C -23.140625 428.652344 -54.796875 396.960938 -68.339844 349.355469 C -77.28125 317.972656 -74.152344 287.429688 -59.421875 259.777344 C -15.136719 176.589844 50.933594 118.726562 143.125 93.234375 C 176.207031 84.078125 208.65625 88.457031 240.269531 99.355469 C 267.230469 108.625 293.847656 119.09375 320.136719 130.152344 C 363.246094 148.300781 407.121094 159.605469 454.605469 155.621094 C 490.285156 152.636719 523.078125 140.71875 556.019531 128.542969 C 628.710938 101.671875 701.058594 73.8125 774.148438 47.988281 C 813.53125 34.09375 854.527344 25.941406 891.722656 25.585938 Z M 891.722656 25.585938 "/>
</g>
</g>
</g>
</g>
<clipPath id="clip12">
  <path d="M 0.886719 324 L 1229.113281 324 L 1229.113281 692 L 0.886719 692 Z M 0.886719 324 "/>
</clipPath>
<clipPath id="clip13">
  <path d="M 1 516 L 1229.113281 516 L 1229.113281 692 L 1 692 Z M 1 516 "/>
</clipPath>
</defs>
<g id="surface1">
<g clip-path="url(#clip1)" clip-rule="nonzero">
<path style=" stroke:none;fill-rule:nonzero;fill:rgb(100%,100%,100%);fill-opacity:1;" d="M 0.886719 0 L 1229.113281 0 L 1229.113281 699.492188 L 0.886719 699.492188 Z M 0.886719 0 "/>
<path style=" stroke:none;fill-rule:nonzero;fill:rgb(100%,100%,100%);fill-opacity:1;" d="M 0.886719 0 L 1229.113281 0 L 1229.113281 692 L 0.886719 692 Z M 0.886719 0 "/>
<path style=" stroke:none;fill-rule:nonzero;fill:rgb(100%,100%,100%);fill-opacity:1;" d="M 0.886719 0 L 1229.113281 0 L 1229.113281 692 L 0.886719 692 Z M 0.886719 0 "/>
</g>
<g clip-path="url(#clip2)" clip-rule="nonzero">
<use xlink:href="#surface5" transform="matrix(1,0,0,1,0,245)" mask="url(#mask0)"/>
</g>
<g clip-path="url(#clip7)" clip-rule="nonzero">
<use xlink:href="#surface8" transform="matrix(1,0,0,1,0,281)" mask="url(#mask1)"/>
</g>
<g clip-path="url(#clip12)" clip-rule="nonzero">
<path style=" stroke:none;fill-rule:evenodd;fill:rgb(100%,50.19989%,25.878906%);fill-opacity:1;" d="M 892.59375 324.789062 C 963.6875 324.191406 1024.539062 345.234375 1084.152344 371.355469 C 1137.308594 394.65625 1181.730469 429.339844 1218.617188 473.949219 C 1258.195312 521.828125 1266.410156 574.847656 1241.351562 631.308594 C 1229.617188 657.792969 1213.964844 682.710938 1198.421875 707.289062 C 1182.890625 731.78125 1169.675781 757.121094 1171.023438 786.523438 C 1172.394531 816.242188 1176.855469 845.851562 1180.523438 875.441406 C 1183.917969 902.898438 1190.503906 930.191406 1191.347656 957.6875 C 1193.957031 1043.441406 1164.078125 1117.667969 1107.195312 1181.585938 C 1044.921875 1251.628906 966.359375 1282.9375 873.621094 1278.628906 C 855.648438 1277.796875 836.707031 1272.695312 820.414062 1264.894531 C 793.589844 1252.027344 767.257812 1237.261719 743.101562 1219.945312 C 695.359375 1185.71875 643.6875 1162.195312 585.375 1154.46875 C 556.394531 1150.617188 527.402344 1150.511719 498.53125 1157.089844 C 443.203125 1169.664062 387.410156 1174.652344 331.804688 1160.113281 C 284.28125 1147.675781 241.925781 1125.125 206.28125 1090.558594 C 180.335938 1065.398438 173.128906 1035.386719 180.183594 1000.878906 C 188.558594 959.839844 196.957031 918.800781 205.109375 877.726562 C 210.71875 849.261719 207.78125 821.019531 201.429688 793.089844 C 197.566406 776.171875 188.007812 762.894531 171.511719 756.640625 C 155.628906 750.660156 139.335938 745.296875 122.808594 741.417969 C 90.886719 733.925781 59.011719 726.621094 30.574219 709.382812 C -9.148438 685.296875 -38.820312 653.472656 -50.371094 606.8125 C -57.996094 576.054688 -53.929688 546.511719 -38.703125 520.164062 C 7.085938 440.90625 73.175781 386.964844 163.535156 365.3125 C 195.960938 357.539062 227.316406 362.878906 257.644531 374.515625 C 283.507812 384.421875 309 395.476562 334.148438 407.089844 C 375.394531 426.152344 417.609375 438.601562 463.84375 436.328125 C 498.589844 434.632812 530.824219 424.164062 563.214844 413.449219 C 634.691406 389.808594 705.863281 365.195312 777.695312 342.585938 C 816.398438 330.421875 856.46875 323.886719 892.59375 324.789062 Z M 892.59375 324.789062 "/>
</g>
<g clip-path="url(#clip13)" clip-rule="nonzero">
<path style=" stroke:none;fill-rule:nonzero;fill:rgb(100%,50.19989%,25.878906%);fill-opacity:1;" d="M 1.667969 516.160156 L 1253.839844 516.160156 L 1253.839844 896.613281 L 1.667969 896.613281 Z M 1.667969 516.160156 "/>
</g>
</g>
</svg>
