<?xml version="1.0" encoding="UTF-8"?>
<svg xmlns="http://www.w3.org/2000/svg" xmlns:xlink="http://www.w3.org/1999/xlink" width="1230pt" height="693.000001pt" viewBox="0 0 1230 693.000001" version="1.2">
<defs>
<clipPath id="clip1">
  <path d="M 0.886719 0 L 1229.113281 0 L 1229.113281 692 L 0.886719 692 Z M 0.886719 0 "/>
</clipPath>
<clipPath id="clip2">
  <path d="M 0.886719 175 L 1229.113281 175 L 1229.113281 692 L 0.886719 692 Z M 0.886719 175 "/>
</clipPath>
<filter id="alpha" filterUnits="objectBoundingBox" x="0%" y="0%" width="100%" height="100%">
  <feColorMatrix type="matrix" in="SourceGraphic" values="0 0 0 0 1 0 0 0 0 1 0 0 0 0 1 0 0 0 1 0"/>
</filter>
<mask id="mask0">
  <g filter="url(#alpha)">
<rect x="0" y="0" width="1230" height="693.000001" style="fill:rgb(0%,0%,0%);fill-opacity:0.4471;stroke:none;"/>
  </g>
</mask>
<clipPath id="clip4">
  <path d="M 0.886719 76 L 1229.113281 76 L 1229.113281 517 L 0.886719 517 Z M 0.886719 76 "/>
</clipPath>
<clipPath id="clip5">
  <path d="M -99.25 266.503906 L 1271.246094 8.941406 L 1457.984375 1002.589844 L 87.492188 1260.152344 Z M -99.25 266.503906 "/>
</clipPath>
<clipPath id="clip6">
  <path d="M -99.25 266.503906 L 1271.246094 8.941406 L 1457.984375 1002.589844 L 87.492188 1260.152344 Z M -99.25 266.503906 "/>
</clipPath>
<clipPath id="clip3">
  <rect x="0" y="0" width="1230" height="517"/>
</clipPath>
<g id="surface5" clip-path="url(#clip3)">
<g clip-path="url(#clip4)" clip-rule="nonzero">
<g clip-path="url(#clip5)" clip-rule="nonzero">
<g clip-path="url(#clip6)" clip-rule="nonzero">
<path style=" stroke:none;fill-rule:evenodd;fill:rgb(100%,94.509888%,36.079407%);fill-opacity:1;" d="M 884.09375 83.652344 C 957.519531 69.214844 1024.5625 79.160156 1091.308594 94.605469 C 1150.828125 108.386719 1203.523438 135.644531 1250.359375 174.644531 C 1300.617188 216.5 1319.425781 269.773438 1304.488281 333.078125 C 1297.496094 362.769531 1286.152344 391.601562 1274.855469 420.058594 C 1263.550781 448.429688 1254.808594 477.222656 1261.921875 507.386719 C 1269.121094 537.878906 1279.496094 567.65625 1289.042969 597.566406 C 1297.898438 625.320312 1310.015625 652.289062 1316.238281 680.578125 C 1335.617188 768.824219 1319.144531 851.449219 1272.734375 928.660156 C 1221.9375 1013.257812 1146.757812 1060.933594 1049.984375 1074.503906 C 1031.234375 1077.136719 1010.648438 1075.535156 992.273438 1070.632812 C 962.023438 1062.53125 931.910156 1052.367188 903.554688 1039.140625 C 847.507812 1013.003906 789.480469 998.703125 727.65625 1002.042969 C 696.929688 1003.6875 666.917969 1009.214844 638.328125 1021.640625 C 583.542969 1045.410156 526.796875 1061.417969 466.445312 1057.179688 C 414.867188 1053.550781 366.664062 1038.445312 323.066406 1009.601562 C 291.332031 988.605469 278.042969 958.945312 278.625 921.863281 C 279.308594 877.761719 280.015625 833.65625 280.460938 789.558594 C 280.726562 759.007812 272.191406 730.351562 260.191406 702.683594 C 252.902344 685.925781 240.433594 674.042969 222.15625 670.777344 C 204.558594 667.671875 186.660156 665.292969 168.808594 664.492188 C 134.332031 662.945312 99.9375 661.578125 67.164062 649.269531 C 21.390625 632.066406 -15.492188 604.898438 -36.515625 558.851562 C -50.386719 528.5 -51.929688 497.136719 -41.300781 466.910156 C -9.347656 375.980469 48.527344 307.304688 137.789062 267.332031 C 169.820312 252.980469 203.296875 252.410156 236.933594 258.558594 C 265.613281 263.785156 294.132812 270.269531 322.410156 277.398438 C 368.78125 289.109375 414.875 293.785156 462.261719 282.445312 C 497.871094 273.933594 529.183594 256.832031 560.605469 239.445312 C 629.945312 201.085938 698.785156 161.777344 768.691406 124.410156 C 806.363281 104.296875 846.546875 89.742188 884.09375 83.652344 Z M 884.09375 83.652344 "/>
</g>
</g>
</g>
</g>
<clipPath id="clip7">
  <path d="M 0.886719 279 L 1229.113281 279 L 1229.113281 692 L 0.886719 692 Z M 0.886719 279 "/>
</clipPath>
<mask id="mask1">
  <g filter="url(#alpha)">
<rect x="0" y="0" width="1230" height="693.000001" style="fill:rgb(0%,0%,0%);fill-opacity:0.4471;stroke:none;"/>
  </g>
</mask>
<clipPath id="clip9">
  <path d="M 0.886719 55 L 1229.113281 55 L 1229.113281 413 L 0.886719 413 Z M 0.886719 55 "/>
</clipPath>
<clipPath id="clip10">
  <path d="M -57.257812 174.578125 L 1296.542969 9.890625 L 1415.921875 991.230469 L 62.121094 1155.914062 Z M -57.257812 174.578125 "/>
</clipPath>
<clipPath id="clip11">
  <path d="M -57.257812 174.578125 L 1296.542969 9.890625 L 1415.921875 991.230469 L 62.121094 1155.914062 Z M -57.257812 174.578125 "/>
</clipPath>
<clipPath id="clip8">
  <rect x="0" y="0" width="1230" height="413"/>
</clipPath>
<g id="surface8" clip-path="url(#clip8)">
<g clip-path="url(#clip9)" clip-rule="nonzero">
<g clip-path="url(#clip10)" clip-rule="nonzero">
<g clip-path="url(#clip11)" clip-rule="nonzero">
<path style=" stroke:none;fill-rule:evenodd;fill:rgb(99.21875%,79.998779%,46.269226%);fill-opacity:1;" d="M 913.984375 58.316406 C 986.554688 48.871094 1051.355469 62.8125 1115.519531 82.101562 C 1172.734375 99.3125 1222.4375 129.238281 1265.679688 170.25 C 1312.078125 214.269531 1327.0625 267.4375 1308.476562 328.261719 C 1299.777344 356.792969 1286.882812 384.207031 1274.054688 411.257812 C 1261.226562 438.226562 1250.875 465.765625 1255.910156 495.652344 C 1261.003906 525.855469 1269.246094 555.566406 1276.671875 585.355469 C 1283.558594 612.996094 1293.679688 640.078125 1297.957031 668.074219 C 1311.289062 755.402344 1289.984375 834.980469 1239.804688 907.382812 C 1184.882812 986.71875 1108.492188 1028.484375 1013.191406 1035.609375 C 994.726562 1036.992188 974.734375 1034.128906 957.117188 1028.183594 C 928.105469 1018.367188 899.359375 1006.546875 872.523438 991.851562 C 819.480469 962.804688 763.753906 945.183594 703.207031 944.53125 C 673.117188 944.195312 643.476562 947.695312 614.789062 958.007812 C 559.820312 977.738281 503.425781 989.773438 444.796875 981.820312 C 394.6875 975.019531 348.601562 957.234375 307.878906 926.335938 C 278.234375 903.839844 267.144531 874.0625 270.058594 837.917969 C 273.515625 794.929688 276.996094 751.9375 280.21875 708.941406 C 282.414062 679.148438 275.894531 650.648438 265.9375 622.890625 C 259.882812 606.078125 248.464844 593.695312 230.832031 589.355469 C 213.859375 585.214844 196.539062 581.757812 179.167969 579.851562 C 145.621094 576.160156 112.140625 572.652344 80.933594 558.574219 C 37.351562 538.890625 3.074219 510.050781 -14.53125 463.796875 C -26.148438 433.304688 -25.667969 402.601562 -13.382812 373.78125 C 23.554688 287.078125 84.378906 223.726562 174.023438 190.367188 C 206.191406 178.390625 238.898438 179.949219 271.335938 188.074219 C 298.996094 194.984375 326.417969 203.113281 353.5625 211.859375 C 398.078125 226.214844 442.765625 233.691406 489.726562 225.621094 C 525.019531 219.566406 556.660156 204.859375 588.425781 189.882812 C 658.527344 156.835938 728.195312 122.832031 798.785156 90.792969 C 836.820312 73.546875 876.957031 61.886719 913.984375 58.316406 Z M 913.984375 58.316406 "/>
</g>
</g>
</g>
</g>
<clipPath id="clip12">
  <path d="M 0.886719 415 L 1229.113281 415 L 1229.113281 692 L 0.886719 692 Z M 0.886719 415 "/>
</clipPath>
</defs>
<g id="surface1">
<g clip-path="url(#clip1)" clip-rule="nonzero">
<path style=" stroke:none;fill-rule:nonzero;fill:rgb(100%,100%,100%);fill-opacity:1;" d="M 0.886719 0 L 1229.113281 0 L 1229.113281 699.492188 L 0.886719 699.492188 Z M 0.886719 0 "/>
<path style=" stroke:none;fill-rule:nonzero;fill:rgb(100%,100%,100%);fill-opacity:1;" d="M 0.886719 0 L 1229.113281 0 L 1229.113281 692 L 0.886719 692 Z M 0.886719 0 "/>
<path style=" stroke:none;fill-rule:nonzero;fill:rgb(98.81897%,99.21875%,99.609375%);fill-opacity:1;" d="M 0.886719 0 L 1229.113281 0 L 1229.113281 692 L 0.886719 692 Z M 0.886719 0 "/>
</g>
<g clip-path="url(#clip2)" clip-rule="nonzero">
<use xlink:href="#surface5" transform="matrix(1,0,0,1,0,175)" mask="url(#mask0)"/>
</g>
<g clip-path="url(#clip7)" clip-rule="nonzero">
<use xlink:href="#surface8" transform="matrix(1,0,0,1,0,279)" mask="url(#mask1)"/>
</g>
<g clip-path="url(#clip12)" clip-rule="nonzero">
<path style=" stroke:none;fill-rule:evenodd;fill:rgb(100%,50.19989%,25.878906%);fill-opacity:1;" d="M 902.902344 415.582031 C 973.996094 414.984375 1034.847656 436.027344 1094.460938 462.148438 C 1147.617188 485.449219 1192.039062 520.132812 1228.925781 564.742188 C 1268.503906 612.621094 1276.714844 665.640625 1251.660156 722.101562 C 1239.921875 748.585938 1224.273438 773.503906 1208.730469 798.082031 C 1193.195312 822.578125 1179.984375 847.914062 1181.332031 877.316406 C 1182.703125 907.035156 1187.164062 936.644531 1190.832031 966.234375 C 1194.226562 993.691406 1200.8125 1020.984375 1201.65625 1048.480469 C 1204.265625 1134.234375 1174.382812 1208.460938 1117.5 1272.378906 C 1055.230469 1342.421875 976.667969 1373.734375 883.925781 1369.421875 C 865.957031 1368.59375 847.015625 1363.488281 830.722656 1355.6875 C 803.898438 1342.820312 777.566406 1328.054688 753.410156 1310.738281 C 705.664062 1276.511719 653.996094 1252.988281 595.683594 1245.261719 C 566.703125 1241.410156 537.710938 1241.304688 508.835938 1247.882812 C 453.511719 1260.460938 397.71875 1265.449219 342.113281 1250.90625 C 294.589844 1238.46875 252.234375 1215.917969 216.589844 1181.351562 C 190.640625 1156.191406 183.4375 1126.179688 190.488281 1091.671875 C 198.867188 1050.632812 207.265625 1009.59375 215.417969 968.519531 C 221.027344 940.054688 218.085938 911.8125 211.738281 883.886719 C 207.875 866.964844 198.316406 853.6875 181.820312 847.433594 C 165.9375 841.453125 149.644531 836.089844 133.117188 832.214844 C 101.195312 824.71875 69.320312 817.414062 40.878906 800.175781 C 1.160156 776.09375 -28.511719 744.265625 -40.0625 697.605469 C -47.6875 666.847656 -43.625 637.304688 -28.394531 610.960938 C 17.394531 531.699219 83.484375 477.757812 173.84375 456.105469 C 206.269531 448.332031 237.625 453.671875 267.953125 465.3125 C 293.816406 475.214844 319.308594 486.269531 344.457031 497.886719 C 385.703125 516.949219 427.917969 529.394531 474.152344 527.121094 C 508.894531 525.425781 541.132812 514.957031 573.523438 504.242188 C 645 480.601562 716.171875 455.992188 788.003906 433.378906 C 826.707031 421.214844 866.777344 414.679688 902.902344 415.582031 Z M 902.902344 415.582031 "/>
</g>
</g>
</svg>
