<?xml version="1.0" encoding="UTF-8"?>
<svg xmlns="http://www.w3.org/2000/svg" xmlns:xlink="http://www.w3.org/1999/xlink" width="1230pt" height="693.000001pt" viewBox="0 0 1230 693.000001" version="1.2">
<defs>
<clipPath id="clip1">
  <path d="M 0.886719 0 L 1229.113281 0 L 1229.113281 692 L 0.886719 692 Z M 0.886719 0 "/>
</clipPath>
<filter id="alpha" filterUnits="objectBoundingBox" x="0%" y="0%" width="100%" height="100%">
  <feColorMatrix type="matrix" in="SourceGraphic" values="0 0 0 0 1 0 0 0 0 1 0 0 0 0 1 0 0 0 1 0"/>
</filter>
<mask id="mask0">
  <g filter="url(#alpha)">
<rect x="0" y="0" width="1230" height="693.000001" style="fill:rgb(0%,0%,0%);fill-opacity:0.4471;stroke:none;"/>
  </g>
</mask>
<clipPath id="clip3">
  <path d="M 0.886719 4 L 1229.113281 4 L 1229.113281 692 L 0.886719 692 Z M 0.886719 4 "/>
</clipPath>
<clipPath id="clip4">
  <path d="M -119.882812 161.472656 L 1258.074219 -52.609375 L 1413.289062 946.445312 L 35.332031 1160.527344 Z M -119.882812 161.472656 "/>
</clipPath>
<clipPath id="clip5">
  <path d="M -119.882812 161.472656 L 1258.074219 -52.609375 L 1413.289062 946.445312 L 35.332031 1160.527344 Z M -119.882812 161.472656 "/>
</clipPath>
<clipPath id="clip2">
  <rect x="0" y="0" width="1230" height="692"/>
</clipPath>
<g id="surface5" clip-path="url(#clip2)">
<g clip-path="url(#clip3)" clip-rule="nonzero">
<g clip-path="url(#clip4)" clip-rule="nonzero">
<g clip-path="url(#clip5)" clip-rule="nonzero">
<path style=" stroke:none;fill-rule:evenodd;fill:rgb(100%,94.509888%,36.079407%);fill-opacity:1;" d="M 868.753906 9.816406 C 942.597656 -2.292969 1009.292969 9.769531 1075.515625 27.320312 C 1134.574219 42.976562 1186.378906 71.886719 1231.957031 112.347656 C 1280.867188 155.773438 1297.976562 209.613281 1281.046875 272.414062 C 1273.121094 301.871094 1260.871094 330.328125 1248.675781 358.414062 C 1236.480469 386.414062 1226.832031 414.914062 1232.988281 445.292969 C 1239.21875 475.992188 1248.648438 506.085938 1257.242188 536.28125 C 1265.214844 564.304688 1276.476562 591.640625 1281.796875 620.113281 C 1298.378906 708.925781 1279.296875 790.992188 1230.46875 866.695312 C 1177.023438 949.640625 1100.371094 994.917969 1003.214844 1005.417969 C 984.394531 1007.457031 963.867188 1005.207031 945.660156 999.726562 C 915.679688 990.667969 885.902344 979.5625 857.980469 965.445312 C 802.789062 937.542969 745.242188 921.417969 683.34375 922.796875 C 652.578125 923.472656 622.40625 928.046875 593.4375 939.558594 C 537.929688 961.585938 480.707031 975.792969 420.519531 969.644531 C 369.082031 964.382812 321.378906 947.761719 278.71875 917.554688 C 247.664062 895.566406 235.316406 865.5 237.074219 828.453125 C 239.152344 784.398438 241.25 740.335938 243.089844 696.273438 C 244.324219 665.75 236.699219 636.835938 225.582031 608.804688 C 218.828125 591.820312 206.738281 579.550781 188.574219 575.707031 C 171.085938 572.050781 153.269531 569.101562 135.453125 567.738281 C 101.042969 565.101562 66.710938 562.648438 34.339844 549.308594 C -10.867188 530.664062 -46.871094 502.34375 -66.429688 455.65625 C -79.332031 424.882812 -79.882812 393.484375 -68.300781 363.609375 C -33.488281 273.734375 26.527344 206.925781 117.011719 169.796875 C 149.480469 156.464844 182.957031 156.953125 216.382812 164.164062 C 244.886719 170.292969 273.183594 177.675781 301.21875 185.699219 C 347.199219 198.871094 393.121094 205 440.84375 195.164062 C 476.703125 187.785156 508.542969 171.683594 540.496094 155.300781 C 611.019531 119.148438 681.066406 82.039062 752.121094 46.902344 C 790.410156 27.992188 831.03125 14.714844 868.753906 9.816406 Z M 868.753906 9.816406 "/>
</g>
</g>
</g>
</g>
<clipPath id="clip6">
  <path d="M 0.886719 61 L 1229.113281 61 L 1229.113281 692 L 0.886719 692 Z M 0.886719 61 "/>
</clipPath>
<mask id="mask1">
  <g filter="url(#alpha)">
<rect x="0" y="0" width="1230" height="693.000001" style="fill:rgb(0%,0%,0%);fill-opacity:0.4471;stroke:none;"/>
  </g>
</mask>
<clipPath id="clip8">
  <path d="M 0.886719 37 L 1229.113281 37 L 1229.113281 631 L 0.886719 631 Z M 0.886719 37 "/>
</clipPath>
<clipPath id="clip9">
  <path d="M -90.921875 101.527344 L 1269.8125 10.382812 L 1335.878906 996.746094 L -24.855469 1087.890625 Z M -90.921875 101.527344 "/>
</clipPath>
<clipPath id="clip10">
  <path d="M -90.921875 101.527344 L 1269.8125 10.382812 L 1335.878906 996.746094 L -24.855469 1087.890625 Z M -90.921875 101.527344 "/>
</clipPath>
<clipPath id="clip7">
  <rect x="0" y="0" width="1230" height="631"/>
</clipPath>
<g id="surface8" clip-path="url(#clip7)">
<g clip-path="url(#clip8)" clip-rule="nonzero">
<g clip-path="url(#clip9)" clip-rule="nonzero">
<g clip-path="url(#clip10)" clip-rule="nonzero">
<path style=" stroke:none;fill-rule:evenodd;fill:rgb(99.21875%,79.998779%,46.269226%);fill-opacity:1;" d="M 885.1875 38.027344 C 958.164062 32.523438 1022.117188 49.953125 1085.140625 72.6875 C 1141.339844 92.96875 1189.351562 125.542969 1230.308594 168.835938 C 1274.253906 215.300781 1286.335938 269.207031 1264.488281 328.933594 C 1254.253906 356.953125 1239.894531 383.625 1225.621094 409.945312 C 1211.355469 436.179688 1199.527344 463.121094 1202.933594 493.230469 C 1206.386719 523.667969 1213.007812 553.78125 1218.808594 583.929688 C 1224.1875 611.902344 1232.828125 639.492188 1235.585938 667.675781 C 1244.167969 755.597656 1218.585938 833.90625 1164.558594 903.488281 C 1105.421875 979.730469 1026.882812 1017.300781 931.335938 1019.257812 C 912.820312 1019.636719 893.015625 1015.695312 875.742188 1008.804688 C 847.308594 997.429688 819.246094 984.074219 793.246094 967.945312 C 741.851562 936.066406 687.160156 915.457031 626.738281 911.527344 C 596.707031 909.5625 566.921875 911.449219 537.71875 920.195312 C 481.761719 936.921875 424.800781 945.886719 366.6875 934.769531 C 317.019531 925.265625 271.964844 905.011719 232.972656 871.953125 C 204.59375 847.886719 195.128906 817.550781 199.996094 781.617188 C 205.773438 738.878906 211.578125 696.136719 217.125 653.378906 C 220.929688 623.75 215.964844 594.9375 207.523438 566.683594 C 202.386719 549.566406 191.65625 536.585938 174.289062 531.296875 C 157.5625 526.242188 140.457031 521.851562 123.214844 519.007812 C 89.914062 513.503906 56.671875 508.191406 26.277344 492.441406 C -16.179688 470.429688 -48.84375 439.777344 -63.917969 392.632812 C -73.867188 361.558594 -71.726562 330.929688 -57.898438 302.816406 C -16.320312 218.238281 47.847656 158.273438 139.164062 129.816406 C 171.933594 119.597656 204.507812 122.925781 236.457031 132.796875 C 263.703125 141.191406 290.644531 150.796875 317.277344 161 C 360.949219 177.746094 405.167969 187.628906 452.496094 182.113281 C 488.066406 177.976562 520.453125 165.007812 552.984375 151.773438 C 624.773438 122.566406 696.179688 92.386719 768.398438 64.214844 C 807.3125 49.054688 848.023438 39.585938 885.1875 38.027344 Z M 885.1875 38.027344 "/>
</g>
</g>
</g>
</g>
<clipPath id="clip11">
  <path d="M 0.886719 140 L 1229.113281 140 L 1229.113281 692 L 0.886719 692 Z M 0.886719 140 "/>
</clipPath>
<clipPath id="clip12">
  <path d="M 0.886719 332 L 1229.113281 332 L 1229.113281 692 L 0.886719 692 Z M 0.886719 332 "/>
</clipPath>
</defs>
<g id="surface1">
<g clip-path="url(#clip1)" clip-rule="nonzero">
<path style=" stroke:none;fill-rule:nonzero;fill:rgb(100%,100%,100%);fill-opacity:1;" d="M 0.886719 0 L 1229.113281 0 L 1229.113281 1391.492188 L 0.886719 1391.492188 Z M 0.886719 0 "/>
<path style=" stroke:none;fill-rule:nonzero;fill:rgb(100%,100%,100%);fill-opacity:1;" d="M 0.886719 0 L 1229.113281 0 L 1229.113281 692 L 0.886719 692 Z M 0.886719 0 "/>
<path style=" stroke:none;fill-rule:nonzero;fill:rgb(100%,100%,100%);fill-opacity:1;" d="M 0.886719 0 L 1229.113281 0 L 1229.113281 692 L 0.886719 692 Z M 0.886719 0 "/>
<use xlink:href="#surface5" transform="matrix(1,0,0,1,0,-0.000000000000066872)" mask="url(#mask0)"/>
</g>
<g clip-path="url(#clip6)" clip-rule="nonzero">
<use xlink:href="#surface8" transform="matrix(1,0,0,1,0,61)" mask="url(#mask1)"/>
</g>
<g clip-path="url(#clip11)" clip-rule="nonzero">
<path style=" stroke:none;fill-rule:evenodd;fill:rgb(100%,50.19989%,25.878906%);fill-opacity:1;" d="M 879.917969 140.957031 C 951.007812 140.359375 1011.863281 161.402344 1071.472656 187.523438 C 1124.632812 210.828125 1169.050781 245.507812 1205.9375 290.121094 C 1245.519531 337.996094 1253.730469 391.015625 1228.675781 447.476562 C 1216.9375 473.964844 1201.289062 498.878906 1185.742188 523.457031 C 1170.210938 547.953125 1156.996094 573.289062 1158.34375 602.691406 C 1159.714844 632.410156 1164.179688 662.023438 1167.84375 691.609375 C 1171.242188 719.070312 1177.824219 746.363281 1178.667969 773.855469 C 1181.28125 859.613281 1151.398438 933.835938 1094.515625 997.753906 C 1032.246094 1067.796875 953.679688 1099.109375 860.941406 1094.800781 C 842.972656 1093.96875 824.03125 1088.863281 807.738281 1081.066406 C 780.914062 1068.195312 754.578125 1053.433594 730.425781 1036.113281 C 682.679688 1001.886719 631.011719 978.363281 572.699219 970.636719 C 543.71875 966.785156 514.726562 966.679688 485.851562 973.261719 C 430.527344 985.835938 374.734375 990.824219 319.128906 976.28125 C 271.605469 963.847656 229.246094 941.292969 193.601562 906.730469 C 167.65625 881.566406 160.453125 851.554688 167.503906 817.050781 C 175.878906 776.007812 184.277344 734.96875 192.429688 693.894531 C 198.042969 665.429688 195.101562 637.1875 188.753906 609.261719 C 184.886719 592.339844 175.328125 579.0625 158.835938 572.8125 C 142.953125 566.828125 126.65625 561.464844 110.128906 557.589844 C 78.210938 550.09375 46.335938 542.789062 17.894531 525.554688 C -21.828125 501.46875 -51.5 469.644531 -63.046875 422.980469 C -70.675781 392.222656 -66.609375 362.679688 -51.382812 336.335938 C -5.59375 257.078125 60.496094 203.132812 150.859375 181.484375 C 183.28125 173.707031 214.640625 179.046875 244.96875 190.6875 C 270.832031 200.59375 296.320312 211.644531 321.472656 223.261719 C 362.714844 242.324219 404.933594 254.769531 451.167969 252.5 C 485.910156 250.800781 518.148438 240.332031 550.535156 229.621094 C 622.011719 205.980469 693.1875 181.367188 765.015625 158.757812 C 803.71875 146.589844 843.792969 140.058594 879.917969 140.957031 Z M 879.917969 140.957031 "/>
</g>
<g clip-path="url(#clip12)" clip-rule="nonzero">
<path style=" stroke:none;fill-rule:nonzero;fill:rgb(100%,50.19989%,25.878906%);fill-opacity:1;" d="M -11.007812 332.332031 L 1241.164062 332.332031 L 1241.164062 712.78125 L -11.007812 712.78125 Z M -11.007812 332.332031 "/>
</g>
</g>
</svg>
