<?xml version="1.0" encoding="utf-8"?>
<!-- Generator: Adobe Illustrator 25.4.1, SVG Export Plug-In . SVG Version: 6.00 Build 0)  -->
<svg version="1.1" id="Layer_1" xmlns="http://www.w3.org/2000/svg" xmlns:xlink="http://www.w3.org/1999/xlink" x="0px" y="0px"
	 viewBox="0 0 468 216" style="enable-background:new 0 0 468 216;" xml:space="preserve">
<style type="text/css">
	.st0{fill:#808080;}
	.st1{fill:#EBA900;}
	.st2{fill:#0079D2;}
	.st3{fill:#888B8D;}
	.st4{fill:none;}
	.st5{fill:#7BA5E2;}
</style>
<g>
	<path class="st0" d="M268.7,94.1"/>
	<g>
		<g>
			<path class="st1" d="M229.7,113.6c-0.8-1.1-2-1.6-3.5-1.6c-2.7,0-4.1,1.6-4.1,4.8c0,1.4,0.3,2.5,1,3.4c0.7,0.9,1.8,1.4,3.1,1.4
				c1.4,0,2.4-0.4,3.1-1.2l3.4,1.5c-1.4,2-3.6,3-6.5,3c-2.3,0-4.2-0.8-5.7-2.3c-1.5-1.5-2.3-3.5-2.3-5.8c0-2.5,0.7-4.5,2.1-5.9
				c1.4-1.5,3.4-2.2,5.9-2.2c3.1,0,5.3,1,6.7,3.1L229.7,113.6z"/>
			<path class="st1" d="M250.6,122.6c-1.3,1.5-3.3,2.2-5.8,2.2c-2.4,0-4.3-0.8-5.7-2.3c-1.4-1.5-2.1-3.4-2.1-5.8
				c0-2.5,0.7-4.5,2-5.9c1.3-1.5,3.3-2.2,5.7-2.2c2.4,0,4.4,0.7,5.7,2.2c1.3,1.5,2,3.4,2,5.9C252.5,119.2,251.9,121.2,250.6,122.6z
				 M244.8,111.9c-2.6,0-3.9,1.6-3.9,4.9s1.3,4.9,3.9,4.9c2.6,0,3.9-1.6,3.9-4.9S247.4,111.9,244.8,111.9z"/>
			<path class="st1" d="M268.7,123.1c-1.2,1-2.8,1.6-4.9,1.6c-2.1,0-3.7-0.5-4.9-1.6c-1.2-1.1-1.8-2.6-1.8-4.7v-9.5h3.7v9
				c0,2.3,1,3.4,3.1,3.4c2.1,0,3.1-1.2,3.1-3.4v-9h3.7v9.5C270.6,120.4,270,122,268.7,123.1z"/>
			<path class="st1" d="M286,124.6l-6.7-10.8v10.8h-3.6v-15.8h4.5l5.8,9v-9h3.6v15.8H286z"/>
			<path class="st1" d="M303.2,112v12.6h-3.6V112h-4.9v-3.2h13.4v3.2H303.2z"/>
			<path class="st1" d="M321.6,118.5v6.1h-3.7v-5.9l-5.8-9.9h4.2l3.5,6.5l3.4-6.5h4L321.6,118.5z"/>
		</g>
		<g>
			<path class="st2" d="M160.4,87.5c-1.2-1.8-3-2.8-5.3-2.7c-4.1,0.1-6.2,3-6.2,8.8c0,2.5,0.5,4.5,1.5,6c1.1,1.6,2.7,2.3,4.7,2.1
				c2.1-0.2,3.7-1,4.8-2.4c1.7,0.8,3.4,1.5,5.1,2.3c-2.2,3.6-5.5,5.6-9.9,6c-3.5,0.4-6.4-0.7-8.7-3.3c-2.3-2.6-3.4-6.1-3.4-10.4
				c0-4.6,1.1-8.3,3.2-10.9c2.2-2.7,5.1-4,8.9-4c4.7,0,8.1,1.8,10.2,5.4C163.6,85.4,162,86.4,160.4,87.5z"/>
			<path class="st2" d="M188.4,102c-1.8,1.8-4.3,2.8-7.5,3.1c-3.1,0.2-5.6-0.5-7.5-2.1c-1.8-1.6-2.7-4.2-2.7-7.7c0-5.3,0-10.7,0-16
				c1.9,0,3.7,0,5.6,0c0,5,0,10,0,15c0,3.8,1.5,5.6,4.7,5.4c3.1-0.2,4.7-2.1,4.7-5.8c0-4.9,0-9.7,0-14.6c1.9,0,3.7,0,5.6,0
				c0,5,0,10,0,15C191.2,97.5,190.2,100.1,188.4,102z"/>
			<path class="st2" d="M217.4,102.7c0-4.8,0-9.5,0-14.3c-2.3,4.8-4.5,9.7-6.8,14.6c-2.3-4.7-4.7-9.5-7-14.3c0,4.9,0,9.8,0,14.7
				c-1.8,0.1-3.6,0.2-5.4,0.3c0-8.2,0-16.4,0.1-24.5c2.3,0,4.5,0,6.8,0c1.9,4,3.7,7.9,5.6,11.7c1.9-4,3.8-7.9,5.6-11.7
				c2.3,0,4.5,0,6.8,0c0,7.8,0,15.5-0.1,23.3C221.2,102.5,219.3,102.6,217.4,102.7z"/>
			<path class="st2" d="M240.2,101.9c-3.6,0.1-7.2,0.2-10.8,0.3c0-7.7,0-15.3,0.1-23c3.5,0,6.9,0,10.4,0c1.9,0,3.5,0.6,4.9,1.7
				c1.4,1.1,2.1,2.5,2.1,4.3c0,1.5-0.6,2.9-1.9,3.9c1.4,0.3,2.4,1,3.1,2c0.7,1,1,2.1,1,3.5C249.1,99.4,246.1,101.7,240.2,101.9z
				 M241.4,84.1c-0.6-0.4-1.3-0.5-2-0.5c-1.4,0-2.9,0-4.3,0c0,1.4,0,2.8,0,4.2c1.4,0,2.9,0,4.3,0c0.7,0,1.4-0.2,2-0.6
				c0.6-0.4,0.9-0.9,0.9-1.5C242.2,84.9,241.9,84.4,241.4,84.1z M242.9,92.5c-0.7-0.5-1.5-0.7-2.5-0.7c-1.8,0-3.6,0.1-5.4,0.1
				c0,1.9,0,3.9,0,5.8c1.8,0,3.6-0.1,5.4-0.1c1,0,1.8-0.3,2.5-0.8c0.7-0.5,1-1.2,1-2.1C243.9,93.7,243.6,93,242.9,92.5z"/>
			<path class="st2" d="M254.7,101.6c0-7.5,0-14.9,0-22.4c5.4,0,10.7,0,16.1,0c0,1.3,0,2.6,0,4c-3.6,0-7.2,0-10.8,0
				c0,1.5,0,2.9,0,4.4c2.2,0,4.4,0,6.6,0c0,1.3,0,2.6,0,4c-2.2,0-4.4,0-6.6,0c0,2,0,4,0,6.1c3.6,0,7.2,0,10.8-0.1c0,1.3,0,2.6,0,4
				C265.4,101.4,260.1,101.5,254.7,101.6z"/>
			<path class="st2" d="M295.1,90.2c-0.8,1.2-1.8,2.1-3.2,2.7c1.5,2.9,2.9,5.8,4.4,8.7c-2,0-4.1-0.1-6.1-0.1
				c-1.4-2.7-2.7-5.4-4.1-8.1c-1.3,0-2.7,0-4,0c0,2.7,0,5.4,0,8.1c-1.8,0-3.7,0-5.5,0c0-7.4,0-14.8,0-22.3c4.1,0,8.3,0,12.4,0
				c2.1,0,3.8,0.7,5.2,2c1.4,1.3,2.1,3,2.1,5C296.2,87.6,295.9,89,295.1,90.2z M289.8,84.3c-0.6-0.5-1.4-0.7-2.3-0.7
				c-1.8,0-3.7,0-5.5,0c0,1.9,0,3.7,0,5.6c1.8,0,3.7,0,5.5,0c0.9,0,1.7-0.3,2.3-0.8c0.6-0.5,1-1.2,1-2.1
				C290.8,85.4,290.5,84.8,289.8,84.3z"/>
			<path class="st2" d="M302.1,101.8c0-7.5,0-15.1,0-22.6c1.8,0,3.6,0,5.3,0c0,6.1,0,12.1,0,18.2c3.9,0.1,7.8,0.2,11.6,0.3
				c0,1.5,0,3.1,0,4.6C313.4,102.1,307.7,101.9,302.1,101.8z"/>
			<path class="st2" d="M341.2,103.4c-0.5-1.7-1.1-3.4-1.6-5c-2.5-0.1-5.1-0.2-7.7-0.3c-0.6,1.6-1.1,3.2-1.7,4.8c-2-0.1-4-0.2-6-0.3
				c2.8-7.7,5.7-15.4,8.5-23.3c1.9,0,3.7,0,5.6,0c2.9,8,5.8,16.2,8.7,24.5C345.1,103.6,343.1,103.5,341.2,103.4z M335.7,86.6
				c-0.8,2.5-1.7,5-2.5,7.5c1.7,0.1,3.3,0.1,5,0.2C337.3,91.7,336.5,89.1,335.7,86.6z"/>
			<path class="st2" d="M368.1,105.2c-3.4-6.2-6.8-12.2-10.2-18.1c0,5.8,0,11.6,0,17.3c-1.8-0.1-3.6-0.3-5.4-0.4
				c0-8.3,0-16.6-0.1-24.9c2.3,0,4.6,0,6.9,0c2.9,4.8,5.9,9.8,8.8,14.8c0-4.9,0-9.9,0-14.8c1.8,0,3.6,0,5.4,0c0,8.8,0,17.6,0.1,26.5
				C371.8,105.5,369.9,105.4,368.1,105.2z"/>
			<path class="st2" d="M400.4,101.8c-2.5,4.1-6.5,5.8-11.8,5.3c-2.7-0.3-5.4-0.5-8.1-0.8c0-9,0-18,0-27.1c2.8,0,5.6,0,8.4,0
				c2.9,0,5.4,0.7,7.5,2c2.4,1.5,4.1,3.7,5.2,6.7c0.6,1.8,1,3.7,1,5.7C402.5,96.8,401.8,99.5,400.4,101.8z M394.1,86.8
				c-1.6-1.4-3.6-2.1-6.2-2.2c-0.6,0-1.2,0-1.8,0c0,5.6,0,11.2,0,16.9c0.6,0,1.2,0.1,1.8,0.1c2.5,0.2,4.6-0.3,6.2-1.5
				c1.8-1.3,2.7-3.5,2.7-6.5C396.7,90.7,395.9,88.4,394.1,86.8z"/>
		</g>
		<g>
			<path class="st3" d="M204.7,138.5v6.8h-2l-2.8-4.6v4.6h-1.6v-6.8h1.7l3.1,4.6v-4.6H204.7z"/>
			<path class="st3" d="M214.5,138.3c1,0.1,1.9,0.4,2.5,1.1c0.7,0.6,1,1.5,1,2.5c0,1-0.3,1.7-0.9,2.4c-0.6,0.6-1.5,1-2.6,1.1
				c-0.1,0-0.1,0-0.2,0c0,0,0,0,0,0h-0.1c0,0,0,0,0,0c0,0-0.1,0-0.2,0c-1.1-0.1-2-0.4-2.6-1.1c-0.6-0.6-0.9-1.4-0.9-2.4
				c0-1,0.3-1.9,1-2.5c0.6-0.6,1.5-1,2.5-1.1c0.1,0,0.2,0,0.2,0S214.3,138.3,214.5,138.3z M214.2,144.2c0.6,0,1.1-0.2,1.5-0.7
				c0.4-0.5,0.6-1,0.6-1.7c0-0.6-0.2-1.2-0.6-1.7c-0.4-0.5-0.9-0.7-1.5-0.7s-1.1,0.2-1.5,0.7c-0.4,0.5-0.6,1-0.6,1.7
				c0,0.6,0.2,1.2,0.6,1.7C213.2,143.9,213.6,144.2,214.2,144.2z"/>
			<path class="st3" d="M224,145.3v-6.8h2.7c0.1,0,0.2,0,0.3,0h0v0c0.5,0.1,1,0.3,1.3,0.7c0.4,0.4,0.5,0.9,0.5,1.5
				c0,0.4-0.1,0.8-0.3,1.2c-0.2,0.4-0.5,0.6-0.9,0.8l1.6,2.6h-1.6l-1.5-2.3h-0.5v2.3H224z M225.6,141.7h0.8c0.3,0,0.5-0.1,0.7-0.3
				c0.2-0.2,0.3-0.5,0.3-0.7c0-0.3-0.1-0.5-0.3-0.7c-0.2-0.2-0.4-0.3-0.7-0.3h-0.8V141.7z"/>
			<path class="st3" d="M240,138.5l-0.3,1.1H238v5.7h-1.7v-5.7h-1.7l-0.3-1.1H240z"/>
			<path class="st3" d="M251.3,138.5v6.8h-1.7v-3.4h-2.3v3.4h-1.7v-6.8h1.7v2.1h2.3v-2.1H251.3z"/>
			<path class="st3" d="M269.2,145.2c-0.3,0.1-0.5,0.1-0.8,0.1c-0.1,0-0.1,0-0.2,0c0,0,0,0,0,0h-0.1c0,0,0,0,0,0c0,0-0.1,0-0.2,0
				c-1.1-0.1-2-0.4-2.6-1c-0.6-0.6-0.9-1.4-0.9-2.3c0-1,0.3-1.9,1-2.5c0.6-0.6,1.5-0.9,2.5-1c0.1,0,0.2,0,0.2,0c0.1,0,0.1,0,0.2,0
				c0.3,0,0.5,0.1,0.8,0.1v1.3c-0.3-0.2-0.7-0.3-1-0.3c-0.6,0-1.1,0.2-1.5,0.7c-0.4,0.4-0.6,1-0.6,1.6c0,0.6,0.2,1.2,0.6,1.6
				c0.4,0.4,0.9,0.7,1.5,0.7c0.4,0,0.7-0.1,1-0.3V145.2z"/>
			<path class="st3" d="M276.2,145.2c0,0.1-0.1,0.1-0.1,0.1h-1.5c0,0-0.1,0-0.1,0c0,0,0-0.1,0-0.1l2.1-6.6c0-0.1,0.1-0.1,0.1-0.1h2
				c0.1,0,0.1,0,0.1,0.1l2.2,6.6c0,0,0,0.1,0,0.1c0,0-0.1,0-0.1,0h-1.6c-0.1,0-0.1,0-0.1-0.1l-0.5-1.6c0-0.1-0.1-0.1-0.1-0.1h-1.9
				c-0.1,0-0.1,0-0.1,0.1L276.2,145.2z M278.4,142.4C278.4,142.4,278.4,142.4,278.4,142.4c0.1-0.1,0.1-0.1,0.1-0.1l-0.4-1.6
				c0-0.1-0.1-0.3-0.1-0.5c-0.1-0.2-0.1-0.4-0.1-0.4c0-0.1-0.1-0.1-0.1-0.1c-0.1,0-0.1,0-0.1,0.1c-0.1,0.4-0.2,0.7-0.2,0.9l-0.4,1.6
				c0,0,0,0.1,0,0.1c0,0,0.1,0,0.1,0H278.4z"/>
			<path class="st3" d="M286.7,145.3v-6.8h2.7c0.1,0,0.2,0,0.3,0h0v0c0.5,0.1,1,0.3,1.3,0.7c0.4,0.4,0.5,0.9,0.5,1.5
				c0,0.4-0.1,0.8-0.3,1.2c-0.2,0.4-0.5,0.6-0.9,0.8l1.6,2.6h-1.6l-1.5-2.3h-0.5v2.3H286.7z M288.4,141.7h0.8c0.3,0,0.5-0.1,0.7-0.3
				c0.2-0.2,0.3-0.5,0.3-0.7c0-0.3-0.1-0.5-0.3-0.7c-0.2-0.2-0.4-0.3-0.7-0.3h-0.8V141.7z"/>
			<path class="st3" d="M301.3,138.3c1,0.1,1.9,0.4,2.5,1.1c0.7,0.6,1,1.5,1,2.5c0,1-0.3,1.7-0.9,2.4c-0.6,0.6-1.5,1-2.6,1.1
				c-0.1,0-0.1,0-0.2,0c0,0,0,0,0,0H301c0,0,0,0,0,0c0,0-0.1,0-0.2,0c-1.1-0.1-2-0.4-2.6-1.1c-0.6-0.6-0.9-1.4-0.9-2.4
				c0-1,0.3-1.9,1-2.5c0.6-0.6,1.5-1,2.5-1.1c0.1,0,0.2,0,0.2,0C301.1,138.3,301.2,138.3,301.3,138.3z M301,144.2
				c0.6,0,1.1-0.2,1.5-0.7c0.4-0.5,0.6-1,0.6-1.7c0-0.6-0.2-1.2-0.6-1.7c-0.4-0.5-0.9-0.7-1.5-0.7s-1.1,0.2-1.5,0.7
				c-0.4,0.5-0.6,1-0.6,1.7c0,0.6,0.2,1.2,0.6,1.7C300,143.9,300.4,144.2,301,144.2z"/>
			<path class="st3" d="M312.4,138.5v5.5h2.9l-0.3,1.3h-4.3v-6.8H312.4z"/>
			<path class="st3" d="M321.2,138.5h1.7v6.8h-1.7V138.5z"/>
			<path class="st3" d="M335.2,138.5v6.8h-2l-2.8-4.6v4.6h-1.6v-6.8h1.7l3.1,4.6v-4.6H335.2z"/>
			<path class="st3" d="M342.2,145.2c0,0.1-0.1,0.1-0.1,0.1h-1.5c0,0-0.1,0-0.1,0c0,0,0-0.1,0-0.1l2.1-6.6c0-0.1,0.1-0.1,0.1-0.1h2
				c0.1,0,0.1,0,0.1,0.1l2.2,6.6c0,0,0,0.1,0,0.1c0,0-0.1,0-0.1,0h-1.6c-0.1,0-0.1,0-0.1-0.1l-0.5-1.6c0-0.1-0.1-0.1-0.1-0.1h-1.9
				c-0.1,0-0.1,0-0.1,0.1L342.2,145.2z M344.5,142.4C344.5,142.4,344.5,142.4,344.5,142.4c0.1-0.1,0.1-0.1,0.1-0.1l-0.4-1.6
				c0-0.1-0.1-0.3-0.1-0.5c-0.1-0.2-0.1-0.4-0.1-0.4c0-0.1-0.1-0.1-0.1-0.1c-0.1,0-0.1,0-0.1,0.1c-0.1,0.4-0.2,0.7-0.2,0.9l-0.4,1.6
				c0,0,0,0.1,0,0.1c0,0,0.1,0,0.1,0H344.5z"/>
		</g>
	</g>
	<g>
		<polygon class="st4" points="110.8,94.2 109.1,94.2 105.4,94.2 122.9,94.2 123,94.1 		"/>
		<path class="st5" d="M91.3,104.5L66,112.7c0.7,2.1,2,4,3.9,5.3l12,8.7l4.1-5.5L91.3,104.5z"/>
		<path class="st5" d="M105.4,94.2l15.6-21.5c-1.8-1.3-4-2-6.3-2H100l0,6.8L105.4,94.2z"/>
		<path class="st5" d="M94.6,94.2L79,72.7c-1.8,1.3-3.2,3.1-3.9,5.3l-4.6,14l6.5,2.2L94.6,94.2z"/>
		<path class="st5" d="M100.1,110.8l-0.1,26.5c2.2,0,4.4-0.7,6.3-2l12-8.7l-4-5.6L100.1,110.8z"/>
		<path class="st2" d="M85.9,121.2l-4.1,5.5l11.9,8.7c0.6,0.4,1.3,0.8,1.9,1.1c1.4,0.6,2.8,0.9,4.3,0.9l0.1-26.5L85.9,121.2z"/>
		<path class="st2" d="M100,77.5l0-6.8H85.2c-0.8,0-1.5,0.1-2.2,0.3c-1.5,0.3-2.8,0.9-4,1.8l15.6,21.5L100,77.5z"/>
		<path class="st1" d="M134,106.1l-0.5-1.7h-24.7l5.5,16.7l4,5.6l3.5-2.5l8.5-6.2c0.6-0.5,1.2-1,1.7-1.6c1-1.1,1.7-2.4,2.2-3.8
			C134.7,110.6,134.7,108.3,134,106.1z"/>
		<path class="st2" d="M77.1,94.2L70.6,92L66,106.1c-0.2,0.7-0.4,1.5-0.4,2.2c-0.2,1.5,0,3,0.4,4.4l25.3-8.2L77.1,94.2z"/>
		<path class="st2" d="M130.2,94.2L124.9,78c-0.2-0.7-0.6-1.4-0.9-2c-0.7-1.3-1.7-2.4-2.9-3.3l-15.6,21.5H130.2z"/>
	</g>
</g>
</svg>
