<?xml version="1.0" encoding="UTF-8"?>
<svg xmlns="http://www.w3.org/2000/svg" xmlns:xlink="http://www.w3.org/1999/xlink" width="810pt" height="809.999993pt" viewBox="0 0 810 809.999993" version="1.2">
<defs>
<clipPath id="clip1">
  <path d="M 238 196 L 589 196 L 589 609.992188 L 238 609.992188 Z M 238 196 "/>
</clipPath>
<clipPath id="clip2">
  <path d="M 249 208 L 577 208 L 577 597.484375 L 249 597.484375 Z M 249 208 "/>
</clipPath>
</defs>
<g id="surface1">
<rect x="0" y="0" width="810" height="809.999993" style="fill:rgb(100%,100%,100%);fill-opacity:1;stroke:none;"/>
<rect x="0" y="0" width="810" height="809.999993" style="fill:rgb(100%,100%,100%);fill-opacity:1;stroke:none;"/>
<path style=" stroke:none;fill-rule:nonzero;fill:rgb(78.039551%,81.568909%,84.709167%);fill-opacity:1;" d="M 195.515625 714.371094 C 163.535156 714.371094 137.582031 686.578125 137.582031 656.929688 L 137.582031 138.90625 C 137.582031 130.566406 139.4375 122.230469 142.679688 114.816406 C 132.484375 124.546875 126.460938 137.976562 126.460938 153.03125 L 126.460938 670.828125 C 126.460938 700.011719 150.558594 724.097656 179.757812 724.097656 L 614.804688 724.097656 C 628.242188 724.097656 640.292969 719.003906 649.5625 711.128906 C 643.539062 713.445312 637.050781 714.371094 630.5625 714.371094 Z M 195.515625 714.371094 "/>
<path style=" stroke:none;fill-rule:nonzero;fill:rgb(96.078491%,96.469116%,96.859741%);fill-opacity:1;" d="M 142.21875 138.90625 L 142.21875 656.003906 C 142.21875 685.1875 166.316406 709.273438 195.515625 709.273438 L 630.5625 709.273438 C 659.757812 709.273438 683.859375 685.1875 683.859375 656.003906 L 683.859375 138.90625 C 683.859375 109.722656 659.757812 85.632812 630.5625 85.632812 L 195.515625 85.632812 C 165.855469 85.632812 142.21875 109.722656 142.21875 138.90625 Z M 142.21875 138.90625 "/>
<path style=" stroke:none;fill-rule:nonzero;fill:rgb(65.098572%,65.098572%,65.098572%);fill-opacity:1;" d="M 661.148438 705.105469 C 677.371094 694.914062 688.492188 676.847656 688.492188 656.003906 L 688.492188 138.90625 C 688.492188 106.941406 662.539062 81.003906 630.5625 81.003906 L 195.515625 81.003906 C 176.511719 81.003906 159.828125 90.265625 149.167969 104.164062 C 132.949219 114.355469 121.824219 132.417969 121.824219 153.53125 L 121.824219 670.363281 C 121.824219 702.328125 147.777344 728.265625 179.757812 728.265625 L 614.804688 728.265625 C 633.804688 728.265625 650.488281 719.003906 661.148438 705.105469 Z M 195.515625 85.632812 L 630.5625 85.632812 C 659.757812 85.632812 683.859375 109.722656 683.859375 138.90625 L 683.859375 656.003906 C 683.859375 685.1875 659.757812 709.273438 630.5625 709.273438 L 195.515625 709.273438 C 166.316406 709.273438 142.21875 685.1875 142.21875 656.003906 L 142.21875 138.90625 C 142.21875 109.722656 165.855469 85.632812 195.515625 85.632812 Z M 179.757812 724.097656 C 150.558594 724.097656 126.460938 699.546875 126.460938 670.363281 L 126.460938 153.53125 C 126.460938 138.441406 132.484375 125.007812 142.679688 115.28125 C 139.4375 122.691406 137.582031 130.566406 137.582031 139.367188 L 137.582031 656.46875 C 137.582031 688.429688 163.535156 714.371094 195.515625 714.371094 L 630.5625 714.371094 C 637.050781 714.371094 643.539062 712.980469 649.5625 711.128906 C 640.292969 719.003906 628.242188 724.097656 614.804688 724.097656 Z M 179.757812 724.097656 "/>
<g clip-path="url(#clip1)" clip-rule="nonzero">
<path style=" stroke:none;fill-rule:nonzero;fill:rgb(32.939148%,32.939148%,32.939148%);fill-opacity:1;" d="M 283.261719 360.421875 C 283.261719 360.421875 243.796875 417.429688 238.851562 433.101562 C 235.125 444.886719 283.261719 454.023438 283.261719 454.023438 C 283.261719 454.023438 287.132812 506.347656 291.46875 527.523438 C 295.152344 545.503906 285.132812 552.269531 321.460938 560.839844 C 328.367188 562.457031 367.238281 558.84375 367.238281 558.84375 L 367.238281 609.886719 L 510.992188 609.886719 L 510.992188 528.953125 C 510.992188 528.953125 570.832031 496.519531 588.238281 360.527344 C 588.238281 360.527344 594.214844 247.242188 497.355469 209.054688 C 443.683594 187.921875 301.488281 180.820312 285.554688 287.277344 C 282.859375 305.386719 283.261719 360.421875 283.261719 360.421875 "/>
</g>
<path style="fill:none;stroke-width:40;stroke-linecap:round;stroke-linejoin:round;stroke:rgb(21.958923%,20.779419%,21.179199%);stroke-opacity:1;stroke-miterlimit:10;" d="M 2421.796984 2145.406398 C 2421.796984 2145.406398 2197.693097 2149.292964 2173.30614 2144.606769 C 2114.101883 2133.207413 2118.407647 2051.608108 2118.407647 2051.608108 C 2113.006883 1967.702897 1997.103878 1967.107825 1997.103878 2057.298488 C 1997.103878 2085.899156 1996.899726 2171.60818 1996.899726 2171.60818 L 1996.899726 2265.201913 " transform="matrix(0.210474,0,0,-0.210058,-33.98623,849.668593)"/>
<path style=" stroke:none;fill-rule:nonzero;fill:rgb(32.939148%,32.939148%,32.939148%);fill-opacity:1;" d="M 466.519531 331.054688 L 466.519531 319.0625 L 480.539062 319.0625 C 481.335938 314.964844 482.957031 311.164062 485.210938 307.824219 L 475.296875 297.929688 L 483.800781 289.441406 L 493.691406 299.335938 C 497.058594 297.089844 500.871094 295.492188 504.972656 294.671875 L 504.972656 280.683594 L 516.992188 280.683594 L 516.992188 294.671875 C 521.097656 295.492188 524.90625 297.089844 528.273438 299.335938 L 538.164062 289.441406 L 546.667969 297.929688 L 536.753906 307.824219 C 539.007812 311.164062 540.628906 314.964844 541.425781 319.0625 L 555.445312 319.0625 L 555.445312 331.054688 L 541.425781 331.054688 C 540.628906 335.152344 539.007812 338.953125 536.777344 342.3125 L 546.667969 352.207031 L 538.164062 360.671875 L 528.273438 350.78125 C 524.90625 353.027344 521.097656 354.644531 516.992188 355.464844 L 516.992188 369.433594 L 504.972656 369.433594 L 504.972656 355.464844 C 500.871094 354.644531 497.058594 353.027344 493.691406 350.78125 L 483.800781 360.671875 L 475.296875 352.207031 L 485.210938 342.3125 C 482.957031 338.953125 481.335938 335.152344 480.539062 331.054688 L 466.519531 331.054688 "/>
<path style=" stroke:none;fill-rule:nonzero;fill:rgb(90.979004%,90.979004%,90.979004%);fill-opacity:1;" d="M 486.9375 325.070312 C 486.9375 338.324219 497.710938 349.058594 510.992188 349.058594 C 524.253906 349.058594 535.03125 338.324219 535.03125 325.070312 C 535.03125 311.8125 524.253906 301.078125 510.992188 301.078125 C 497.710938 301.078125 486.9375 311.8125 486.9375 325.070312 "/>
<path style=" stroke:none;fill-rule:nonzero;fill:rgb(32.939148%,32.939148%,32.939148%);fill-opacity:1;" d="M 464.605469 403.628906 L 464.605469 394.410156 L 475.359375 394.410156 C 475.992188 391.257812 477.234375 388.339844 478.960938 385.777344 L 471.339844 378.171875 L 477.863281 371.660156 L 485.484375 379.261719 C 488.050781 377.519531 490.976562 376.28125 494.132812 375.671875 L 494.132812 364.9375 L 503.351562 364.9375 L 503.351562 375.671875 C 506.511719 376.28125 509.457031 377.519531 512.023438 379.261719 L 519.644531 371.660156 L 526.167969 378.171875 L 518.550781 385.777344 C 520.273438 388.339844 521.515625 391.257812 522.128906 394.410156 L 532.902344 394.410156 L 532.902344 403.628906 L 522.128906 403.628906 C 521.515625 406.761719 520.273438 409.679688 518.550781 412.265625 L 526.167969 419.847656 L 519.644531 426.359375 L 512.023438 418.777344 C 509.457031 420.5 506.511719 421.738281 503.351562 422.347656 L 503.351562 433.101562 L 494.132812 433.101562 L 494.132812 422.347656 C 490.976562 421.738281 488.050781 420.5 485.484375 418.777344 L 477.863281 426.359375 L 471.339844 419.847656 L 478.960938 412.265625 C 477.234375 409.679688 475.992188 406.761719 475.359375 403.628906 L 464.605469 403.628906 "/>
<path style=" stroke:none;fill-rule:nonzero;fill:rgb(90.979004%,90.979004%,90.979004%);fill-opacity:1;" d="M 480.285156 399.007812 C 480.285156 409.195312 488.558594 417.429688 498.742188 417.429688 C 508.953125 417.429688 517.222656 409.195312 517.222656 399.007812 C 517.222656 388.84375 508.953125 380.585938 498.742188 380.585938 C 488.558594 380.585938 480.285156 388.84375 480.285156 399.007812 "/>
<path style=" stroke:none;fill-rule:nonzero;fill:rgb(32.939148%,32.939148%,32.939148%);fill-opacity:1;" d="M 310.222656 295.175781 L 319.460938 274.234375 L 333.164062 280.261719 C 338.320312 272.660156 344.972656 266.421875 352.546875 261.800781 L 347.117188 247.851562 L 368.503906 239.574219 L 373.933594 253.523438 C 382.644531 251.84375 391.761719 251.96875 400.726562 254.109375 L 406.765625 240.457031 L 427.75 249.679688 L 421.6875 263.351562 C 429.328125 268.5 435.558594 275.136719 440.210938 282.699219 L 454.164062 277.28125 L 462.480469 298.621094 L 448.503906 304.042969 C 450.1875 312.71875 450.0625 321.8125 447.894531 330.761719 L 461.59375 336.789062 L 452.355469 357.734375 L 438.632812 351.703125 C 433.476562 359.328125 426.824219 365.546875 419.269531 370.167969 L 424.699219 384.117188 L 403.316406 392.390625 L 397.882812 378.464844 C 389.171875 380.125 380.058594 380 371.089844 377.855469 L 365.050781 391.53125 L 344.066406 382.289062 L 350.105469 368.632812 C 342.488281 363.46875 336.238281 356.828125 331.605469 349.289062 L 317.652344 354.6875 L 309.339844 333.34375 L 323.3125 327.945312 C 321.628906 319.25 321.757812 310.15625 323.925781 301.207031 L 310.222656 295.175781 "/>
<path style=" stroke:none;fill-rule:nonzero;fill:rgb(90.979004%,90.979004%,90.979004%);fill-opacity:1;" d="M 337.101562 294.503906 C 325.207031 321.414062 337.414062 352.839844 364.378906 364.707031 C 391.339844 376.574219 422.824219 364.371094 434.71875 337.460938 C 446.609375 310.554688 434.402344 279.128906 407.441406 267.28125 C 380.480469 255.414062 348.992188 267.597656 337.101562 294.503906 "/>
<g clip-path="url(#clip2)" clip-rule="nonzero">
<path style=" stroke:none;fill-rule:nonzero;fill:rgb(1.568604%,67.83905%,88.238525%);fill-opacity:1;" d="M 291.4375 363.078125 C 291.4375 363.078125 254.570312 416.625 249.949219 431.34375 C 246.46875 442.410156 291.4375 450.992188 291.4375 450.992188 C 291.4375 450.992188 295.054688 500.140625 299.105469 520.027344 C 302.546875 536.914062 293.1875 543.265625 327.121094 551.316406 C 333.570312 552.835938 369.886719 549.441406 369.886719 549.441406 L 369.886719 597.382812 L 504.179688 597.382812 L 504.179688 521.367188 C 504.179688 521.367188 560.078125 490.90625 576.339844 363.179688 C 576.339844 363.179688 581.921875 256.777344 491.4375 220.910156 C 441.300781 201.0625 308.464844 194.394531 293.578125 294.382812 C 291.0625 311.390625 291.4375 363.078125 291.4375 363.078125 "/>
</g>
<path style="fill:none;stroke-width:40;stroke-linecap:round;stroke-linejoin:round;stroke:rgb(21.958923%,20.779419%,21.179199%);stroke-opacity:1;stroke-miterlimit:10;" d="M 2421.805509 2145.39164 C 2421.805509 2145.39164 2197.704926 2149.292099 2173.308161 2144.599668 C 2114.104284 2133.19528 2118.395571 2051.602423 2118.395571 2051.602423 C 2112.991727 1967.69305 1997.107091 1967.099071 1997.107091 2057.304617 C 1997.107091 2085.894786 1996.90842 2171.605894 1996.90842 2171.605894 L 1996.90842 2265.197118 " transform="matrix(0.196619,0,0,-0.197292,-4.927613,822.593835)"/>
<path style=" stroke:none;fill-rule:nonzero;fill:rgb(32.939148%,32.939148%,32.939148%);fill-opacity:1;" d="M 462.632812 335.5 L 462.632812 324.234375 L 475.726562 324.234375 C 476.476562 320.386719 477.988281 316.816406 480.09375 313.679688 L 470.832031 304.386719 L 478.777344 296.414062 L 488.015625 305.707031 C 491.164062 303.597656 494.722656 302.097656 498.554688 301.328125 L 498.554688 288.1875 L 509.78125 288.1875 L 509.78125 301.328125 C 513.617188 302.097656 517.175781 303.597656 520.320312 305.707031 L 529.5625 296.414062 L 537.503906 304.386719 L 528.246094 313.679688 C 530.347656 316.816406 531.863281 320.386719 532.609375 324.234375 L 545.703125 324.234375 L 545.703125 335.5 L 532.609375 335.5 C 531.863281 339.34375 530.347656 342.917969 528.265625 346.074219 L 537.503906 355.367188 L 529.5625 363.316406 L 520.320312 354.023438 C 517.175781 356.136719 513.617188 357.65625 509.78125 358.421875 L 509.78125 371.542969 L 498.554688 371.542969 L 498.554688 358.421875 C 494.722656 357.65625 491.164062 356.136719 488.015625 354.023438 L 478.777344 363.316406 L 470.832031 355.367188 L 480.09375 346.074219 C 477.988281 342.917969 476.476562 339.34375 475.726562 335.5 L 462.632812 335.5 "/>
<path style=" stroke:none;fill-rule:nonzero;fill:rgb(90.979004%,90.979004%,90.979004%);fill-opacity:1;" d="M 481.707031 329.875 C 481.707031 342.324219 491.773438 352.40625 504.179688 352.40625 C 516.566406 352.40625 526.632812 342.324219 526.632812 329.875 C 526.632812 317.425781 516.566406 307.34375 504.179688 307.34375 C 491.773438 307.34375 481.707031 317.425781 481.707031 329.875 "/>
<path style=" stroke:none;fill-rule:nonzero;fill:rgb(32.939148%,32.939148%,32.939148%);fill-opacity:1;" d="M 460.84375 403.664062 L 460.84375 395 L 470.890625 395 C 471.480469 392.042969 472.640625 389.300781 474.253906 386.894531 L 467.136719 379.75 L 473.230469 373.636719 L 480.347656 380.777344 C 482.746094 379.140625 485.480469 377.976562 488.429688 377.402344 L 488.429688 367.320312 L 497.042969 367.320312 L 497.042969 377.402344 C 499.992188 377.976562 502.742188 379.140625 505.140625 380.777344 L 512.261719 373.636719 L 518.355469 379.75 L 511.238281 386.894531 C 512.851562 389.300781 514.007812 392.042969 514.578125 395 L 524.648438 395 L 524.648438 403.664062 L 514.578125 403.664062 C 514.007812 406.601562 512.851562 409.34375 511.238281 411.773438 L 518.355469 418.894531 L 512.261719 425.011719 L 505.140625 417.886719 C 502.742188 419.503906 499.992188 420.667969 497.042969 421.242188 L 497.042969 431.34375 L 488.429688 431.34375 L 488.429688 421.242188 C 485.480469 420.667969 482.746094 419.503906 480.347656 417.886719 L 473.230469 425.011719 L 467.136719 418.894531 L 474.253906 411.773438 C 472.640625 409.34375 471.480469 406.601562 470.890625 403.664062 L 460.84375 403.664062 "/>
<path style=" stroke:none;fill-rule:nonzero;fill:rgb(90.979004%,90.979004%,90.979004%);fill-opacity:1;" d="M 475.492188 399.324219 C 475.492188 408.890625 483.21875 416.625 492.734375 416.625 C 502.269531 416.625 510 408.890625 510 399.324219 C 510 389.773438 502.273438 382.019531 492.734375 382.019531 C 483.21875 382.019531 475.492188 389.773438 475.492188 399.324219 "/>
<path style=" stroke:none;fill-rule:nonzero;fill:rgb(32.939148%,32.939148%,32.939148%);fill-opacity:1;" d="M 316.625 301.800781 L 325.253906 282.128906 L 338.054688 287.792969 C 342.871094 280.652344 349.085938 274.792969 356.164062 270.449219 L 351.089844 257.351562 L 371.066406 249.578125 L 376.140625 262.679688 C 384.28125 261.097656 392.792969 261.21875 401.167969 263.230469 L 406.8125 250.40625 L 426.414062 259.066406 L 420.753906 271.910156 C 427.890625 276.746094 433.710938 282.980469 438.054688 290.082031 L 451.089844 284.992188 L 458.859375 305.035156 L 445.800781 310.125 C 447.375 318.273438 447.257812 326.816406 445.230469 335.222656 L 458.03125 340.882812 L 449.402344 360.554688 L 436.582031 354.890625 C 431.765625 362.054688 425.550781 367.894531 418.492188 372.234375 L 423.566406 385.335938 L 403.589844 393.109375 L 398.515625 380.027344 C 390.375 381.585938 381.863281 381.46875 373.484375 379.457031 L 367.84375 392.300781 L 348.238281 383.617188 L 353.882812 370.792969 C 346.765625 365.941406 340.925781 359.707031 336.601562 352.625 L 323.5625 357.695312 L 315.796875 337.648438 L 328.851562 332.578125 C 327.28125 324.410156 327.398438 315.867188 329.421875 307.464844 L 316.625 301.800781 "/>
<path style=" stroke:none;fill-rule:nonzero;fill:rgb(90.979004%,90.979004%,90.979004%);fill-opacity:1;" d="M 341.730469 301.167969 C 330.621094 326.441406 342.027344 355.957031 367.214844 367.105469 C 392.402344 378.25 421.816406 366.789062 432.925781 341.515625 C 444.03125 316.242188 432.628906 286.726562 407.441406 275.601562 C 382.253906 264.453125 352.839844 275.894531 341.730469 301.167969 "/>
</g>
</svg>
