<?xml version="1.0" encoding="UTF-8"?>
<svg xmlns="http://www.w3.org/2000/svg" xmlns:xlink="http://www.w3.org/1999/xlink" width="810pt" height="809.999993pt" viewBox="0 0 810 809.999993" version="1.2">
<defs>
<clipPath id="clip1">
  <path d="M 122.816406 58.5 L 689 58.5 L 689 624.75 L 122.816406 624.75 Z M 122.816406 58.5 "/>
</clipPath>
<clipPath id="clip2">
  <path d="M 122.816406 263 L 567 263 L 567 618 L 122.816406 618 Z M 122.816406 263 "/>
</clipPath>
</defs>
<g id="surface1">
<rect x="0" y="0" width="810" height="809.999993" style="fill:rgb(100%,100%,100%);fill-opacity:1;stroke:none;"/>
<rect x="0" y="0" width="810" height="809.999993" style="fill:rgb(100%,100%,100%);fill-opacity:1;stroke:none;"/>
<rect x="0" y="0" width="810" height="809.999993" style="fill:rgb(100%,100%,100%);fill-opacity:1;stroke:none;"/>
<path style=" stroke:none;fill-rule:nonzero;fill:rgb(32.939148%,32.939148%,32.939148%);fill-opacity:1;" d="M 73.886719 17.4375 L 73.886719 593.097656 L 396.09375 803.425781 L 718.886719 593.097656 L 718.886719 17.4375 Z M 73.886719 17.4375 "/>
<path style=" stroke:none;fill-rule:nonzero;fill:rgb(78.039551%,81.568909%,84.709167%);fill-opacity:1;" d="M 77.855469 22.265625 L 77.855469 590.789062 L 396.3125 798.507812 L 715.355469 590.789062 L 715.355469 22.265625 Z M 77.855469 22.265625 "/>
<path style=" stroke:none;fill-rule:nonzero;fill:rgb(32.939148%,32.939148%,32.939148%);fill-opacity:1;" d="M 74.195312 16.15625 L 91.277344 6.757812 L 99.230469 21.214844 L 82.148438 30.613281 Z M 74.195312 16.15625 "/>
<path style=" stroke:none;fill-rule:nonzero;fill:rgb(78.039551%,81.568909%,84.709167%);fill-opacity:1;" d="M 75.367188 18.640625 L 92.449219 9.242188 L 100.402344 23.699219 L 83.320312 33.097656 Z M 75.367188 18.640625 "/>
<path style=" stroke:none;fill-rule:nonzero;fill:rgb(45.098877%,45.098877%,45.098877%);fill-opacity:1;" d="M 90.761719 6.738281 L 90.761719 582.402344 L 412.964844 792.726562 L 735.761719 582.402344 L 735.761719 6.738281 Z M 90.761719 6.738281 "/>
<path style=" stroke:none;fill-rule:nonzero;fill:rgb(96.078491%,96.469116%,96.859741%);fill-opacity:1;" d="M 94.59375 11.402344 L 94.59375 579.929688 L 413.054688 787.648438 L 732.09375 579.929688 L 732.09375 11.402344 Z M 94.59375 11.402344 "/>
<path style=" stroke:none;fill-rule:nonzero;fill:rgb(78.039551%,81.568909%,84.709167%);fill-opacity:1;" d="M 76.683594 18.820312 L 87.929688 18.820312 L 87.929688 28.570312 L 76.683594 28.570312 Z M 76.683594 18.820312 "/>
<g clip-path="url(#clip1)" clip-rule="nonzero">
<path style=" stroke:none;fill-rule:nonzero;fill:rgb(100%,88.238525%,0%);fill-opacity:1;" d="M 122.660156 341.738281 C 122.660156 466.265625 203.011719 572.003906 314.714844 609.902344 C 324.019531 613.089844 333.574219 615.78125 343.285156 617.976562 C 346.625 618.738281 349.988281 619.433594 353.375 620.0625 C 353.667969 620.109375 353.957031 620.175781 354.25 620.21875 C 370.980469 623.316406 388.226562 624.90625 405.828125 624.90625 C 416.886719 624.90625 427.804688 624.277344 438.527344 623.046875 C 579.515625 606.832031 689 487.078125 689 341.738281 C 689 185.339844 562.226562 58.566406 405.828125 58.566406 C 289.441406 58.566406 189.464844 128.761719 145.9375 229.136719 C 145.332031 230.550781 144.726562 231.941406 144.144531 233.355469 C 138.402344 247.234375 133.691406 261.699219 130.195312 276.613281 C 128.488281 283.8125 127.078125 291.101562 125.957031 298.5 C 125.550781 301.167969 125.171875 303.859375 124.835938 306.574219 C 123.398438 318.078125 122.660156 329.828125 122.660156 341.738281 Z M 122.660156 341.738281 "/>
</g>
<g clip-path="url(#clip2)" clip-rule="nonzero">
<path style=" stroke:none;fill-rule:nonzero;fill:rgb(100%,74.119568%,0%);fill-opacity:1;" d="M 122.660156 341.738281 C 122.660156 466.265625 203.011719 572.003906 314.714844 609.902344 C 324.019531 613.089844 333.574219 615.78125 343.285156 617.976562 L 566.308594 462.1875 L 192.828125 263.761719 L 124.835938 306.574219 C 123.398438 318.078125 122.660156 329.828125 122.660156 341.738281 Z M 122.660156 341.738281 "/>
</g>
<path style=" stroke:none;fill-rule:nonzero;fill:rgb(41.958618%,24.708557%,78.42865%);fill-opacity:1;" d="M 566.308594 268.113281 L 566.308594 462.1875 C 566.308594 470.773438 497.078125 477.726562 411.703125 477.726562 C 326.328125 477.726562 257.101562 470.773438 257.101562 462.1875 L 257.101562 268.113281 Z M 566.308594 268.113281 "/>
<path style=" stroke:none;fill-rule:nonzero;fill:rgb(64.709473%,47.839355%,100%);fill-opacity:1;" d="M 192 284.261719 L 408.09375 360.957031 C 410.425781 361.785156 412.960938 361.785156 415.269531 360.957031 L 631.363281 284.261719 C 641.300781 280.738281 640.738281 266.476562 630.535156 263.761719 L 414.441406 206.105469 C 412.625 205.613281 410.71875 205.613281 408.902344 206.105469 L 192.808594 263.761719 C 182.648438 266.476562 182.066406 280.714844 192 284.261719 Z M 192 284.261719 "/>
<path style=" stroke:none;fill-rule:nonzero;fill:rgb(98.429871%,14.118958%,41.958618%);fill-opacity:1;" d="M 256.203125 271.363281 C 239.675781 268.851562 222.363281 274.257812 211.644531 287.511719 C 199.648438 302.335938 205.097656 322.628906 208.394531 339.695312 C 214.851562 373.222656 213.910156 405.425781 200.902344 437.359375 C 199.289062 441.308594 192.785156 439.582031 194.421875 435.566406 C 202.988281 414.507812 207.203125 392.171875 205.925781 369.410156 C 204.691406 347.34375 195.363281 325.050781 197.941406 302.804688 C 201.195312 274.640625 232.90625 261.070312 258.019531 264.882812 C 262.257812 265.511719 260.441406 271.992188 256.203125 271.363281 Z M 256.203125 271.363281 "/>
<path style=" stroke:none;fill-rule:nonzero;fill:rgb(98.429871%,14.118958%,41.958618%);fill-opacity:1;" d="M 209.089844 467.679688 C 208.503906 466.535156 207.449219 462.949219 206.488281 462.097656 C 205.949219 463.21875 205.835938 466.941406 205.589844 468.171875 C 203.996094 468.332031 197.964844 468.421875 196.550781 468.398438 C 196.574219 467.164062 196.730469 463.800781 196.753906 462.566406 C 195.65625 463.753906 194.421875 467.097656 193.324219 468.285156 C 189.78125 467.992188 186.214844 467.410156 182.714844 466.605469 C 182.761719 466.289062 184.015625 459.964844 184.0625 459.921875 C 183.679688 460.121094 181.257812 464.808594 180.742188 466.109375 C 178.164062 465.4375 175.605469 464.609375 173.117188 463.664062 C 176.28125 456.378906 179.195312 448.976562 183.140625 442.023438 C 185.429688 438.011719 187.828125 433.996094 190.855469 430.5 C 193.480469 427.46875 197.472656 423.457031 201.84375 423.792969 C 204.648438 423.996094 206.890625 426.171875 208.4375 428.546875 C 208.484375 428.636719 208.550781 428.726562 208.59375 428.792969 C 211.980469 434.175781 212.992188 440.65625 214.378906 446.734375 C 214.695312 448.101562 216.824219 460.234375 217.632812 465.527344 C 214.917969 466.46875 212.046875 467.1875 209.089844 467.679688 Z M 209.089844 467.679688 "/>
</g>
</svg>
