<?xml version="1.0" encoding="UTF-8"?>
<svg xmlns="http://www.w3.org/2000/svg" xmlns:xlink="http://www.w3.org/1999/xlink" width="810pt" height="809.999993pt" viewBox="0 0 810 809.999993" version="1.2">
<defs>
<clipPath id="clip1">
  <path d="M 173 147 L 656.578125 147 L 656.578125 520.910156 L 173 520.910156 Z M 173 147 "/>
</clipPath>
<clipPath id="clip2">
  <path d="M 173 147 L 602.378906 147 L 602.378906 520.910156 L 173 520.910156 Z M 173 147 "/>
</clipPath>
<clipPath id="clip3">
  <path d="M 233 208 L 566 208 L 566 520.910156 L 233 520.910156 Z M 233 208 "/>
</clipPath>
<clipPath id="clip4">
  <path d="M 153.429688 121.199219 L 618 121.199219 L 618 515 L 153.429688 515 Z M 153.429688 121.199219 "/>
</clipPath>
<clipPath id="clip5">
  <path d="M 157 138.289062 L 656.578125 138.289062 L 656.578125 463 L 157 463 Z M 157 138.289062 "/>
</clipPath>
<clipPath id="clip6">
  <path d="M 183 151 L 649.578125 151 L 649.578125 511.957031 L 183 511.957031 Z M 183 151 "/>
</clipPath>
<clipPath id="clip7">
  <path d="M 183 151 L 597 151 L 597 511.957031 L 183 511.957031 Z M 183 151 "/>
</clipPath>
<clipPath id="clip8">
  <path d="M 241.144531 210 L 562 210 L 562 511.957031 L 241.144531 511.957031 Z M 241.144531 210 "/>
</clipPath>
<clipPath id="clip9">
  <path d="M 164.425781 126.496094 L 612 126.496094 L 612 506 L 164.425781 506 Z M 164.425781 126.496094 "/>
</clipPath>
<clipPath id="clip10">
  <path d="M 168 143 L 649.578125 143 L 649.578125 456 L 168 456 Z M 168 143 "/>
</clipPath>
</defs>
<g id="surface1">
<rect x="0" y="0" width="810" height="809.999993" style="fill:rgb(100%,100%,100%);fill-opacity:1;stroke:none;"/>
<rect x="0" y="0" width="810" height="809.999993" style="fill:rgb(100%,100%,100%);fill-opacity:1;stroke:none;"/>
<path style=" stroke:none;fill-rule:nonzero;fill:rgb(32.939148%,32.939148%,32.939148%);fill-opacity:1;" d="M 71.269531 14.367188 L 71.269531 594.429688 L 396.097656 806.367188 L 721.519531 594.429688 L 721.519531 14.367188 Z M 71.269531 14.367188 "/>
<path style=" stroke:none;fill-rule:nonzero;fill:rgb(78.039551%,81.568909%,84.709167%);fill-opacity:1;" d="M 75.269531 19.242188 L 75.269531 592.15625 L 396.347656 801.480469 L 718.019531 592.15625 L 718.019531 19.242188 Z M 75.269531 19.242188 "/>
<path style=" stroke:none;fill-rule:nonzero;fill:rgb(32.939148%,32.939148%,32.939148%);fill-opacity:1;" d="M 71.578125 13.085938 L 88.660156 3.683594 L 96.972656 18.792969 L 79.886719 28.191406 Z M 71.578125 13.085938 "/>
<path style=" stroke:none;fill-rule:nonzero;fill:rgb(78.039551%,81.568909%,84.709167%);fill-opacity:1;" d="M 72.757812 15.589844 L 89.84375 6.1875 L 98.15625 21.296875 L 81.070312 30.695312 Z M 72.757812 15.589844 "/>
<path style=" stroke:none;fill-rule:nonzero;fill:rgb(45.098877%,45.098877%,45.098877%);fill-opacity:1;" d="M 88.277344 3.585938 L 88.277344 583.648438 L 413.105469 795.582031 L 738.527344 583.648438 L 738.527344 3.585938 Z M 88.277344 3.585938 "/>
<path style=" stroke:none;fill-rule:nonzero;fill:rgb(96.078491%,96.469116%,96.859741%);fill-opacity:1;" d="M 92.140625 8.292969 L 92.140625 581.757812 L 413.222656 791.285156 L 734.890625 581.757812 L 734.890625 8.292969 Z M 92.140625 8.292969 "/>
<path style=" stroke:none;fill-rule:nonzero;fill:rgb(78.039551%,81.568909%,84.709167%);fill-opacity:1;" d="M 74.085938 15.769531 L 85.335938 15.769531 L 85.335938 25.519531 L 74.085938 25.519531 Z M 74.085938 15.769531 "/>
<g clip-path="url(#clip1)" clip-rule="nonzero">
<path style=" stroke:none;fill-rule:nonzero;fill:rgb(45.098877%,45.098877%,45.098877%);fill-opacity:1;" d="M 656.578125 175.261719 L 656.578125 520.910156 L 602.046875 520.910156 L 602.046875 334.296875 L 428.113281 334.296875 L 428.113281 520.910156 L 173.148438 520.910156 L 173.140625 147.113281 L 373.574219 147.113281 L 373.574219 175.265625 L 656.570312 175.265625 "/>
</g>
<g clip-path="url(#clip2)" clip-rule="nonzero">
<path style=" stroke:none;fill-rule:nonzero;fill:rgb(45.098877%,45.098877%,45.098877%);fill-opacity:1;" d="M 373.582031 175.261719 L 373.582031 147.109375 L 173.148438 147.109375 L 173.140625 520.910156 L 373.574219 520.910156 Z M 428.113281 334.296875 L 602.046875 334.296875 L 602.046875 520.910156 L 428.113281 520.910156 L 428.113281 334.296875 "/>
</g>
<g clip-path="url(#clip3)" clip-rule="nonzero">
<path style=" stroke:none;fill-rule:nonzero;fill:rgb(45.098877%,45.098877%,45.098877%);fill-opacity:1;" d="M 565.347656 340.449219 L 465.089844 340.449219 L 465.089844 520.910156 L 565.347656 520.910156 Z M 306.808594 464.847656 L 306.808594 394.15625 C 306.808594 375.707031 291.832031 360.746094 273.363281 360.746094 C 254.882812 360.746094 239.917969 375.707031 239.917969 394.15625 L 239.917969 464.847656 L 233.65625 464.847656 L 233.65625 472.660156 L 313.058594 472.660156 L 313.058594 464.847656 Z M 313.058594 312.136719 L 313.058594 319.957031 L 233.65625 319.957031 L 233.65625 312.136719 L 239.917969 312.136719 L 239.917969 241.457031 C 239.917969 223.007812 254.882812 208.046875 273.363281 208.046875 C 291.832031 208.046875 306.808594 223.007812 306.808594 241.457031 L 306.808594 312.136719 L 313.058594 312.136719 "/>
</g>
<g clip-path="url(#clip4)" clip-rule="nonzero">
<path style=" stroke:none;fill-rule:nonzero;fill:rgb(45.098877%,45.098877%,45.098877%);fill-opacity:1;" d="M 515.074219 164.066406 L 603.542969 268.1875 L 617.273438 268.1875 L 515.074219 147.898438 L 412.875 268.1875 L 426.613281 268.1875 Z M 595.886719 507.753906 L 572.203125 507.753906 L 572.203125 514.191406 L 595.886719 514.191406 Z M 595.886719 494.886719 L 572.203125 494.886719 L 572.203125 501.320312 L 595.886719 501.320312 Z M 595.886719 482.015625 L 572.203125 482.015625 L 572.203125 488.449219 L 595.886719 488.449219 Z M 595.886719 469.136719 L 572.203125 469.136719 L 572.203125 475.582031 L 595.886719 475.582031 Z M 595.886719 456.269531 L 572.203125 456.269531 L 572.203125 462.710938 L 595.886719 462.710938 Z M 595.886719 443.398438 L 572.203125 443.398438 L 572.203125 449.84375 L 595.886719 449.84375 Z M 595.886719 430.53125 L 572.203125 430.53125 L 572.203125 436.964844 L 595.886719 436.964844 Z M 595.886719 417.660156 L 572.203125 417.660156 L 572.203125 424.09375 L 595.886719 424.09375 Z M 595.886719 404.792969 L 572.203125 404.792969 L 572.203125 411.226562 L 595.886719 411.226562 Z M 595.886719 391.921875 L 572.203125 391.921875 L 572.203125 398.355469 L 595.886719 398.355469 Z M 595.886719 379.054688 L 572.203125 379.054688 L 572.203125 385.488281 L 595.886719 385.488281 Z M 595.886719 366.183594 L 572.203125 366.183594 L 572.203125 372.617188 L 595.886719 372.617188 Z M 595.886719 353.3125 L 572.203125 353.3125 L 572.203125 359.75 L 595.886719 359.75 Z M 595.886719 340.445312 L 572.203125 340.445312 L 572.203125 346.878906 L 595.886719 346.878906 Z M 595.886719 340.445312 L 572.203125 340.445312 L 572.203125 346.878906 L 595.886719 346.878906 Z M 458.648438 507.753906 L 434.957031 507.753906 L 434.957031 514.191406 L 458.648438 514.191406 Z M 458.648438 494.886719 L 434.957031 494.886719 L 434.957031 501.320312 L 458.648438 501.320312 Z M 458.648438 482.015625 L 434.957031 482.015625 L 434.957031 488.453125 L 458.648438 488.453125 Z M 458.648438 469.136719 L 434.957031 469.136719 L 434.957031 475.582031 L 458.648438 475.582031 Z M 458.648438 456.269531 L 434.957031 456.269531 L 434.957031 462.710938 L 458.648438 462.710938 Z M 458.648438 443.398438 L 434.957031 443.398438 L 434.957031 449.84375 L 458.648438 449.84375 Z M 458.648438 430.53125 L 434.957031 430.53125 L 434.957031 436.964844 L 458.648438 436.964844 Z M 458.648438 417.660156 L 434.957031 417.660156 L 434.957031 424.09375 L 458.648438 424.09375 Z M 458.648438 404.792969 L 434.957031 404.792969 L 434.957031 411.226562 L 458.648438 411.226562 Z M 458.648438 391.921875 L 434.957031 391.921875 L 434.957031 398.355469 L 458.648438 398.355469 Z M 458.648438 379.054688 L 434.957031 379.054688 L 434.957031 385.488281 L 458.648438 385.488281 Z M 458.648438 366.183594 L 434.957031 366.183594 L 434.957031 372.617188 L 458.648438 372.617188 Z M 458.648438 353.316406 L 434.957031 353.316406 L 434.957031 359.75 L 458.648438 359.75 Z M 458.648438 340.445312 L 434.957031 340.445312 L 434.957031 346.878906 L 458.648438 346.878906 Z M 458.648438 340.445312 L 434.957031 340.445312 L 434.957031 346.878906 L 458.648438 346.878906 Z M 274.875 366.535156 L 274.875 385.929688 L 289.449219 371.382812 C 285.238281 368.554688 280.257812 366.808594 274.875 366.535156 Z M 269.710938 388.070312 L 254.832031 373.210938 C 250.296875 377.011719 246.9375 382.167969 245.410156 388.070312 Z M 271.855469 416.816406 L 244.480469 416.816406 L 244.480469 439.117188 L 271.855469 439.117188 Z M 277.015625 388.070312 L 301.3125 388.070312 C 299.785156 382.167969 296.433594 377.011719 291.894531 373.210938 Z M 274.875 416.816406 L 274.875 439.117188 L 302.238281 439.117188 L 302.238281 416.816406 Z M 271.855469 442.140625 L 244.796875 442.140625 C 244.589844 443.53125 244.480469 444.949219 244.480469 446.386719 L 244.480469 464.84375 L 271.855469 464.84375 Z M 274.875 464.84375 L 302.238281 464.84375 L 302.238281 446.386719 C 302.238281 444.949219 302.128906 443.53125 301.929688 442.140625 L 274.875 442.140625 Z M 271.855469 391.097656 L 244.796875 391.097656 C 244.589844 392.484375 244.480469 393.894531 244.480469 395.339844 L 244.480469 413.789062 L 271.855469 413.789062 Z M 274.875 413.789062 L 302.238281 413.789062 L 302.238281 395.339844 C 302.238281 393.894531 302.128906 392.484375 301.929688 391.097656 L 274.875 391.097656 Z M 257.269531 371.382812 L 271.855469 385.929688 L 271.855469 366.535156 C 266.46875 366.808594 261.476562 368.554688 257.269531 371.382812 Z M 274.875 213.824219 L 274.875 233.226562 L 289.449219 218.671875 C 285.238281 215.847656 280.257812 214.097656 274.875 213.824219 Z M 269.710938 235.367188 L 254.832031 220.507812 C 250.296875 224.308594 246.9375 229.464844 245.410156 235.367188 Z M 271.855469 264.113281 L 244.480469 264.113281 L 244.480469 286.410156 L 271.855469 286.410156 Z M 277.015625 235.367188 L 301.3125 235.367188 C 299.785156 229.464844 296.433594 224.308594 291.894531 220.507812 Z M 274.875 264.113281 L 274.875 286.410156 L 302.238281 286.410156 L 302.238281 264.113281 Z M 271.855469 289.4375 L 244.796875 289.4375 C 244.589844 290.824219 244.480469 292.234375 244.480469 293.679688 L 244.480469 312.128906 L 271.855469 312.128906 Z M 274.875 312.128906 L 302.238281 312.128906 L 302.238281 293.679688 C 302.238281 292.234375 302.128906 290.824219 301.929688 289.4375 L 274.875 289.4375 Z M 271.855469 238.394531 L 244.796875 238.394531 C 244.589844 239.78125 244.480469 241.1875 244.480469 242.636719 L 244.480469 261.085938 L 271.855469 261.085938 Z M 274.875 261.085938 L 302.238281 261.085938 L 302.238281 242.636719 C 302.238281 241.1875 302.128906 239.78125 301.929688 238.394531 L 274.875 238.394531 Z M 257.269531 218.671875 L 271.855469 233.226562 L 271.855469 213.824219 C 266.46875 214.097656 261.476562 215.847656 257.269531 218.671875 Z M 393.238281 138.304688 L 153.480469 138.304688 L 153.480469 121.191406 L 393.238281 121.191406 L 393.238281 138.304688 "/>
</g>
<g clip-path="url(#clip5)" clip-rule="nonzero">
<path style=" stroke:none;fill-rule:nonzero;fill:rgb(45.098877%,45.098877%,45.098877%);fill-opacity:1;" d="M 543.871094 356.414062 L 518.0625 382.191406 L 553.742188 382.191406 C 553.742188 372.289062 550.007812 363.25 543.871094 356.414062 Z M 512.085938 382.191406 L 486.289062 356.414062 C 480.148438 363.25 476.402344 372.289062 476.402344 382.191406 Z M 517.1875 343.625 L 517.1875 377.09375 L 540.878906 353.429688 C 534.527344 347.738281 526.277344 344.117188 517.1875 343.625 Z M 512.960938 377.09375 L 512.960938 343.625 C 503.882812 344.117188 495.628906 347.738281 489.265625 353.429688 Z M 552.917969 422.488281 C 550.25 422.488281 548.085938 424.652344 548.085938 427.316406 C 548.085938 429.980469 550.25 432.140625 552.917969 432.140625 C 555.59375 432.140625 557.75 429.980469 557.75 427.316406 C 557.75 424.652344 555.59375 422.488281 552.917969 422.488281 Z M 248.523438 442.144531 L 246.554688 444.164062 L 246.554688 458.816406 L 262.828125 442.144531 Z M 255.480469 462.363281 L 271.859375 445.59375 L 271.859375 442.144531 L 268.808594 442.144531 L 249.078125 462.363281 Z M 271.859375 418.246094 L 251.476562 439.117188 L 265.777344 439.117188 L 271.859375 432.894531 Z M 287.550781 416.820312 L 274.878906 416.820312 L 274.878906 429.796875 Z M 276.195312 413.792969 L 290.5 413.792969 L 299.9375 404.128906 L 299.9375 393.464844 C 299.9375 392.992188 299.9375 392.117188 299.769531 391.101562 L 298.347656 391.101562 Z M 293.527344 416.820312 L 274.878906 435.929688 L 274.878906 439.117188 L 278.167969 439.117188 L 299.9375 416.820312 Z M 274.878906 435.929688 L 274.878906 439.117188 L 278.167969 439.117188 L 299.9375 416.820312 L 293.527344 416.820312 Z M 299.9375 413.792969 L 299.9375 410.253906 L 296.476562 413.792969 Z M 248.523438 289.445312 L 246.554688 291.464844 L 246.554688 306.113281 L 262.828125 289.445312 Z M 255.480469 309.664062 L 271.859375 292.890625 L 271.859375 289.445312 L 268.808594 289.445312 L 249.078125 309.664062 Z M 271.859375 265.546875 L 251.476562 286.417969 L 265.777344 286.417969 L 271.859375 280.195312 Z M 287.550781 264.117188 L 274.878906 264.117188 L 274.878906 277.085938 Z M 276.195312 261.089844 L 290.5 261.089844 L 299.9375 251.417969 L 299.9375 240.75 C 299.9375 240.289062 299.9375 239.414062 299.769531 238.398438 L 298.347656 238.398438 Z M 293.527344 264.117188 L 274.878906 283.21875 L 274.878906 286.417969 L 278.167969 286.417969 L 299.9375 264.117188 Z M 274.878906 283.21875 L 274.878906 286.417969 L 278.167969 286.417969 L 299.9375 264.117188 L 293.527344 264.117188 Z M 299.9375 261.089844 L 299.9375 257.550781 L 296.476562 261.089844 Z M 515.078125 164.066406 L 430.097656 264.085938 L 441.371094 264.085938 L 446.285156 258.296875 L 446.304688 258.296875 L 446.425781 258.125 L 515.078125 177.324219 L 588.792969 264.085938 L 600.066406 264.085938 Z M 523.480469 157.789062 L 608.882812 258.296875 L 656.582031 258.296875 L 656.582031 157.789062 Z M 506.671875 157.789062 L 373.585938 157.789062 L 373.585938 258.296875 L 421.28125 258.296875 Z M 389.253906 147.109375 L 157.46875 147.109375 L 157.46875 138.3125 L 389.257812 138.3125 L 389.257812 147.109375 "/>
</g>
<g clip-path="url(#clip6)" clip-rule="nonzero">
<path style=" stroke:none;fill-rule:nonzero;fill:rgb(59.21936%,92.939758%,66.668701%);fill-opacity:1;" d="M 649.578125 178.632812 L 649.578125 511.960938 L 596.996094 511.960938 L 596.996094 332 L 429.285156 332 L 429.285156 511.960938 L 183.441406 511.960938 L 183.4375 151.484375 L 376.699219 151.484375 L 376.699219 178.636719 L 649.570312 178.636719 "/>
</g>
<g clip-path="url(#clip7)" clip-rule="nonzero">
<path style=" stroke:none;fill-rule:nonzero;fill:rgb(26.269531%,76.858521%,39.99939%);fill-opacity:1;" d="M 376.703125 178.632812 L 376.703125 151.484375 L 183.441406 151.484375 L 183.4375 511.957031 L 376.699219 511.957031 Z M 429.285156 332 L 596.996094 332 L 596.996094 511.960938 L 429.285156 511.960938 L 429.285156 332 "/>
</g>
<g clip-path="url(#clip8)" clip-rule="nonzero">
<path style=" stroke:none;fill-rule:nonzero;fill:rgb(92.939758%,98.429871%,93.728638%);fill-opacity:1;" d="M 561.613281 337.929688 L 464.941406 337.929688 L 464.941406 511.957031 L 561.613281 511.957031 Z M 312.320312 457.894531 L 312.320312 389.726562 C 312.320312 371.933594 297.882812 357.507812 280.074219 357.507812 C 262.253906 357.507812 247.820312 371.933594 247.820312 389.726562 L 247.820312 457.894531 L 241.785156 457.894531 L 241.785156 465.429688 L 318.347656 465.429688 L 318.347656 457.894531 Z M 318.347656 310.628906 L 318.347656 318.171875 L 241.785156 318.171875 L 241.785156 310.628906 L 247.820312 310.628906 L 247.820312 242.46875 C 247.820312 224.675781 262.253906 210.246094 280.074219 210.246094 C 297.882812 210.246094 312.320312 224.675781 312.320312 242.46875 L 312.320312 310.628906 L 318.347656 310.628906 "/>
</g>
<g clip-path="url(#clip9)" clip-rule="nonzero">
<path style=" stroke:none;fill-rule:nonzero;fill:rgb(59.21936%,92.939758%,66.668701%);fill-opacity:1;" d="M 513.136719 167.835938 L 598.441406 268.246094 L 611.679688 268.246094 L 513.136719 152.246094 L 414.59375 268.246094 L 427.839844 268.246094 Z M 591.054688 499.273438 L 568.21875 499.273438 L 568.21875 505.480469 L 591.054688 505.480469 Z M 591.054688 486.863281 L 568.21875 486.863281 L 568.21875 493.070312 L 591.054688 493.070312 Z M 591.054688 474.453125 L 568.21875 474.453125 L 568.21875 480.660156 L 591.054688 480.660156 Z M 591.054688 462.03125 L 568.21875 462.03125 L 568.21875 468.246094 L 591.054688 468.246094 Z M 591.054688 449.621094 L 568.21875 449.621094 L 568.21875 455.835938 L 591.054688 455.835938 Z M 591.054688 437.210938 L 568.21875 437.210938 L 568.21875 443.425781 L 591.054688 443.425781 Z M 591.054688 424.800781 L 568.21875 424.800781 L 568.21875 431.007812 L 591.054688 431.007812 Z M 591.054688 412.390625 L 568.21875 412.390625 L 568.21875 418.597656 L 591.054688 418.597656 Z M 591.054688 399.980469 L 568.21875 399.980469 L 568.21875 406.1875 L 591.054688 406.1875 Z M 591.054688 387.570312 L 568.21875 387.570312 L 568.21875 393.773438 L 591.054688 393.773438 Z M 591.054688 375.160156 L 568.21875 375.160156 L 568.21875 381.363281 L 591.054688 381.363281 Z M 591.054688 362.75 L 568.21875 362.75 L 568.21875 368.953125 L 591.054688 368.953125 Z M 591.054688 350.339844 L 568.21875 350.339844 L 568.21875 356.542969 L 591.054688 356.542969 Z M 591.054688 337.929688 L 568.21875 337.929688 L 568.21875 344.132812 L 591.054688 344.132812 Z M 591.054688 337.929688 L 568.21875 337.929688 L 568.21875 344.132812 L 591.054688 344.132812 Z M 458.730469 499.273438 L 435.882812 499.273438 L 435.882812 505.480469 L 458.730469 505.480469 Z M 458.730469 486.863281 L 435.882812 486.863281 L 435.882812 493.070312 L 458.730469 493.070312 Z M 458.730469 474.453125 L 435.882812 474.453125 L 435.882812 480.660156 L 458.730469 480.660156 Z M 458.730469 462.03125 L 435.882812 462.03125 L 435.882812 468.246094 L 458.730469 468.246094 Z M 458.730469 449.621094 L 435.882812 449.621094 L 435.882812 455.835938 L 458.730469 455.835938 Z M 458.730469 437.210938 L 435.882812 437.210938 L 435.882812 443.425781 L 458.730469 443.425781 Z M 458.730469 424.800781 L 435.882812 424.800781 L 435.882812 431.007812 L 458.730469 431.007812 Z M 458.730469 412.390625 L 435.882812 412.390625 L 435.882812 418.597656 L 458.730469 418.597656 Z M 458.730469 399.980469 L 435.882812 399.980469 L 435.882812 406.1875 L 458.730469 406.1875 Z M 458.730469 387.570312 L 435.882812 387.570312 L 435.882812 393.777344 L 458.730469 393.777344 Z M 458.730469 375.160156 L 435.882812 375.160156 L 435.882812 381.363281 L 458.730469 381.363281 Z M 458.730469 362.75 L 435.882812 362.75 L 435.882812 368.953125 L 458.730469 368.953125 Z M 458.730469 350.339844 L 435.882812 350.339844 L 435.882812 356.542969 L 458.730469 356.542969 Z M 458.730469 337.929688 L 435.882812 337.929688 L 435.882812 344.132812 L 458.730469 344.132812 Z M 458.730469 337.929688 L 435.882812 337.929688 L 435.882812 344.132812 L 458.730469 344.132812 Z M 281.527344 363.089844 L 281.527344 381.792969 L 295.582031 367.761719 C 291.523438 365.039062 286.71875 363.351562 281.527344 363.089844 Z M 276.550781 383.855469 L 262.207031 369.527344 C 257.828125 373.191406 254.59375 378.164062 253.117188 383.855469 Z M 278.617188 411.578125 L 252.222656 411.578125 L 252.222656 433.082031 L 278.617188 433.082031 Z M 283.59375 383.855469 L 307.023438 383.855469 C 305.546875 378.164062 302.316406 373.191406 297.9375 369.527344 Z M 281.527344 411.578125 L 281.527344 433.082031 L 307.914062 433.082031 L 307.914062 411.578125 Z M 278.617188 436 L 252.527344 436 C 252.328125 437.339844 252.222656 438.707031 252.222656 440.089844 L 252.222656 457.894531 L 278.617188 457.894531 Z M 281.527344 457.894531 L 307.914062 457.894531 L 307.914062 440.089844 C 307.914062 438.707031 307.808594 437.339844 307.613281 436 L 281.527344 436 Z M 278.617188 386.773438 L 252.527344 386.773438 C 252.328125 388.113281 252.222656 389.46875 252.222656 390.867188 L 252.222656 408.660156 L 278.617188 408.660156 Z M 281.527344 408.660156 L 307.914062 408.660156 L 307.914062 390.867188 C 307.914062 389.46875 307.808594 388.113281 307.613281 386.773438 L 281.527344 386.773438 Z M 264.554688 367.761719 L 278.617188 381.792969 L 278.617188 363.089844 C 273.425781 363.351562 268.609375 365.039062 264.554688 367.761719 Z M 281.527344 215.820312 L 281.527344 234.53125 L 295.582031 220.496094 C 291.523438 217.773438 286.71875 216.085938 281.527344 215.820312 Z M 276.550781 236.597656 L 262.207031 222.265625 C 257.828125 225.929688 254.59375 230.90625 253.117188 236.597656 Z M 278.617188 264.316406 L 252.222656 264.316406 L 252.222656 285.820312 L 278.617188 285.820312 Z M 283.59375 236.597656 L 307.023438 236.597656 C 305.546875 230.90625 302.316406 225.929688 297.9375 222.265625 Z M 281.527344 264.316406 L 281.527344 285.820312 L 307.914062 285.820312 L 307.914062 264.316406 Z M 278.617188 288.738281 L 252.527344 288.738281 C 252.328125 290.078125 252.222656 291.433594 252.222656 292.832031 L 252.222656 310.621094 L 278.617188 310.621094 Z M 281.527344 310.621094 L 307.914062 310.621094 L 307.914062 292.832031 C 307.914062 291.433594 307.808594 290.078125 307.613281 288.738281 L 281.527344 288.738281 Z M 278.617188 239.515625 L 252.527344 239.515625 C 252.328125 240.851562 252.222656 242.210938 252.222656 243.605469 L 252.222656 261.398438 L 278.617188 261.398438 Z M 281.527344 261.398438 L 307.914062 261.398438 L 307.914062 243.605469 C 307.914062 242.210938 307.808594 240.851562 307.613281 239.515625 L 281.527344 239.515625 Z M 264.554688 220.496094 L 278.617188 234.53125 L 278.617188 215.820312 C 273.425781 216.085938 268.609375 217.773438 264.554688 220.496094 Z M 395.65625 142.992188 L 164.476562 142.992188 L 164.476562 126.492188 L 395.65625 126.492188 L 395.65625 142.992188 "/>
</g>
<g clip-path="url(#clip10)" clip-rule="nonzero">
<path style=" stroke:none;fill-rule:nonzero;fill:rgb(16.079712%,61.959839%,47.059631%);fill-opacity:1;" d="M 540.902344 353.328125 L 516.019531 378.1875 L 550.421875 378.1875 C 550.421875 368.636719 546.820312 359.921875 540.902344 353.328125 Z M 510.253906 378.1875 L 485.378906 353.328125 C 479.460938 359.921875 475.847656 368.636719 475.847656 378.1875 Z M 515.171875 340.996094 L 515.171875 373.273438 L 538.019531 350.449219 C 531.894531 344.960938 523.9375 341.46875 515.171875 340.996094 Z M 511.097656 373.273438 L 511.097656 340.996094 C 502.34375 341.46875 494.386719 344.960938 488.253906 350.449219 Z M 549.625 417.046875 C 547.054688 417.046875 544.96875 419.132812 544.96875 421.703125 C 544.96875 424.269531 547.054688 426.355469 549.625 426.355469 C 552.207031 426.355469 554.285156 424.269531 554.285156 421.703125 C 554.285156 419.132812 552.207031 417.046875 549.625 417.046875 Z M 256.121094 436.003906 L 254.222656 437.953125 L 254.222656 452.078125 L 269.914062 436.003906 Z M 262.832031 455.5 L 278.621094 439.328125 L 278.621094 436.003906 L 275.679688 436.003906 L 256.65625 455.5 Z M 278.621094 412.957031 L 258.96875 433.085938 L 272.757812 433.085938 L 278.621094 427.082031 Z M 293.75 411.578125 L 281.53125 411.578125 L 281.53125 424.097656 Z M 282.804688 408.660156 L 296.59375 408.660156 L 305.699219 399.34375 L 305.699219 389.054688 C 305.699219 388.601562 305.699219 387.757812 305.53125 386.777344 L 304.164062 386.777344 Z M 299.515625 411.578125 L 281.53125 430.011719 L 281.53125 433.085938 L 284.707031 433.085938 L 305.699219 411.578125 Z M 281.53125 430.011719 L 281.53125 433.085938 L 284.707031 433.085938 L 305.699219 411.578125 L 299.515625 411.578125 Z M 305.699219 408.660156 L 305.699219 405.25 L 302.359375 408.660156 Z M 256.121094 288.746094 L 254.222656 290.695312 L 254.222656 304.820312 L 269.914062 288.746094 Z M 262.832031 308.242188 L 278.621094 292.070312 L 278.621094 288.746094 L 275.679688 288.746094 L 256.65625 308.242188 Z M 278.621094 265.699219 L 258.96875 285.828125 L 272.757812 285.828125 L 278.621094 279.824219 Z M 293.75 264.320312 L 281.53125 264.320312 L 281.53125 276.828125 Z M 282.804688 261.402344 L 296.59375 261.402344 L 305.699219 252.074219 L 305.699219 241.789062 C 305.699219 241.34375 305.699219 240.5 305.53125 239.519531 L 304.164062 239.519531 Z M 299.515625 264.320312 L 281.53125 282.742188 L 281.53125 285.828125 L 284.707031 285.828125 L 305.699219 264.320312 Z M 281.53125 282.742188 L 281.53125 285.828125 L 284.707031 285.828125 L 305.699219 264.320312 L 299.515625 264.320312 Z M 305.699219 261.402344 L 305.699219 257.992188 L 302.359375 261.402344 Z M 513.140625 167.835938 L 431.199219 264.292969 L 442.070312 264.292969 L 446.804688 258.707031 L 446.824219 258.707031 L 446.941406 258.542969 L 513.140625 180.621094 L 584.21875 264.292969 L 595.085938 264.292969 Z M 521.242188 161.785156 L 603.589844 258.707031 L 649.582031 258.707031 L 649.582031 161.785156 Z M 505.035156 161.785156 L 376.707031 161.785156 L 376.707031 258.707031 L 422.699219 258.707031 Z M 391.820312 151.484375 L 168.324219 151.484375 L 168.324219 143 L 391.820312 143 L 391.820312 151.484375 "/>
</g>
</g>
</svg>
