<?xml version="1.0" encoding="UTF-8"?>
<svg xmlns="http://www.w3.org/2000/svg" xmlns:xlink="http://www.w3.org/1999/xlink" width="810pt" height="809.999993pt" viewBox="0 0 810 809.999993" version="1.2">
<defs>
<clipPath id="clip1">
  <path d="M 149 37 L 657 37 L 657 303 L 149 303 Z M 149 37 "/>
</clipPath>
<clipPath id="clip2">
  <path d="M 148.347656 44.527344 L 647.378906 22.886719 L 659.339844 298.628906 L 160.308594 320.269531 Z M 148.347656 44.527344 "/>
</clipPath>
<clipPath id="clip3">
  <path d="M 160.316406 320.480469 L 659.347656 298.839844 L 647.390625 23.097656 L 148.359375 44.738281 Z M 160.316406 320.480469 "/>
</clipPath>
<clipPath id="clip4">
  <path d="M 148 169.703125 L 658 169.703125 L 658 630 L 148 630 Z M 148 169.703125 "/>
</clipPath>
<clipPath id="clip5">
  <path d="M 193.691406 70 L 351.941406 70 L 351.941406 224 L 193.691406 224 Z M 193.691406 70 "/>
</clipPath>
<clipPath id="clip6">
  <path d="M 187 235 L 316 235 L 316 592 L 187 592 Z M 187 235 "/>
</clipPath>
<clipPath id="clip7">
  <path d="M 295.316406 596.480469 L 163.9375 583.695312 L 198.875 224.640625 L 330.253906 237.425781 Z M 295.316406 596.480469 "/>
</clipPath>
<clipPath id="clip8">
  <path d="M 295.316406 596.480469 L 163.9375 583.695312 L 198.875 224.640625 L 330.253906 237.425781 Z M 295.316406 596.480469 "/>
</clipPath>
<clipPath id="clip9">
  <path d="M 322 237 L 573 237 L 573 485 L 322 485 Z M 322 237 "/>
</clipPath>
<clipPath id="clip10">
  <path d="M 573.21875 240.167969 L 564.117188 492.753906 L 321.277344 484.003906 L 330.378906 231.417969 Z M 573.21875 240.167969 "/>
</clipPath>
<clipPath id="clip11">
  <path d="M 321.0625 484.113281 L 330.164062 231.527344 L 573.003906 240.277344 L 563.902344 492.863281 Z M 321.0625 484.113281 "/>
</clipPath>
<clipPath id="clip12">
  <path d="M 402 343 L 613 343 L 613 573 L 402 573 Z M 402 343 "/>
</clipPath>
<clipPath id="clip13">
  <path d="M 362.160156 528.9375 L 446.378906 304.199219 L 662.6875 385.257812 L 578.46875 609.996094 Z M 362.160156 528.9375 "/>
</clipPath>
<clipPath id="clip14">
  <path d="M 578.699219 610.082031 L 662.917969 385.34375 L 446.609375 304.285156 L 362.390625 529.023438 Z M 578.699219 610.082031 "/>
</clipPath>
<clipPath id="clip15">
  <path d="M 404 384 L 555 384 L 555 549 L 404 549 Z M 404 384 "/>
</clipPath>
<clipPath id="clip16">
  <path d="M 362.160156 528.9375 L 446.378906 304.199219 L 662.6875 385.257812 L 578.46875 609.996094 Z M 362.160156 528.9375 "/>
</clipPath>
<clipPath id="clip17">
  <path d="M 578.699219 610.082031 L 662.917969 385.34375 L 446.609375 304.285156 L 362.390625 529.023438 Z M 578.699219 610.082031 "/>
</clipPath>
<clipPath id="clip18">
  <path d="M 319 502 L 423 502 L 423 598 L 319 598 Z M 319 502 "/>
</clipPath>
<clipPath id="clip19">
  <path d="M 425.171875 591.421875 L 319.125 611.863281 L 299.535156 510.234375 L 405.582031 489.792969 Z M 425.171875 591.421875 "/>
</clipPath>
<clipPath id="clip20">
  <path d="M 319.101562 611.867188 L 425.152344 591.425781 L 405.558594 489.796875 L 299.511719 510.238281 Z M 319.101562 611.867188 "/>
</clipPath>
<clipPath id="clip21">
  <path d="M 365 154 L 616 154 L 616 223 L 365 223 Z M 365 154 "/>
</clipPath>
<clipPath id="clip22">
  <path d="M 362.15625 156.332031 L 613.742188 141.886719 L 618.300781 221.253906 L 366.714844 235.699219 Z M 362.15625 156.332031 "/>
</clipPath>
<clipPath id="clip23">
  <path d="M 613.601562 141.894531 L 362.015625 156.339844 L 366.574219 235.707031 L 618.160156 221.261719 Z M 613.601562 141.894531 "/>
</clipPath>
<clipPath id="clip24">
  <path d="M 366 75 L 616 75 L 616 143 L 366 143 Z M 366 75 "/>
</clipPath>
<clipPath id="clip25">
  <path d="M 362.425781 76.9375 L 613.261719 62.535156 L 617.820312 141.90625 L 366.980469 156.308594 Z M 362.425781 76.9375 "/>
</clipPath>
<clipPath id="clip26">
  <path d="M 613.613281 62.515625 L 362.777344 76.917969 L 367.332031 156.285156 L 618.167969 141.886719 Z M 613.613281 62.515625 "/>
</clipPath>
<clipPath id="clip27">
  <path d="M 589 235 L 618 235 L 618 341 L 589 341 Z M 589 235 "/>
</clipPath>
<clipPath id="clip28">
  <path d="M 615.691406 234.210938 L 623.125 339.699219 L 590.207031 342.015625 L 582.773438 236.527344 Z M 615.691406 234.210938 "/>
</clipPath>
<clipPath id="clip29">
  <path d="M 623.097656 339.347656 L 615.667969 233.859375 L 582.75 236.175781 L 590.179688 341.667969 Z M 623.097656 339.347656 "/>
</clipPath>
<clipPath id="clip30">
  <path d="M 575 236 L 610 236 L 610 339 L 575 339 Z M 575 236 "/>
</clipPath>
<clipPath id="clip31">
  <path d="M 610.066406 236.5625 L 607.902344 339.292969 L 575.65625 338.613281 L 577.824219 235.882812 Z M 610.066406 236.5625 "/>
</clipPath>
<clipPath id="clip32">
  <path d="M 607.898438 339.351562 L 610.066406 236.621094 L 577.820312 235.941406 L 575.65625 338.671875 Z M 607.898438 339.351562 "/>
</clipPath>
</defs>
<g id="surface1">
<rect x="0" y="0" width="810" height="809.999993" style="fill:rgb(100%,100%,100%);fill-opacity:1;stroke:none;"/>
<rect x="0" y="0" width="810" height="809.999993" style="fill:rgb(100%,100%,100%);fill-opacity:1;stroke:none;"/>
<rect x="0" y="0" width="810" height="809.999993" style="fill:rgb(100%,100%,100%);fill-opacity:1;stroke:none;"/>
<path style=" stroke:none;fill-rule:nonzero;fill:rgb(32.939148%,32.939148%,32.939148%);fill-opacity:1;" d="M 73.886719 17.4375 L 73.886719 593.097656 L 396.09375 803.425781 L 718.886719 593.097656 L 718.886719 17.4375 Z M 73.886719 17.4375 "/>
<path style=" stroke:none;fill-rule:nonzero;fill:rgb(78.039551%,81.568909%,84.709167%);fill-opacity:1;" d="M 77.855469 22.265625 L 77.855469 590.789062 L 396.3125 798.507812 L 715.355469 590.789062 L 715.355469 22.265625 Z M 77.855469 22.265625 "/>
<path style=" stroke:none;fill-rule:nonzero;fill:rgb(32.939148%,32.939148%,32.939148%);fill-opacity:1;" d="M 74.195312 16.15625 L 91.277344 6.757812 L 99.230469 21.214844 L 82.148438 30.613281 Z M 74.195312 16.15625 "/>
<path style=" stroke:none;fill-rule:nonzero;fill:rgb(78.039551%,81.568909%,84.709167%);fill-opacity:1;" d="M 75.367188 18.640625 L 92.449219 9.242188 L 100.402344 23.699219 L 83.320312 33.097656 Z M 75.367188 18.640625 "/>
<path style=" stroke:none;fill-rule:nonzero;fill:rgb(45.098877%,45.098877%,45.098877%);fill-opacity:1;" d="M 90.761719 6.738281 L 90.761719 582.402344 L 412.964844 792.726562 L 735.761719 582.402344 L 735.761719 6.738281 Z M 90.761719 6.738281 "/>
<path style=" stroke:none;fill-rule:nonzero;fill:rgb(96.078491%,96.469116%,96.859741%);fill-opacity:1;" d="M 94.59375 11.402344 L 94.59375 579.929688 L 413.054688 787.648438 L 732.09375 579.929688 L 732.09375 11.402344 Z M 94.59375 11.402344 "/>
<path style=" stroke:none;fill-rule:nonzero;fill:rgb(78.039551%,81.568909%,84.709167%);fill-opacity:1;" d="M 77.433594 18.820312 L 88.679688 18.820312 L 88.679688 28.570312 L 77.433594 28.570312 Z M 77.433594 18.820312 "/>
<g clip-path="url(#clip1)" clip-rule="nonzero">
<g clip-path="url(#clip2)" clip-rule="nonzero">
<g clip-path="url(#clip3)" clip-rule="nonzero">
<path style=" stroke:none;fill-rule:nonzero;fill:rgb(100%,100%,100%);fill-opacity:1;" d="M 166.546875 286.011719 C 173.902344 287.410156 181.480469 289.011719 189.035156 289.972656 C 209.316406 292.523438 229.605469 295.292969 250.289062 297.183594 C 264.078125 298.515625 278.019531 298.339844 291.773438 298.816406 C 315.414062 299.722656 338.714844 297.640625 361.992188 295.128906 C 387.613281 292.085938 413.554688 291.605469 439.582031 293.050781 C 450.558594 293.859375 461.472656 293.171875 472.441406 293.769531 C 487.511719 294.832031 502.382812 296.332031 517.464844 297.824219 C 531.910156 299.34375 546.378906 301.503906 561 302.15625 C 569.808594 302.417969 578.367188 301.832031 587.089844 300.167969 C 599.449219 298.128906 611.5625 295.460938 623.894531 292.78125 C 633.457031 290.648438 642.507812 286.609375 650.414062 280.902344 C 654.390625 278.585938 656.5625 274.203125 656.367188 269.707031 C 656.199219 265.851562 656.46875 262.191406 656.515625 258.328125 C 655.449219 223.839844 654.589844 189.125 653.085938 154.4375 C 652.34375 137.308594 650.3125 120.234375 648.714844 103.144531 C 647.777344 91.386719 646.835938 79.628906 645.46875 67.890625 C 644.816406 62.769531 643.960938 57.871094 642.667969 52.78125 C 642.121094 50.015625 639.671875 47.976562 636.886719 48.097656 C 634.949219 47.96875 633.003906 47.621094 631.289062 47.695312 C 619.074219 48.011719 607.03125 47.460938 594.953125 46.054688 C 579.003906 44.386719 562.714844 44.878906 546.636719 45.148438 C 529.695312 45.453125 512.777344 46.1875 495.820312 46.0625 C 484.859375 45.679688 473.871094 44.65625 463.078125 43.191406 C 444.726562 40.554688 426.417969 38.992188 407.953125 38.71875 C 386.480469 38.363281 364.753906 37.160156 343.085938 37.242188 C 326.78125 37.304688 310.511719 38.226562 294.253906 39.359375 C 270.710938 40.808594 247.394531 42.464844 224.078125 44.117188 C 201.1875 45.753906 178.320312 47.820312 155.4375 49.667969 C 150.308594 50.105469 150.101562 50.328125 149.878906 55.058594 C 149.691406 60.644531 149.710938 66.007812 149.953125 71.574219 C 151.445312 101.113281 153.164062 130.855469 154.660156 160.394531 C 155.21875 173.238281 155.347656 186.105469 155.476562 198.972656 C 155.929688 219.332031 158.3125 239.605469 162.394531 259.59375 C 163.792969 267.039062 164.761719 274.507812 165.941406 281.964844 C 165.78125 283.257812 166.042969 284.320312 166.546875 286.011719 Z M 166.546875 286.011719 "/>
</g>
</g>
</g>
<g clip-path="url(#clip4)" clip-rule="nonzero">
<path style=" stroke:none;fill-rule:nonzero;fill:rgb(100%,100%,100%);fill-opacity:1;" d="M 156.347656 212.859375 C 158.726562 217.628906 162.167969 216.304688 165.609375 215.242188 C 177.78125 211.535156 189.691406 207.300781 202.660156 206.769531 C 234.949219 204.917969 266.96875 199.09375 299.257812 199.09375 C 319.105469 199.355469 338.957031 196.972656 358.804688 195.121094 C 395.855469 191.679688 432.90625 187.707031 469.957031 184 C 489.542969 182.410156 509.128906 179.234375 528.183594 174.730469 C 532.417969 173.9375 536.914062 173.410156 541.414062 173.671875 C 553.851562 173.671875 566.292969 174.203125 578.730469 174.46875 C 598.578125 174.730469 618.691406 173.144531 638.277344 169.964844 C 640.921875 169.703125 643.835938 169.703125 646.480469 169.964844 C 651.246094 170.496094 652.570312 172.085938 652.832031 177.117188 C 652.832031 178.4375 652.832031 179.761719 652.832031 180.824219 C 653.628906 209.417969 654.15625 238.015625 654.949219 266.613281 C 655.480469 284.617188 656.804688 302.621094 657.332031 320.628906 C 657.863281 347.636719 656.007812 374.90625 651.773438 401.652344 C 651.246094 406.679688 650.714844 411.710938 650.714844 416.742188 C 649.921875 442.957031 649.390625 469.167969 648.070312 495.382812 C 647.539062 509.152344 645.421875 522.65625 644.097656 536.425781 C 643.304688 544.898438 642.777344 553.371094 641.980469 561.84375 C 641.453125 566.875 640.660156 571.90625 639.601562 576.9375 C 638.804688 582.230469 634.570312 586.203125 629.277344 586.46875 C 609.164062 588.058594 590.640625 595.734375 571.585938 601.296875 C 559.675781 604.738281 547.238281 607.121094 534.796875 608.445312 C 509.65625 611.359375 485.042969 615.066406 460.167969 619.300781 C 436.082031 623.539062 412 626.980469 387.652344 626.449219 C 352.980469 625.65625 318.578125 627.507812 284.171875 629.097656 C 242.886719 630.953125 202.925781 623.539062 163.226562 612.945312 C 162.699219 612.679688 161.902344 612.679688 161.375 612.417969 C 151.054688 609.238281 149.464844 607.914062 149.199219 596.792969 C 148.671875 573.757812 148.40625 550.457031 148.40625 527.15625 C 148.40625 507.5625 149.199219 487.703125 148.9375 468.109375 C 148.671875 445.867188 150.523438 423.628906 151.847656 401.652344 C 153.171875 383.117188 153.433594 364.582031 153.699219 345.78125 C 154.230469 304.476562 154.230469 263.167969 154.230469 221.863281 C 154.492188 218.949219 154.757812 216.304688 155.023438 213.390625 Z M 156.347656 212.859375 "/>
</g>
<g clip-path="url(#clip5)" clip-rule="nonzero">
<path style=" stroke:none;fill-rule:nonzero;fill:rgb(1.568604%,67.83905%,88.238525%);fill-opacity:1;" d="M 193.691406 221.332031 C 193.691406 222.722656 194.832031 223.859375 196.222656 223.859375 C 196.222656 223.859375 196.253906 223.859375 196.253906 223.859375 C 206.890625 223.734375 248.761719 223.226562 287.058594 223.890625 C 331.371094 224.679688 351.941406 219.941406 351.941406 219.941406 L 351.941406 75.359375 C 351.941406 75.359375 307.632812 69.039062 273.609375 70.617188 C 239.585938 72.199219 215.054688 70.617188 204.769531 76.148438 C 194.484375 81.679688 195.273438 148.835938 194.484375 168.585938 C 193.820312 185.144531 193.722656 212.796875 193.691406 221.332031 Z M 193.691406 221.332031 "/>
</g>
<g clip-path="url(#clip6)" clip-rule="nonzero">
<g clip-path="url(#clip7)" clip-rule="nonzero">
<g clip-path="url(#clip8)" clip-rule="nonzero">
<path style=" stroke:none;fill-rule:nonzero;fill:rgb(98.429871%,14.118958%,41.958618%);fill-opacity:1;" d="M 315.15625 237.441406 C 315.15625 237.441406 311.597656 369.398438 306.074219 399.921875 C 300.554688 430.441406 298.195312 550.066406 298.195312 550.066406 C 298.195312 550.066406 296.246094 586.097656 294.355469 589.523438 C 292.464844 592.949219 276.222656 594.621094 240.457031 579.964844 C 204.695312 565.304688 197.902344 522.265625 196.023438 515.359375 C 194.148438 508.457031 185.898438 422.894531 187.585938 394.617188 C 189.273438 366.339844 195.269531 262.496094 199.660156 244.316406 C 199.660156 244.316406 214.640625 239.617188 256.269531 236.949219 C 297.898438 234.277344 315.15625 237.441406 315.15625 237.441406 Z M 315.15625 237.441406 "/>
</g>
</g>
</g>
<g clip-path="url(#clip9)" clip-rule="nonzero">
<g clip-path="url(#clip10)" clip-rule="nonzero">
<g clip-path="url(#clip11)" clip-rule="nonzero">
<path style=" stroke:none;fill-rule:nonzero;fill:rgb(100%,50.19989%,25.878906%);fill-opacity:1;" d="M 322.902344 476.125 C 322.902344 476.125 327.351562 390.285156 327.160156 357.925781 C 326.96875 325.566406 329.210938 257.980469 331.707031 249.242188 C 334.203125 240.503906 339.058594 236.265625 350.121094 237.390625 C 361.183594 238.515625 421.160156 241.261719 451.523438 240.949219 C 481.886719 240.636719 548.882812 239.605469 557.84375 239.832031 C 566.808594 240.058594 572.953125 241.734375 571.929688 251.253906 C 570.910156 260.773438 563.453125 307.554688 563.453125 307.554688 C 563.453125 307.554688 546.777344 312.820312 512.425781 316.242188 C 471.015625 320.375 446.421875 324.679688 434.773438 341.1875 C 423.121094 357.695312 382.488281 414.246094 380.054688 481.773438 C 380.054688 481.773438 368.253906 485.035156 351.71875 483.710938 C 335.183594 482.390625 326.050781 484.289062 322.902344 476.125 Z M 322.902344 476.125 "/>
</g>
</g>
</g>
<g clip-path="url(#clip12)" clip-rule="nonzero">
<g clip-path="url(#clip13)" clip-rule="nonzero">
<g clip-path="url(#clip14)" clip-rule="nonzero">
<path style=" stroke:none;fill-rule:nonzero;fill:rgb(26.269531%,76.858521%,39.99939%);fill-opacity:1;" d="M 591.757812 538.914062 C 613.734375 516.550781 621.808594 414.589844 597 383.808594 C 572.191406 353.023438 550.96875 343.394531 514.710938 343.042969 C 478.453125 342.691406 444.476562 362.867188 429.253906 390.300781 C 414.035156 417.734375 389.574219 456.527344 411.65625 494.585938 C 433.738281 532.640625 432.878906 543.878906 445.375 550.195312 C 457.875 556.507812 495.71875 578.988281 531.785156 571.015625 C 567.851562 563.046875 570.371094 560.679688 591.757812 538.914062 Z M 591.757812 538.914062 "/>
</g>
</g>
</g>
<g clip-path="url(#clip15)" clip-rule="nonzero">
<g clip-path="url(#clip16)" clip-rule="nonzero">
<g clip-path="url(#clip17)" clip-rule="nonzero">
<path style=" stroke:none;fill-rule:nonzero;fill:rgb(26.269531%,76.858521%,39.99939%);fill-opacity:1;" d="M 539.53125 524.464844 C 555.269531 508.464844 561.050781 435.476562 543.308594 413.414062 C 525.566406 391.351562 510.375 384.480469 484.414062 384.226562 C 458.453125 383.972656 434.140625 398.433594 423.234375 418.101562 C 412.328125 437.765625 394.816406 465.519531 410.621094 492.746094 C 426.429688 519.976562 425.824219 528 434.777344 532.53125 C 443.726562 537.066406 470.820312 553.15625 496.628906 547.414062 C 522.433594 541.671875 524.226562 540.035156 539.53125 524.464844 Z M 539.53125 524.464844 "/>
</g>
</g>
</g>
<g clip-path="url(#clip18)" clip-rule="nonzero">
<g clip-path="url(#clip19)" clip-rule="nonzero">
<g clip-path="url(#clip20)" clip-rule="nonzero">
<path style=" stroke:none;fill-rule:nonzero;fill:rgb(64.709473%,47.839355%,100%);fill-opacity:1;" d="M 322.429688 597.382812 C 322.429688 597.382812 346.59375 597.546875 362.863281 597.410156 C 379.132812 597.273438 416.929688 593.011719 422.523438 590.730469 C 422.523438 590.730469 423.949219 585.636719 418.160156 568.082031 C 412.371094 550.53125 397.351562 504.023438 397.351562 504.023438 C 397.351562 504.023438 363.089844 501.585938 345.304688 503.210938 C 327.519531 504.839844 323.199219 507.472656 323.199219 507.472656 C 323.199219 507.472656 315.71875 593.851562 322.429688 597.382812 Z M 322.429688 597.382812 "/>
</g>
</g>
</g>
<g clip-path="url(#clip21)" clip-rule="nonzero">
<g clip-path="url(#clip22)" clip-rule="nonzero">
<g clip-path="url(#clip23)" clip-rule="nonzero">
<path style=" stroke:none;fill-rule:nonzero;fill:rgb(100%,88.238525%,0%);fill-opacity:1;" d="M 365.511719 201.042969 C 365.566406 205.53125 365.628906 210.117188 365.695312 214.703125 C 365.714844 216.796875 367.917969 218.566406 370.617188 218.511719 C 384.113281 218.335938 397.554688 218.859375 410.933594 220.089844 C 415.859375 220.503906 420.863281 220.515625 425.773438 220.632812 C 434.59375 220.925781 443.417969 221.21875 452.230469 221.308594 C 461.742188 221.460938 471.359375 221.609375 480.84375 221.261719 C 495.230469 220.835938 509.71875 220.503906 524.054688 220.976562 C 531.269531 221.164062 538.457031 220.851562 545.667969 220.933594 C 560.386719 221.085938 575.082031 220.84375 589.761719 222.09375 C 594.191406 222.539062 598.683594 222.382812 603.144531 221.625 C 604.527344 221.347656 605.910156 220.96875 607.183594 220.496094 C 609.136719 219.6875 610.375 218.617188 610.660156 216.605469 C 611.929688 203.859375 613.40625 191.199219 614.972656 178.4375 C 615.273438 174.929688 614.667969 171.371094 613.082031 168.167969 C 611.59375 164.859375 609.804688 161.570312 609.292969 157.90625 C 608.957031 155.53125 606.585938 154.371094 603.296875 154.558594 C 599.605469 154.773438 596.019531 155.078125 592.324219 155.191406 C 584.234375 155.453125 576.039062 155.625 567.945312 155.792969 C 561.550781 155.960938 555.136719 155.828125 548.761719 156.292969 C 528.625 157.648438 508.527344 157.90625 488.429688 158.160156 C 478.234375 158.347656 467.984375 157.636719 457.761719 157.328125 C 451.648438 157.179688 445.636719 157.027344 439.511719 156.679688 C 430.976562 156.171875 422.535156 155.558594 414.101562 155.042969 C 409.882812 154.789062 405.578125 154.734375 401.277344 154.78125 C 392.585938 154.980469 383.796875 155.289062 375.109375 155.585938 C 373.613281 155.671875 372.128906 155.957031 370.644531 156.242188 C 369.351562 156.414062 368.304688 157.375 368.179688 158.679688 C 367.402344 166.007812 366.414062 173.25 365.636719 180.578125 C 365.253906 184.390625 365.273438 188.183594 365.289062 191.972656 C 365.261719 194.96875 365.625 197.84375 365.796875 200.828125 L 365.5 200.84375 Z M 365.511719 201.042969 "/>
</g>
</g>
</g>
<g clip-path="url(#clip24)" clip-rule="nonzero">
<g clip-path="url(#clip25)" clip-rule="nonzero">
<g clip-path="url(#clip26)" clip-rule="nonzero">
<path style=" stroke:none;fill-rule:nonzero;fill:rgb(100%,88.238525%,0%);fill-opacity:1;" d="M 366.265625 121.621094 C 366.324219 126.109375 366.390625 130.695312 366.453125 135.28125 C 366.472656 137.375 368.667969 139.144531 371.359375 139.089844 C 384.820312 138.917969 398.21875 139.445312 411.558594 140.675781 C 416.46875 141.09375 421.457031 141.105469 426.355469 141.222656 C 435.152344 141.515625 443.945312 141.808594 452.730469 141.902344 C 462.21875 142.058594 471.804688 142.207031 481.261719 141.863281 C 495.605469 141.4375 510.050781 141.109375 524.34375 141.585938 C 531.539062 141.769531 538.703125 141.457031 545.890625 141.546875 C 560.566406 141.699219 575.21875 141.457031 589.855469 142.714844 C 594.273438 143.15625 598.753906 143 603.199219 142.246094 C 604.578125 141.96875 605.953125 141.589844 607.222656 141.117188 C 609.171875 140.308594 610.410156 139.238281 610.691406 137.226562 C 611.957031 124.480469 613.425781 111.824219 614.984375 99.058594 C 615.28125 95.550781 614.679688 91.992188 613.097656 88.789062 C 611.613281 85.484375 609.828125 82.191406 609.316406 78.53125 C 608.980469 76.152344 606.621094 74.992188 603.339844 75.179688 C 599.660156 75.390625 596.085938 75.695312 592.402344 75.808594 C 584.335938 76.070312 576.164062 76.242188 568.09375 76.40625 C 561.714844 76.574219 555.324219 76.441406 548.964844 76.90625 C 528.890625 78.257812 508.851562 78.511719 488.8125 78.761719 C 478.648438 78.945312 468.429688 78.234375 458.238281 77.921875 C 452.140625 77.773438 446.148438 77.621094 440.042969 77.273438 C 431.53125 76.761719 423.117188 76.148438 414.707031 75.632812 C 410.503906 75.375 406.210938 75.320312 401.921875 75.367188 C 393.253906 75.566406 384.492188 75.871094 375.828125 76.167969 C 374.335938 76.253906 372.855469 76.539062 371.378906 76.824219 C 370.089844 76.996094 369.046875 77.953125 368.921875 79.257812 C 368.148438 86.589844 367.164062 93.828125 366.390625 101.160156 C 366.007812 104.972656 366.027344 108.761719 366.046875 112.554688 C 366.019531 115.550781 366.382812 118.421875 366.554688 121.40625 L 366.253906 121.421875 Z M 366.265625 121.621094 "/>
</g>
</g>
</g>
<g clip-path="url(#clip27)" clip-rule="nonzero">
<g clip-path="url(#clip28)" clip-rule="nonzero">
<g clip-path="url(#clip29)" clip-rule="nonzero">
<path style=" stroke:none;fill-rule:nonzero;fill:rgb(100%,88.238525%,0%);fill-opacity:1;" d="M 597.132812 235.558594 C 595.269531 235.605469 593.367188 235.65625 591.464844 235.707031 C 590.59375 235.726562 589.871094 236.65625 589.910156 237.789062 C 590.0625 243.453125 589.917969 249.09375 589.484375 254.710938 C 589.339844 256.78125 589.363281 258.882812 589.34375 260.941406 C 589.273438 264.644531 589.203125 268.347656 589.214844 272.046875 C 589.207031 276.039062 589.199219 280.074219 589.398438 284.050781 C 589.65625 290.082031 589.878906 296.160156 589.761719 302.179688 C 589.726562 305.207031 589.898438 308.21875 589.902344 311.246094 C 589.921875 317.421875 590.109375 323.585938 589.671875 329.75 C 589.515625 331.613281 589.605469 333.496094 589.945312 335.363281 C 590.066406 335.945312 590.234375 336.519531 590.4375 337.050781 C 590.785156 337.867188 591.234375 338.382812 592.070312 338.492188 C 597.367188 338.957031 602.632812 339.511719 607.9375 340.105469 C 609.398438 340.210938 610.871094 339.941406 612.191406 339.257812 C 613.554688 338.617188 614.910156 337.847656 616.425781 337.617188 C 617.410156 337.464844 617.878906 336.464844 617.78125 335.082031 C 617.671875 333.535156 617.527344 332.035156 617.457031 330.484375 C 617.300781 327.089844 617.183594 323.652344 617.070312 320.257812 C 616.964844 317.574219 616.980469 314.886719 616.75 312.210938 C 616.074219 303.769531 615.851562 295.339844 615.632812 286.910156 C 615.496094 282.632812 615.734375 278.328125 615.804688 274.039062 C 615.832031 271.472656 615.859375 268.949219 615.96875 266.378906 C 616.132812 262.796875 616.335938 259.25 616.503906 255.710938 C 616.585938 253.9375 616.582031 252.132812 616.539062 250.328125 C 616.40625 246.679688 616.230469 242.996094 616.054688 239.351562 C 616.011719 238.726562 615.882812 238.101562 615.757812 237.480469 C 615.679688 236.941406 615.273438 236.507812 614.730469 236.460938 C 611.683594 236.171875 608.675781 235.796875 605.628906 235.507812 C 604.042969 235.367188 602.46875 235.390625 600.894531 235.417969 C 599.652344 235.421875 598.460938 235.589844 597.222656 235.679688 L 597.214844 235.550781 Z M 597.132812 235.558594 "/>
</g>
</g>
</g>
<g clip-path="url(#clip30)" clip-rule="nonzero">
<g clip-path="url(#clip31)" clip-rule="nonzero">
<g clip-path="url(#clip32)" clip-rule="nonzero">
<path style=" stroke:none;fill-rule:nonzero;fill:rgb(100%,88.238525%,0%);fill-opacity:1;" d="M 591.875 236.621094 C 590.058594 236.503906 588.203125 236.382812 586.34375 236.261719 C 585.496094 236.203125 584.710938 237.042969 584.648438 238.140625 C 584.289062 243.632812 583.648438 249.078125 582.726562 254.476562 C 582.402344 256.464844 582.238281 258.5 582.035156 260.492188 C 581.636719 264.066406 581.238281 267.644531 580.917969 271.222656 C 580.554688 275.085938 580.1875 278.988281 580.027344 282.855469 C 579.742188 288.714844 579.414062 294.613281 578.765625 300.425781 C 578.460938 303.351562 578.359375 306.285156 578.097656 309.210938 C 577.566406 315.1875 577.199219 321.167969 576.222656 327.097656 C 575.902344 328.882812 575.824219 330.710938 575.988281 332.550781 C 576.054688 333.121094 576.164062 333.695312 576.316406 334.226562 C 576.582031 335.046875 576.976562 335.585938 577.78125 335.765625 C 582.894531 336.6875 587.964844 337.691406 593.078125 338.734375 C 594.488281 338.96875 595.945312 338.835938 597.289062 338.292969 C 598.675781 337.792969 600.0625 337.171875 601.558594 337.082031 C 602.53125 337.019531 603.078125 336.09375 603.105469 334.75 C 603.136719 333.242188 603.128906 331.777344 603.199219 330.273438 C 603.351562 326.976562 603.542969 323.636719 603.730469 320.34375 C 603.867188 317.738281 604.125 315.136719 604.140625 312.53125 C 604.230469 304.304688 604.769531 296.125 605.304688 287.949219 C 605.554688 283.800781 606.167969 279.65625 606.617188 275.511719 C 606.871094 273.03125 607.125 270.59375 607.460938 268.113281 C 607.9375 264.664062 608.453125 261.25 608.929688 257.839844 C 609.167969 256.132812 609.328125 254.386719 609.445312 252.636719 C 609.640625 249.097656 609.796875 245.515625 609.953125 241.972656 C 609.964844 241.363281 609.898438 240.75 609.828125 240.136719 C 609.800781 239.609375 609.445312 239.152344 608.921875 239.058594 C 605.984375 238.507812 603.085938 237.878906 600.148438 237.328125 C 598.617188 237.050781 597.082031 236.9375 595.550781 236.824219 C 594.339844 236.714844 593.164062 236.773438 591.953125 236.746094 L 591.957031 236.625 Z M 591.875 236.621094 "/>
</g>
</g>
</g>
</g>
</svg>
