<?xml version="1.0" encoding="UTF-8"?>
<svg xmlns="http://www.w3.org/2000/svg" xmlns:xlink="http://www.w3.org/1999/xlink" width="810pt" height="809.999993pt" viewBox="0 0 810 809.999993" version="1.2">
<defs>
<clipPath id="clip1">
  <path d="M 240.527344 109.902344 L 569.640625 109.902344 L 569.640625 394 L 240.527344 394 Z M 240.527344 109.902344 "/>
</clipPath>
<clipPath id="clip2">
  <path d="M 279 218 L 532 218 L 532 557.652344 L 279 557.652344 Z M 279 218 "/>
</clipPath>
<clipPath id="clip3">
  <path d="M 253.984375 116.757812 L 572.601562 116.757812 L 572.601562 392.527344 L 253.984375 392.527344 Z M 253.984375 116.757812 "/>
</clipPath>
<clipPath id="clip4">
  <path d="M 291 222 L 536 222 L 536 551.007812 L 291 551.007812 Z M 291 222 "/>
</clipPath>
</defs>
<g id="surface1">
<rect x="0" y="0" width="810" height="809.999993" style="fill:rgb(100%,100%,100%);fill-opacity:1;stroke:none;"/>
<rect x="0" y="0" width="810" height="809.999993" style="fill:rgb(100%,100%,100%);fill-opacity:1;stroke:none;"/>
<g clip-path="url(#clip1)" clip-rule="nonzero">
<path style=" stroke:none;fill-rule:nonzero;fill:rgb(32.939148%,32.939148%,32.939148%);fill-opacity:1;" d="M 543.585938 366.660156 L 557.449219 366.660156 C 564.152344 366.660156 569.636719 361.179688 569.636719 354.484375 L 569.636719 335.003906 C 569.636719 328.308594 564.152344 322.828125 557.449219 322.828125 L 543.585938 322.828125 Z M 488.761719 292.625 L 481.054688 292.625 L 481.054688 393.90625 L 488.761719 393.90625 Z M 266.578125 318.394531 L 252.71875 318.394531 C 246.011719 318.394531 240.527344 323.871094 240.527344 330.566406 L 240.527344 350.046875 C 240.527344 356.742188 246.011719 362.21875 252.71875 362.21875 L 266.578125 362.21875 Z M 321.613281 392.429688 L 329.320312 392.429688 L 329.320312 291.144531 L 321.613281 291.144531 Z M 385.054688 145.441406 L 385.054688 128.855469 C 385.054688 118.429688 393.59375 109.902344 404.027344 109.902344 C 414.464844 109.902344 423.003906 118.429688 423.003906 128.855469 L 423.003906 145.441406 L 385.054688 145.441406 "/>
</g>
<path style=" stroke:none;fill-rule:nonzero;fill:rgb(32.939148%,32.939148%,32.939148%);fill-opacity:1;" d="M 329.320312 535.136719 L 329.320312 211.777344 C 329.320312 170.078125 363.472656 135.964844 405.214844 135.964844 C 446.957031 135.964844 481.109375 170.078125 481.109375 211.777344 L 481.109375 535.136719 L 329.320312 535.136719 "/>
<path style=" stroke:none;fill-rule:nonzero;fill:rgb(32.939148%,32.939148%,32.939148%);fill-opacity:1;" d="M 468.195312 274.707031 C 468.195312 284.632812 468.195312 294.558594 468.195312 304.484375 C 468.195312 347.46875 468.195312 390.457031 468.195312 433.441406 C 468.195312 460.386719 468.195312 487.324219 468.195312 514.265625 C 468.195312 521.902344 456.335938 521.890625 456.335938 514.265625 C 456.335938 504.339844 456.335938 494.410156 456.335938 484.484375 C 456.335938 463.613281 456.335938 442.742188 456.335938 421.871094 C 452.46875 430.257812 446.558594 437.515625 439.222656 442.976562 C 439.222656 466.738281 439.222656 490.503906 439.222656 514.265625 C 439.222656 521.902344 427.367188 521.890625 427.367188 514.265625 C 427.367188 504.339844 427.367188 494.410156 427.367188 484.484375 C 427.367188 472.886719 427.367188 461.289062 427.367188 449.695312 C 422.035156 451.894531 416.277344 453.273438 410.257812 453.691406 C 410.257812 473.882812 410.257812 494.074219 410.257812 514.265625 C 410.257812 521.902344 398.398438 521.890625 398.398438 514.265625 C 398.398438 504.339844 398.398438 494.410156 398.398438 484.484375 C 398.398438 474.074219 398.398438 463.667969 398.398438 453.253906 C 392.660156 452.417969 387.210938 450.699219 382.195312 448.234375 C 382.195312 470.246094 382.195312 492.253906 382.195312 514.265625 C 382.195312 521.902344 370.335938 521.890625 370.335938 514.265625 C 370.335938 504.339844 370.335938 494.410156 370.335938 484.484375 C 370.335938 469.773438 370.335938 455.058594 370.335938 440.347656 C 363.582031 434.472656 358.28125 426.984375 355.039062 418.472656 C 355.039062 423.464844 355.039062 428.453125 355.039062 433.441406 C 355.039062 460.386719 355.039062 487.324219 355.039062 514.265625 C 355.039062 521.902344 343.179688 521.890625 343.179688 514.265625 C 343.179688 504.339844 343.179688 494.410156 343.179688 484.484375 C 343.179688 441.5 343.179688 398.511719 343.179688 355.53125 C 343.179688 328.589844 343.179688 301.644531 343.179688 274.707031 C 343.179688 267.070312 355.039062 267.082031 355.039062 274.707031 C 355.039062 284.632812 355.039062 294.558594 355.039062 304.484375 C 355.039062 329.460938 355.039062 354.4375 355.039062 379.410156 C 358.28125 370.902344 363.582031 363.414062 370.335938 357.539062 C 370.335938 356.867188 370.335938 356.199219 370.335938 355.53125 C 370.335938 328.589844 370.335938 301.644531 370.335938 274.707031 C 370.335938 267.070312 382.195312 267.082031 382.195312 274.707031 C 382.195312 284.632812 382.195312 294.558594 382.195312 304.484375 C 382.195312 319.539062 382.195312 334.597656 382.195312 349.652344 C 387.210938 347.1875 392.660156 345.464844 398.398438 344.632812 C 398.398438 321.320312 398.398438 298.015625 398.398438 274.707031 C 398.398438 267.070312 410.257812 267.082031 410.257812 274.707031 C 410.257812 284.632812 410.257812 294.558594 410.257812 304.484375 C 410.257812 317.722656 410.257812 330.957031 410.257812 344.195312 C 416.277344 344.613281 422.035156 345.992188 427.367188 348.191406 C 427.367188 323.695312 427.367188 299.199219 427.367188 274.707031 C 427.367188 267.070312 439.222656 267.082031 439.222656 274.707031 C 439.222656 284.632812 439.222656 294.558594 439.222656 304.484375 C 439.222656 321.292969 439.222656 338.101562 439.222656 354.910156 C 446.558594 360.375 452.46875 367.625 456.335938 376.015625 C 456.335938 369.1875 456.335938 362.355469 456.335938 355.53125 C 456.335938 328.589844 456.335938 301.644531 456.335938 274.707031 C 456.335938 267.070312 468.195312 267.082031 468.195312 274.707031 "/>
<path style=" stroke:none;fill-rule:nonzero;fill:rgb(32.939148%,32.939148%,32.939148%);fill-opacity:1;" d="M 461.359375 391.839844 C 461.359375 422.15625 436.753906 446.734375 406.398438 446.734375 C 376.050781 446.734375 351.441406 422.15625 351.441406 391.839844 C 351.441406 361.515625 376.050781 336.9375 406.398438 336.9375 C 436.753906 336.9375 461.359375 361.515625 461.359375 391.839844 "/>
<path style=" stroke:none;fill-rule:nonzero;fill:rgb(32.939148%,32.939148%,32.939148%);fill-opacity:1;" d="M 527.832031 384.5 L 547.238281 384.5 L 547.238281 299.074219 L 527.832031 299.074219 Z M 263.070312 299.074219 L 282.480469 299.074219 L 282.480469 384.5 L 263.070312 384.5 L 263.070312 299.074219 "/>
<path style=" stroke:none;fill-rule:nonzero;fill:rgb(32.939148%,32.939148%,32.939148%);fill-opacity:1;" d="M 488.761719 399.234375 L 522.382812 399.234375 C 525.414062 399.234375 527.894531 396.757812 527.894531 393.730469 L 527.894531 291.320312 C 527.894531 288.292969 525.414062 285.816406 522.382812 285.816406 L 488.761719 285.816406 Z M 321.613281 399.234375 L 287.988281 399.234375 C 284.957031 399.234375 282.480469 396.757812 282.480469 393.730469 L 282.480469 291.320312 C 282.480469 288.292969 284.957031 285.816406 287.988281 285.816406 L 321.613281 285.816406 L 321.613281 399.234375 "/>
<g clip-path="url(#clip2)" clip-rule="nonzero">
<path style=" stroke:none;fill-rule:nonzero;fill:rgb(32.939148%,32.939148%,32.939148%);fill-opacity:1;" d="M 527.84375 384.5 L 531.011719 384.5 L 531.011719 299.074219 L 527.84375 299.074219 Z M 279.320312 384.5 L 282.484375 384.5 L 282.484375 299.074219 L 279.320312 299.074219 Z M 522.617188 557.652344 C 522.617188 543.316406 510.875 531.589844 496.527344 531.589844 L 311.867188 531.589844 C 297.523438 531.589844 285.78125 543.316406 285.78125 557.652344 Z M 406.769531 362.855469 C 390.195312 362.855469 376.757812 376.277344 376.757812 392.832031 C 376.757812 409.394531 390.195312 422.8125 406.769531 422.8125 C 423.339844 422.8125 436.777344 409.394531 436.777344 392.832031 C 436.777344 376.277344 423.339844 362.855469 406.769531 362.855469 Z M 488.332031 252.054688 L 320.910156 252.054688 C 313.796875 252.054688 307.972656 246.238281 307.972656 239.128906 L 307.972656 231.8125 C 307.972656 224.699219 313.796875 218.886719 320.910156 218.886719 L 488.332031 218.886719 C 495.445312 218.886719 501.269531 224.699219 501.269531 231.8125 L 501.269531 239.128906 C 501.269531 246.238281 495.445312 252.054688 488.332031 252.054688 "/>
</g>
<path style=" stroke:none;fill-rule:nonzero;fill:rgb(32.939148%,32.939148%,32.939148%);fill-opacity:1;" d="M 74.425781 18.0625 L 74.425781 592.628906 L 396.253906 802.558594 L 718.675781 592.628906 L 718.675781 18.0625 Z M 74.425781 18.0625 "/>
<path style=" stroke:none;fill-rule:nonzero;fill:rgb(78.039551%,81.568909%,84.709167%);fill-opacity:1;" d="M 78.386719 22.886719 L 78.386719 590.3125 L 396.46875 797.628906 L 715.136719 590.3125 L 715.136719 22.886719 Z M 78.386719 22.886719 "/>
<path style=" stroke:none;fill-rule:nonzero;fill:rgb(32.939148%,32.939148%,32.939148%);fill-opacity:1;" d="M 74.730469 16.789062 L 91.8125 7.390625 L 99.765625 21.839844 L 82.679688 31.242188 Z M 74.730469 16.789062 "/>
<path style=" stroke:none;fill-rule:nonzero;fill:rgb(78.039551%,81.568909%,84.709167%);fill-opacity:1;" d="M 75.902344 19.269531 L 92.984375 9.867188 L 100.9375 24.320312 L 83.851562 33.722656 Z M 75.902344 19.269531 "/>
<path style=" stroke:none;fill-rule:nonzero;fill:rgb(45.098877%,45.098877%,45.098877%);fill-opacity:1;" d="M 91.273438 7.382812 L 91.273438 581.949219 L 413.101562 791.875 L 735.523438 581.949219 L 735.523438 7.382812 Z M 91.273438 7.382812 "/>
<path style=" stroke:none;fill-rule:nonzero;fill:rgb(96.078491%,96.469116%,96.859741%);fill-opacity:1;" d="M 95.101562 11.289062 L 95.101562 579.269531 L 413.183594 786.789062 L 731.847656 579.269531 L 731.847656 11.289062 Z M 95.101562 11.289062 "/>
<path style=" stroke:none;fill-rule:nonzero;fill:rgb(78.039551%,81.568909%,84.709167%);fill-opacity:1;" d="M 77.964844 19.449219 L 89.214844 19.449219 L 89.214844 29.199219 L 77.964844 29.199219 Z M 77.964844 19.449219 "/>
<g clip-path="url(#clip3)" clip-rule="nonzero">
<path style=" stroke:none;fill-rule:nonzero;fill:rgb(41.958618%,24.708557%,78.42865%);fill-opacity:1;" d="M 547.378906 365.773438 L 560.800781 365.773438 C 567.289062 365.773438 572.597656 360.457031 572.597656 353.964844 L 572.597656 335.070312 C 572.597656 328.574219 567.289062 323.261719 560.800781 323.261719 L 547.378906 323.261719 Z M 494.300781 293.96875 L 486.839844 293.96875 L 486.839844 392.195312 L 494.300781 392.195312 Z M 279.203125 318.960938 L 265.78125 318.960938 C 259.292969 318.960938 253.984375 324.273438 253.984375 330.769531 L 253.984375 349.660156 C 253.984375 356.152344 259.292969 361.464844 265.78125 361.464844 L 279.203125 361.464844 Z M 332.480469 390.765625 L 339.941406 390.765625 L 339.941406 292.535156 L 332.480469 292.535156 Z M 393.902344 151.222656 L 393.902344 135.140625 C 393.902344 125.027344 402.167969 116.757812 412.269531 116.757812 C 422.371094 116.757812 430.636719 125.027344 430.636719 135.140625 L 430.636719 151.222656 L 393.902344 151.222656 "/>
</g>
<path style=" stroke:none;fill-rule:nonzero;fill:rgb(64.709473%,47.839355%,100%);fill-opacity:1;" d="M 339.941406 529.167969 L 339.941406 215.5625 C 339.941406 175.117188 373.003906 142.03125 413.417969 142.03125 C 453.828125 142.03125 486.894531 175.117188 486.894531 215.5625 L 486.894531 529.167969 L 339.941406 529.167969 "/>
<path style=" stroke:none;fill-rule:nonzero;fill:rgb(41.958618%,24.708557%,78.42865%);fill-opacity:1;" d="M 474.390625 276.59375 C 474.390625 286.21875 474.390625 295.847656 474.390625 305.472656 C 474.390625 347.160156 474.390625 388.851562 474.390625 430.542969 C 474.390625 456.671875 474.390625 482.796875 474.390625 508.929688 C 474.390625 516.332031 462.90625 516.320312 462.90625 508.929688 C 462.90625 499.300781 462.90625 489.671875 462.90625 480.046875 C 462.90625 459.800781 462.90625 439.5625 462.90625 419.316406 C 459.164062 427.453125 453.445312 434.492188 446.339844 439.789062 C 446.339844 462.835938 446.339844 485.882812 446.339844 508.929688 C 446.339844 516.332031 434.863281 516.320312 434.863281 508.929688 C 434.863281 499.300781 434.863281 489.671875 434.863281 480.046875 C 434.863281 468.796875 434.863281 457.550781 434.863281 446.304688 C 429.703125 448.4375 424.128906 449.773438 418.300781 450.179688 C 418.300781 469.761719 418.300781 489.34375 418.300781 508.929688 C 418.300781 516.332031 406.820312 516.320312 406.820312 508.929688 C 406.820312 499.300781 406.820312 489.671875 406.820312 480.046875 C 406.820312 469.949219 406.820312 459.855469 406.820312 449.757812 C 401.261719 448.945312 395.988281 447.277344 391.128906 444.886719 C 391.128906 466.234375 391.128906 487.578125 391.128906 508.929688 C 391.128906 516.332031 379.648438 516.320312 379.648438 508.929688 C 379.648438 499.300781 379.648438 489.671875 379.648438 480.046875 C 379.648438 465.777344 379.648438 451.503906 379.648438 437.238281 C 373.113281 431.542969 367.980469 424.277344 364.839844 416.023438 C 364.839844 420.863281 364.839844 425.703125 364.839844 430.542969 C 364.839844 456.671875 364.839844 482.796875 364.839844 508.929688 C 364.839844 516.332031 353.359375 516.320312 353.359375 508.929688 C 353.359375 499.300781 353.359375 489.671875 353.359375 480.046875 C 353.359375 438.355469 353.359375 396.664062 353.359375 354.976562 C 353.359375 328.847656 353.359375 302.71875 353.359375 276.59375 C 353.359375 269.183594 364.839844 269.199219 364.839844 276.59375 C 364.839844 286.21875 364.839844 295.847656 364.839844 305.472656 C 364.839844 329.695312 364.839844 353.917969 364.839844 378.140625 C 367.980469 369.886719 373.113281 362.625 379.648438 356.925781 C 379.648438 356.277344 379.648438 355.625 379.648438 354.976562 C 379.648438 328.847656 379.648438 302.71875 379.648438 276.59375 C 379.648438 269.183594 391.128906 269.199219 391.128906 276.59375 C 391.128906 286.21875 391.128906 295.847656 391.128906 305.472656 C 391.128906 320.074219 391.128906 334.675781 391.128906 349.277344 C 395.988281 346.886719 401.261719 345.214844 406.820312 344.410156 C 406.820312 321.800781 406.820312 299.195312 406.820312 276.59375 C 406.820312 269.183594 418.300781 269.199219 418.300781 276.59375 C 418.300781 286.21875 418.300781 295.847656 418.300781 305.472656 C 418.300781 318.308594 418.300781 331.144531 418.300781 343.984375 C 424.128906 344.390625 429.703125 345.726562 434.863281 347.859375 C 434.863281 324.101562 434.863281 300.347656 434.863281 276.59375 C 434.863281 269.183594 446.339844 269.199219 446.339844 276.59375 C 446.339844 286.21875 446.339844 295.847656 446.339844 305.472656 C 446.339844 321.773438 446.339844 338.074219 446.339844 354.375 C 453.445312 359.675781 459.164062 366.707031 462.90625 374.847656 C 462.90625 368.222656 462.90625 361.597656 462.90625 354.976562 C 462.90625 328.847656 462.90625 302.71875 462.90625 276.59375 C 462.90625 269.183594 474.390625 269.199219 474.390625 276.59375 "/>
<path style=" stroke:none;fill-rule:nonzero;fill:rgb(64.709473%,47.839355%,100%);fill-opacity:1;" d="M 467.773438 390.191406 C 467.773438 419.59375 443.949219 443.433594 414.566406 443.433594 C 385.183594 443.433594 361.359375 419.59375 361.359375 390.191406 C 361.359375 360.785156 385.183594 336.945312 414.566406 336.945312 C 443.949219 336.945312 467.773438 360.785156 467.773438 390.191406 "/>
<path style=" stroke:none;fill-rule:nonzero;fill:rgb(64.709473%,47.839355%,100%);fill-opacity:1;" d="M 532.125 383.074219 L 550.914062 383.074219 L 550.914062 300.226562 L 532.125 300.226562 Z M 275.804688 300.226562 L 294.59375 300.226562 L 294.59375 383.074219 L 275.804688 383.074219 L 275.804688 300.226562 "/>
<path style=" stroke:none;fill-rule:nonzero;fill:rgb(64.709473%,47.839355%,100%);fill-opacity:1;" d="M 494.300781 397.363281 L 526.847656 397.363281 C 529.785156 397.363281 532.1875 394.960938 532.1875 392.027344 L 532.1875 292.707031 C 532.1875 289.765625 529.785156 287.363281 526.847656 287.363281 L 494.300781 287.363281 Z M 332.480469 397.363281 L 299.929688 397.363281 C 296.996094 397.363281 294.59375 394.960938 294.59375 392.027344 L 294.59375 292.707031 C 294.59375 289.765625 296.996094 287.363281 299.929688 287.363281 L 332.480469 287.363281 L 332.480469 397.363281 "/>
<g clip-path="url(#clip4)" clip-rule="nonzero">
<path style=" stroke:none;fill-rule:nonzero;fill:rgb(41.958618%,24.708557%,78.42865%);fill-opacity:1;" d="M 532.136719 383.074219 L 535.207031 383.074219 L 535.207031 300.226562 L 532.136719 300.226562 Z M 291.535156 383.074219 L 294.601562 383.074219 L 294.601562 300.226562 L 291.535156 300.226562 Z M 527.078125 551.007812 C 527.078125 537.105469 515.710938 525.730469 501.816406 525.730469 L 323.046875 525.730469 C 309.160156 525.730469 297.792969 537.105469 297.792969 551.007812 Z M 414.921875 362.082031 C 398.875 362.082031 385.867188 375.097656 385.867188 391.15625 C 385.867188 407.21875 398.875 420.230469 414.921875 420.230469 C 430.96875 420.230469 443.976562 407.21875 443.976562 391.15625 C 443.976562 375.097656 430.96875 362.082031 414.921875 362.082031 Z M 493.882812 254.621094 L 331.800781 254.621094 C 324.914062 254.621094 319.277344 248.984375 319.277344 242.085938 L 319.277344 234.988281 C 319.277344 228.09375 324.914062 222.453125 331.800781 222.453125 L 493.882812 222.453125 C 500.773438 222.453125 506.410156 228.09375 506.410156 234.988281 L 506.410156 242.085938 C 506.410156 248.984375 500.773438 254.621094 493.882812 254.621094 "/>
</g>
</g>
</svg>
