<?xml version="1.0" encoding="UTF-8"?>
<svg xmlns="http://www.w3.org/2000/svg" xmlns:xlink="http://www.w3.org/1999/xlink" width="810pt" height="809.999993pt" viewBox="0 0 810 809.999993" version="1.2">
<defs>
<clipPath id="clip1">
  <path d="M 473 353 L 669.1875 353 L 669.1875 485 L 473 485 Z M 473 353 "/>
</clipPath>
<clipPath id="clip2">
  <path d="M 157.6875 353 L 354 353 L 354 485 L 157.6875 485 Z M 157.6875 353 "/>
</clipPath>
<clipPath id="clip3">
  <path d="M 266 370 L 561 370 L 561 526.300781 L 266 526.300781 Z M 266 370 "/>
</clipPath>
</defs>
<g id="surface1">
<rect x="0" y="0" width="810" height="809.999993" style="fill:rgb(100%,100%,100%);fill-opacity:1;stroke:none;"/>
<rect x="0" y="0" width="810" height="809.999993" style="fill:rgb(100%,100%,100%);fill-opacity:1;stroke:none;"/>
<path style=" stroke:none;fill-rule:nonzero;fill:rgb(32.939148%,32.939148%,32.939148%);fill-opacity:1;" d="M 73.886719 17.4375 L 73.886719 593.097656 L 396.09375 803.425781 L 718.886719 593.097656 L 718.886719 17.4375 Z M 73.886719 17.4375 "/>
<path style=" stroke:none;fill-rule:nonzero;fill:rgb(78.039551%,81.568909%,84.709167%);fill-opacity:1;" d="M 77.855469 22.265625 L 77.855469 590.789062 L 396.3125 798.507812 L 715.355469 590.789062 L 715.355469 22.265625 Z M 77.855469 22.265625 "/>
<path style=" stroke:none;fill-rule:nonzero;fill:rgb(32.939148%,32.939148%,32.939148%);fill-opacity:1;" d="M 74.195312 16.15625 L 91.277344 6.757812 L 99.230469 21.214844 L 82.148438 30.613281 Z M 74.195312 16.15625 "/>
<path style=" stroke:none;fill-rule:nonzero;fill:rgb(78.039551%,81.568909%,84.709167%);fill-opacity:1;" d="M 75.367188 18.640625 L 92.449219 9.242188 L 100.402344 23.699219 L 83.320312 33.097656 Z M 75.367188 18.640625 "/>
<path style=" stroke:none;fill-rule:nonzero;fill:rgb(45.098877%,45.098877%,45.098877%);fill-opacity:1;" d="M 90.761719 6.738281 L 90.761719 582.402344 L 412.964844 792.726562 L 735.761719 582.402344 L 735.761719 6.738281 Z M 90.761719 6.738281 "/>
<path style=" stroke:none;fill-rule:nonzero;fill:rgb(96.078491%,96.469116%,96.859741%);fill-opacity:1;" d="M 94.59375 11.402344 L 94.59375 579.929688 L 413.054688 787.648438 L 732.09375 579.929688 L 732.09375 11.402344 Z M 94.59375 11.402344 "/>
<path style=" stroke:none;fill-rule:nonzero;fill:rgb(78.039551%,81.568909%,84.709167%);fill-opacity:1;" d="M 76.683594 18.820312 L 87.929688 18.820312 L 87.929688 28.570312 L 76.683594 28.570312 Z M 76.683594 18.820312 "/>
<path style=" stroke:none;fill-rule:nonzero;fill:rgb(98.429871%,14.118958%,41.958618%);fill-opacity:1;" d="M 559.234375 481.550781 L 665.6875 481.550781 C 653.003906 383.613281 604.027344 357.035156 545.515625 357.035156 C 519.96875 357.035156 496.246094 362.113281 476.554688 375.957031 C 517.710938 392.242188 545.074219 427.21875 559.234375 481.550781 "/>
<g clip-path="url(#clip1)" clip-rule="nonzero">
<path style=" stroke:none;fill-rule:nonzero;fill:rgb(100%,100%,100%);fill-opacity:1;" d="M 559.234375 481.550781 L 559.234375 484.972656 L 665.6875 484.972656 C 666.675781 484.972656 667.597656 484.558594 668.253906 483.808594 C 668.90625 483.070312 669.203125 482.09375 669.074219 481.117188 C 665.875 456.371094 660.367188 436.023438 652.910156 419.378906 C 641.738281 394.417969 626.082031 377.800781 607.558594 367.617188 C 589.046875 357.417969 567.835938 353.617188 545.515625 353.617188 C 532.519531 353.617188 519.910156 354.90625 507.980469 358 C 496.054688 361.085938 484.800781 365.980469 474.589844 373.160156 C 473.5625 373.882812 473.011719 375.117188 473.160156 376.359375 C 473.308594 377.609375 474.128906 378.675781 475.296875 379.136719 C 495.332031 387.070312 511.917969 399.476562 525.324219 416.59375 C 538.726562 433.710938 548.933594 455.589844 555.929688 482.414062 C 556.324219 483.921875 557.679688 484.972656 559.234375 484.972656 L 559.234375 481.550781 L 562.550781 480.691406 C 555.375 453.179688 544.820312 430.40625 530.714844 412.378906 C 516.609375 394.351562 498.933594 381.128906 477.816406 372.777344 L 476.554688 375.957031 L 478.527344 378.757812 C 488 372.089844 498.453125 367.53125 509.699219 364.617188 C 520.9375 361.707031 532.96875 360.457031 545.515625 360.457031 C 559.882812 360.457031 573.578125 362.09375 586.179688 365.988281 C 605.097656 371.851562 621.589844 382.691406 634.726562 401.097656 C 647.859375 419.511719 657.582031 445.640625 662.292969 481.992188 L 665.6875 481.550781 L 665.6875 478.132812 L 559.234375 478.132812 L 559.234375 481.550781 L 562.550781 480.691406 L 559.234375 481.550781 "/>
</g>
<path style=" stroke:none;fill-rule:nonzero;fill:rgb(98.429871%,14.118958%,41.958618%);fill-opacity:1;" d="M 545.515625 187.136719 C 526.621094 187.136719 509.417969 194.144531 496.207031 205.632812 C 507.019531 221.46875 513.355469 240.582031 513.355469 261.152344 C 513.355469 282.351562 506.585938 301.949219 495.164062 318.050781 C 508.503906 330.101562 526.125 337.488281 545.515625 337.488281 C 587.042969 337.488281 620.734375 303.824219 620.734375 262.324219 C 620.734375 220.800781 587.042969 187.136719 545.515625 187.136719 "/>
<path style=" stroke:none;fill-rule:nonzero;fill:rgb(100%,100%,100%);fill-opacity:1;" d="M 545.515625 187.136719 L 545.515625 183.71875 C 525.765625 183.71875 507.761719 191.050781 493.960938 203.054688 C 492.652344 204.191406 492.40625 206.125 493.378906 207.5625 C 503.824219 222.851562 509.933594 241.285156 509.933594 261.152344 C 509.933594 281.617188 503.40625 300.511719 492.371094 316.074219 C 491.371094 317.492188 491.582031 319.429688 492.871094 320.589844 C 506.800781 333.171875 525.25 340.90625 545.515625 340.90625 C 588.933594 340.902344 624.15625 305.714844 624.15625 262.324219 C 624.15625 218.910156 588.933594 183.726562 545.515625 183.71875 L 545.515625 190.558594 C 565.34375 190.558594 583.273438 198.585938 596.277344 211.578125 C 609.28125 224.574219 617.3125 242.492188 617.3125 262.324219 C 617.3125 282.140625 609.28125 300.050781 596.277344 313.050781 C 583.273438 326.039062 565.34375 334.0625 545.515625 334.066406 C 527.007812 334.0625 510.207031 327.023438 497.457031 315.515625 L 495.164062 318.050781 L 497.957031 320.027344 C 509.757812 303.386719 516.777344 283.082031 516.777344 261.152344 C 516.777344 239.875 510.21875 220.078125 499.035156 203.707031 L 496.207031 205.632812 L 498.453125 208.21875 C 511.082031 197.238281 527.472656 190.558594 545.515625 190.558594 L 545.515625 187.136719 "/>
<path style=" stroke:none;fill-rule:nonzero;fill:rgb(98.429871%,14.118958%,41.958618%);fill-opacity:1;" d="M 267.636719 481.550781 L 161.191406 481.550781 C 173.875 383.613281 222.84375 357.035156 281.359375 357.035156 C 306.902344 357.035156 330.628906 362.113281 350.316406 375.957031 C 309.160156 392.242188 281.800781 427.21875 267.636719 481.550781 "/>
<g clip-path="url(#clip2)" clip-rule="nonzero">
<path style=" stroke:none;fill-rule:nonzero;fill:rgb(100%,100%,100%);fill-opacity:1;" d="M 267.636719 481.550781 L 267.636719 478.132812 L 161.191406 478.132812 L 161.191406 481.550781 L 164.585938 481.992188 C 167.71875 457.761719 173.09375 438.058594 180.207031 422.175781 C 190.90625 398.347656 205.441406 383.089844 222.617188 373.605469 C 239.796875 364.136719 259.789062 360.457031 281.359375 360.457031 C 293.902344 360.457031 305.9375 361.707031 317.179688 364.617188 C 328.417969 367.53125 338.875 372.089844 348.351562 378.757812 L 350.316406 375.957031 L 349.058594 372.777344 C 327.9375 381.128906 310.261719 394.351562 296.164062 412.378906 C 282.050781 430.40625 271.496094 453.179688 264.320312 480.691406 L 267.636719 481.550781 L 267.636719 478.132812 L 267.636719 481.550781 L 270.941406 482.414062 C 277.9375 455.589844 288.148438 433.710938 301.546875 416.59375 C 314.960938 399.476562 331.539062 387.070312 351.578125 379.136719 C 352.742188 378.675781 353.5625 377.609375 353.71875 376.359375 C 353.863281 375.117188 353.308594 373.882812 352.289062 373.160156 C 342.070312 365.980469 330.816406 361.085938 318.894531 358 C 306.960938 354.90625 294.359375 353.617188 281.359375 353.617188 C 266.472656 353.617188 252.097656 355.308594 238.667969 359.453125 C 218.527344 365.660156 200.535156 377.5 186.570312 397.128906 C 172.589844 416.753906 162.601562 444.011719 157.796875 481.117188 C 157.667969 482.09375 157.960938 483.070312 158.617188 483.808594 C 159.273438 484.558594 160.203125 484.972656 161.191406 484.972656 L 267.636719 484.972656 C 269.191406 484.972656 270.546875 483.921875 270.941406 482.414062 L 267.636719 481.550781 "/>
</g>
<path style=" stroke:none;fill-rule:nonzero;fill:rgb(98.429871%,14.118958%,41.958618%);fill-opacity:1;" d="M 281.359375 187.136719 C 300.25 187.136719 317.453125 194.144531 330.664062 205.632812 C 319.851562 221.46875 313.515625 240.582031 313.515625 261.152344 C 313.515625 282.351562 320.292969 301.949219 331.707031 318.050781 C 318.367188 330.101562 300.746094 337.488281 281.359375 337.488281 C 239.828125 337.488281 206.136719 303.824219 206.136719 262.324219 C 206.136719 220.800781 239.828125 187.136719 281.359375 187.136719 "/>
<path style=" stroke:none;fill-rule:nonzero;fill:rgb(100%,100%,100%);fill-opacity:1;" d="M 281.359375 187.136719 L 281.359375 190.558594 C 299.398438 190.558594 315.789062 197.238281 328.417969 208.21875 L 330.664062 205.632812 L 327.835938 203.707031 C 316.652344 220.078125 310.09375 239.875 310.09375 261.152344 C 310.09375 283.085938 317.113281 303.386719 328.914062 320.027344 L 331.707031 318.050781 L 329.414062 315.515625 C 316.664062 327.023438 299.871094 334.0625 281.359375 334.066406 C 261.527344 334.0625 243.597656 326.039062 230.59375 313.050781 C 217.597656 300.050781 209.558594 282.140625 209.558594 262.324219 C 209.558594 242.492188 217.597656 224.574219 230.59375 211.578125 C 243.597656 198.585938 261.527344 190.558594 281.359375 190.558594 L 281.359375 183.71875 C 237.9375 183.726562 202.722656 218.910156 202.714844 262.324219 C 202.722656 305.714844 237.9375 340.902344 281.359375 340.90625 C 301.621094 340.90625 320.070312 333.171875 334 320.589844 C 335.289062 319.429688 335.5 317.492188 334.5 316.074219 C 323.472656 300.511719 316.9375 281.617188 316.9375 261.152344 C 316.9375 241.285156 323.050781 222.851562 333.492188 207.5625 C 334.464844 206.132812 334.21875 204.191406 332.910156 203.054688 C 319.117188 191.050781 301.105469 183.71875 281.359375 183.71875 L 281.359375 187.136719 "/>
<path style=" stroke:none;fill-rule:nonzero;fill:rgb(98.429871%,14.118958%,41.958618%);fill-opacity:1;" d="M 556.871094 522.839844 C 541.742188 405.933594 483.277344 374.222656 413.4375 374.222656 C 343.582031 374.222656 285.136719 405.933594 270 522.839844 L 556.871094 522.839844 "/>
<g clip-path="url(#clip3)" clip-rule="nonzero">
<path style=" stroke:none;fill-rule:nonzero;fill:rgb(100%,100%,100%);fill-opacity:1;" d="M 556.871094 522.839844 L 560.265625 522.402344 C 556.449219 492.914062 549.886719 468.6875 541.019531 448.898438 C 527.734375 419.21875 509.152344 399.515625 487.171875 387.425781 C 465.199219 375.316406 440 370.800781 413.4375 370.800781 C 395.710938 370.800781 378.625 372.804688 362.671875 377.734375 C 338.75 385.101562 317.414062 399.148438 300.828125 422.457031 C 284.226562 445.761719 272.332031 478.179688 266.605469 522.402344 C 266.480469 523.382812 266.773438 524.351562 267.429688 525.097656 C 268.082031 525.839844 269.003906 526.261719 270 526.261719 L 556.871094 526.261719 C 557.867188 526.261719 558.789062 525.839844 559.441406 525.097656 C 560.097656 524.351562 560.390625 523.382812 560.265625 522.402344 L 556.871094 522.839844 L 556.871094 519.421875 L 270 519.421875 L 270 522.839844 L 273.386719 523.277344 C 277.144531 494.308594 283.566406 470.734375 292.09375 451.699219 C 304.910156 423.136719 322.363281 404.796875 342.992188 393.410156 C 363.628906 382.035156 387.617188 377.640625 413.4375 377.640625 C 430.640625 377.640625 447.042969 379.597656 462.171875 384.265625 C 484.867188 391.300781 504.699219 404.332031 520.464844 426.425781 C 536.214844 448.519531 547.855469 479.816406 553.484375 523.277344 L 556.871094 522.839844 L 556.871094 519.421875 L 556.871094 522.839844 "/>
</g>
<path style=" stroke:none;fill-rule:nonzero;fill:rgb(98.429871%,14.118958%,41.958618%);fill-opacity:1;" d="M 503.210938 261.152344 C 503.210938 310.710938 463.007812 350.886719 413.4375 350.886719 C 363.847656 350.886719 323.660156 310.710938 323.660156 261.152344 C 323.660156 211.597656 363.847656 171.429688 413.4375 171.429688 C 463.007812 171.429688 503.210938 211.597656 503.210938 261.152344 "/>
<path style=" stroke:none;fill-rule:nonzero;fill:rgb(100%,100%,100%);fill-opacity:1;" d="M 503.210938 261.152344 L 499.789062 261.152344 C 499.789062 284.996094 490.125 306.558594 474.496094 322.1875 C 458.851562 337.808594 437.289062 347.464844 413.4375 347.464844 C 389.574219 347.464844 368.011719 337.808594 352.375 322.1875 C 336.738281 306.558594 327.082031 284.996094 327.082031 261.152344 C 327.082031 237.308594 336.738281 215.75 352.375 200.121094 C 368.011719 184.5 389.574219 174.855469 413.4375 174.847656 C 437.289062 174.847656 458.851562 184.5 474.496094 200.128906 C 490.125 215.757812 499.789062 237.308594 499.789062 261.152344 L 506.632812 261.152344 C 506.632812 209.707031 464.898438 168.015625 413.4375 168.007812 C 361.957031 168.015625 320.238281 209.707031 320.238281 261.152344 C 320.238281 312.601562 361.957031 354.304688 413.4375 354.304688 C 464.898438 354.304688 506.632812 312.601562 506.632812 261.152344 L 503.210938 261.152344 "/>
</g>
</svg>
