<?xml version="1.0" encoding="UTF-8"?>
<svg xmlns="http://www.w3.org/2000/svg" xmlns:xlink="http://www.w3.org/1999/xlink" width="810pt" height="809.999993pt" viewBox="0 0 810 809.999993" version="1.2">
<defs>
<clipPath id="clip1">
  <path d="M 254.152344 186.589844 L 572 186.589844 L 572 595 L 254.152344 595 Z M 254.152344 186.589844 "/>
</clipPath>
</defs>
<g id="surface1">
<rect x="0" y="0" width="810" height="809.999993" style="fill:rgb(100%,100%,100%);fill-opacity:1;stroke:none;"/>
<rect x="0" y="0" width="810" height="809.999993" style="fill:rgb(100%,100%,100%);fill-opacity:1;stroke:none;"/>
<path style=" stroke:none;fill-rule:nonzero;fill:rgb(78.039551%,81.568909%,84.709167%);fill-opacity:1;" d="M 195.515625 714.371094 C 163.535156 714.371094 137.582031 686.578125 137.582031 656.929688 L 137.582031 138.90625 C 137.582031 130.566406 139.4375 122.230469 142.679688 114.816406 C 132.484375 124.542969 126.460938 137.976562 126.460938 153.03125 L 126.460938 670.828125 C 126.460938 700.011719 150.558594 724.097656 179.757812 724.097656 L 614.804688 724.097656 C 628.242188 724.097656 640.292969 719.003906 649.5625 711.128906 C 643.539062 713.445312 637.050781 714.371094 630.5625 714.371094 Z M 195.515625 714.371094 "/>
<path style=" stroke:none;fill-rule:nonzero;fill:rgb(96.078491%,96.469116%,96.859741%);fill-opacity:1;" d="M 142.21875 138.90625 L 142.21875 656.003906 C 142.21875 685.1875 166.316406 709.273438 195.515625 709.273438 L 630.5625 709.273438 C 659.757812 709.273438 683.859375 685.1875 683.859375 656.003906 L 683.859375 138.90625 C 683.859375 109.722656 659.757812 85.632812 630.5625 85.632812 L 195.515625 85.632812 C 165.855469 85.632812 142.21875 109.722656 142.21875 138.90625 Z M 142.21875 138.90625 "/>
<path style=" stroke:none;fill-rule:nonzero;fill:rgb(65.098572%,65.098572%,65.098572%);fill-opacity:1;" d="M 661.148438 705.105469 C 677.371094 694.914062 688.492188 676.847656 688.492188 656.003906 L 688.492188 138.90625 C 688.492188 106.941406 662.539062 81 630.5625 81 L 195.515625 81 C 176.511719 81 159.828125 90.265625 149.167969 104.164062 C 132.949219 114.355469 121.824219 132.417969 121.824219 153.53125 L 121.824219 670.363281 C 121.824219 702.328125 147.777344 728.265625 179.757812 728.265625 L 614.804688 728.265625 C 633.804688 728.265625 650.488281 719.003906 661.148438 705.105469 Z M 195.515625 85.632812 L 630.5625 85.632812 C 659.757812 85.632812 683.859375 109.722656 683.859375 138.90625 L 683.859375 656.003906 C 683.859375 685.1875 659.757812 709.273438 630.5625 709.273438 L 195.515625 709.273438 C 166.316406 709.273438 142.21875 685.1875 142.21875 656.003906 L 142.21875 138.90625 C 142.21875 109.722656 165.855469 85.632812 195.515625 85.632812 Z M 179.757812 724.097656 C 150.558594 724.097656 126.460938 699.546875 126.460938 670.363281 L 126.460938 153.53125 C 126.460938 138.441406 132.484375 125.007812 142.679688 115.28125 C 139.4375 122.691406 137.582031 130.566406 137.582031 139.367188 L 137.582031 656.46875 C 137.582031 688.429688 163.535156 714.371094 195.515625 714.371094 L 630.5625 714.371094 C 637.050781 714.371094 643.539062 712.980469 649.5625 711.128906 C 640.292969 719.003906 628.242188 724.097656 614.804688 724.097656 Z M 179.757812 724.097656 "/>
<g clip-path="url(#clip1)" clip-rule="nonzero">
<path style=" stroke:none;fill-rule:nonzero;fill:rgb(59.21936%,92.939758%,66.668701%);fill-opacity:1;" d="M 266.0625 187.753906 L 479.046875 186.589844 L 571.390625 281.007812 L 570.492188 582.769531 C 570.492188 589.054688 565.351562 594.199219 559.046875 594.199219 L 266.0625 594.199219 C 259.78125 594.199219 254.617188 589.054688 254.617188 582.769531 L 254.617188 199.164062 C 254.617188 192.898438 259.78125 187.753906 266.0625 187.753906 "/>
</g>
<path style=" stroke:none;fill-rule:nonzero;fill:rgb(100%,100%,100%);fill-opacity:1;" d="M 358.292969 325.832031 L 299.097656 325.832031 L 299.097656 266.847656 L 358.292969 266.847656 L 358.292969 325.832031 "/>
<path style=" stroke:none;fill-rule:nonzero;fill:rgb(100%,100%,100%);fill-opacity:1;" d="M 358.292969 436.753906 L 299.097656 436.753906 L 299.097656 377.746094 L 358.292969 377.746094 L 358.292969 436.753906 "/>
<path style=" stroke:none;fill-rule:nonzero;fill:rgb(100%,100%,100%);fill-opacity:1;" d="M 358.292969 547.675781 L 299.097656 547.675781 L 299.097656 488.691406 L 358.292969 488.691406 L 358.292969 547.675781 "/>
<path style=" stroke:none;fill-rule:nonzero;fill:rgb(32.939148%,32.939148%,32.939148%);fill-opacity:1;" d="M 531.128906 502.851562 L 377.234375 502.851562 L 377.234375 488.691406 L 531.128906 488.691406 L 531.128906 502.851562 "/>
<path style=" stroke:none;fill-rule:nonzero;fill:rgb(32.939148%,32.939148%,32.939148%);fill-opacity:1;" d="M 531.128906 531.167969 L 377.234375 531.167969 L 377.234375 517.007812 L 531.128906 517.007812 L 531.128906 531.167969 "/>
<path style=" stroke:none;fill-rule:nonzero;fill:rgb(32.939148%,32.939148%,32.939148%);fill-opacity:1;" d="M 528.773438 391.929688 L 374.855469 391.929688 L 374.855469 377.746094 L 528.773438 377.746094 L 528.773438 391.929688 "/>
<path style=" stroke:none;fill-rule:nonzero;fill:rgb(32.939148%,32.939148%,32.939148%);fill-opacity:1;" d="M 528.773438 420.246094 L 374.855469 420.246094 L 374.855469 406.085938 L 528.773438 406.085938 L 528.773438 420.246094 "/>
<path style=" stroke:none;fill-rule:nonzero;fill:rgb(32.939148%,32.939148%,32.939148%);fill-opacity:1;" d="M 524.039062 281.007812 L 370.121094 281.007812 L 370.121094 266.847656 L 524.039062 266.847656 L 524.039062 281.007812 "/>
<path style=" stroke:none;fill-rule:nonzero;fill:rgb(32.939148%,32.939148%,32.939148%);fill-opacity:1;" d="M 524.039062 309.324219 L 370.121094 309.324219 L 370.121094 295.164062 L 524.039062 295.164062 L 524.039062 309.324219 "/>
<path style=" stroke:none;fill-rule:nonzero;fill:rgb(0%,50.19989%,21.569824%);fill-opacity:1;" d="M 478.957031 187.753906 L 570.492188 281.007812 L 494.621094 281.007812 C 486.183594 281.007812 479.316406 274.183594 479.292969 265.75 L 478.957031 187.753906 "/>
<path style=" stroke:none;fill-rule:nonzero;fill:rgb(26.269531%,76.858521%,39.99939%);fill-opacity:1;" d="M 637.140625 522.9375 L 622.664062 514.617188 L 631.707031 502.625 C 635.121094 498.132812 633.90625 490.972656 627.175781 488.289062 L 611.625 486.386719 L 615.6875 471.265625 C 615.6875 464.066406 609.515625 460.285156 604.0625 461.738281 L 589.519531 465.628906 L 587.1875 449.101562 C 584.359375 442.480469 577.179688 441.382812 572.734375 444.851562 L 561.695312 453.441406 L 553.863281 439.929688 C 548.746094 434.808594 541.675781 436.460938 538.851562 441.363281 L 531.308594 454.355469 L 517.980469 444.335938 C 511.269531 441.605469 505.414062 445.902344 504.71875 451.492188 L 503.011719 465.339844 L 487.886719 461.3125 C 480.640625 461.292969 476.824219 467.464844 478.28125 472.898438 L 482.164062 487.394531 L 465.625 489.71875 C 458.960938 492.515625 457.839844 499.675781 461.339844 504.125 L 469.957031 515.128906 L 456.402344 522.9375 C 451.265625 528.035156 452.925781 535.082031 457.839844 537.902344 L 470.878906 545.394531 L 460.800781 558.703125 C 458.085938 565.390625 462.371094 571.230469 468.003906 571.921875 L 481.894531 573.621094 L 477.835938 588.742188 C 477.835938 594.917969 482.390625 598.585938 487.125 598.585938 C 487.910156 598.585938 488.695312 598.472656 489.480469 598.273438 L 504.023438 594.402344 L 506.355469 610.910156 C 508.78125 616.589844 514.390625 618.203125 518.765625 616.367188 C 519.484375 616.054688 520.15625 615.652344 520.808594 615.160156 L 531.847656 606.570312 L 539.679688 620.082031 C 544.773438 625.203125 551.867188 623.523438 554.691406 618.648438 L 562.210938 605.675781 L 575.5625 615.695312 C 582.273438 618.402344 588.128906 614.109375 588.824219 608.515625 L 590.53125 594.648438 L 604.0625 598.273438 C 604.824219 598.472656 605.632812 598.585938 606.394531 598.585938 C 608.796875 598.585938 611.152344 597.644531 612.882812 595.921875 C 615.191406 593.621094 616.089844 590.242188 615.261719 587.109375 L 611.355469 572.617188 L 626.277344 570.511719 C 627.0625 570.421875 627.828125 570.199219 628.542969 569.886719 C 630.765625 568.96875 632.5625 567.179688 633.460938 564.921875 C 634.695312 561.902344 634.199219 558.457031 632.203125 555.882812 L 623.5625 544.878906 L 635.703125 537.902344 C 640.59375 535.082031 642.277344 528.035156 637.140625 522.9375 "/>
<path style="fill:none;stroke-width:63.98;stroke-linecap:round;stroke-linejoin:round;stroke:rgb(100%,100%,100%);stroke-opacity:1;stroke-miterlimit:10;" d="M 2382.195124 1538.204505 L 2535.795896 1410.195687 L 2753.29835 1717.294604 " transform="matrix(0.224405,0,0,-0.223678,-29.634604,880.442088)"/>
</g>
</svg>
