<?xml version="1.0" encoding="UTF-8"?>
<svg xmlns="http://www.w3.org/2000/svg" xmlns:xlink="http://www.w3.org/1999/xlink" width="810pt" height="809.999993pt" viewBox="0 0 810 809.999993" version="1.2">
<defs>
<clipPath id="clip1">
  <path d="M 174 119 L 652 119 L 652 370 L 174 370 Z M 174 119 "/>
</clipPath>
<clipPath id="clip2">
  <path d="M 173.691406 127.386719 L 642.707031 107.046875 L 654.007812 367.613281 L 184.992188 387.949219 Z M 173.691406 127.386719 "/>
</clipPath>
<clipPath id="clip3">
  <path d="M 184.945312 386.914062 L 653.960938 366.574219 L 642.664062 106.011719 L 173.648438 126.351562 Z M 184.945312 386.914062 "/>
</clipPath>
<clipPath id="clip4">
  <path d="M 173 245.105469 L 652 245.105469 L 652 678 L 173 678 Z M 173 245.105469 "/>
</clipPath>
<clipPath id="clip5">
  <path d="M 216.335938 151 L 365.710938 151 L 365.710938 296.964844 L 216.335938 296.964844 Z M 216.335938 151 "/>
</clipPath>
<clipPath id="clip6">
  <path d="M 211 307 L 331 307 L 331 643 L 211 643 Z M 211 307 "/>
</clipPath>
<clipPath id="clip7">
  <path d="M 311.910156 646.480469 L 189.199219 634.539062 L 222.035156 297.082031 L 344.746094 309.023438 Z M 311.910156 646.480469 "/>
</clipPath>
<clipPath id="clip8">
  <path d="M 311.910156 646.480469 L 189.199219 634.539062 L 222.035156 297.082031 L 344.746094 309.023438 Z M 311.910156 646.480469 "/>
</clipPath>
<clipPath id="clip9">
  <path d="M 337 309 L 572 309 L 572 541 L 337 541 Z M 337 309 "/>
</clipPath>
<clipPath id="clip10">
  <path d="M 573.261719 311.378906 L 564.722656 548.324219 L 337.253906 540.128906 L 345.792969 303.183594 Z M 573.261719 311.378906 "/>
</clipPath>
<clipPath id="clip11">
  <path d="M 336.117188 540.792969 L 344.65625 303.847656 L 572.125 312.042969 L 563.585938 548.988281 Z M 336.117188 540.792969 "/>
</clipPath>
<clipPath id="clip12">
  <path d="M 412 408 L 610 408 L 610 625 L 412 625 Z M 412 408 "/>
</clipPath>
<clipPath id="clip13">
  <path d="M 374.777344 582.949219 L 453.816406 372.027344 L 658.078125 448.570312 L 579.039062 659.492188 Z M 374.777344 582.949219 "/>
</clipPath>
<clipPath id="clip14">
  <path d="M 578.414062 659.257812 L 657.453125 448.335938 L 453.191406 371.792969 L 374.152344 582.714844 Z M 578.414062 659.257812 "/>
</clipPath>
<clipPath id="clip15">
  <path d="M 413 446 L 556 446 L 556 602 L 413 602 Z M 413 446 "/>
</clipPath>
<clipPath id="clip16">
  <path d="M 374.777344 582.949219 L 453.816406 372.027344 L 658.078125 448.570312 L 579.039062 659.492188 Z M 374.777344 582.949219 "/>
</clipPath>
<clipPath id="clip17">
  <path d="M 578.414062 659.257812 L 657.453125 448.335938 L 453.191406 371.792969 L 374.152344 582.714844 Z M 578.414062 659.257812 "/>
</clipPath>
<clipPath id="clip18">
  <path d="M 334 558 L 433 558 L 433 648 L 334 648 Z M 334 558 "/>
</clipPath>
<clipPath id="clip19">
  <path d="M 434.023438 641.699219 L 333.914062 660.996094 L 315.511719 565.542969 L 415.621094 546.246094 Z M 434.023438 641.699219 "/>
</clipPath>
<clipPath id="clip20">
  <path d="M 334.277344 660.925781 L 434.386719 641.628906 L 415.984375 546.175781 L 315.875 565.472656 Z M 334.277344 660.925781 "/>
</clipPath>
<clipPath id="clip21">
  <path d="M 377 231 L 613 231 L 613 296 L 377 296 Z M 377 231 "/>
</clipPath>
<clipPath id="clip22">
  <path d="M 374.769531 232.53125 L 611.480469 218.941406 L 615.828125 294.6875 L 379.117188 308.277344 Z M 374.769531 232.53125 "/>
</clipPath>
<clipPath id="clip23">
  <path d="M 611.21875 218.957031 L 374.511719 232.546875 L 378.859375 308.292969 L 615.570312 294.703125 Z M 611.21875 218.957031 "/>
</clipPath>
<clipPath id="clip24">
  <path d="M 377 156 L 613 156 L 613 222 L 377 222 Z M 377 156 "/>
</clipPath>
<clipPath id="clip25">
  <path d="M 375.023438 157.867188 L 611.730469 144.277344 L 616.078125 220.023438 L 379.371094 233.613281 Z M 375.023438 157.867188 "/>
</clipPath>
<clipPath id="clip26">
  <path d="M 611.25 144.304688 L 374.539062 157.894531 L 378.890625 233.640625 L 615.597656 220.050781 Z M 611.25 144.304688 "/>
</clipPath>
<clipPath id="clip27">
  <path d="M 588 306 L 616 306 L 616 406 L 588 406 Z M 588 306 "/>
</clipPath>
<clipPath id="clip28">
  <path d="M 613.191406 305.777344 L 620.1875 405.113281 L 589.441406 407.28125 L 582.445312 307.945312 Z M 613.191406 305.777344 "/>
</clipPath>
<clipPath id="clip29">
  <path d="M 620.15625 404.632812 L 613.15625 305.296875 L 582.410156 307.464844 L 589.410156 406.800781 Z M 620.15625 404.632812 "/>
</clipPath>
<clipPath id="clip30">
  <path d="M 575 307 L 608 307 L 608 405 L 575 405 Z M 575 307 "/>
</clipPath>
<clipPath id="clip31">
  <path d="M 607.890625 307.996094 L 605.84375 405.183594 L 575.027344 404.535156 L 577.074219 307.34375 Z M 607.890625 307.996094 "/>
</clipPath>
<clipPath id="clip32">
  <path d="M 605.855469 404.628906 L 607.902344 307.4375 L 577.085938 306.789062 L 575.039062 403.976562 Z M 605.855469 404.628906 "/>
</clipPath>
</defs>
<g id="surface1">
<rect x="0" y="0" width="810" height="809.999993" style="fill:rgb(100%,100%,100%);fill-opacity:1;stroke:none;"/>
<rect x="0" y="0" width="810" height="809.999993" style="fill:rgb(100%,100%,100%);fill-opacity:1;stroke:none;"/>
<path style=" stroke:none;fill-rule:nonzero;fill:rgb(78.039551%,81.568909%,84.709167%);fill-opacity:1;" d="M 195.515625 714.371094 C 163.535156 714.371094 137.582031 686.578125 137.582031 656.929688 L 137.582031 138.90625 C 137.582031 130.566406 139.4375 122.230469 142.679688 114.816406 C 132.484375 124.546875 126.460938 137.980469 126.460938 153.03125 L 126.460938 670.828125 C 126.460938 700.011719 150.558594 724.097656 179.757812 724.097656 L 614.804688 724.097656 C 628.242188 724.097656 640.292969 719.003906 649.5625 711.128906 C 643.539062 713.445312 637.050781 714.371094 630.5625 714.371094 Z M 195.515625 714.371094 "/>
<path style=" stroke:none;fill-rule:nonzero;fill:rgb(96.078491%,96.469116%,96.859741%);fill-opacity:1;" d="M 142.21875 138.90625 L 142.21875 656.003906 C 142.21875 685.1875 166.316406 709.273438 195.515625 709.273438 L 630.5625 709.273438 C 659.757812 709.273438 683.859375 685.1875 683.859375 656.003906 L 683.859375 138.90625 C 683.859375 109.722656 659.757812 85.632812 630.5625 85.632812 L 195.515625 85.632812 C 165.855469 85.632812 142.21875 109.722656 142.21875 138.90625 Z M 142.21875 138.90625 "/>
<path style=" stroke:none;fill-rule:nonzero;fill:rgb(65.098572%,65.098572%,65.098572%);fill-opacity:1;" d="M 661.148438 705.105469 C 677.371094 694.914062 688.492188 676.847656 688.492188 656.003906 L 688.492188 138.90625 C 688.492188 106.941406 662.539062 81.003906 630.5625 81.003906 L 195.515625 81.003906 C 176.511719 81.003906 159.828125 90.265625 149.167969 104.164062 C 132.949219 114.355469 121.824219 132.417969 121.824219 153.53125 L 121.824219 670.363281 C 121.824219 702.328125 147.777344 728.265625 179.757812 728.265625 L 614.804688 728.265625 C 633.804688 728.265625 650.488281 719.003906 661.148438 705.105469 Z M 195.515625 85.632812 L 630.5625 85.632812 C 659.757812 85.632812 683.859375 109.722656 683.859375 138.90625 L 683.859375 656.003906 C 683.859375 685.1875 659.757812 709.273438 630.5625 709.273438 L 195.515625 709.273438 C 166.316406 709.273438 142.21875 685.1875 142.21875 656.003906 L 142.21875 138.90625 C 142.21875 109.722656 165.855469 85.632812 195.515625 85.632812 Z M 179.757812 724.097656 C 150.558594 724.097656 126.460938 699.546875 126.460938 670.363281 L 126.460938 153.53125 C 126.460938 138.441406 132.484375 125.007812 142.679688 115.28125 C 139.4375 122.691406 137.582031 130.566406 137.582031 139.367188 L 137.582031 656.46875 C 137.582031 688.429688 163.535156 714.371094 195.515625 714.371094 L 630.5625 714.371094 C 637.050781 714.371094 643.539062 712.980469 649.5625 711.128906 C 640.292969 719.003906 628.242188 724.097656 614.804688 724.097656 Z M 179.757812 724.097656 "/>
<g clip-path="url(#clip1)" clip-rule="nonzero">
<g clip-path="url(#clip2)" clip-rule="nonzero">
<g clip-path="url(#clip3)" clip-rule="nonzero">
<path style=" stroke:none;fill-rule:nonzero;fill:rgb(100%,100%,100%);fill-opacity:1;" d="M 190.792969 354.34375 C 197.707031 355.664062 204.832031 357.179688 211.929688 358.089844 C 230.992188 360.503906 250.0625 363.125 269.5 364.917969 C 282.464844 366.179688 295.566406 366.015625 308.492188 366.46875 C 330.714844 367.328125 352.609375 365.367188 374.488281 363 C 398.566406 360.128906 422.949219 359.679688 447.410156 361.050781 C 457.730469 361.820312 467.988281 361.171875 478.296875 361.738281 C 492.457031 362.746094 506.433594 364.167969 520.613281 365.582031 C 534.1875 367.019531 547.789062 369.0625 561.527344 369.683594 C 569.808594 369.933594 577.851562 369.382812 586.050781 367.808594 C 597.664062 365.886719 609.050781 363.367188 620.640625 360.835938 C 629.625 358.828125 638.132812 355.011719 645.5625 349.621094 C 649.300781 347.433594 651.339844 343.289062 651.15625 339.042969 C 650.996094 335.398438 651.25 331.941406 651.292969 328.292969 C 650.285156 295.699219 649.464844 262.898438 648.042969 230.121094 C 647.34375 213.9375 645.433594 197.804688 643.925781 181.652344 C 643.039062 170.542969 642.15625 159.433594 640.867188 148.339844 C 640.253906 143.5 639.449219 138.875 638.230469 134.0625 C 637.714844 131.449219 635.414062 129.523438 632.796875 129.636719 C 630.976562 129.511719 629.148438 129.1875 627.535156 129.253906 C 616.054688 129.550781 604.738281 129.027344 593.386719 127.695312 C 578.394531 126.117188 563.085938 126.578125 547.972656 126.828125 C 532.050781 127.113281 516.148438 127.800781 500.210938 127.683594 C 489.910156 127.320312 479.585938 126.347656 469.441406 124.964844 C 452.191406 122.46875 434.984375 120.984375 417.628906 120.722656 C 397.445312 120.382812 377.027344 119.242188 356.664062 119.3125 C 341.335938 119.371094 326.046875 120.234375 310.765625 121.304688 C 288.640625 122.667969 266.726562 124.226562 244.8125 125.785156 C 223.300781 127.328125 201.804688 129.273438 180.300781 131.015625 C 175.480469 131.425781 175.289062 131.636719 175.078125 136.105469 C 174.902344 141.382812 174.921875 146.449219 175.148438 151.710938 C 176.5625 179.625 178.183594 207.726562 179.597656 235.640625 C 180.121094 247.777344 180.246094 259.9375 180.371094 272.09375 C 180.800781 291.332031 183.042969 310.488281 186.886719 329.378906 C 188.203125 336.414062 189.113281 343.46875 190.226562 350.515625 C 190.074219 351.738281 190.320312 352.742188 190.792969 354.34375 Z M 190.792969 354.34375 "/>
</g>
</g>
</g>
<g clip-path="url(#clip4)" clip-rule="nonzero">
<path style=" stroke:none;fill-rule:nonzero;fill:rgb(100%,100%,100%);fill-opacity:1;" d="M 181.21875 285.707031 C 183.457031 290.191406 186.691406 288.945312 189.921875 287.949219 C 201.359375 284.460938 212.550781 280.476562 224.734375 279.976562 C 255.070312 278.234375 285.15625 272.753906 315.492188 272.753906 C 334.140625 273.003906 352.789062 270.761719 371.4375 269.019531 C 406.25 265.78125 441.058594 262.042969 475.871094 258.558594 C 494.273438 257.0625 512.671875 254.074219 530.574219 249.839844 C 534.554688 249.09375 538.78125 248.59375 543.007812 248.84375 C 554.695312 248.84375 566.378906 249.339844 578.066406 249.589844 C 596.714844 249.839844 615.613281 248.34375 634.015625 245.355469 C 636.5 245.105469 639.234375 245.105469 641.722656 245.355469 C 646.199219 245.855469 647.441406 247.347656 647.691406 252.082031 C 647.691406 253.328125 647.691406 254.570312 647.691406 255.566406 C 648.433594 282.46875 648.933594 309.367188 649.679688 336.269531 C 650.175781 353.207031 651.417969 370.144531 651.917969 387.082031 C 652.414062 412.484375 650.671875 438.140625 646.695312 463.296875 C 646.199219 468.03125 645.699219 472.761719 645.699219 477.496094 C 644.953125 502.152344 644.457031 526.8125 643.214844 551.472656 C 642.714844 564.421875 640.726562 577.125 639.484375 590.078125 C 638.738281 598.046875 638.242188 606.019531 637.496094 613.988281 C 636.996094 618.722656 636.25 623.453125 635.257812 628.1875 C 634.511719 633.167969 630.53125 636.90625 625.558594 637.152344 C 606.660156 638.648438 589.257812 645.871094 571.355469 651.101562 C 560.164062 654.339844 548.476562 656.582031 536.792969 657.828125 C 513.167969 660.566406 490.042969 664.054688 466.671875 668.039062 C 444.042969 672.023438 421.417969 675.261719 398.539062 674.765625 C 365.96875 674.015625 333.644531 675.761719 301.316406 677.253906 C 262.527344 679 224.980469 672.023438 187.683594 662.0625 C 187.1875 661.8125 186.441406 661.8125 185.945312 661.5625 C 176.246094 658.574219 174.753906 657.328125 174.507812 646.867188 C 174.007812 625.199219 173.761719 603.277344 173.761719 581.359375 C 173.761719 562.929688 174.507812 544.246094 174.257812 525.816406 C 174.007812 504.894531 175.75 483.972656 176.992188 463.296875 C 178.234375 445.863281 178.484375 428.425781 178.734375 410.742188 C 179.230469 371.886719 179.230469 333.03125 179.230469 294.175781 C 179.480469 291.433594 179.726562 288.945312 179.976562 286.203125 Z M 181.21875 285.707031 "/>
</g>
<g clip-path="url(#clip5)" clip-rule="nonzero">
<path style=" stroke:none;fill-rule:nonzero;fill:rgb(1.568604%,67.83905%,88.238525%);fill-opacity:1;" d="M 216.335938 293.636719 C 216.335938 294.949219 217.414062 296.019531 218.726562 296.019531 C 218.726562 296.019531 218.757812 296.019531 218.757812 296.019531 C 228.796875 295.898438 268.320312 295.421875 304.46875 296.050781 C 346.292969 296.792969 365.710938 292.328125 365.710938 292.328125 L 365.710938 156.089844 C 365.710938 156.089844 323.886719 150.132812 291.769531 151.625 C 259.65625 153.113281 236.503906 151.625 226.792969 156.835938 C 217.085938 162.046875 217.832031 225.324219 217.085938 243.9375 C 216.457031 259.539062 216.367188 285.597656 216.335938 293.636719 Z M 216.335938 293.636719 "/>
</g>
<g clip-path="url(#clip6)" clip-rule="nonzero">
<g clip-path="url(#clip7)" clip-rule="nonzero">
<g clip-path="url(#clip8)" clip-rule="nonzero">
<path style=" stroke:none;fill-rule:nonzero;fill:rgb(98.429871%,14.118958%,41.958618%);fill-opacity:1;" d="M 330.644531 309.046875 C 330.644531 309.046875 327.242188 433.058594 322.070312 461.75 C 316.898438 490.4375 314.625 602.855469 314.625 602.855469 C 314.625 602.855469 312.785156 636.722656 311.015625 639.941406 C 309.246094 643.160156 294.074219 644.742188 260.675781 630.988281 C 227.277344 617.230469 220.960938 576.785156 219.207031 570.300781 C 217.457031 563.8125 209.800781 483.40625 211.394531 456.828125 C 212.988281 430.253906 218.644531 332.660156 222.757812 315.570312 C 222.757812 315.570312 236.75 311.148438 275.636719 308.613281 C 314.523438 306.082031 330.644531 309.046875 330.644531 309.046875 Z M 330.644531 309.046875 "/>
</g>
</g>
</g>
<g clip-path="url(#clip9)" clip-rule="nonzero">
<g clip-path="url(#clip10)" clip-rule="nonzero">
<g clip-path="url(#clip11)" clip-rule="nonzero">
<path style=" stroke:none;fill-rule:nonzero;fill:rgb(100%,50.19989%,25.878906%);fill-opacity:1;" d="M 337.839844 533.300781 C 337.839844 533.300781 342.015625 452.773438 341.835938 422.417969 C 341.660156 392.0625 343.761719 328.660156 346.101562 320.464844 C 348.441406 312.265625 352.988281 308.289062 363.351562 309.34375 C 373.714844 310.402344 429.890625 312.972656 458.332031 312.675781 C 486.773438 312.382812 549.53125 311.410156 557.921875 311.625 C 566.316406 311.835938 572.074219 313.40625 571.117188 322.335938 C 570.160156 331.265625 563.171875 375.152344 563.171875 375.152344 C 563.171875 375.152344 547.554688 380.097656 515.375 383.304688 C 476.585938 387.183594 453.550781 391.222656 442.636719 406.710938 C 431.722656 422.199219 393.660156 475.25 391.378906 538.597656 C 391.378906 538.597656 380.324219 541.65625 364.835938 540.417969 C 349.347656 539.175781 340.789062 540.960938 337.839844 533.300781 Z M 337.839844 533.300781 "/>
</g>
</g>
</g>
<g clip-path="url(#clip12)" clip-rule="nonzero">
<g clip-path="url(#clip13)" clip-rule="nonzero">
<g clip-path="url(#clip14)" clip-rule="nonzero">
<path style=" stroke:none;fill-rule:nonzero;fill:rgb(26.269531%,76.858521%,39.99939%);fill-opacity:1;" d="M 590.605469 592.4375 C 611.296875 571.476562 618.71875 475.726562 595.253906 446.769531 C 571.785156 417.808594 551.738281 408.722656 517.527344 408.324219 C 483.3125 407.925781 451.285156 426.8125 436.976562 452.546875 C 422.667969 478.285156 399.660156 514.675781 420.570312 550.460938 C 441.480469 586.246094 440.691406 596.800781 452.496094 602.753906 C 464.300781 608.710938 500.054688 629.894531 534.074219 622.476562 C 568.089844 615.058594 570.460938 612.84375 590.605469 592.4375 Z M 590.605469 592.4375 "/>
</g>
</g>
</g>
<g clip-path="url(#clip15)" clip-rule="nonzero">
<g clip-path="url(#clip16)" clip-rule="nonzero">
<g clip-path="url(#clip17)" clip-rule="nonzero">
<path style=" stroke:none;fill-rule:nonzero;fill:rgb(26.269531%,76.858521%,39.99939%);fill-opacity:1;" d="M 541.292969 578.769531 C 556.113281 563.773438 561.429688 495.230469 544.644531 474.472656 C 527.859375 453.71875 513.511719 447.238281 489.015625 446.949219 C 464.519531 446.660156 441.601562 460.195312 431.347656 478.644531 C 421.097656 497.097656 404.625 523.128906 419.589844 548.730469 C 434.558594 574.335938 434.003906 581.871094 442.457031 586.144531 C 450.914062 590.421875 476.511719 605.585938 500.851562 600.242188 C 525.191406 594.898438 526.882812 593.363281 541.292969 578.769531 Z M 541.292969 578.769531 "/>
</g>
</g>
</g>
<g clip-path="url(#clip18)" clip-rule="nonzero">
<g clip-path="url(#clip19)" clip-rule="nonzero">
<g clip-path="url(#clip20)" clip-rule="nonzero">
<path style=" stroke:none;fill-rule:nonzero;fill:rgb(64.709473%,47.839355%,100%);fill-opacity:1;" d="M 337.433594 647.3125 C 337.433594 647.3125 360.238281 647.449219 375.59375 647.304688 C 390.945312 647.164062 426.625 643.125 431.90625 640.980469 C 431.90625 640.980469 433.25 636.191406 427.804688 619.707031 C 422.355469 603.226562 408.222656 559.550781 408.222656 559.550781 C 408.222656 559.550781 375.890625 557.289062 359.105469 558.832031 C 342.316406 560.375 338.238281 562.855469 338.238281 562.855469 C 338.238281 562.855469 331.101562 644.007812 337.433594 647.3125 Z M 337.433594 647.3125 "/>
</g>
</g>
</g>
<g clip-path="url(#clip21)" clip-rule="nonzero">
<g clip-path="url(#clip22)" clip-rule="nonzero">
<g clip-path="url(#clip23)" clip-rule="nonzero">
<path style=" stroke:none;fill-rule:nonzero;fill:rgb(100%,88.238525%,0%);fill-opacity:1;" d="M 377.855469 275.207031 C 377.914062 279.492188 377.976562 283.867188 378.039062 288.246094 C 378.0625 290.246094 380.136719 291.933594 382.671875 291.882812 C 395.371094 291.726562 408.015625 292.238281 420.601562 293.421875 C 425.238281 293.820312 429.945312 293.835938 434.5625 293.953125 C 442.863281 294.238281 451.160156 294.523438 459.449219 294.617188 C 468.402344 294.769531 477.445312 294.917969 486.371094 294.597656 C 499.902344 294.199219 513.53125 293.894531 527.019531 294.359375 C 533.808594 294.539062 540.566406 294.246094 547.351562 294.332031 C 561.195312 294.492188 575.019531 294.269531 588.832031 295.476562 C 592.996094 295.902344 597.226562 295.757812 601.417969 295.039062 C 602.722656 294.773438 604.019531 294.414062 605.21875 293.964844 C 607.054688 293.191406 608.21875 292.171875 608.488281 290.253906 C 609.671875 278.089844 611.046875 266.011719 612.515625 253.832031 C 612.792969 250.484375 612.222656 247.085938 610.726562 244.03125 C 609.324219 240.875 607.636719 237.730469 607.152344 234.234375 C 606.835938 231.96875 604.605469 230.859375 601.511719 231.035156 C 598.039062 231.234375 594.667969 231.523438 591.191406 231.628906 C 583.578125 231.875 575.871094 232.03125 568.253906 232.183594 C 562.238281 232.339844 556.207031 232.207031 550.210938 232.648438 C 531.269531 233.925781 512.363281 234.15625 493.457031 234.382812 C 483.863281 234.554688 474.222656 233.867188 464.605469 233.5625 C 458.855469 233.417969 453.199219 233.265625 447.4375 232.929688 C 439.410156 232.4375 431.46875 231.847656 423.53125 231.351562 C 419.566406 231.101562 415.515625 231.046875 411.46875 231.089844 C 403.289062 231.273438 395.023438 231.558594 386.851562 231.835938 C 385.445312 231.917969 384.046875 232.1875 382.652344 232.460938 C 381.4375 232.625 380.453125 233.539062 380.335938 234.78125 C 379.609375 241.777344 378.6875 248.6875 377.960938 255.679688 C 377.605469 259.320312 377.625 262.9375 377.644531 266.554688 C 377.617188 269.414062 377.964844 272.15625 378.128906 275.003906 L 377.847656 275.019531 Z M 377.855469 275.207031 "/>
</g>
</g>
</g>
<g clip-path="url(#clip24)" clip-rule="nonzero">
<g clip-path="url(#clip25)" clip-rule="nonzero">
<g clip-path="url(#clip26)" clip-rule="nonzero">
<path style=" stroke:none;fill-rule:nonzero;fill:rgb(100%,88.238525%,0%);fill-opacity:1;" d="M 377.894531 200.558594 C 377.949219 204.839844 378.011719 209.214844 378.078125 213.59375 C 378.097656 215.59375 380.171875 217.28125 382.710938 217.230469 C 395.40625 217.074219 408.046875 217.585938 420.636719 218.769531 C 425.269531 219.167969 429.976562 219.183594 434.597656 219.300781 C 442.894531 219.585938 451.195312 219.871094 459.484375 219.964844 C 468.433594 220.121094 477.476562 220.265625 486.402344 219.945312 C 499.929688 219.550781 513.5625 219.242188 527.046875 219.707031 C 533.835938 219.886719 540.59375 219.59375 547.378906 219.683594 C 561.222656 219.839844 575.046875 219.617188 588.855469 220.824219 C 593.023438 221.25 597.25 221.105469 601.445312 220.386719 C 602.746094 220.121094 604.042969 219.761719 605.242188 219.3125 C 607.078125 218.539062 608.246094 217.519531 608.511719 215.601562 C 609.695312 203.4375 611.074219 191.359375 612.539062 179.179688 C 612.816406 175.832031 612.246094 172.4375 610.75 169.378906 C 609.347656 166.222656 607.660156 163.082031 607.175781 159.585938 C 606.859375 157.316406 604.628906 156.207031 601.535156 156.386719 C 598.0625 156.585938 594.691406 156.875 591.214844 156.976562 C 583.605469 157.222656 575.894531 157.378906 568.28125 157.53125 C 562.265625 157.6875 556.234375 157.558594 550.234375 157.996094 C 531.296875 159.273438 512.390625 159.503906 493.484375 159.730469 C 483.894531 159.902344 474.253906 159.214844 464.636719 158.910156 C 458.886719 158.765625 453.230469 158.613281 447.46875 158.277344 C 439.441406 157.785156 431.5 157.195312 423.566406 156.699219 C 419.597656 156.449219 415.546875 156.398438 411.503906 156.4375 C 403.324219 156.621094 395.058594 156.90625 386.886719 157.183594 C 385.480469 157.265625 384.082031 157.535156 382.6875 157.808594 C 381.472656 157.972656 380.488281 158.886719 380.371094 160.128906 C 379.644531 167.125 378.722656 174.035156 377.996094 181.027344 C 377.640625 184.667969 377.660156 188.285156 377.679688 191.902344 C 377.652344 194.761719 378 197.503906 378.164062 200.351562 L 377.882812 200.367188 Z M 377.894531 200.558594 "/>
</g>
</g>
</g>
<g clip-path="url(#clip27)" clip-rule="nonzero">
<g clip-path="url(#clip28)" clip-rule="nonzero">
<g clip-path="url(#clip29)" clip-rule="nonzero">
<path style=" stroke:none;fill-rule:nonzero;fill:rgb(100%,88.238525%,0%);fill-opacity:1;" d="M 595.847656 306.898438 C 594.105469 306.941406 592.328125 306.988281 590.550781 307.035156 C 589.738281 307.050781 589.066406 307.929688 589.101562 308.996094 C 589.246094 314.328125 589.117188 319.636719 588.714844 324.925781 C 588.578125 326.875 588.601562 328.851562 588.585938 330.792969 C 588.519531 334.277344 588.457031 337.765625 588.46875 341.246094 C 588.464844 345.003906 588.460938 348.800781 588.644531 352.546875 C 588.890625 358.226562 589.101562 363.949219 588.996094 369.613281 C 588.964844 372.464844 589.125 375.304688 589.132812 378.152344 C 589.15625 383.964844 589.332031 389.769531 588.925781 395.574219 C 588.78125 397.324219 588.867188 399.097656 589.183594 400.855469 C 589.300781 401.402344 589.453125 401.945312 589.644531 402.445312 C 589.96875 403.214844 590.390625 403.699219 591.171875 403.804688 C 596.121094 404.246094 601.035156 404.769531 605.992188 405.332031 C 607.355469 405.433594 608.730469 405.175781 609.964844 404.535156 C 611.238281 403.933594 612.503906 403.210938 613.921875 402.992188 C 614.839844 402.847656 615.277344 401.90625 615.1875 400.609375 C 615.082031 399.152344 614.945312 397.738281 614.882812 396.277344 C 614.734375 393.082031 614.621094 389.847656 614.511719 386.648438 C 614.414062 384.125 614.429688 381.589844 614.210938 379.074219 C 613.574219 371.128906 613.363281 363.191406 613.152344 355.253906 C 613.023438 351.226562 613.242188 347.175781 613.304688 343.136719 C 613.328125 340.71875 613.355469 338.34375 613.457031 335.925781 C 613.605469 332.550781 613.796875 329.214844 613.949219 325.878906 C 614.027344 324.210938 614.023438 322.511719 613.980469 320.8125 C 613.855469 317.378906 613.6875 313.910156 613.523438 310.480469 C 613.480469 309.890625 613.363281 309.304688 613.242188 308.71875 C 613.167969 308.210938 612.792969 307.800781 612.285156 307.757812 C 609.441406 307.484375 606.625 307.128906 603.78125 306.855469 C 602.300781 306.722656 600.832031 306.746094 599.359375 306.769531 C 598.199219 306.773438 597.085938 306.929688 595.929688 307.011719 L 595.921875 306.894531 Z M 595.847656 306.898438 "/>
</g>
</g>
</g>
<g clip-path="url(#clip30)" clip-rule="nonzero">
<g clip-path="url(#clip31)" clip-rule="nonzero">
<g clip-path="url(#clip32)" clip-rule="nonzero">
<path style=" stroke:none;fill-rule:nonzero;fill:rgb(100%,88.238525%,0%);fill-opacity:1;" d="M 590.515625 307.449219 C 588.78125 307.335938 587.007812 307.222656 585.230469 307.109375 C 584.421875 307.050781 583.671875 307.84375 583.609375 308.882812 C 583.269531 314.078125 582.65625 319.226562 581.777344 324.335938 C 581.46875 326.214844 581.3125 328.140625 581.117188 330.023438 C 580.738281 333.40625 580.355469 336.789062 580.054688 340.171875 C 579.707031 343.824219 579.355469 347.515625 579.203125 351.171875 C 578.929688 356.714844 578.621094 362.296875 578.003906 367.792969 C 577.710938 370.558594 577.617188 373.332031 577.363281 376.101562 C 576.859375 381.753906 576.507812 387.410156 575.578125 393.015625 C 575.273438 394.703125 575.195312 396.4375 575.351562 398.175781 C 575.417969 398.714844 575.523438 399.257812 575.667969 399.761719 C 575.921875 400.535156 576.296875 401.046875 577.066406 401.214844 C 581.953125 402.089844 586.800781 403.039062 591.6875 404.027344 C 593.035156 404.25 594.429688 404.125 595.714844 403.613281 C 597.039062 403.140625 598.363281 402.550781 599.796875 402.464844 C 600.722656 402.40625 601.246094 401.53125 601.269531 400.261719 C 601.300781 398.835938 601.292969 397.449219 601.359375 396.027344 C 601.503906 392.90625 601.6875 389.753906 601.867188 386.636719 C 601.996094 384.171875 602.242188 381.710938 602.253906 379.246094 C 602.34375 371.464844 602.851562 363.730469 603.363281 355.996094 C 603.601562 352.074219 604.183594 348.15625 604.617188 344.234375 C 604.859375 341.890625 605.101562 339.582031 605.421875 337.238281 C 605.875 333.972656 606.367188 330.746094 606.824219 327.519531 C 607.050781 325.90625 607.199219 324.253906 607.3125 322.597656 C 607.5 319.25 607.648438 315.863281 607.796875 312.515625 C 607.808594 311.9375 607.742188 311.359375 607.675781 310.777344 C 607.648438 310.277344 607.3125 309.847656 606.8125 309.757812 C 604 309.238281 601.230469 308.640625 598.421875 308.117188 C 596.960938 307.855469 595.496094 307.746094 594.027344 307.640625 C 592.871094 307.539062 591.75 307.589844 590.59375 307.566406 L 590.59375 307.453125 Z M 590.515625 307.449219 "/>
</g>
</g>
</g>
</g>
</svg>
