<?xml version="1.0" encoding="UTF-8"?>
<svg xmlns="http://www.w3.org/2000/svg" xmlns:xlink="http://www.w3.org/1999/xlink" width="750pt" height="749.999995pt" viewBox="0 0 750 749.999995" version="1.2">
<defs>
<clipPath id="clip1">
  <path d="M 115 53 L 653 53 L 653 336 L 115 336 Z M 115 53 "/>
</clipPath>
<clipPath id="clip2">
  <path d="M 114.527344 62.386719 L 642.675781 39.480469 L 655.402344 332.898438 L 127.253906 355.800781 Z M 114.527344 62.386719 "/>
</clipPath>
<clipPath id="clip3">
  <path d="M 127.203125 354.632812 L 655.351562 331.730469 L 642.625 38.316406 L 114.476562 61.21875 Z M 127.203125 354.632812 "/>
</clipPath>
<clipPath id="clip4">
  <path d="M 162.550781 89 L 330.757812 89 L 330.757812 253 L 162.550781 253 Z M 162.550781 89 "/>
</clipPath>
<clipPath id="clip5">
  <path d="M 156 265 L 292 265 L 292 643 L 156 643 Z M 156 265 "/>
</clipPath>
<clipPath id="clip6">
  <path d="M 270.171875 646.925781 L 131.988281 633.480469 L 168.964844 253.472656 L 307.148438 266.921875 Z M 270.171875 646.925781 "/>
</clipPath>
<clipPath id="clip7">
  <path d="M 270.171875 646.925781 L 131.988281 633.480469 L 168.964844 253.472656 L 307.148438 266.921875 Z M 270.171875 646.925781 "/>
</clipPath>
<clipPath id="clip8">
  <path d="M 299 267 L 563 267 L 563 528 L 299 528 Z M 299 267 "/>
</clipPath>
<clipPath id="clip9">
  <path d="M 564.472656 269.578125 L 554.859375 536.394531 L 298.714844 527.167969 L 308.328125 260.347656 Z M 564.472656 269.578125 "/>
</clipPath>
<clipPath id="clip10">
  <path d="M 297.433594 527.914062 L 307.046875 261.09375 L 563.195312 270.324219 L 553.582031 537.144531 Z M 297.433594 527.914062 "/>
</clipPath>
<clipPath id="clip11">
  <path d="M 383 378 L 606 378 L 606 622 L 383 622 Z M 383 378 "/>
</clipPath>
<clipPath id="clip12">
  <path d="M 340.964844 575.382812 L 429.972656 337.871094 L 659.984375 424.066406 L 570.980469 661.578125 Z M 340.964844 575.382812 "/>
</clipPath>
<clipPath id="clip13">
  <path d="M 570.277344 661.316406 L 659.28125 423.800781 L 429.269531 337.605469 L 340.261719 575.121094 Z M 570.277344 661.316406 "/>
</clipPath>
<clipPath id="clip14">
  <path d="M 384 422 L 544 422 L 544 597 L 384 597 Z M 384 422 "/>
</clipPath>
<clipPath id="clip15">
  <path d="M 340.964844 575.382812 L 429.972656 337.871094 L 659.984375 424.066406 L 570.980469 661.578125 Z M 340.964844 575.382812 "/>
</clipPath>
<clipPath id="clip16">
  <path d="M 570.277344 661.316406 L 659.28125 423.800781 L 429.269531 337.605469 L 340.261719 575.121094 Z M 570.277344 661.316406 "/>
</clipPath>
<clipPath id="clip17">
  <path d="M 295 547 L 406 547 L 406 648 L 295 648 Z M 295 547 "/>
</clipPath>
<clipPath id="clip18">
  <path d="M 407.683594 641.542969 L 294.949219 663.273438 L 274.230469 555.785156 L 386.960938 534.054688 Z M 407.683594 641.542969 "/>
</clipPath>
<clipPath id="clip19">
  <path d="M 295.359375 663.195312 L 408.089844 641.464844 L 387.371094 533.976562 L 274.640625 555.707031 Z M 295.359375 663.195312 "/>
</clipPath>
<clipPath id="clip20">
  <path d="M 344 179 L 609 179 L 609 252 L 344 252 Z M 344 179 "/>
</clipPath>
<clipPath id="clip21">
  <path d="M 340.957031 180.785156 L 607.511719 165.480469 L 612.410156 250.78125 L 345.855469 266.082031 Z M 340.957031 180.785156 "/>
</clipPath>
<clipPath id="clip22">
  <path d="M 607.222656 165.5 L 340.667969 180.800781 L 345.5625 266.101562 L 612.117188 250.796875 Z M 607.222656 165.5 "/>
</clipPath>
<clipPath id="clip23">
  <path d="M 344 95 L 609 95 L 609 168 L 344 168 Z M 344 95 "/>
</clipPath>
<clipPath id="clip24">
  <path d="M 341.242188 96.707031 L 607.796875 81.402344 L 612.691406 166.703125 L 346.140625 182.003906 Z M 341.242188 96.707031 "/>
</clipPath>
<clipPath id="clip25">
  <path d="M 607.253906 81.433594 L 340.699219 96.738281 L 345.597656 182.035156 L 612.152344 166.730469 Z M 607.253906 81.433594 "/>
</clipPath>
<clipPath id="clip26">
  <path d="M 581 264 L 612 264 L 612 376 L 581 376 Z M 581 264 "/>
</clipPath>
<clipPath id="clip27">
  <path d="M 609.441406 263.269531 L 617.320312 375.128906 L 582.695312 377.566406 L 574.816406 265.707031 Z M 609.441406 263.269531 "/>
</clipPath>
<clipPath id="clip28">
  <path d="M 617.28125 374.585938 L 609.402344 262.726562 L 574.777344 265.167969 L 582.660156 377.027344 Z M 617.28125 374.585938 "/>
</clipPath>
<clipPath id="clip29">
  <path d="M 566 265 L 604 265 L 604 375 L 566 375 Z M 566 265 "/>
</clipPath>
<clipPath id="clip30">
  <path d="M 603.472656 265.761719 L 601.164062 375.207031 L 566.464844 374.472656 L 568.769531 265.03125 Z M 603.472656 265.761719 "/>
</clipPath>
<clipPath id="clip31">
  <path d="M 601.175781 374.582031 L 603.484375 265.136719 L 568.785156 264.40625 L 566.476562 373.847656 Z M 601.175781 374.582031 "/>
</clipPath>
</defs>
<g id="surface1">
<rect x="0" y="0" width="750" height="749.999995" style="fill:rgb(100%,100%,100%);fill-opacity:1;stroke:none;"/>
<rect x="0" y="0" width="750" height="749.999995" style="fill:rgb(100%,100%,100%);fill-opacity:1;stroke:none;"/>
<rect x="0" y="0" width="750" height="749.999995" style="fill:rgb(100%,100%,100%);fill-opacity:1;stroke:none;"/>
<path style=" stroke:none;fill-rule:nonzero;fill:rgb(78.039551%,81.568909%,84.709167%);fill-opacity:1;" d="M 139.101562 723.375 C 103.09375 723.375 73.867188 692.078125 73.867188 658.695312 L 73.867188 75.355469 C 73.867188 65.964844 75.953125 56.578125 79.609375 48.230469 C 68.125 59.183594 61.339844 74.3125 61.339844 91.265625 L 61.339844 674.34375 C 61.339844 707.207031 88.480469 734.328125 121.359375 734.328125 L 611.253906 734.328125 C 626.390625 734.328125 639.960938 728.59375 650.398438 719.722656 C 643.613281 722.332031 636.304688 723.375 629 723.375 Z M 139.101562 723.375 "/>
<path style=" stroke:none;fill-rule:nonzero;fill:rgb(96.078491%,96.469116%,96.859741%);fill-opacity:1;" d="M 79.085938 75.355469 L 79.085938 657.652344 C 79.085938 690.511719 106.222656 717.636719 139.101562 717.636719 L 629 717.636719 C 661.878906 717.636719 689.015625 690.511719 689.015625 657.652344 L 689.015625 75.355469 C 689.015625 42.492188 661.878906 15.367188 629 15.367188 L 139.101562 15.367188 C 105.703125 15.367188 79.085938 42.492188 79.085938 75.355469 Z M 79.085938 75.355469 "/>
<path style=" stroke:none;fill-rule:nonzero;fill:rgb(65.098572%,65.098572%,65.098572%);fill-opacity:1;" d="M 663.445312 712.945312 C 681.710938 701.46875 694.234375 681.125 694.234375 657.652344 L 694.234375 75.355469 C 694.234375 39.363281 665.007812 10.152344 629 10.152344 L 139.101562 10.152344 C 117.707031 10.152344 98.917969 20.585938 86.914062 36.234375 C 68.648438 47.710938 56.121094 68.054688 56.121094 91.828125 L 56.121094 673.820312 C 56.121094 709.8125 85.347656 739.023438 121.359375 739.023438 L 611.253906 739.023438 C 632.652344 739.023438 651.441406 728.59375 663.445312 712.945312 Z M 139.101562 15.367188 L 629 15.367188 C 661.878906 15.367188 689.015625 42.492188 689.015625 75.355469 L 689.015625 657.652344 C 689.015625 690.511719 661.878906 717.636719 629 717.636719 L 139.101562 717.636719 C 106.222656 717.636719 79.085938 690.511719 79.085938 657.652344 L 79.085938 75.355469 C 79.085938 42.492188 105.703125 15.367188 139.101562 15.367188 Z M 121.359375 734.328125 C 88.480469 734.328125 61.339844 706.683594 61.339844 673.820312 L 61.339844 91.828125 C 61.339844 74.832031 68.125 59.707031 79.609375 48.753906 C 75.953125 57.097656 73.867188 65.964844 73.867188 75.878906 L 73.867188 658.171875 C 73.867188 694.164062 103.09375 723.375 139.101562 723.375 L 629 723.375 C 636.304688 723.375 643.613281 721.8125 650.398438 719.722656 C 639.960938 728.59375 626.390625 734.328125 611.253906 734.328125 Z M 121.359375 734.328125 "/>
<g clip-path="url(#clip1)" clip-rule="nonzero">
<g clip-path="url(#clip2)" clip-rule="nonzero">
<g clip-path="url(#clip3)" clip-rule="nonzero">
<path style=" stroke:none;fill-rule:nonzero;fill:rgb(100%,100%,100%);fill-opacity:1;" d="M 133.785156 317.957031 C 141.574219 319.445312 149.59375 321.152344 157.589844 322.171875 C 179.054688 324.894531 200.527344 327.84375 222.417969 329.863281 C 237.015625 331.285156 251.765625 331.101562 266.324219 331.609375 C 291.347656 332.578125 316.003906 330.367188 340.644531 327.703125 C 367.753906 324.472656 395.210938 323.964844 422.757812 325.511719 C 434.378906 326.375 445.929688 325.648438 457.539062 326.285156 C 473.484375 327.421875 489.222656 329.019531 505.191406 330.609375 C 520.476562 332.230469 535.792969 334.535156 551.265625 335.230469 C 560.585938 335.511719 569.644531 334.890625 578.878906 333.121094 C 591.957031 330.957031 604.777344 328.117188 617.828125 325.269531 C 627.949219 323.003906 637.527344 318.707031 645.894531 312.640625 C 650.101562 310.175781 652.398438 305.507812 652.191406 300.726562 C 652.011719 296.625 652.296875 292.730469 652.347656 288.621094 C 651.207031 251.921875 650.289062 214.980469 648.6875 178.074219 C 647.898438 159.847656 645.746094 141.679688 644.050781 123.492188 C 643.054688 110.980469 642.054688 98.472656 640.605469 85.980469 C 639.914062 80.53125 639.007812 75.320312 637.636719 69.902344 C 637.054688 66.960938 634.464844 64.789062 631.515625 64.917969 C 629.46875 64.777344 627.40625 64.410156 625.59375 64.488281 C 612.664062 64.820312 599.921875 64.234375 587.136719 62.734375 C 570.253906 60.953125 553.019531 61.472656 536 61.753906 C 518.070312 62.078125 500.164062 62.851562 482.21875 62.71875 C 470.617188 62.308594 458.988281 61.214844 447.566406 59.65625 C 428.140625 56.847656 408.765625 55.175781 389.222656 54.882812 C 366.496094 54.496094 343.5 53.210938 320.566406 53.292969 C 303.3125 53.355469 286.09375 54.332031 268.886719 55.535156 C 243.972656 57.070312 219.292969 58.828125 194.617188 60.582031 C 170.390625 62.316406 146.1875 64.507812 121.972656 66.472656 C 116.542969 66.933594 116.324219 67.171875 116.089844 72.203125 C 115.894531 78.148438 115.914062 83.851562 116.171875 89.777344 C 117.761719 121.207031 119.585938 152.855469 121.175781 184.285156 C 121.769531 197.957031 121.910156 211.644531 122.050781 225.335938 C 122.535156 247 125.058594 268.574219 129.386719 289.84375 C 130.867188 297.765625 131.894531 305.710938 133.144531 313.648438 C 132.980469 315.023438 133.253906 316.152344 133.785156 317.957031 Z M 133.785156 317.957031 "/>
</g>
</g>
</g>
<path style=" stroke:none;fill-rule:nonzero;fill:rgb(100%,100%,100%);fill-opacity:1;" d="M 123.003906 240.664062 C 125.527344 245.714844 129.164062 244.3125 132.804688 243.191406 C 145.6875 239.261719 158.285156 234.773438 172.003906 234.214844 C 206.164062 232.25 240.046875 226.082031 274.207031 226.082031 C 295.207031 226.359375 316.207031 223.835938 337.207031 221.875 C 376.40625 218.226562 415.605469 214.019531 454.808594 210.09375 C 475.527344 208.410156 496.246094 205.042969 516.40625 200.277344 C 520.886719 199.433594 525.648438 198.875 530.40625 199.15625 C 543.566406 199.15625 556.726562 199.714844 569.886719 199.996094 C 590.886719 200.277344 612.167969 198.59375 632.886719 195.226562 C 635.6875 194.945312 638.769531 194.945312 641.566406 195.226562 C 646.609375 195.789062 648.007812 197.472656 648.289062 202.800781 C 648.289062 204.203125 648.289062 205.605469 648.289062 206.726562 C 649.128906 237.019531 649.6875 267.3125 650.527344 297.601562 C 651.085938 316.675781 652.488281 335.75 653.046875 354.820312 C 653.609375 383.429688 651.648438 412.320312 647.167969 440.648438 C 646.609375 445.976562 646.046875 451.304688 646.046875 456.636719 C 645.207031 484.402344 644.648438 512.171875 643.246094 539.9375 C 642.6875 554.523438 640.449219 568.828125 639.046875 583.414062 C 638.207031 592.386719 637.648438 601.363281 636.808594 610.339844 C 636.246094 615.667969 635.40625 620.996094 634.289062 626.324219 C 633.449219 631.933594 628.96875 636.140625 623.367188 636.421875 C 602.085938 638.105469 582.488281 646.238281 562.328125 652.128906 C 549.726562 655.777344 536.566406 658.300781 523.40625 659.703125 C 496.808594 662.789062 470.765625 666.714844 444.445312 671.203125 C 418.96875 675.691406 393.488281 679.335938 367.726562 678.777344 C 331.046875 677.933594 294.644531 679.898438 258.246094 681.582031 C 214.566406 683.542969 172.285156 675.691406 130.285156 664.472656 C 129.726562 664.191406 128.886719 664.191406 128.324219 663.910156 C 117.40625 660.542969 115.726562 659.140625 115.445312 647.363281 C 114.886719 622.960938 114.605469 598.277344 114.605469 573.59375 C 114.605469 552.839844 115.445312 531.804688 115.164062 511.046875 C 114.886719 487.488281 116.84375 463.925781 118.246094 440.648438 C 119.644531 421.015625 119.925781 401.378906 120.207031 381.464844 C 120.765625 337.710938 120.765625 293.957031 120.765625 250.203125 C 121.046875 247.117188 121.324219 244.3125 121.605469 241.226562 Z M 123.003906 240.664062 "/>
<g clip-path="url(#clip4)" clip-rule="nonzero">
<path style=" stroke:none;fill-rule:nonzero;fill:rgb(1.568604%,67.83905%,88.238525%);fill-opacity:1;" d="M 162.550781 249.597656 C 162.550781 251.070312 163.761719 252.277344 165.242188 252.277344 C 165.242188 252.277344 165.277344 252.277344 165.277344 252.277344 C 176.578125 252.144531 221.085938 251.609375 261.792969 252.3125 C 308.890625 253.152344 330.757812 248.121094 330.757812 248.121094 L 330.757812 94.707031 C 330.757812 94.707031 283.660156 88 247.496094 89.675781 C 211.332031 91.355469 185.257812 89.675781 174.324219 95.546875 C 163.390625 101.414062 164.234375 172.671875 163.390625 193.628906 C 162.6875 211.199219 162.585938 240.542969 162.550781 249.597656 Z M 162.550781 249.597656 "/>
</g>
<g clip-path="url(#clip5)" clip-rule="nonzero">
<g clip-path="url(#clip6)" clip-rule="nonzero">
<g clip-path="url(#clip7)" clip-rule="nonzero">
<path style=" stroke:none;fill-rule:nonzero;fill:rgb(98.429871%,14.118958%,41.958618%);fill-opacity:1;" d="M 291.269531 266.949219 C 291.269531 266.949219 287.441406 406.597656 281.613281 438.902344 C 275.789062 471.207031 273.230469 597.804688 273.230469 597.804688 C 273.230469 597.804688 271.160156 635.9375 269.167969 639.5625 C 267.175781 643.1875 250.089844 644.972656 212.480469 629.480469 C 174.871094 613.988281 167.753906 568.445312 165.785156 561.140625 C 163.8125 553.835938 155.1875 463.292969 156.984375 433.363281 C 158.777344 403.4375 165.152344 293.539062 169.78125 274.292969 C 169.78125 274.292969 185.539062 269.3125 229.328125 266.460938 C 273.117188 263.609375 291.269531 266.949219 291.269531 266.949219 Z M 291.269531 266.949219 "/>
</g>
</g>
</g>
<g clip-path="url(#clip8)" clip-rule="nonzero">
<g clip-path="url(#clip9)" clip-rule="nonzero">
<g clip-path="url(#clip10)" clip-rule="nonzero">
<path style=" stroke:none;fill-rule:nonzero;fill:rgb(100%,50.19989%,25.878906%);fill-opacity:1;" d="M 299.375 519.476562 C 299.375 519.476562 304.074219 428.796875 303.875 394.613281 C 303.671875 360.429688 306.042969 289.035156 308.675781 279.804688 C 311.308594 270.574219 316.433594 266.09375 328.101562 267.285156 C 339.769531 268.472656 403.03125 271.367188 435.058594 271.035156 C 467.085938 270.703125 537.75 269.613281 547.203125 269.851562 C 556.65625 270.089844 563.140625 271.859375 562.0625 281.914062 C 560.984375 291.96875 553.117188 341.390625 553.117188 341.390625 C 553.117188 341.390625 535.527344 346.957031 499.289062 350.570312 C 455.609375 354.9375 429.671875 359.488281 417.382812 376.925781 C 405.09375 394.367188 362.230469 454.105469 359.660156 525.441406 C 359.660156 525.441406 347.210938 528.886719 329.769531 527.488281 C 312.332031 526.09375 302.695312 528.101562 299.375 519.476562 Z M 299.375 519.476562 "/>
</g>
</g>
</g>
<g clip-path="url(#clip11)" clip-rule="nonzero">
<g clip-path="url(#clip12)" clip-rule="nonzero">
<g clip-path="url(#clip13)" clip-rule="nonzero">
<path style=" stroke:none;fill-rule:nonzero;fill:rgb(26.269531%,76.858521%,39.99939%);fill-opacity:1;" d="M 584.003906 586.070312 C 607.308594 562.464844 615.667969 454.644531 589.238281 422.035156 C 562.8125 389.421875 540.238281 379.191406 501.710938 378.742188 C 463.1875 378.292969 427.121094 399.5625 411.007812 428.542969 C 394.894531 457.523438 368.988281 498.5 392.53125 538.800781 C 416.078125 579.097656 415.191406 590.980469 428.484375 597.6875 C 441.777344 604.394531 482.039062 628.25 520.347656 619.894531 C 558.652344 611.542969 561.324219 609.046875 584.003906 586.070312 Z M 584.003906 586.070312 "/>
</g>
</g>
</g>
<g clip-path="url(#clip14)" clip-rule="nonzero">
<g clip-path="url(#clip15)" clip-rule="nonzero">
<g clip-path="url(#clip16)" clip-rule="nonzero">
<path style=" stroke:none;fill-rule:nonzero;fill:rgb(26.269531%,76.858521%,39.99939%);fill-opacity:1;" d="M 528.476562 570.675781 C 545.167969 553.792969 551.152344 476.605469 532.25 453.234375 C 513.347656 429.859375 497.195312 422.5625 469.609375 422.238281 C 442.023438 421.910156 416.214844 437.152344 404.671875 457.929688 C 393.125 478.707031 374.574219 508.019531 391.429688 536.855469 C 408.285156 565.6875 407.660156 574.171875 417.179688 578.984375 C 426.703125 583.796875 455.527344 600.875 482.9375 594.859375 C 510.347656 588.84375 512.246094 587.109375 528.476562 570.675781 Z M 528.476562 570.675781 "/>
</g>
</g>
</g>
<g clip-path="url(#clip17)" clip-rule="nonzero">
<g clip-path="url(#clip18)" clip-rule="nonzero">
<g clip-path="url(#clip19)" clip-rule="nonzero">
<path style=" stroke:none;fill-rule:nonzero;fill:rgb(64.709473%,47.839355%,100%);fill-opacity:1;" d="M 298.914062 647.867188 C 298.914062 647.867188 324.59375 648.015625 341.882812 647.855469 C 359.171875 647.699219 399.351562 643.148438 405.296875 640.734375 C 405.296875 640.734375 406.8125 635.339844 400.679688 616.777344 C 394.546875 598.21875 378.628906 549.035156 378.628906 549.035156 C 378.628906 549.035156 342.21875 546.488281 323.316406 548.226562 C 304.414062 549.96875 299.820312 552.757812 299.820312 552.757812 C 299.820312 552.757812 291.785156 644.140625 298.914062 647.867188 Z M 298.914062 647.867188 "/>
</g>
</g>
</g>
<g clip-path="url(#clip20)" clip-rule="nonzero">
<g clip-path="url(#clip21)" clip-rule="nonzero">
<g clip-path="url(#clip22)" clip-rule="nonzero">
<path style=" stroke:none;fill-rule:nonzero;fill:rgb(100%,88.238525%,0%);fill-opacity:1;" d="M 344.433594 228.84375 C 344.5 233.667969 344.570312 238.597656 344.640625 243.523438 C 344.664062 245.777344 347 247.679688 349.859375 247.621094 C 364.15625 247.445312 378.394531 248.019531 392.570312 249.351562 C 397.789062 249.804688 403.089844 249.820312 408.289062 249.953125 C 417.636719 250.273438 426.980469 250.59375 436.316406 250.703125 C 446.394531 250.875 456.582031 251.039062 466.628906 250.675781 C 481.867188 250.230469 497.214844 249.886719 512.402344 250.410156 C 520.046875 250.613281 527.660156 250.28125 535.296875 250.378906 C 550.890625 250.558594 566.457031 250.308594 582.007812 251.667969 C 586.699219 252.148438 591.460938 251.980469 596.183594 251.175781 C 597.652344 250.875 599.113281 250.46875 600.460938 249.964844 C 602.53125 249.09375 603.84375 247.945312 604.144531 245.785156 C 605.476562 232.089844 607.027344 218.488281 608.675781 204.773438 C 608.992188 201 608.347656 197.175781 606.667969 193.734375 C 605.085938 190.179688 603.183594 186.644531 602.640625 182.707031 C 602.28125 180.152344 599.773438 178.902344 596.285156 179.101562 C 592.378906 179.328125 588.582031 179.652344 584.664062 179.769531 C 576.09375 180.046875 567.414062 180.222656 558.839844 180.394531 C 552.066406 180.570312 545.273438 180.421875 538.515625 180.917969 C 517.1875 182.355469 495.898438 182.613281 474.609375 182.871094 C 463.808594 183.0625 452.953125 182.292969 442.121094 181.949219 C 435.644531 181.785156 429.277344 181.613281 422.789062 181.234375 C 413.746094 180.683594 404.804688 180.015625 395.871094 179.457031 C 391.402344 179.175781 386.839844 179.117188 382.285156 179.164062 C 373.074219 179.371094 363.765625 179.691406 354.5625 180.003906 C 352.976562 180.09375 351.40625 180.402344 349.832031 180.707031 C 348.464844 180.890625 347.359375 181.917969 347.226562 183.320312 C 346.40625 191.195312 345.371094 198.976562 344.550781 206.855469 C 344.148438 210.953125 344.171875 215.027344 344.195312 219.097656 C 344.167969 222.316406 344.554688 225.40625 344.738281 228.613281 L 344.421875 228.628906 Z M 344.433594 228.84375 "/>
</g>
</g>
</g>
<g clip-path="url(#clip23)" clip-rule="nonzero">
<g clip-path="url(#clip24)" clip-rule="nonzero">
<g clip-path="url(#clip25)" clip-rule="nonzero">
<path style=" stroke:none;fill-rule:nonzero;fill:rgb(100%,88.238525%,0%);fill-opacity:1;" d="M 344.476562 144.78125 C 344.539062 149.601562 344.609375 154.53125 344.683594 159.460938 C 344.707031 161.710938 347.039062 163.613281 349.898438 163.558594 C 364.195312 163.378906 378.433594 163.957031 392.605469 165.289062 C 397.824219 165.738281 403.125 165.757812 408.328125 165.886719 C 417.671875 166.207031 427.019531 166.53125 436.351562 166.636719 C 446.429688 166.808594 456.613281 166.976562 466.664062 166.613281 C 481.898438 166.167969 497.25 165.820312 512.4375 166.34375 C 520.078125 166.550781 527.691406 166.21875 535.328125 166.316406 C 550.917969 166.496094 566.484375 166.242188 582.039062 167.601562 C 586.730469 168.085938 591.488281 167.917969 596.210938 167.109375 C 597.679688 166.8125 599.140625 166.40625 600.488281 165.902344 C 602.558594 165.03125 603.871094 163.882812 604.167969 161.722656 C 605.503906 148.023438 607.054688 134.421875 608.703125 120.710938 C 609.019531 116.9375 608.375 113.113281 606.691406 109.671875 C 605.109375 106.117188 603.210938 102.578125 602.667969 98.640625 C 602.308594 96.089844 599.800781 94.839844 596.3125 95.039062 C 592.40625 95.265625 588.609375 95.589844 584.691406 95.707031 C 576.125 95.984375 567.441406 96.160156 558.867188 96.332031 C 552.09375 96.503906 545.300781 96.359375 538.546875 96.855469 C 517.21875 98.292969 495.929688 98.550781 474.640625 98.808594 C 463.839844 99 452.984375 98.226562 442.15625 97.882812 C 435.679688 97.71875 429.3125 97.550781 422.824219 97.171875 C 413.785156 96.617188 404.84375 95.953125 395.90625 95.390625 C 391.4375 95.113281 386.878906 95.050781 382.324219 95.097656 C 373.113281 95.304688 363.804688 95.625 354.601562 95.941406 C 353.015625 96.03125 351.445312 96.335938 349.871094 96.640625 C 348.503906 96.828125 347.398438 97.855469 347.265625 99.257812 C 346.449219 107.132812 345.410156 114.914062 344.589844 122.789062 C 344.191406 126.886719 344.210938 130.960938 344.234375 135.035156 C 344.207031 138.253906 344.59375 141.339844 344.78125 144.546875 L 344.460938 144.566406 Z M 344.476562 144.78125 "/>
</g>
</g>
</g>
<g clip-path="url(#clip26)" clip-rule="nonzero">
<g clip-path="url(#clip27)" clip-rule="nonzero">
<g clip-path="url(#clip28)" clip-rule="nonzero">
<path style=" stroke:none;fill-rule:nonzero;fill:rgb(100%,88.238525%,0%);fill-opacity:1;" d="M 589.90625 264.53125 C 587.949219 264.578125 585.945312 264.628906 583.945312 264.683594 C 583.03125 264.703125 582.273438 265.691406 582.3125 266.890625 C 582.472656 272.894531 582.328125 278.875 581.875 284.832031 C 581.726562 287.023438 581.75 289.25 581.730469 291.4375 C 581.660156 295.359375 581.585938 299.285156 581.601562 303.207031 C 581.59375 307.441406 581.589844 311.714844 581.800781 315.933594 C 582.074219 322.332031 582.3125 328.773438 582.195312 335.152344 C 582.160156 338.363281 582.339844 341.558594 582.347656 344.765625 C 582.375 351.3125 582.574219 357.847656 582.117188 364.382812 C 581.949219 366.355469 582.046875 368.355469 582.40625 370.335938 C 582.535156 370.949219 582.710938 371.558594 582.925781 372.125 C 583.289062 372.988281 583.765625 373.535156 584.644531 373.652344 C 590.21875 374.148438 595.753906 374.738281 601.335938 375.371094 C 602.871094 375.488281 604.417969 375.199219 605.808594 374.476562 C 607.242188 373.796875 608.667969 372.984375 610.261719 372.738281 C 611.296875 372.574219 611.789062 371.515625 611.6875 370.054688 C 611.570312 368.414062 611.414062 366.820312 611.34375 365.175781 C 611.175781 361.582031 611.050781 357.9375 610.929688 354.335938 C 610.816406 351.492188 610.832031 348.640625 610.589844 345.804688 C 609.871094 336.855469 609.632812 327.917969 609.398438 318.980469 C 609.253906 314.445312 609.496094 309.882812 609.570312 305.335938 C 609.597656 302.617188 609.625 299.941406 609.738281 297.214844 C 609.90625 293.414062 610.121094 289.660156 610.292969 285.902344 C 610.378906 284.027344 610.375 282.109375 610.328125 280.199219 C 610.1875 276.332031 610 272.425781 609.8125 268.5625 C 609.765625 267.898438 609.632812 267.238281 609.5 266.578125 C 609.414062 266.007812 608.992188 265.546875 608.421875 265.496094 C 605.214844 265.1875 602.046875 264.789062 598.84375 264.480469 C 597.175781 264.328125 595.519531 264.355469 593.867188 264.382812 C 592.558594 264.386719 591.304688 264.566406 590.003906 264.65625 L 589.996094 264.523438 Z M 589.90625 264.53125 "/>
</g>
</g>
</g>
<g clip-path="url(#clip29)" clip-rule="nonzero">
<g clip-path="url(#clip30)" clip-rule="nonzero">
<g clip-path="url(#clip31)" clip-rule="nonzero">
<path style=" stroke:none;fill-rule:nonzero;fill:rgb(100%,88.238525%,0%);fill-opacity:1;" d="M 583.90625 265.152344 C 581.953125 265.023438 579.953125 264.894531 577.957031 264.765625 C 577.042969 264.703125 576.199219 265.59375 576.128906 266.765625 C 575.746094 272.613281 575.058594 278.414062 574.066406 284.164062 C 573.714844 286.28125 573.539062 288.449219 573.320312 290.570312 C 572.894531 294.378906 572.464844 298.1875 572.125 301.996094 C 571.734375 306.109375 571.339844 310.269531 571.167969 314.386719 C 570.859375 320.628906 570.511719 326.910156 569.816406 333.101562 C 569.488281 336.21875 569.378906 339.339844 569.09375 342.457031 C 568.527344 348.824219 568.132812 355.191406 567.085938 361.503906 C 566.738281 363.40625 566.65625 365.355469 566.832031 367.3125 C 566.90625 367.921875 567.023438 368.53125 567.183594 369.101562 C 567.472656 369.972656 567.894531 370.546875 568.761719 370.738281 C 574.265625 371.722656 579.722656 372.792969 585.226562 373.90625 C 586.742188 374.15625 588.3125 374.015625 589.761719 373.4375 C 591.25 372.90625 592.742188 372.242188 594.355469 372.144531 C 595.402344 372.082031 595.988281 371.09375 596.015625 369.664062 C 596.050781 368.058594 596.039062 366.496094 596.117188 364.894531 C 596.277344 361.382812 596.484375 357.828125 596.6875 354.320312 C 596.835938 351.546875 597.109375 348.773438 597.125 346 C 597.222656 337.234375 597.796875 328.527344 598.371094 319.820312 C 598.640625 315.398438 599.296875 310.988281 599.785156 306.574219 C 600.054688 303.929688 600.328125 301.335938 600.6875 298.695312 C 601.203125 295.019531 601.757812 291.386719 602.269531 287.75 C 602.523438 285.933594 602.695312 284.074219 602.820312 282.210938 C 603.03125 278.441406 603.199219 274.625 603.363281 270.855469 C 603.378906 270.203125 603.304688 269.550781 603.230469 268.898438 C 603.199219 268.332031 602.820312 267.847656 602.253906 267.75 C 599.089844 267.164062 595.972656 266.488281 592.808594 265.902344 C 591.164062 265.605469 589.511719 265.484375 587.863281 265.363281 C 586.558594 265.25 585.296875 265.308594 583.992188 265.28125 L 583.996094 265.152344 Z M 583.90625 265.152344 "/>
</g>
</g>
</g>
</g>
</svg>
