<?xml version="1.0" encoding="UTF-8"?>
<svg xmlns="http://www.w3.org/2000/svg" xmlns:xlink="http://www.w3.org/1999/xlink" width="750pt" height="749.999995pt" viewBox="0 0 750 749.999995" version="1.2">
<defs>
<clipPath id="clip1">
  <path d="M 205.734375 186 L 575.484375 186 L 575.484375 547 L 205.734375 547 Z M 205.734375 186 "/>
</clipPath>
<clipPath id="clip2">
  <path d="M 229.179688 209 L 552.429688 209 L 552.429688 524 L 229.179688 524 Z M 229.179688 209 "/>
</clipPath>
<clipPath id="clip3">
  <path d="M 252.628906 221.035156 L 309 221.035156 L 309 281 L 252.628906 281 Z M 252.628906 221.035156 "/>
</clipPath>
<clipPath id="clip4">
  <path d="M 514 226 L 538.378906 226 L 538.378906 400 L 514 400 Z M 514 226 "/>
</clipPath>
<clipPath id="clip5">
  <path d="M 518 416 L 538.378906 416 L 538.378906 512.785156 L 518 512.785156 Z M 518 416 "/>
</clipPath>
<clipPath id="clip6">
  <path d="M 403 221.035156 L 498 221.035156 L 498 292 L 403 292 Z M 403 221.035156 "/>
</clipPath>
<clipPath id="clip7">
  <path d="M 368 229 L 514 229 L 514 512.785156 L 368 512.785156 Z M 368 229 "/>
</clipPath>
<clipPath id="clip8">
  <path d="M 323 413 L 502 413 L 502 512.785156 L 323 512.785156 Z M 323 413 "/>
</clipPath>
<clipPath id="clip9">
  <path d="M 252.628906 221.035156 L 395 221.035156 L 395 387 L 252.628906 387 Z M 252.628906 221.035156 "/>
</clipPath>
<clipPath id="clip10">
  <path d="M 252.628906 292 L 348 292 L 348 512.785156 L 252.628906 512.785156 Z M 252.628906 292 "/>
</clipPath>
<clipPath id="clip11">
  <path d="M 252.628906 221.035156 L 538.378906 221.035156 L 538.378906 433 L 252.628906 433 Z M 252.628906 221.035156 "/>
</clipPath>
<clipPath id="clip12">
  <path d="M 472 221.035156 L 538.378906 221.035156 L 538.378906 512.785156 L 472 512.785156 Z M 472 221.035156 "/>
</clipPath>
<clipPath id="clip13">
  <path d="M 250.167969 222.265625 L 309 222.265625 L 309 282 L 250.167969 282 Z M 250.167969 222.265625 "/>
</clipPath>
<clipPath id="clip14">
  <path d="M 403 222.265625 L 405.417969 222.265625 L 405.417969 294 L 403 294 Z M 403 222.265625 "/>
</clipPath>
<clipPath id="clip15">
  <path d="M 368 230 L 405.417969 230 L 405.417969 514.015625 L 368 514.015625 Z M 368 230 "/>
</clipPath>
<clipPath id="clip16">
  <path d="M 323 414 L 405.417969 414 L 405.417969 514.015625 L 323 514.015625 Z M 323 414 "/>
</clipPath>
<clipPath id="clip17">
  <path d="M 250.167969 222.265625 L 395 222.265625 L 395 388 L 250.167969 388 Z M 250.167969 222.265625 "/>
</clipPath>
<clipPath id="clip18">
  <path d="M 250.167969 293 L 348 293 L 348 514.015625 L 250.167969 514.015625 Z M 250.167969 293 "/>
</clipPath>
<clipPath id="clip19">
  <path d="M 250.167969 222.265625 L 405.417969 222.265625 L 405.417969 434 L 250.167969 434 Z M 250.167969 222.265625 "/>
</clipPath>
</defs>
<g id="surface1">
<rect x="0" y="0" width="750" height="749.999995" style="fill:rgb(100%,100%,100%);fill-opacity:1;stroke:none;"/>
<rect x="0" y="0" width="750" height="749.999995" style="fill:rgb(100%,100%,100%);fill-opacity:1;stroke:none;"/>
<path style=" stroke:none;fill-rule:nonzero;fill:rgb(78.039551%,81.568909%,84.709167%);fill-opacity:1;" d="M 146.683594 722.273438 C 106.316406 722.273438 73.554688 687.171875 73.554688 649.726562 L 73.554688 83.210938 C 73.554688 72.679688 75.894531 62.152344 79.988281 52.789062 C 67.121094 65.074219 59.515625 82.042969 59.515625 100.496094 L 59.515625 667.28125 C 59.515625 704.136719 89.933594 734.558594 126.792969 734.558594 L 603.394531 734.558594 C 620.359375 734.558594 635.570312 728.125 647.269531 718.179688 C 639.664062 721.101562 631.476562 722.273438 623.285156 722.273438 Z M 146.683594 722.273438 "/>
<path style=" stroke:none;fill-rule:nonzero;fill:rgb(96.078491%,96.469116%,96.859741%);fill-opacity:1;" d="M 79.40625 83.210938 L 79.40625 648.558594 C 79.40625 685.414062 109.828125 715.835938 146.683594 715.835938 L 623.285156 715.835938 C 660.140625 715.835938 690.5625 685.414062 690.5625 648.558594 L 690.5625 83.210938 C 690.5625 46.355469 660.140625 15.933594 623.285156 15.933594 L 146.683594 15.933594 C 109.242188 15.933594 79.40625 46.355469 79.40625 83.210938 Z M 79.40625 83.210938 "/>
<path style=" stroke:none;fill-rule:nonzero;fill:rgb(65.098572%,65.098572%,65.098572%);fill-opacity:1;" d="M 661.898438 710.574219 C 682.371094 697.703125 696.414062 674.886719 696.414062 648.558594 L 696.414062 83.210938 C 696.414062 42.84375 663.652344 10.082031 623.285156 10.082031 L 146.683594 10.082031 C 122.695312 10.082031 101.636719 21.78125 88.179688 39.335938 C 67.703125 52.207031 53.664062 75.023438 53.664062 101.039062 L 53.664062 666.695312 C 53.664062 707.0625 86.425781 739.824219 126.792969 739.824219 L 603.394531 739.824219 C 627.378906 739.824219 648.441406 728.125 661.898438 710.574219 Z M 146.683594 15.933594 L 623.285156 15.933594 C 660.140625 15.933594 690.5625 46.355469 690.5625 83.210938 L 690.5625 648.558594 C 690.5625 685.414062 660.140625 715.835938 623.285156 715.835938 L 146.683594 715.835938 C 109.828125 715.835938 79.40625 685.414062 79.40625 648.558594 L 79.40625 83.210938 C 79.40625 46.355469 109.242188 15.933594 146.683594 15.933594 Z M 126.792969 734.558594 C 89.933594 734.558594 59.515625 703.550781 59.515625 666.695312 L 59.515625 101.039062 C 59.515625 82.628906 67.121094 65.660156 79.988281 53.375 C 75.894531 62.734375 73.554688 72.679688 73.554688 83.796875 L 73.554688 649.144531 C 73.554688 689.511719 106.316406 722.273438 146.683594 722.273438 L 623.285156 722.273438 C 631.476562 722.273438 639.664062 720.519531 647.269531 718.179688 C 635.570312 728.125 620.359375 734.558594 603.394531 734.558594 Z M 126.792969 734.558594 "/>
<g clip-path="url(#clip1)" clip-rule="nonzero">
<path style=" stroke:none;fill-rule:nonzero;fill:rgb(1.568604%,67.83905%,88.238525%);fill-opacity:1;" d="M 205.734375 540.328125 C 205.734375 543.582031 208.394531 546.246094 211.648438 546.246094 C 211.648438 546.246094 211.722656 546.246094 211.722656 546.246094 C 236.570312 545.949219 334.40625 544.765625 423.886719 546.320312 C 527.414062 548.167969 575.484375 537.070312 575.484375 537.070312 L 575.484375 198.554688 C 575.484375 198.554688 471.953125 183.757812 392.457031 187.457031 C 312.960938 191.15625 255.648438 187.457031 231.613281 200.40625 C 207.582031 213.351562 209.429688 370.585938 207.582031 416.832031 C 206.027344 455.605469 205.808594 520.347656 205.734375 540.328125 Z M 205.734375 540.328125 "/>
</g>
<g clip-path="url(#clip2)" clip-rule="nonzero">
<path style=" stroke:none;fill-rule:nonzero;fill:rgb(100%,100%,100%);fill-opacity:1;" d="M 229.179688 518.007812 C 229.179688 520.847656 231.503906 523.171875 234.351562 523.171875 C 234.351562 523.171875 234.414062 523.171875 234.414062 523.171875 C 256.136719 522.914062 341.667969 521.882812 419.894531 523.238281 C 510.40625 524.851562 552.429688 515.167969 552.429688 515.167969 L 552.429688 219.746094 C 552.429688 219.746094 461.917969 206.832031 392.417969 210.0625 C 322.921875 213.289062 272.816406 210.0625 251.804688 221.363281 C 230.792969 232.664062 232.410156 369.878906 230.792969 410.238281 C 229.4375 444.074219 229.242188 500.574219 229.179688 518.007812 Z M 229.179688 518.007812 "/>
</g>
<g clip-path="url(#clip3)" clip-rule="nonzero">
<path style=" stroke:none;fill-rule:nonzero;fill:rgb(100%,88.238525%,0%);fill-opacity:1;" d="M 306.4375 113.628906 C 306.300781 107.09375 306.195312 100.5625 306.105469 94.03125 L 227.710938 94.03125 L 227.710938 280.453125 C 233.175781 271.695312 239.183594 263.253906 245.425781 255.007812 C 249.507812 249.617188 253.65625 244.28125 257.816406 238.957031 C 261.65625 234.039062 265.0625 229.699219 268.128906 225.683594 C 275.421875 216.128906 282.546875 206.414062 288.882812 196.195312 C 292.453125 190.4375 295.820312 184.542969 298.789062 178.453125 C 299.621094 176.75 300.4375 175.035156 301.210938 173.300781 C 301.480469 172.691406 301.75 172.078125 302.015625 171.460938 C 302.160156 171.113281 302.578125 170.132812 302.59375 170.078125 C 303.820312 167.039062 304.929688 163.964844 305.980469 160.859375 C 308.511719 153.390625 308.476562 146.410156 307.867188 138.082031 C 307.269531 129.914062 306.609375 121.824219 306.4375 113.628906 "/>
</g>
<g clip-path="url(#clip4)" clip-rule="nonzero">
<path style=" stroke:none;fill-rule:nonzero;fill:rgb(100%,88.238525%,0%);fill-opacity:1;" d="M 517.246094 304.714844 C 517.714844 322.882812 517.789062 341.058594 517.839844 359.234375 C 517.875 372.539062 517.898438 385.851562 518.0625 399.164062 L 650.28125 399.164062 C 643.703125 385.722656 636.320312 372.539062 633.132812 357.808594 C 631.335938 349.496094 630.160156 341.070312 628.453125 332.742188 C 626.722656 324.277344 623.800781 316.1875 621.839844 307.789062 C 615.632812 281.136719 615.902344 253.457031 617.027344 226.082031 L 514.0625 226.082031 C 514.230469 233.882812 514.46875 241.679688 514.765625 249.460938 C 515.460938 267.886719 516.769531 286.285156 517.246094 304.714844 "/>
</g>
<g clip-path="url(#clip5)" clip-rule="nonzero">
<path style=" stroke:none;fill-rule:nonzero;fill:rgb(100%,88.238525%,0%);fill-opacity:1;" d="M 668.554688 442.558594 C 666.25 435.96875 663.714844 429.929688 661.03125 423.753906 C 659.921875 421.207031 658.851562 418.625 657.792969 416.070312 L 518.355469 416.070312 C 518.765625 433.660156 519.527344 451.234375 521.023438 468.769531 C 522.492188 486.0625 524.683594 501.640625 526.921875 518.929688 C 527.804688 525.746094 529.039062 534.285156 530.601562 541.914062 C 531.605469 546.828125 532.777344 551.707031 534.214844 556.503906 L 664.804688 556.503906 C 663.660156 544.179688 664.988281 531.816406 666.777344 519.597656 C 668.730469 506.28125 671.363281 493.527344 672.378906 480.890625 C 673.488281 467.117188 673.019531 455.320312 668.554688 442.558594 "/>
</g>
<g clip-path="url(#clip6)" clip-rule="nonzero">
<path style=" stroke:none;fill-rule:nonzero;fill:rgb(100%,88.238525%,0%);fill-opacity:1;" d="M 410.175781 272 C 410.597656 278.632812 410.96875 285.269531 411.082031 291.898438 C 438.113281 264.867188 465.144531 237.835938 492.175781 210.804688 C 493.507812 209.472656 495.207031 208.695312 496.972656 208.453125 C 496.910156 193.84375 497.15625 179.238281 497.871094 164.648438 C 497.882812 164.394531 497.898438 164.140625 497.914062 163.890625 L 404.308594 163.890625 C 404.273438 164.386719 404.230469 164.886719 404.199219 165.382812 C 403.105469 183.125 404.410156 200.867188 405.914062 218.546875 C 407.433594 236.347656 409.046875 254.164062 410.175781 272 "/>
</g>
<g clip-path="url(#clip7)" clip-rule="nonzero">
<path style=" stroke:none;fill-rule:nonzero;fill:rgb(100%,88.238525%,0%);fill-opacity:1;" d="M 389.554688 420.820312 C 430.917969 462.171875 472.324219 503.484375 513.886719 544.636719 C 511.472656 532.335938 510.121094 519.777344 508.578125 507.421875 C 507.300781 497.226562 505.753906 486.527344 504.699219 475.285156 C 503.613281 463.683594 502.828125 452.058594 502.296875 440.417969 C 500.628906 403.902344 501.148438 367.339844 500.789062 330.796875 C 500.457031 297.035156 498.078125 263.363281 497.265625 229.621094 C 468.09375 258.792969 438.921875 287.960938 409.75 317.132812 C 409.457031 319.207031 409.113281 321.273438 408.707031 323.335938 C 403.011719 352.160156 386.703125 376.589844 369.054688 399.464844 C 368.929688 399.625 368.804688 399.785156 368.675781 399.949219 C 375.636719 406.90625 382.597656 413.863281 389.554688 420.820312 "/>
</g>
<g clip-path="url(#clip8)" clip-rule="nonzero">
<path style=" stroke:none;fill-rule:nonzero;fill:rgb(1.568604%,67.83905%,88.238525%);fill-opacity:1;" d="M 358.023438 413.191406 C 352.34375 420.105469 346.515625 427.132812 341.625 433.589844 C 337.164062 439.484375 332.902344 445.605469 329.574219 452.21875 C 329.054688 453.242188 328.542969 454.273438 328.070312 455.320312 C 327.890625 455.71875 327.785156 455.957031 327.722656 456.082031 C 327.679688 456.1875 327.636719 456.300781 327.582031 456.4375 C 326.96875 458.007812 326.382812 459.59375 325.902344 461.210938 C 325.417969 462.839844 324.992188 464.484375 324.617188 466.140625 C 324.417969 467.050781 324.210938 467.957031 324.050781 468.875 C 324.070312 468.765625 323.742188 470.910156 323.742188 470.707031 C 322.835938 478.660156 323.105469 486.707031 324.121094 494.636719 C 324.117188 494.585938 324.449219 496.902344 324.519531 497.347656 C 324.679688 498.324219 324.835938 499.296875 325.007812 500.269531 C 325.351562 502.191406 325.714844 504.113281 326.117188 506.027344 C 326.878906 509.636719 327.855469 513.210938 328.539062 516.832031 C 329.882812 523.957031 331.277344 531.09375 333.265625 538.070312 C 334.28125 541.640625 335.40625 545.191406 336.800781 548.632812 C 336.90625 548.859375 337.472656 550.167969 337.46875 550.160156 C 337.828125 550.925781 338.1875 551.6875 338.578125 552.4375 C 339.300781 553.824219 340.074219 555.175781 340.902344 556.503906 L 501.835938 556.503906 C 453.746094 508.886719 405.878906 461.046875 358.023438 413.191406 "/>
</g>
<g clip-path="url(#clip9)" clip-rule="nonzero">
<path style=" stroke:none;fill-rule:nonzero;fill:rgb(100%,88.238525%,0%);fill-opacity:1;" d="M 393.351562 309.628906 L 393.777344 309.203125 C 393.996094 306.867188 394.15625 304.523438 394.230469 302.171875 C 394.789062 284.300781 392.953125 266.265625 391.472656 248.472656 C 389.996094 230.679688 388.203125 212.859375 387.308594 195.023438 C 386.910156 187.035156 386.765625 179.011719 387.046875 171.011719 C 386.796875 170.921875 386.550781 170.820312 386.308594 170.707031 L 320.472656 170.707031 C 318.300781 176.792969 315.558594 182.703125 312.660156 188.441406 C 300.105469 213.308594 282.183594 234.859375 265.210938 256.765625 C 264.976562 257.0625 264.742188 257.363281 264.507812 257.667969 C 264.472656 257.71875 264.308594 257.929688 264.015625 258.308594 C 263.511719 258.960938 263.011719 259.613281 262.511719 260.269531 C 261.515625 261.574219 260.519531 262.882812 259.53125 264.191406 C 257.558594 266.8125 255.601562 269.441406 253.679688 272.097656 C 252.238281 274.09375 250.820312 276.109375 249.414062 278.128906 C 285.554688 314.265625 321.691406 350.40625 357.828125 386.542969 C 359.84375 383.898438 361.882812 381.164062 364.03125 378.183594 C 372.179688 366.878906 379.789062 355.046875 385.316406 342.214844 C 385.351562 342.117188 386.125 340.25 386.207031 340.039062 C 386.511719 339.261719 386.816406 338.480469 387.101562 337.695312 C 387.683594 336.121094 388.246094 334.535156 388.761719 332.9375 C 389.804688 329.695312 390.742188 326.414062 391.503906 323.089844 C 391.734375 322.082031 391.953125 321.074219 392.164062 320.0625 C 390.167969 316.8125 390.558594 312.421875 393.351562 309.628906 "/>
</g>
<g clip-path="url(#clip10)" clip-rule="nonzero">
<path style=" stroke:none;fill-rule:nonzero;fill:rgb(100%,88.238525%,0%);fill-opacity:1;" d="M 346.492188 399.109375 C 310.992188 363.609375 275.492188 328.109375 239.996094 292.609375 C 237.269531 297.132812 234.6875 301.746094 232.351562 306.480469 C 231.519531 308.164062 230.703125 309.859375 229.929688 311.566406 C 229.601562 312.304688 229.269531 313.039062 228.949219 313.773438 C 228.8125 314.082031 228.726562 314.289062 228.667969 314.417969 C 228.632812 314.507812 228.589844 314.605469 228.542969 314.722656 C 228.261719 315.417969 227.980469 316.117188 227.710938 316.8125 L 227.710938 556.503906 L 321.835938 556.503906 C 319.972656 552.261719 318.46875 547.839844 317.210938 543.429688 C 315.214844 536.417969 313.738281 529.28125 312.390625 522.121094 C 310.921875 514.355469 308.847656 506.757812 307.785156 498.902344 C 305.574219 482.5625 305.429688 465.835938 311.933594 450.371094 C 318.050781 435.824219 327.894531 423.492188 337.910156 411.441406 C 340.316406 408.546875 342.742188 405.667969 345.128906 402.753906 C 345.902344 401.808594 346.664062 400.855469 347.429688 399.902344 C 347.105469 399.664062 346.785156 399.40625 346.492188 399.109375 "/>
</g>
<g clip-path="url(#clip11)" clip-rule="nonzero">
<path style=" stroke:none;fill-rule:nonzero;fill:rgb(100%,100%,100%);fill-opacity:1;" d="M 764.410156 228.652344 C 757.253906 230.53125 749.96875 231.878906 742.664062 232.960938 C 741.871094 233.066406 741.082031 233.167969 740.289062 233.265625 C 738.523438 233.484375 736.753906 233.679688 734.984375 233.863281 C 731.214844 234.257812 727.433594 234.570312 723.648438 234.832031 C 716.121094 235.355469 708.578125 235.546875 701.050781 236.019531 C 667.476562 238.140625 634.066406 243.449219 601.339844 251.425781 C 585.273438 255.339844 569.367188 259.945312 553.601562 265.003906 C 545.878906 267.484375 538.285156 269.800781 530.285156 271.082031 C 529.972656 271.125 529.6875 271.164062 529.507812 271.183594 C 528.535156 271.300781 527.558594 271.394531 526.582031 271.492188 C 524.632812 271.683594 522.675781 271.816406 520.71875 271.929688 C 516.476562 272.183594 512.222656 272.234375 507.972656 272.210938 C 491.640625 272.121094 475.308594 270.714844 458.984375 270.164062 C 450.480469 269.878906 441.976562 269.527344 433.484375 268.972656 C 429.417969 268.707031 425.355469 268.375 421.296875 267.988281 C 420.296875 267.894531 419.292969 267.789062 418.292969 267.683594 C 406.675781 265.640625 395.171875 262.992188 383.828125 259.671875 C 376.933594 257.65625 370.117188 255.359375 363.371094 252.863281 C 360.167969 251.675781 356.980469 250.425781 353.8125 249.136719 C 352.226562 248.492188 350.65625 247.828125 349.082031 247.160156 C 349.019531 247.136719 348.945312 247.101562 348.863281 247.066406 C 348.003906 246.691406 347.148438 246.3125 346.292969 245.925781 C 319.070312 233.714844 292.902344 218.179688 268.359375 201.007812 C 262.742188 197.082031 257.253906 192.960938 251.847656 188.738281 C 251.359375 188.355469 250.875 187.972656 250.386719 187.589844 C 250.328125 187.542969 250.269531 187.496094 250.199219 187.441406 C 248.675781 186.21875 247.160156 184.984375 245.648438 183.742188 C 242.859375 181.460938 240.097656 179.144531 237.34375 176.816406 C 234.457031 174.371094 231.628906 172.675781 227.894531 172.453125 L 227.894531 232.4375 C 236.480469 239.769531 245.425781 246.640625 254.914062 252.726562 C 268.582031 261.496094 283.0625 268.652344 297.960938 274.914062 C 315.867188 282.4375 334.488281 287.886719 353.394531 291.964844 C 341.320312 300.847656 331.082031 312.132812 320.929688 323.199219 C 309.710938 335.425781 297.886719 347.046875 285.457031 357.960938 C 282.476562 360.578125 279.449219 363.136719 276.394531 365.660156 C 275.128906 366.703125 273.855469 367.734375 272.578125 368.757812 C 272.246094 369.023438 271.898438 369.296875 271.714844 369.441406 C 270.699219 370.238281 269.671875 371.03125 268.648438 371.816406 C 262.289062 376.695312 255.757812 381.335938 249.105469 385.777344 C 242.1875 390.386719 235.105469 394.730469 227.894531 398.828125 L 227.894531 432.527344 C 243.292969 424.617188 258.21875 415.75 272.46875 405.683594 C 300.09375 386.167969 324.363281 362.890625 347.394531 337.96875 C 352.878906 332.03125 358.488281 326.210938 364.527344 320.871094 C 365.242188 320.238281 365.972656 319.621094 366.699219 319.003906 C 366.878906 318.851562 367.214844 318.578125 367.53125 318.320312 C 368.746094 317.386719 369.980469 316.480469 371.234375 315.601562 C 374.527344 313.289062 378.003906 311.269531 381.605469 309.515625 C 381.683594 309.476562 381.78125 309.429688 381.894531 309.378906 C 382.679688 309.070312 383.472656 308.796875 384.269531 308.519531 C 386.226562 307.84375 388.210938 307.25 390.199219 306.675781 C 394.621094 305.398438 399.117188 304.398438 403.632812 303.523438 C 405.742188 303.113281 407.863281 302.757812 409.988281 302.421875 C 410.472656 302.34375 410.953125 302.277344 411.4375 302.207031 C 411.839844 302.152344 413.148438 301.976562 413.566406 301.925781 C 418.09375 301.363281 422.636719 300.964844 427.183594 300.648438 C 436.21875 300.027344 445.210938 300.226562 454.226562 301.066406 C 456.398438 301.265625 458.5625 301.515625 460.722656 301.773438 C 461.800781 301.90625 462.878906 302.046875 463.957031 302.1875 C 464.070312 302.199219 464.175781 302.214844 464.269531 302.226562 C 464.3125 302.230469 464.347656 302.238281 464.390625 302.242188 C 469.039062 302.902344 473.671875 303.640625 478.308594 304.359375 C 497.011719 307.265625 515.925781 310.117188 534.855469 307.945312 C 553.992188 305.746094 572.484375 299.277344 590.8125 293.476562 C 607.953125 288.050781 625.140625 282.691406 642.792969 279.308594 C 644.921875 278.898438 647.0625 278.535156 649.203125 278.1875 C 649.738281 278.101562 650.273438 278.027344 650.804688 277.949219 C 651.28125 277.882812 652.515625 277.714844 652.902344 277.664062 C 657.667969 277.078125 662.457031 276.710938 667.253906 276.5 C 676.394531 276.101562 685.5625 276.160156 694.710938 275.839844 C 713.558594 275.183594 732.449219 273.601562 750.957031 269.742188 C 758.398438 268.191406 765.703125 266.128906 772.863281 263.617188 L 772.863281 226.203125 C 770.074219 227.109375 767.25 227.910156 764.410156 228.652344 "/>
</g>
<g clip-path="url(#clip12)" clip-rule="nonzero">
<path style=" stroke:none;fill-rule:nonzero;fill:rgb(100%,100%,100%);fill-opacity:1;" d="M 770.164062 331.6875 C 758.496094 326.191406 746.898438 320.582031 734.996094 315.59375 C 723.894531 310.9375 712.503906 306.960938 700.679688 304.535156 C 694.191406 303.207031 687.609375 302.570312 681.046875 301.765625 C 680.941406 301.75 680.8125 301.734375 680.675781 301.71875 C 680.480469 301.6875 680.28125 301.660156 680.085938 301.632812 C 678.949219 301.472656 677.816406 301.296875 676.6875 301.113281 C 674.355469 300.738281 672.03125 300.304688 669.71875 299.820312 C 665.660156 298.96875 661.648438 297.902344 657.726562 296.558594 C 656.84375 296.257812 655.972656 295.933594 655.101562 295.597656 C 654.941406 295.539062 654.785156 295.476562 654.625 295.410156 C 652.992188 294.683594 651.390625 293.882812 649.820312 293.023438 C 648.300781 292.191406 646.824219 291.273438 645.382812 290.304688 C 644.902344 289.980469 644.429688 289.644531 643.960938 289.304688 C 643.628906 289.035156 643.296875 288.761719 642.96875 288.484375 C 640.148438 286.105469 637.601562 283.417969 635.265625 280.570312 C 635.191406 280.46875 635.113281 280.375 635.042969 280.277344 C 634.46875 279.5 633.914062 278.707031 633.367188 277.90625 C 632.125 276.097656 630.976562 274.226562 629.875 272.332031 C 627.511719 268.277344 625.464844 264.050781 623.570312 259.761719 C 623.476562 259.554688 623.386719 259.34375 623.296875 259.136719 C 623.214844 258.9375 623.128906 258.742188 623.070312 258.597656 C 622.1875 256.460938 621.285156 254.332031 620.371094 252.210938 C 619.035156 249.121094 617.601562 246.078125 616.117188 243.058594 C 613.242188 237.234375 610.070312 231.558594 606.730469 225.988281 C 600.03125 214.8125 592.511719 204.136719 584.703125 193.703125 C 577.351562 183.886719 569.828125 174.195312 561.785156 164.925781 C 558.449219 161.082031 555.0625 157.28125 551.730469 153.429688 C 550.15625 151.613281 548.597656 149.785156 547.058594 147.9375 C 546.300781 147.023438 545.546875 146.101562 544.796875 145.175781 C 544.425781 144.714844 544.054688 144.25 543.6875 143.785156 C 543.664062 143.753906 543.640625 143.726562 543.617188 143.695312 C 540.714844 139.910156 537.996094 135.984375 535.550781 131.890625 C 534.375 129.929688 533.292969 127.914062 532.273438 125.871094 C 531.855469 125.023438 531.460938 124.167969 531.074219 123.304688 C 530.8125 122.65625 530.566406 122.003906 530.324219 121.347656 C 528.910156 117.523438 527.894531 113.5625 527.214844 109.546875 C 527.203125 109.476562 527.195312 109.402344 527.183594 109.332031 C 527.171875 109.253906 527.160156 109.175781 527.15625 109.109375 C 527.019531 107.886719 526.933594 106.660156 526.867188 105.433594 C 526.742188 103.09375 526.769531 100.746094 526.882812 98.410156 C 526.9375 97.300781 527.035156 96.191406 527.136719 95.089844 C 527.175781 94.710938 527.214844 94.335938 527.261719 93.960938 C 527.734375 90.878906 528.183594 87.796875 528.621094 84.710938 C 529.597656 77.808594 530.5 70.898438 531.339844 63.976562 C 533.40625 46.980469 535.050781 29.933594 536.710938 12.890625 L 512.964844 12.890625 C 510.917969 33.800781 508.898438 54.710938 506.128906 75.542969 C 506.113281 75.648438 506.09375 75.769531 506.074219 75.917969 C 505.960938 76.757812 505.84375 77.597656 505.726562 78.4375 C 505.488281 80.121094 505.246094 81.804688 505 83.488281 C 504.394531 87.570312 503.71875 91.648438 503.332031 95.761719 C 502.75 101.90625 503.199219 107.945312 504.054688 114.042969 C 505.503906 124.386719 509.515625 134.296875 514.753906 143.304688 C 525.242188 161.324219 540.785156 175.875 553.761719 192.046875 C 554.570312 193.058594 555.367188 194.082031 556.164062 195.101562 C 556.351562 195.339844 556.539062 195.582031 556.726562 195.820312 C 556.957031 196.121094 557.429688 196.730469 557.617188 196.972656 C 559.675781 199.632812 561.714844 202.304688 563.734375 204.988281 C 567.648438 210.191406 571.46875 215.460938 575.171875 220.8125 C 582.578125 231.527344 589.421875 242.640625 595.265625 254.273438 C 596.664062 257.046875 597.980469 259.859375 599.246094 262.695312 C 599.394531 263.027344 599.535156 263.355469 599.675781 263.6875 C 599.835938 264.0625 600.070312 264.617188 600.175781 264.871094 C 601.035156 266.960938 601.925781 269.039062 602.824219 271.113281 C 604.699219 275.441406 606.777344 279.679688 609.109375 283.785156 C 611.324219 287.679688 613.828125 291.488281 616.625 295.0625 C 615.816406 295.347656 615.023438 295.703125 614.257812 296.136719 C 588.179688 310.859375 565.339844 330.578125 541.765625 348.828125 C 541.464844 349.0625 541.164062 349.296875 540.863281 349.527344 C 540.75 349.613281 540.578125 349.738281 540.324219 349.929688 C 538.925781 350.984375 537.511719 352.015625 536.089844 353.035156 C 533.433594 354.941406 530.734375 356.792969 528.023438 358.621094 C 522.472656 362.367188 516.847656 365.996094 511.261719 369.6875 C 499.402344 377.527344 487.621094 385.726562 477.191406 395.410156 C 472.445312 399.820312 471.535156 407.691406 474.890625 413.152344 C 491.175781 439.675781 511.652344 463.414062 532.519531 486.449219 C 542.738281 497.730469 553.09375 508.890625 563.203125 520.269531 C 568.234375 525.933594 573.191406 531.660156 578.042969 537.472656 C 580.359375 540.25 582.644531 543.058594 584.902344 545.886719 C 585.277344 546.351562 586.554688 547.980469 587.191406 548.792969 C 588.242188 550.15625 589.289062 551.523438 590.324219 552.902344 C 591.21875 554.09375 592.097656 555.300781 592.976562 556.503906 L 624.597656 556.503906 C 625.03125 553.421875 624.476562 550.246094 622.613281 547.585938 C 604.699219 522.011719 583.625 498.90625 562.585938 475.878906 C 552.328125 464.65625 542.097656 453.410156 532.273438 441.808594 C 529.925781 439.042969 527.609375 436.25 525.320312 433.4375 C 524.175781 432.03125 523.042969 430.617188 521.917969 429.203125 C 521.378906 428.527344 520.84375 427.847656 520.308594 427.167969 C 520.132812 426.933594 519.949219 426.699219 519.769531 426.46875 C 515.277344 420.625 510.96875 414.640625 506.851562 408.527344 C 507.285156 408.1875 507.714844 407.84375 508.152344 407.503906 C 508.863281 406.964844 509.578125 406.433594 510.296875 405.90625 C 515.703125 401.914062 521.292969 398.167969 526.902344 394.460938 C 538.769531 386.617188 550.546875 378.824219 561.816406 370.136719 C 567.363281 365.863281 572.851562 361.519531 578.351562 357.183594 C 581.246094 354.902344 584.140625 352.628906 587.042969 350.363281 C 588.363281 349.335938 589.683594 348.3125 591.007812 347.289062 C 591.042969 347.261719 591.070312 347.238281 591.105469 347.210938 C 591.136719 347.1875 591.167969 347.164062 591.199219 347.140625 C 591.996094 346.53125 592.792969 345.925781 593.585938 345.324219 C 604.964844 336.699219 616.675781 328.449219 629.128906 321.414062 C 632.707031 319.394531 635.0625 315.960938 635.960938 312.179688 C 647.21875 318.847656 660.105469 322.359375 673.199219 324.300781 C 676.210938 324.746094 679.230469 325.136719 682.253906 325.5 C 683.277344 325.625 684.304688 325.742188 685.332031 325.851562 C 686.027344 325.929688 686.726562 326.003906 687.425781 326.082031 C 687.464844 326.085938 687.496094 326.089844 687.535156 326.097656 C 692.929688 326.871094 698.261719 328.039062 703.519531 329.460938 C 708.859375 330.902344 714.109375 332.667969 719.289062 334.597656 C 721.769531 335.523438 724.234375 336.503906 726.683594 337.507812 C 726.738281 337.53125 726.808594 337.5625 726.882812 337.589844 C 727.425781 337.824219 727.972656 338.054688 728.511719 338.289062 C 729.847656 338.863281 731.171875 339.445312 732.496094 340.035156 C 746.046875 346.058594 759.300781 352.761719 772.867188 358.746094 L 772.867188 332.957031 C 771.964844 332.535156 771.0625 332.113281 770.164062 331.6875 "/>
</g>
<g clip-path="url(#clip13)" clip-rule="nonzero">
<path style=" stroke:none;fill-rule:nonzero;fill:rgb(1.568604%,67.83905%,88.238525%);fill-opacity:1;" d="M 306.4375 114.976562 C 306.300781 108.445312 306.195312 101.910156 306.105469 95.378906 L 227.710938 95.378906 L 227.710938 281.800781 C 233.175781 273.046875 239.183594 264.601562 245.425781 256.355469 C 249.507812 250.96875 253.65625 245.632812 257.816406 240.304688 C 261.65625 235.390625 265.0625 231.046875 268.128906 227.03125 C 275.421875 217.480469 282.546875 207.765625 288.882812 197.542969 C 292.453125 191.785156 295.820312 185.894531 298.789062 179.800781 C 299.621094 178.097656 300.4375 176.382812 301.210938 174.652344 C 301.480469 174.039062 301.75 173.425781 302.015625 172.8125 C 302.160156 172.460938 302.578125 171.480469 302.59375 171.429688 C 303.820312 168.386719 304.929688 165.3125 305.980469 162.207031 C 308.511719 154.738281 308.476562 147.757812 307.867188 139.429688 C 307.269531 131.261719 306.609375 123.171875 306.4375 114.976562 "/>
</g>
<g clip-path="url(#clip14)" clip-rule="nonzero">
<path style=" stroke:none;fill-rule:nonzero;fill:rgb(1.568604%,67.83905%,88.238525%);fill-opacity:1;" d="M 410.175781 273.347656 C 410.597656 279.980469 410.96875 286.617188 411.082031 293.246094 C 438.113281 266.21875 465.144531 239.183594 492.175781 212.152344 C 493.507812 210.820312 495.207031 210.042969 496.972656 209.800781 C 496.910156 195.195312 497.15625 180.585938 497.871094 165.996094 C 497.882812 165.742188 497.898438 165.492188 497.914062 165.238281 L 404.308594 165.238281 C 404.273438 165.734375 404.230469 166.234375 404.199219 166.730469 C 403.105469 184.472656 404.410156 202.214844 405.914062 219.894531 C 407.433594 237.699219 409.046875 255.515625 410.175781 273.347656 "/>
</g>
<g clip-path="url(#clip15)" clip-rule="nonzero">
<path style=" stroke:none;fill-rule:nonzero;fill:rgb(1.568604%,67.83905%,88.238525%);fill-opacity:1;" d="M 389.554688 422.167969 C 430.917969 463.519531 472.324219 504.835938 513.886719 545.984375 C 511.472656 533.683594 510.121094 521.125 508.578125 508.773438 C 507.300781 498.574219 505.753906 487.875 504.699219 476.632812 C 503.613281 465.03125 502.828125 453.40625 502.296875 441.769531 C 500.628906 405.25 501.148438 368.691406 500.789062 332.148438 C 500.457031 298.382812 498.078125 264.710938 497.265625 230.96875 C 468.09375 260.140625 438.921875 289.3125 409.75 318.480469 C 409.457031 320.554688 409.113281 322.621094 408.707031 324.6875 C 403.011719 353.511719 386.703125 377.9375 369.054688 400.8125 C 368.929688 400.972656 368.804688 401.132812 368.675781 401.296875 C 375.636719 408.253906 382.597656 415.210938 389.554688 422.167969 "/>
</g>
<g clip-path="url(#clip16)" clip-rule="nonzero">
<path style=" stroke:none;fill-rule:nonzero;fill:rgb(1.568604%,67.83905%,88.238525%);fill-opacity:1;" d="M 358.023438 414.542969 C 352.34375 421.457031 346.515625 428.480469 341.625 434.941406 C 337.164062 440.832031 332.902344 446.953125 329.574219 453.566406 C 329.054688 454.59375 328.542969 455.621094 328.070312 456.667969 C 327.890625 457.066406 327.785156 457.304688 327.722656 457.429688 C 327.679688 457.535156 327.636719 457.652344 327.582031 457.785156 C 326.96875 459.355469 326.382812 460.941406 325.902344 462.558594 C 325.417969 464.1875 324.992188 465.832031 324.617188 467.488281 C 324.417969 468.398438 324.210938 469.308594 324.050781 470.222656 C 324.070312 470.113281 323.742188 472.257812 323.742188 472.058594 C 322.835938 480.007812 323.105469 488.054688 324.121094 495.984375 C 324.117188 495.933594 324.449219 498.253906 324.519531 498.699219 C 324.679688 499.671875 324.835938 500.648438 325.007812 501.617188 C 325.351562 503.542969 325.714844 505.460938 326.117188 507.375 C 326.878906 510.984375 327.855469 514.558594 328.539062 518.183594 C 329.882812 525.304688 331.277344 532.441406 333.265625 539.417969 C 334.28125 542.988281 335.40625 546.539062 336.800781 549.980469 C 336.90625 550.207031 337.472656 551.515625 337.46875 551.511719 C 337.828125 552.273438 338.1875 553.039062 338.578125 553.789062 C 339.300781 555.175781 340.074219 556.527344 340.902344 557.851562 L 501.835938 557.851562 C 453.746094 510.234375 405.878906 462.394531 358.023438 414.542969 "/>
</g>
<g clip-path="url(#clip17)" clip-rule="nonzero">
<path style=" stroke:none;fill-rule:nonzero;fill:rgb(1.568604%,67.83905%,88.238525%);fill-opacity:1;" d="M 393.351562 310.980469 L 393.777344 310.550781 C 393.996094 308.214844 394.15625 305.871094 394.230469 303.523438 C 394.789062 285.648438 392.953125 267.613281 391.472656 249.824219 C 389.996094 232.027344 388.203125 214.210938 387.308594 196.375 C 386.910156 188.382812 386.765625 180.363281 387.046875 172.363281 C 386.796875 172.273438 386.550781 172.167969 386.308594 172.054688 L 320.472656 172.054688 C 318.300781 178.140625 315.558594 184.050781 312.660156 189.789062 C 300.105469 214.65625 282.183594 236.207031 265.210938 258.113281 C 264.976562 258.414062 264.742188 258.714844 264.507812 259.015625 C 264.472656 259.066406 264.308594 259.277344 264.015625 259.660156 C 263.511719 260.3125 263.011719 260.960938 262.511719 261.617188 C 261.515625 262.921875 260.519531 264.230469 259.53125 265.542969 C 257.558594 268.160156 255.601562 270.789062 253.679688 273.449219 C 252.238281 275.445312 250.820312 277.457031 249.414062 279.476562 C 285.554688 315.617188 321.691406 351.753906 357.828125 387.890625 C 359.84375 385.246094 361.882812 382.511719 364.03125 379.53125 C 372.179688 368.226562 379.789062 356.394531 385.316406 343.5625 C 385.351562 343.46875 386.125 341.601562 386.207031 341.386719 C 386.511719 340.609375 386.816406 339.828125 387.101562 339.042969 C 387.683594 337.46875 388.246094 335.886719 388.761719 334.285156 C 389.804688 331.042969 390.742188 327.761719 391.503906 324.4375 C 391.734375 323.433594 391.953125 322.425781 392.164062 321.414062 C 390.167969 318.164062 390.558594 313.769531 393.351562 310.980469 "/>
</g>
<g clip-path="url(#clip18)" clip-rule="nonzero">
<path style=" stroke:none;fill-rule:nonzero;fill:rgb(1.568604%,67.83905%,88.238525%);fill-opacity:1;" d="M 346.492188 400.460938 C 310.992188 364.957031 275.492188 329.460938 239.996094 293.957031 C 237.269531 298.484375 234.6875 303.097656 232.351562 307.832031 C 231.519531 309.511719 230.703125 311.207031 229.929688 312.917969 C 229.601562 313.652344 229.269531 314.386719 228.949219 315.125 C 228.8125 315.433594 228.726562 315.636719 228.667969 315.765625 C 228.632812 315.859375 228.589844 315.957031 228.542969 316.074219 C 228.261719 316.765625 227.980469 317.464844 227.710938 318.164062 L 227.710938 557.851562 L 321.835938 557.851562 C 319.972656 553.609375 318.46875 549.1875 317.210938 544.777344 C 315.214844 537.765625 313.738281 530.628906 312.390625 523.46875 C 310.921875 515.703125 308.847656 508.105469 307.785156 500.253906 C 305.574219 483.910156 305.429688 467.1875 311.933594 451.722656 C 318.050781 437.175781 327.894531 424.839844 337.910156 412.792969 C 340.316406 409.898438 342.742188 407.015625 345.128906 404.101562 C 345.902344 403.15625 346.664062 402.203125 347.429688 401.25 C 347.105469 401.011719 346.785156 400.753906 346.492188 400.460938 "/>
</g>
<g clip-path="url(#clip19)" clip-rule="nonzero">
<path style=" stroke:none;fill-rule:nonzero;fill:rgb(100%,100%,100%);fill-opacity:1;" d="M 764.410156 230.003906 C 757.253906 231.878906 749.96875 233.230469 742.664062 234.3125 C 741.871094 234.414062 741.082031 234.515625 740.289062 234.613281 C 738.523438 234.832031 736.753906 235.027344 734.984375 235.210938 C 731.214844 235.609375 727.433594 235.917969 723.648438 236.179688 C 716.125 236.707031 708.578125 236.894531 701.050781 237.371094 C 667.476562 239.492188 634.066406 244.796875 601.339844 252.773438 C 585.273438 256.691406 569.367188 261.292969 553.601562 266.351562 C 545.878906 268.835938 538.285156 271.148438 530.285156 272.429688 C 529.972656 272.472656 529.6875 272.511719 529.507812 272.535156 C 528.535156 272.648438 527.558594 272.746094 526.582031 272.839844 C 524.632812 273.03125 522.675781 273.164062 520.71875 273.28125 C 516.476562 273.53125 512.222656 273.585938 507.972656 273.5625 C 491.640625 273.46875 475.308594 272.0625 458.984375 271.515625 C 450.480469 271.226562 441.976562 270.878906 433.484375 270.320312 C 429.417969 270.054688 425.355469 269.722656 421.296875 269.335938 C 420.296875 269.242188 419.292969 269.140625 418.292969 269.03125 C 406.675781 266.988281 395.171875 264.34375 383.828125 261.023438 C 376.933594 259.003906 370.117188 256.710938 363.371094 254.214844 C 360.167969 253.023438 356.980469 251.773438 353.8125 250.484375 C 352.226562 249.839844 350.65625 249.179688 349.082031 248.507812 C 349.019531 248.484375 348.945312 248.453125 348.863281 248.414062 C 348.003906 248.039062 347.148438 247.660156 346.292969 247.277344 C 319.070312 235.066406 292.902344 219.53125 268.359375 202.355469 C 262.742188 198.429688 257.253906 194.308594 251.847656 190.085938 C 251.359375 189.707031 250.875 189.320312 250.386719 188.9375 C 250.328125 188.890625 250.269531 188.84375 250.199219 188.789062 C 248.675781 187.566406 247.160156 186.332031 245.648438 185.09375 C 242.859375 182.808594 240.097656 180.492188 237.34375 178.164062 C 234.457031 175.71875 231.628906 174.023438 227.894531 173.800781 L 227.894531 233.785156 C 236.480469 241.117188 245.425781 247.988281 254.914062 254.074219 C 268.582031 262.84375 283.0625 270 297.960938 276.261719 C 315.867188 283.785156 334.488281 289.234375 353.394531 293.3125 C 341.320312 302.195312 331.082031 313.484375 320.929688 324.546875 C 309.710938 336.773438 297.886719 348.394531 285.457031 359.308594 C 282.476562 361.925781 279.449219 364.484375 276.394531 367.007812 C 275.132812 368.054688 273.855469 369.082031 272.578125 370.109375 C 272.246094 370.371094 271.898438 370.648438 271.714844 370.789062 C 270.699219 371.589844 269.671875 372.378906 268.648438 373.164062 C 262.289062 378.042969 255.757812 382.683594 249.105469 387.125 C 242.1875 391.738281 235.105469 396.078125 227.894531 400.179688 L 227.894531 433.878906 C 243.292969 425.964844 258.21875 417.097656 272.46875 407.03125 C 300.09375 387.519531 324.363281 364.242188 347.394531 339.316406 C 352.878906 333.378906 358.488281 327.558594 364.527344 322.21875 C 365.242188 321.585938 365.972656 320.96875 366.699219 320.351562 C 366.878906 320.199219 367.214844 319.929688 367.53125 319.667969 C 368.746094 318.734375 369.980469 317.832031 371.234375 316.949219 C 374.527344 314.636719 378.003906 312.617188 381.605469 310.863281 C 381.683594 310.824219 381.78125 310.777344 381.894531 310.726562 C 382.679688 310.417969 383.472656 310.144531 384.269531 309.867188 C 386.226562 309.195312 388.210938 308.597656 390.199219 308.023438 C 394.621094 306.75 399.117188 305.746094 403.632812 304.871094 C 405.742188 304.460938 407.863281 304.109375 409.988281 303.769531 C 410.472656 303.691406 410.953125 303.625 411.4375 303.554688 C 411.839844 303.503906 413.148438 303.324219 413.566406 303.273438 C 418.09375 302.710938 422.636719 302.3125 427.183594 302 C 436.21875 301.375 445.210938 301.574219 454.226562 302.414062 C 456.398438 302.613281 458.5625 302.863281 460.722656 303.125 C 461.800781 303.253906 462.878906 303.394531 463.957031 303.535156 C 464.070312 303.550781 464.175781 303.5625 464.269531 303.574219 C 464.3125 303.578125 464.347656 303.585938 464.390625 303.59375 C 469.039062 304.253906 473.671875 304.988281 478.308594 305.710938 C 497.011719 308.613281 515.925781 311.464844 534.855469 309.292969 C 553.992188 307.097656 572.484375 300.625 590.8125 294.824219 C 607.953125 289.398438 625.140625 284.042969 642.792969 280.65625 C 644.921875 280.25 647.0625 279.882812 649.203125 279.539062 C 649.738281 279.453125 650.273438 279.375 650.804688 279.296875 C 651.28125 279.234375 652.515625 279.0625 652.902344 279.011719 C 657.667969 278.425781 662.457031 278.058594 667.253906 277.851562 C 676.394531 277.453125 685.5625 277.507812 694.710938 277.191406 C 713.558594 276.53125 732.449219 274.949219 750.957031 271.089844 C 758.398438 269.539062 765.703125 267.476562 772.863281 264.964844 L 772.863281 227.550781 C 770.074219 228.457031 767.25 229.257812 764.410156 230.003906 "/>
</g>
</g>
</svg>
