<?xml version="1.0" encoding="UTF-8"?>
<svg xmlns="http://www.w3.org/2000/svg" xmlns:xlink="http://www.w3.org/1999/xlink" width="750pt" height="749.999995pt" viewBox="0 0 750 749.999995" version="1.2">
<defs>
<clipPath id="clip1">
  <path d="M 198.683594 183 L 569.183594 183 L 569.183594 544 L 198.683594 544 Z M 198.683594 183 "/>
</clipPath>
<clipPath id="clip2">
  <path d="M 222.171875 206 L 545.421875 206 L 545.421875 521 L 222.171875 521 Z M 222.171875 206 "/>
</clipPath>
<clipPath id="clip3">
  <path d="M 252.761719 221.332031 L 302 221.332031 L 302 281 L 252.761719 281 Z M 252.761719 221.332031 "/>
</clipPath>
<clipPath id="clip4">
  <path d="M 506 226 L 530.261719 226 L 530.261719 399 L 506 399 Z M 506 226 "/>
</clipPath>
<clipPath id="clip5">
  <path d="M 510 415 L 530.261719 415 L 530.261719 504.082031 L 510 504.082031 Z M 510 415 "/>
</clipPath>
<clipPath id="clip6">
  <path d="M 396 221.332031 L 490 221.332031 L 490 292 L 396 292 Z M 396 221.332031 "/>
</clipPath>
<clipPath id="clip7">
  <path d="M 361 229 L 506 229 L 506 504.082031 L 361 504.082031 Z M 361 229 "/>
</clipPath>
<clipPath id="clip8">
  <path d="M 316 412 L 494 412 L 494 504.082031 L 316 504.082031 Z M 316 412 "/>
</clipPath>
<clipPath id="clip9">
  <path d="M 252.761719 221.332031 L 387 221.332031 L 387 386 L 252.761719 386 Z M 252.761719 221.332031 "/>
</clipPath>
<clipPath id="clip10">
  <path d="M 252.761719 292 L 341 292 L 341 504.082031 L 252.761719 504.082031 Z M 252.761719 292 "/>
</clipPath>
<clipPath id="clip11">
  <path d="M 252.761719 221.332031 L 530.261719 221.332031 L 530.261719 432 L 252.761719 432 Z M 252.761719 221.332031 "/>
</clipPath>
<clipPath id="clip12">
  <path d="M 465 221.332031 L 530.261719 221.332031 L 530.261719 504.082031 L 465 504.082031 Z M 465 221.332031 "/>
</clipPath>
<clipPath id="clip13">
  <path d="M 243.601562 221.710938 L 302 221.710938 L 302 281 L 243.601562 281 Z M 243.601562 221.710938 "/>
</clipPath>
<clipPath id="clip14">
  <path d="M 396 221.710938 L 398.101562 221.710938 L 398.101562 293 L 396 293 Z M 396 221.710938 "/>
</clipPath>
<clipPath id="clip15">
  <path d="M 361 230 L 398.101562 230 L 398.101562 511.960938 L 361 511.960938 Z M 361 230 "/>
</clipPath>
<clipPath id="clip16">
  <path d="M 316 412 L 398.101562 412 L 398.101562 511.960938 L 316 511.960938 Z M 316 412 "/>
</clipPath>
<clipPath id="clip17">
  <path d="M 243.601562 221.710938 L 387 221.710938 L 387 387 L 243.601562 387 Z M 243.601562 221.710938 "/>
</clipPath>
<clipPath id="clip18">
  <path d="M 243.601562 292 L 341 292 L 341 511.960938 L 243.601562 511.960938 Z M 243.601562 292 "/>
</clipPath>
<clipPath id="clip19">
  <path d="M 243.601562 221.710938 L 398.101562 221.710938 L 398.101562 433 L 243.601562 433 Z M 243.601562 221.710938 "/>
</clipPath>
<clipPath id="clip20">
  <path d="M 397 281.082031 L 491 281.082031 L 491 293 L 397 293 Z M 397 281.082031 "/>
</clipPath>
<clipPath id="clip21">
  <path d="M 383.929688 281.082031 L 503.179688 281.082031 L 503.179688 511.332031 L 383.929688 511.332031 Z M 383.929688 281.082031 "/>
</clipPath>
<clipPath id="clip22">
  <path d="M 383.929688 413 L 495 413 L 495 511.332031 L 383.929688 511.332031 Z M 383.929688 413 "/>
</clipPath>
<clipPath id="clip23">
  <path d="M 383.929688 281.082031 L 388 281.082031 L 388 388 L 383.929688 388 Z M 383.929688 281.082031 "/>
</clipPath>
<clipPath id="clip24">
  <path d="M 383.929688 281.082031 L 503.179688 281.082031 L 503.179688 433 L 383.929688 433 Z M 383.929688 281.082031 "/>
</clipPath>
<clipPath id="clip25">
  <path d="M 466 281.082031 L 503.179688 281.082031 L 503.179688 511.332031 L 466 511.332031 Z M 466 281.082031 "/>
</clipPath>
</defs>
<g id="surface1">
<rect x="0" y="0" width="750" height="749.999995" style="fill:rgb(100%,100%,100%);fill-opacity:1;stroke:none;"/>
<rect x="0" y="0" width="750" height="749.999995" style="fill:rgb(100%,100%,100%);fill-opacity:1;stroke:none;"/>
<path style=" stroke:none;fill-rule:nonzero;fill:rgb(78.039551%,81.568909%,84.709167%);fill-opacity:1;" d="M 149.425781 720.421875 C 109.277344 720.421875 76.691406 685.5 76.691406 648.25 L 76.691406 84.640625 C 76.691406 74.164062 79.015625 63.6875 83.089844 54.375 C 70.289062 66.597656 62.722656 83.476562 62.722656 101.835938 L 62.722656 665.710938 C 62.722656 702.378906 92.984375 732.644531 129.644531 732.644531 L 609.378906 732.644531 C 626.257812 732.644531 641.386719 726.242188 653.023438 716.347656 C 645.457031 719.257812 637.3125 720.421875 629.164062 720.421875 Z M 149.425781 720.421875 "/>
<path style=" stroke:none;fill-rule:nonzero;fill:rgb(96.078491%,96.469116%,96.859741%);fill-opacity:1;" d="M 82.507812 84.640625 L 82.507812 647.085938 C 82.507812 683.753906 112.769531 714.019531 149.425781 714.019531 L 629.164062 714.019531 C 665.824219 714.019531 696.085938 683.753906 696.085938 647.085938 L 696.085938 84.640625 C 696.085938 47.972656 665.824219 17.707031 629.164062 17.707031 L 149.425781 17.707031 C 112.1875 17.707031 82.507812 47.972656 82.507812 84.640625 Z M 82.507812 84.640625 "/>
<path style=" stroke:none;fill-rule:nonzero;fill:rgb(65.098572%,65.098572%,65.098572%);fill-opacity:1;" d="M 667.570312 708.78125 C 687.9375 695.976562 701.902344 673.277344 701.902344 647.085938 L 701.902344 84.640625 C 701.902344 44.480469 669.316406 11.882812 629.164062 11.882812 L 149.425781 11.882812 C 125.570312 11.882812 104.621094 23.527344 91.238281 40.988281 C 70.871094 53.792969 56.90625 76.492188 56.90625 102.375 L 56.90625 665.128906 C 56.90625 705.289062 89.492188 737.882812 129.644531 737.882812 L 609.378906 737.882812 C 633.238281 737.882812 654.1875 726.242188 667.570312 708.78125 Z M 149.425781 17.707031 L 629.164062 17.707031 C 665.824219 17.707031 696.085938 47.972656 696.085938 84.640625 L 696.085938 647.085938 C 696.085938 683.753906 665.824219 714.019531 629.164062 714.019531 L 149.425781 714.019531 C 112.769531 714.019531 82.507812 683.753906 82.507812 647.085938 L 82.507812 84.640625 C 82.507812 47.972656 112.1875 17.707031 149.425781 17.707031 Z M 129.644531 732.644531 C 92.984375 732.644531 62.722656 701.796875 62.722656 665.128906 L 62.722656 102.375 C 62.722656 84.058594 70.289062 67.179688 83.089844 54.957031 C 79.015625 64.269531 76.691406 74.164062 76.691406 85.222656 L 76.691406 647.667969 C 76.691406 687.828125 109.277344 720.421875 149.425781 720.421875 L 629.164062 720.421875 C 637.3125 720.421875 645.457031 718.675781 653.023438 716.347656 C 641.386719 726.242188 626.257812 732.644531 609.378906 732.644531 Z M 129.644531 732.644531 "/>
<g clip-path="url(#clip1)" clip-rule="nonzero">
<path style=" stroke:none;fill-rule:nonzero;fill:rgb(1.568604%,67.83905%,88.238525%);fill-opacity:1;" d="M 198.683594 537.699219 C 198.683594 540.960938 201.351562 543.628906 204.609375 543.628906 C 204.609375 543.628906 204.683594 543.628906 204.683594 543.628906 C 229.582031 543.332031 327.617188 542.148438 417.277344 543.703125 C 521.015625 545.558594 569.183594 534.4375 569.183594 534.4375 L 569.183594 195.222656 C 569.183594 195.222656 465.441406 180.394531 385.785156 184.101562 C 306.128906 187.808594 248.699219 184.101562 224.617188 197.074219 C 200.535156 210.050781 202.386719 367.609375 200.535156 413.949219 C 198.980469 452.800781 198.757812 517.679688 198.683594 537.699219 Z M 198.683594 537.699219 "/>
</g>
<g clip-path="url(#clip2)" clip-rule="nonzero">
<path style=" stroke:none;fill-rule:nonzero;fill:rgb(100%,100%,100%);fill-opacity:1;" d="M 222.171875 515.328125 C 222.171875 518.175781 224.5 520.503906 227.34375 520.503906 C 227.34375 520.503906 227.410156 520.503906 227.410156 520.503906 C 249.132812 520.246094 334.664062 519.210938 412.890625 520.570312 C 503.402344 522.1875 545.421875 512.480469 545.421875 512.480469 L 545.421875 216.371094 C 545.421875 216.371094 454.914062 203.425781 385.414062 206.664062 C 315.914062 209.898438 265.8125 206.664062 244.800781 217.992188 C 223.789062 229.316406 225.40625 366.851562 223.789062 407.304688 C 222.433594 441.21875 222.238281 497.851562 222.171875 515.328125 Z M 222.171875 515.328125 "/>
</g>
<g clip-path="url(#clip3)" clip-rule="nonzero">
<path style=" stroke:none;fill-rule:nonzero;fill:rgb(100%,88.238525%,0%);fill-opacity:1;" d="M 299.550781 114.398438 C 299.417969 107.898438 299.3125 101.402344 299.21875 94.90625 L 221.257812 94.90625 L 221.257812 280.304688 C 226.691406 271.597656 232.667969 263.199219 238.878906 255 C 242.9375 249.640625 247.0625 244.332031 251.199219 239.035156 C 255.019531 234.148438 258.402344 229.828125 261.453125 225.835938 C 268.707031 216.335938 275.792969 206.675781 282.09375 196.507812 C 285.644531 190.785156 288.992188 184.921875 291.945312 178.863281 C 292.773438 177.171875 293.582031 175.464844 294.351562 173.742188 C 294.625 173.136719 294.890625 172.527344 295.15625 171.914062 C 295.300781 171.566406 295.710938 170.589844 295.730469 170.539062 C 296.949219 167.515625 298.054688 164.457031 299.097656 161.371094 C 301.613281 153.941406 301.578125 146.996094 300.972656 138.71875 C 300.378906 130.59375 299.722656 122.546875 299.550781 114.398438 "/>
</g>
<g clip-path="url(#clip4)" clip-rule="nonzero">
<path style=" stroke:none;fill-rule:nonzero;fill:rgb(100%,88.238525%,0%);fill-opacity:1;" d="M 509.199219 304.433594 C 509.664062 322.5 509.738281 340.578125 509.789062 358.652344 C 509.828125 371.882812 509.851562 385.125 510.011719 398.363281 L 641.503906 398.363281 C 634.964844 384.996094 627.621094 371.886719 624.453125 357.234375 C 622.660156 348.96875 621.492188 340.585938 619.796875 332.304688 C 618.074219 323.886719 615.167969 315.839844 613.222656 307.488281 C 607.042969 280.984375 607.316406 253.457031 608.433594 226.234375 L 506.03125 226.234375 C 506.199219 233.992188 506.441406 241.742188 506.730469 249.484375 C 507.425781 267.808594 508.726562 286.105469 509.199219 304.433594 "/>
</g>
<g clip-path="url(#clip5)" clip-rule="nonzero">
<path style=" stroke:none;fill-rule:nonzero;fill:rgb(100%,88.238525%,0%);fill-opacity:1;" d="M 659.675781 441.515625 C 657.386719 434.964844 654.863281 428.957031 652.191406 422.816406 C 651.089844 420.28125 650.027344 417.714844 648.972656 415.175781 L 510.304688 415.175781 C 510.710938 432.667969 511.46875 450.148438 512.957031 467.585938 C 514.417969 484.78125 516.597656 500.277344 518.824219 517.46875 C 519.703125 524.25 520.929688 532.738281 522.484375 540.324219 C 523.484375 545.214844 524.648438 550.066406 526.074219 554.835938 L 655.945312 554.835938 C 654.808594 542.582031 656.128906 530.285156 657.910156 518.132812 C 659.851562 504.890625 662.46875 492.207031 663.476562 479.636719 C 664.582031 465.941406 664.117188 454.210938 659.675781 441.515625 "/>
</g>
<g clip-path="url(#clip6)" clip-rule="nonzero">
<path style=" stroke:none;fill-rule:nonzero;fill:rgb(100%,88.238525%,0%);fill-opacity:1;" d="M 402.71875 271.898438 C 403.140625 278.492188 403.511719 285.09375 403.621094 291.6875 C 430.503906 264.804688 457.386719 237.921875 484.269531 211.039062 C 485.59375 209.714844 487.28125 208.941406 489.035156 208.699219 C 488.976562 194.171875 489.222656 179.644531 489.929688 165.136719 C 489.945312 164.882812 489.960938 164.632812 489.972656 164.382812 L 396.886719 164.382812 C 396.847656 164.875 396.808594 165.371094 396.777344 165.867188 C 395.691406 183.511719 396.984375 201.15625 398.480469 218.738281 C 399.992188 236.441406 401.59375 254.160156 402.71875 271.898438 "/>
</g>
<g clip-path="url(#clip7)" clip-rule="nonzero">
<path style=" stroke:none;fill-rule:nonzero;fill:rgb(100%,88.238525%,0%);fill-opacity:1;" d="M 382.210938 419.898438 C 423.347656 461.023438 464.527344 502.109375 505.859375 543.035156 C 503.460938 530.800781 502.117188 518.3125 500.582031 506.027344 C 499.308594 495.882812 497.773438 485.246094 496.722656 474.0625 C 495.640625 462.527344 494.863281 450.964844 494.335938 439.390625 C 492.675781 403.074219 493.191406 366.714844 492.832031 330.375 C 492.503906 296.796875 490.136719 263.308594 489.328125 229.753906 C 460.316406 258.761719 431.304688 287.773438 402.296875 316.78125 C 402.007812 318.84375 401.664062 320.902344 401.257812 322.953125 C 395.59375 351.617188 379.375 375.910156 361.824219 398.660156 C 361.703125 398.820312 361.574219 398.980469 361.449219 399.140625 C 368.371094 406.0625 375.292969 412.980469 382.210938 419.898438 "/>
</g>
<g clip-path="url(#clip8)" clip-rule="nonzero">
<path style=" stroke:none;fill-rule:nonzero;fill:rgb(1.568604%,67.83905%,88.238525%);fill-opacity:1;" d="M 350.851562 412.3125 C 345.207031 419.191406 339.410156 426.179688 334.546875 432.601562 C 330.109375 438.460938 325.871094 444.546875 322.558594 451.125 C 322.046875 452.144531 321.535156 453.167969 321.066406 454.210938 C 320.890625 454.605469 320.78125 454.84375 320.71875 454.96875 C 320.679688 455.070312 320.632812 455.1875 320.582031 455.320312 C 319.972656 456.882812 319.386719 458.457031 318.910156 460.066406 C 318.425781 461.6875 318.003906 463.320312 317.632812 464.96875 C 317.433594 465.875 317.226562 466.777344 317.066406 467.691406 C 317.089844 467.582031 316.761719 469.714844 316.761719 469.511719 C 315.859375 477.421875 316.128906 485.421875 317.136719 493.308594 C 317.136719 493.261719 317.464844 495.566406 317.535156 496.007812 C 317.691406 496.976562 317.847656 497.945312 318.019531 498.910156 C 318.363281 500.824219 318.722656 502.734375 319.125 504.636719 C 319.878906 508.226562 320.851562 511.78125 321.53125 515.382812 C 322.867188 522.46875 324.253906 529.566406 326.230469 536.503906 C 327.242188 540.054688 328.359375 543.585938 329.75 547.007812 C 329.855469 547.234375 330.417969 548.535156 330.414062 548.53125 C 330.769531 549.289062 331.128906 550.046875 331.515625 550.792969 C 332.234375 552.171875 333.003906 553.519531 333.828125 554.835938 L 493.878906 554.835938 C 446.050781 507.480469 398.445312 459.90625 350.851562 412.3125 "/>
</g>
<g clip-path="url(#clip9)" clip-rule="nonzero">
<path style=" stroke:none;fill-rule:nonzero;fill:rgb(100%,88.238525%,0%);fill-opacity:1;" d="M 385.984375 309.320312 L 386.410156 308.898438 C 386.628906 306.570312 386.789062 304.242188 386.859375 301.90625 C 387.417969 284.132812 385.59375 266.195312 384.121094 248.503906 C 382.648438 230.804688 380.867188 213.085938 379.980469 195.347656 C 379.582031 187.402344 379.4375 179.421875 379.71875 171.464844 C 379.46875 171.378906 379.226562 171.277344 378.984375 171.160156 L 313.507812 171.160156 C 311.347656 177.214844 308.621094 183.089844 305.742188 188.796875 C 293.253906 213.527344 275.433594 234.960938 258.550781 256.746094 C 258.320312 257.042969 258.085938 257.34375 257.855469 257.644531 C 257.816406 257.695312 257.652344 257.90625 257.363281 258.285156 C 256.863281 258.933594 256.363281 259.578125 255.867188 260.230469 C 254.875 261.527344 253.886719 262.828125 252.902344 264.132812 C 250.941406 266.738281 248.992188 269.351562 247.085938 271.996094 C 245.652344 273.980469 244.242188 275.984375 242.84375 277.992188 C 278.785156 313.933594 314.722656 349.871094 350.660156 385.808594 C 352.664062 383.179688 354.691406 380.460938 356.828125 377.496094 C 364.933594 366.253906 372.5 354.488281 378 341.726562 C 378.03125 341.632812 378.800781 339.773438 378.882812 339.5625 C 379.183594 338.789062 379.488281 338.011719 379.773438 337.230469 C 380.351562 335.664062 380.910156 334.089844 381.421875 332.5 C 382.460938 329.273438 383.394531 326.011719 384.148438 322.707031 C 384.378906 321.707031 384.597656 320.703125 384.804688 319.699219 C 382.820312 316.464844 383.210938 312.097656 385.984375 309.320312 "/>
</g>
<g clip-path="url(#clip10)" clip-rule="nonzero">
<path style=" stroke:none;fill-rule:nonzero;fill:rgb(100%,88.238525%,0%);fill-opacity:1;" d="M 339.386719 398.308594 C 304.082031 363.003906 268.777344 327.699219 233.472656 292.394531 C 230.761719 296.894531 228.195312 301.480469 225.871094 306.191406 C 225.046875 307.863281 224.234375 309.546875 223.464844 311.25 C 223.136719 311.980469 222.808594 312.710938 222.488281 313.441406 C 222.355469 313.75 222.265625 313.953125 222.210938 314.082031 C 222.171875 314.171875 222.132812 314.269531 222.085938 314.386719 C 221.804688 315.078125 221.527344 315.769531 221.257812 316.464844 L 221.257812 554.835938 L 314.867188 554.835938 C 313.011719 550.617188 311.515625 546.21875 310.265625 541.832031 C 308.28125 534.859375 306.8125 527.761719 305.46875 520.640625 C 304.011719 512.921875 301.949219 505.363281 300.894531 497.554688 C 298.695312 481.300781 298.550781 464.667969 305.015625 449.289062 C 311.101562 434.820312 320.890625 422.554688 330.851562 410.574219 C 333.242188 407.695312 335.65625 404.828125 338.027344 401.929688 C 338.796875 400.992188 339.558594 400.042969 340.320312 399.097656 C 339.996094 398.859375 339.679688 398.601562 339.386719 398.308594 "/>
</g>
<g clip-path="url(#clip11)" clip-rule="nonzero">
<path style=" stroke:none;fill-rule:nonzero;fill:rgb(100%,100%,100%);fill-opacity:1;" d="M 755.007812 228.789062 C 747.890625 230.65625 740.644531 232 733.378906 233.074219 C 732.589844 233.179688 731.804688 233.277344 731.019531 233.375 C 729.261719 233.59375 727.503906 233.785156 725.742188 233.972656 C 721.992188 234.367188 718.230469 234.671875 714.46875 234.933594 C 706.984375 235.457031 699.480469 235.644531 691.996094 236.117188 C 658.605469 238.226562 625.375 243.503906 592.832031 251.4375 C 576.855469 255.332031 561.035156 259.910156 545.355469 264.941406 C 537.675781 267.410156 530.125 269.710938 522.167969 270.984375 C 521.859375 271.027344 521.570312 271.066406 521.394531 271.089844 C 520.425781 271.203125 519.457031 271.296875 518.484375 271.394531 C 516.546875 271.582031 514.601562 271.714844 512.65625 271.828125 C 508.433594 272.078125 504.203125 272.132812 499.976562 272.109375 C 483.734375 272.019531 467.496094 270.621094 451.257812 270.074219 C 442.800781 269.789062 434.347656 269.441406 425.902344 268.886719 C 421.855469 268.621094 417.816406 268.292969 413.78125 267.910156 C 412.785156 267.8125 411.789062 267.710938 410.792969 267.605469 C 399.238281 265.574219 387.800781 262.941406 376.519531 259.640625 C 369.660156 257.632812 362.882812 255.351562 356.171875 252.867188 C 352.984375 251.6875 349.820312 250.441406 346.667969 249.160156 C 345.089844 248.519531 343.527344 247.859375 341.960938 247.195312 C 341.898438 247.167969 341.824219 247.136719 341.742188 247.101562 C 340.890625 246.726562 340.039062 246.351562 339.1875 245.96875 C 312.117188 233.824219 286.089844 218.375 261.683594 201.296875 C 256.097656 197.390625 250.640625 193.292969 245.261719 189.09375 C 244.777344 188.714844 244.292969 188.332031 243.8125 187.953125 C 243.75 187.90625 243.691406 187.859375 243.625 187.804688 C 242.109375 186.589844 240.601562 185.359375 239.097656 184.125 C 236.324219 181.855469 233.574219 179.554688 230.839844 177.238281 C 227.96875 174.804688 225.152344 173.117188 221.441406 172.898438 L 221.441406 232.550781 C 229.980469 239.84375 238.878906 246.679688 248.3125 252.730469 C 261.902344 261.449219 276.304688 268.570312 291.121094 274.792969 C 308.933594 282.277344 327.445312 287.695312 346.25 291.753906 C 334.242188 300.585938 324.058594 311.8125 313.964844 322.816406 C 302.808594 334.972656 291.050781 346.53125 278.6875 357.382812 C 275.722656 359.988281 272.714844 362.535156 269.671875 365.042969 C 268.417969 366.082031 267.148438 367.105469 265.878906 368.125 C 265.550781 368.386719 265.203125 368.660156 265.023438 368.804688 C 264.007812 369.597656 262.988281 370.382812 261.96875 371.164062 C 255.644531 376.015625 249.152344 380.632812 242.535156 385.050781 C 235.65625 389.636719 228.613281 393.953125 221.441406 398.03125 L 221.441406 431.542969 C 236.753906 423.675781 251.597656 414.855469 265.769531 404.847656 C 293.246094 385.4375 317.378906 362.289062 340.28125 337.503906 C 345.738281 331.601562 351.316406 325.8125 357.324219 320.5 C 358.035156 319.871094 358.757812 319.257812 359.480469 318.644531 C 359.660156 318.492188 359.996094 318.222656 360.308594 317.964844 C 361.519531 317.035156 362.746094 316.136719 363.992188 315.261719 C 367.265625 312.960938 370.722656 310.953125 374.308594 309.207031 C 374.382812 309.167969 374.484375 309.121094 374.59375 309.070312 C 375.375 308.765625 376.164062 308.492188 376.953125 308.21875 C 378.902344 307.546875 380.875 306.953125 382.851562 306.382812 C 387.25 305.113281 391.722656 304.117188 396.210938 303.246094 C 398.3125 302.839844 400.421875 302.488281 402.535156 302.152344 C 403.015625 302.074219 403.492188 302.007812 403.972656 301.9375 C 404.375 301.886719 405.675781 301.707031 406.089844 301.65625 C 410.59375 301.101562 415.113281 300.703125 419.636719 300.390625 C 428.621094 299.769531 437.5625 299.96875 446.53125 300.804688 C 448.6875 301.003906 450.839844 301.25 452.988281 301.507812 C 454.0625 301.636719 455.132812 301.777344 456.207031 301.917969 C 456.316406 301.933594 456.421875 301.945312 456.515625 301.957031 C 456.558594 301.960938 456.59375 301.96875 456.636719 301.976562 C 461.257812 302.632812 465.867188 303.363281 470.476562 304.082031 C 489.078125 306.96875 507.886719 309.804688 526.710938 307.644531 C 545.746094 305.460938 564.136719 299.023438 582.363281 293.257812 C 599.410156 287.859375 616.5 282.53125 634.054688 279.167969 C 636.171875 278.761719 638.300781 278.398438 640.429688 278.050781 C 640.960938 277.96875 641.496094 277.890625 642.027344 277.8125 C 642.5 277.75 643.726562 277.582031 644.113281 277.53125 C 648.851562 276.945312 653.613281 276.582031 658.382812 276.375 C 667.472656 275.980469 676.59375 276.035156 685.6875 275.71875 C 704.433594 275.0625 723.21875 273.488281 741.625 269.652344 C 749.027344 268.109375 756.292969 266.058594 763.410156 263.558594 L 763.410156 226.351562 C 760.636719 227.253906 757.828125 228.050781 755.007812 228.789062 "/>
</g>
<g clip-path="url(#clip12)" clip-rule="nonzero">
<path style=" stroke:none;fill-rule:nonzero;fill:rgb(100%,100%,100%);fill-opacity:1;" d="M 760.726562 331.257812 C 749.121094 325.789062 737.589844 320.214844 725.753906 315.25 C 714.710938 310.621094 703.382812 306.664062 691.625 304.253906 C 685.171875 302.933594 678.628906 302.300781 672.097656 301.5 C 671.992188 301.484375 671.867188 301.46875 671.734375 301.453125 C 671.539062 301.421875 671.339844 301.398438 671.144531 301.371094 C 670.015625 301.207031 668.886719 301.035156 667.761719 300.851562 C 665.445312 300.480469 663.132812 300.046875 660.835938 299.566406 C 656.796875 298.71875 652.808594 297.65625 648.90625 296.320312 C 648.03125 296.019531 647.164062 295.699219 646.296875 295.367188 C 646.140625 295.308594 645.980469 295.242188 645.824219 295.179688 C 644.199219 294.457031 642.605469 293.660156 641.046875 292.808594 C 639.53125 291.976562 638.066406 291.0625 636.632812 290.101562 C 636.152344 289.777344 635.6875 289.445312 635.21875 289.105469 C 634.886719 288.839844 634.558594 288.566406 634.230469 288.292969 C 631.425781 285.925781 628.894531 283.253906 626.570312 280.421875 C 626.496094 280.320312 626.421875 280.226562 626.347656 280.128906 C 625.777344 279.355469 625.226562 278.566406 624.683594 277.773438 C 623.449219 275.972656 622.304688 274.113281 621.207031 272.230469 C 618.863281 268.195312 616.824219 263.992188 614.9375 259.726562 C 614.847656 259.523438 614.757812 259.3125 614.667969 259.105469 C 614.585938 258.910156 614.503906 258.710938 614.441406 258.570312 C 613.5625 256.445312 612.667969 254.328125 611.757812 252.21875 C 610.429688 249.144531 609.003906 246.117188 607.527344 243.117188 C 604.667969 237.324219 601.515625 231.679688 598.191406 226.136719 C 591.53125 215.023438 584.054688 204.40625 576.285156 194.035156 C 568.976562 184.269531 561.492188 174.632812 553.496094 165.414062 C 550.175781 161.589844 546.808594 157.808594 543.496094 153.980469 C 541.929688 152.175781 540.382812 150.355469 538.851562 148.519531 C 538.09375 147.609375 537.347656 146.691406 536.601562 145.769531 C 536.230469 145.3125 535.863281 144.851562 535.496094 144.390625 C 535.472656 144.359375 535.449219 144.332031 535.425781 144.300781 C 532.539062 140.535156 529.835938 136.632812 527.402344 132.558594 C 526.234375 130.609375 525.15625 128.605469 524.144531 126.570312 C 523.726562 125.730469 523.335938 124.878906 522.953125 124.023438 C 522.691406 123.375 522.445312 122.726562 522.207031 122.074219 C 520.800781 118.269531 519.789062 114.332031 519.113281 110.339844 C 519.101562 110.269531 519.09375 110.195312 519.082031 110.125 C 519.074219 110.046875 519.0625 109.96875 519.054688 109.902344 C 518.921875 108.6875 518.835938 107.464844 518.769531 106.246094 C 518.644531 103.921875 518.671875 101.589844 518.785156 99.261719 C 518.839844 98.160156 518.933594 97.058594 519.035156 95.960938 C 519.074219 95.585938 519.113281 95.210938 519.160156 94.839844 C 519.628906 91.773438 520.078125 88.707031 520.511719 85.636719 C 521.484375 78.777344 522.382812 71.902344 523.21875 65.019531 C 525.269531 48.113281 526.90625 31.164062 528.558594 14.214844 L 504.945312 14.214844 C 502.90625 35.011719 500.898438 55.804688 498.144531 76.523438 C 498.128906 76.628906 498.109375 76.75 498.09375 76.894531 C 497.976562 77.730469 497.859375 78.566406 497.742188 79.402344 C 497.507812 81.074219 497.265625 82.75 497.019531 84.421875 C 496.421875 88.484375 495.746094 92.539062 495.363281 96.628906 C 494.785156 102.742188 495.230469 108.746094 496.082031 114.808594 C 497.523438 125.09375 501.511719 134.953125 506.722656 143.910156 C 517.152344 161.832031 532.609375 176.300781 545.511719 192.386719 C 546.320312 193.390625 547.109375 194.410156 547.902344 195.421875 C 548.089844 195.660156 548.277344 195.898438 548.460938 196.140625 C 548.691406 196.4375 549.164062 197.042969 549.347656 197.285156 C 551.394531 199.929688 553.421875 202.585938 555.433594 205.253906 C 559.324219 210.429688 563.125 215.671875 566.808594 220.992188 C 574.175781 231.648438 580.980469 242.699219 586.792969 254.269531 C 588.179688 257.027344 589.492188 259.824219 590.75 262.644531 C 590.894531 262.972656 591.035156 263.300781 591.175781 263.628906 C 591.335938 264.003906 591.570312 264.558594 591.675781 264.808594 C 592.527344 266.886719 593.414062 268.953125 594.308594 271.019531 C 596.171875 275.320312 598.242188 279.539062 600.558594 283.617188 C 602.761719 287.492188 605.253906 291.277344 608.03125 294.835938 C 607.226562 295.117188 606.441406 295.46875 605.679688 295.898438 C 579.746094 310.546875 557.03125 330.15625 533.585938 348.304688 C 533.289062 348.535156 532.988281 348.769531 532.6875 349 C 532.574219 349.082031 532.402344 349.210938 532.152344 349.402344 C 530.761719 350.449219 529.355469 351.472656 527.9375 352.488281 C 525.300781 354.382812 522.613281 356.222656 519.917969 358.042969 C 514.398438 361.769531 508.804688 365.378906 503.25 369.046875 C 491.457031 376.847656 479.738281 385 469.367188 394.628906 C 464.644531 399.015625 463.742188 406.839844 467.078125 412.273438 C 483.277344 438.648438 503.640625 462.257812 524.390625 485.167969 C 534.550781 496.386719 544.851562 507.484375 554.90625 518.800781 C 559.90625 524.433594 564.835938 530.128906 569.664062 535.910156 C 571.96875 538.671875 574.238281 541.464844 576.484375 544.277344 C 576.855469 544.738281 578.128906 546.359375 578.761719 547.167969 C 579.808594 548.523438 580.847656 549.886719 581.875 551.253906 C 582.765625 552.441406 583.640625 553.636719 584.511719 554.835938 L 615.960938 554.835938 C 616.390625 551.769531 615.84375 548.613281 613.988281 545.96875 C 596.171875 520.535156 575.214844 497.554688 554.289062 474.65625 C 544.089844 463.496094 533.917969 452.308594 524.144531 440.773438 C 521.808594 438.023438 519.507812 435.242188 517.230469 432.445312 C 516.09375 431.050781 514.964844 429.644531 513.84375 428.238281 C 513.3125 427.5625 512.78125 426.886719 512.246094 426.210938 C 512.070312 425.980469 511.890625 425.746094 511.710938 425.515625 C 507.242188 419.703125 502.957031 413.753906 498.863281 407.675781 C 499.292969 407.335938 499.722656 406.992188 500.15625 406.65625 C 500.863281 406.121094 501.574219 405.59375 502.289062 405.066406 C 507.667969 401.097656 513.222656 397.371094 518.804688 393.683594 C 530.605469 385.882812 542.316406 378.132812 553.523438 369.496094 C 559.039062 365.246094 564.5 360.921875 569.96875 356.613281 C 572.847656 354.34375 575.726562 352.082031 578.613281 349.828125 C 579.925781 348.808594 581.238281 347.789062 582.554688 346.773438 C 582.59375 346.746094 582.621094 346.722656 582.652344 346.695312 C 582.683594 346.671875 582.714844 346.648438 582.75 346.625 C 583.539062 346.019531 584.332031 345.417969 585.121094 344.820312 C 596.4375 336.242188 608.082031 328.035156 620.46875 321.039062 C 624.027344 319.03125 626.367188 315.617188 627.265625 311.859375 C 638.457031 318.488281 651.277344 321.980469 664.292969 323.910156 C 667.289062 324.351562 670.292969 324.742188 673.300781 325.105469 C 674.320312 325.226562 675.339844 325.34375 676.359375 325.453125 C 677.054688 325.527344 677.75 325.601562 678.441406 325.679688 C 678.484375 325.6875 678.515625 325.691406 678.554688 325.695312 C 683.917969 326.464844 689.21875 327.628906 694.449219 329.042969 C 699.761719 330.476562 704.980469 332.230469 710.132812 334.152344 C 712.601562 335.070312 715.050781 336.046875 717.484375 337.046875 C 717.539062 337.070312 717.609375 337.097656 717.683594 337.128906 C 718.222656 337.359375 718.765625 337.589844 719.304688 337.824219 C 720.628906 338.394531 721.949219 338.972656 723.265625 339.558594 C 736.742188 345.546875 749.925781 352.214844 763.414062 358.164062 L 763.414062 332.519531 C 762.515625 332.097656 761.621094 331.679688 760.726562 331.257812 "/>
</g>
<g clip-path="url(#clip13)" clip-rule="nonzero">
<path style=" stroke:none;fill-rule:nonzero;fill:rgb(1.568604%,67.83905%,88.238525%);fill-opacity:1;" d="M 299.550781 114.890625 C 299.417969 108.394531 299.3125 101.898438 299.21875 95.402344 L 221.257812 95.402344 L 221.257812 280.796875 C 226.691406 272.089844 232.667969 263.695312 238.878906 255.492188 C 242.9375 250.132812 247.0625 244.828125 251.199219 239.53125 C 255.019531 234.640625 258.402344 230.324219 261.453125 226.328125 C 268.707031 216.828125 275.792969 207.167969 282.09375 197.003906 C 285.644531 191.277344 288.992188 185.417969 291.945312 179.359375 C 292.773438 177.664062 293.582031 175.960938 294.351562 174.238281 C 294.625 173.628906 294.890625 173.019531 295.15625 172.40625 C 295.300781 172.058594 295.710938 171.082031 295.730469 171.03125 C 296.949219 168.007812 298.054688 164.953125 299.097656 161.863281 C 301.613281 154.433594 301.578125 147.492188 300.972656 139.210938 C 300.378906 131.085938 299.722656 123.042969 299.550781 114.890625 "/>
</g>
<g clip-path="url(#clip14)" clip-rule="nonzero">
<path style=" stroke:none;fill-rule:nonzero;fill:rgb(1.568604%,67.83905%,88.238525%);fill-opacity:1;" d="M 402.71875 272.390625 C 403.140625 278.988281 403.511719 285.589844 403.621094 292.179688 C 430.503906 265.300781 457.386719 238.417969 484.269531 211.53125 C 485.59375 210.207031 487.28125 209.433594 489.035156 209.195312 C 488.976562 194.667969 489.222656 180.140625 489.929688 165.628906 C 489.945312 165.378906 489.960938 165.128906 489.972656 164.878906 L 396.886719 164.878906 C 396.847656 165.371094 396.808594 165.867188 396.777344 166.359375 C 395.691406 184.003906 396.984375 201.652344 398.480469 219.230469 C 399.992188 236.9375 401.59375 254.65625 402.71875 272.390625 "/>
</g>
<g clip-path="url(#clip15)" clip-rule="nonzero">
<path style=" stroke:none;fill-rule:nonzero;fill:rgb(1.568604%,67.83905%,88.238525%);fill-opacity:1;" d="M 382.210938 420.394531 C 423.347656 461.519531 464.527344 502.605469 505.859375 543.527344 C 503.460938 531.296875 502.117188 518.804688 500.582031 506.519531 C 499.308594 496.378906 497.773438 485.738281 496.722656 474.558594 C 495.640625 463.023438 494.863281 451.457031 494.335938 439.886719 C 492.675781 403.566406 493.191406 367.207031 492.832031 330.867188 C 492.503906 297.289062 490.136719 263.800781 489.328125 230.246094 C 460.316406 259.257812 431.304688 288.265625 402.296875 317.277344 C 402.007812 319.339844 401.664062 321.394531 401.257812 323.449219 C 395.59375 352.113281 379.375 376.40625 361.824219 399.15625 C 361.703125 399.3125 361.574219 399.476562 361.449219 399.636719 C 368.371094 406.554688 375.292969 413.476562 382.210938 420.394531 "/>
</g>
<g clip-path="url(#clip16)" clip-rule="nonzero">
<path style=" stroke:none;fill-rule:nonzero;fill:rgb(1.568604%,67.83905%,88.238525%);fill-opacity:1;" d="M 350.851562 412.808594 C 345.207031 419.683594 339.410156 426.671875 334.546875 433.09375 C 330.109375 438.957031 325.871094 445.042969 322.558594 451.617188 C 322.046875 452.640625 321.535156 453.660156 321.066406 454.703125 C 320.890625 455.101562 320.78125 455.335938 320.71875 455.460938 C 320.679688 455.566406 320.632812 455.679688 320.582031 455.816406 C 319.972656 457.378906 319.386719 458.953125 318.910156 460.5625 C 318.425781 462.179688 318.003906 463.816406 317.632812 465.464844 C 317.433594 466.367188 317.226562 467.273438 317.066406 468.183594 C 317.089844 468.074219 316.761719 470.207031 316.761719 470.007812 C 315.859375 477.914062 316.128906 485.917969 317.136719 493.804688 C 317.136719 493.753906 317.464844 496.058594 317.535156 496.5 C 317.691406 497.472656 317.847656 498.441406 318.019531 499.40625 C 318.363281 501.320312 318.722656 503.230469 319.125 505.132812 C 319.878906 508.722656 320.851562 512.277344 321.53125 515.878906 C 322.867188 522.964844 324.253906 530.058594 326.230469 537 C 327.242188 540.550781 328.359375 544.078125 329.75 547.503906 C 329.855469 547.726562 330.417969 549.03125 330.414062 549.023438 C 330.769531 549.78125 331.128906 550.542969 331.515625 551.289062 C 332.234375 552.667969 333.003906 554.011719 333.828125 555.332031 L 493.878906 555.332031 C 446.050781 507.976562 398.445312 460.398438 350.851562 412.808594 "/>
</g>
<g clip-path="url(#clip17)" clip-rule="nonzero">
<path style=" stroke:none;fill-rule:nonzero;fill:rgb(1.568604%,67.83905%,88.238525%);fill-opacity:1;" d="M 385.984375 309.816406 L 386.410156 309.390625 C 386.628906 307.066406 386.789062 304.734375 386.859375 302.398438 C 387.417969 284.625 385.59375 266.6875 384.121094 248.996094 C 382.648438 231.300781 380.867188 213.578125 379.980469 195.839844 C 379.582031 187.894531 379.4375 179.917969 379.71875 171.960938 C 379.46875 171.871094 379.226562 171.769531 378.984375 171.65625 L 313.507812 171.65625 C 311.347656 177.707031 308.621094 183.585938 305.742188 189.292969 C 293.253906 214.023438 275.433594 235.453125 258.550781 257.238281 C 258.320312 257.539062 258.085938 257.835938 257.855469 258.136719 C 257.816406 258.1875 257.652344 258.398438 257.363281 258.777344 C 256.863281 259.425781 256.363281 260.074219 255.867188 260.726562 C 254.875 262.023438 253.886719 263.324219 252.902344 264.628906 C 250.941406 267.234375 248.992188 269.847656 247.085938 272.492188 C 245.652344 274.476562 244.242188 276.476562 242.84375 278.488281 C 278.785156 314.425781 314.722656 350.367188 350.660156 386.304688 C 352.664062 383.671875 354.691406 380.957031 356.828125 377.992188 C 364.933594 366.75 372.5 354.984375 378 342.222656 C 378.03125 342.125 378.800781 340.269531 378.882812 340.054688 C 379.183594 339.28125 379.488281 338.507812 379.773438 337.726562 C 380.351562 336.160156 380.910156 334.585938 381.421875 332.996094 C 382.460938 329.769531 383.394531 326.507812 384.148438 323.203125 C 384.378906 322.199219 384.597656 321.199219 384.804688 320.191406 C 382.820312 316.960938 383.210938 312.59375 385.984375 309.816406 "/>
</g>
<g clip-path="url(#clip18)" clip-rule="nonzero">
<path style=" stroke:none;fill-rule:nonzero;fill:rgb(1.568604%,67.83905%,88.238525%);fill-opacity:1;" d="M 339.386719 398.804688 C 304.082031 363.496094 268.777344 328.195312 233.472656 292.890625 C 230.761719 297.386719 228.195312 301.976562 225.871094 306.683594 C 225.046875 308.359375 224.234375 310.042969 223.464844 311.742188 C 223.136719 312.472656 222.808594 313.203125 222.488281 313.9375 C 222.355469 314.246094 222.265625 314.449219 222.210938 314.578125 C 222.171875 314.667969 222.132812 314.765625 222.085938 314.882812 C 221.804688 315.574219 221.527344 316.265625 221.257812 316.960938 L 221.257812 555.332031 L 314.867188 555.332031 C 313.011719 551.113281 311.515625 546.714844 310.265625 542.328125 C 308.28125 535.355469 306.8125 528.257812 305.46875 521.136719 C 304.011719 513.414062 301.949219 505.859375 300.894531 498.046875 C 298.695312 481.796875 298.550781 465.164062 305.015625 449.785156 C 311.101562 435.316406 320.890625 423.050781 330.851562 411.066406 C 333.242188 408.1875 335.65625 405.324219 338.027344 402.425781 C 338.796875 401.484375 339.558594 400.539062 340.320312 399.589844 C 339.996094 399.351562 339.679688 399.097656 339.386719 398.804688 "/>
</g>
<g clip-path="url(#clip19)" clip-rule="nonzero">
<path style=" stroke:none;fill-rule:nonzero;fill:rgb(100%,100%,100%);fill-opacity:1;" d="M 755.007812 229.285156 C 747.890625 231.152344 740.644531 232.492188 733.378906 233.570312 C 732.589844 233.671875 731.804688 233.773438 731.019531 233.871094 C 729.261719 234.089844 727.503906 234.28125 725.742188 234.464844 C 721.992188 234.859375 718.230469 235.167969 714.46875 235.429688 C 706.984375 235.949219 699.480469 236.140625 691.996094 236.613281 C 658.605469 238.722656 625.375 244 592.832031 251.933594 C 576.855469 255.824219 561.035156 260.402344 545.355469 265.433594 C 537.675781 267.902344 530.125 270.203125 522.167969 271.480469 C 521.859375 271.519531 521.570312 271.5625 521.394531 271.582031 C 520.425781 271.695312 519.457031 271.792969 518.484375 271.886719 C 516.546875 272.078125 514.601562 272.210938 512.65625 272.324219 C 508.433594 272.574219 504.203125 272.625 499.976562 272.601562 C 483.734375 272.511719 467.496094 271.113281 451.257812 270.566406 C 442.800781 270.28125 434.347656 269.933594 425.902344 269.382812 C 421.855469 269.117188 417.816406 268.785156 413.78125 268.402344 C 412.785156 268.308594 411.789062 268.207031 410.792969 268.101562 C 399.238281 266.070312 387.800781 263.4375 376.519531 260.132812 C 369.660156 258.125 362.882812 255.84375 356.171875 253.363281 C 352.984375 252.179688 349.820312 250.9375 346.667969 249.652344 C 345.089844 249.011719 343.527344 248.355469 341.960938 247.6875 C 341.898438 247.664062 341.824219 247.632812 341.746094 247.597656 C 340.890625 247.222656 340.039062 246.84375 339.1875 246.464844 C 312.117188 234.320312 286.089844 218.871094 261.683594 201.789062 C 256.097656 197.886719 250.640625 193.789062 245.261719 189.589844 C 244.777344 189.210938 244.292969 188.828125 243.8125 188.445312 C 243.75 188.398438 243.691406 188.351562 243.625 188.296875 C 242.109375 187.082031 240.601562 185.855469 239.097656 184.621094 C 236.324219 182.351562 233.574219 180.046875 230.839844 177.730469 C 227.96875 175.300781 225.152344 173.613281 221.441406 173.394531 L 221.441406 233.046875 C 229.980469 240.339844 238.878906 247.171875 248.3125 253.222656 C 261.902344 261.945312 276.304688 269.0625 291.121094 275.289062 C 308.933594 282.773438 327.445312 288.191406 346.25 292.246094 C 334.242188 301.082031 324.058594 312.304688 313.964844 323.308594 C 302.808594 335.46875 291.050781 347.023438 278.6875 357.878906 C 275.722656 360.480469 272.714844 363.027344 269.671875 365.539062 C 268.417969 366.574219 267.148438 367.597656 265.878906 368.621094 C 265.550781 368.878906 265.203125 369.15625 265.023438 369.296875 C 264.007812 370.089844 262.988281 370.878906 261.96875 371.660156 C 255.644531 376.511719 249.152344 381.128906 242.535156 385.542969 C 235.65625 390.128906 228.613281 394.445312 221.441406 398.523438 L 221.441406 432.039062 C 236.753906 424.167969 251.597656 415.351562 265.769531 405.339844 C 293.246094 385.933594 317.378906 362.785156 340.28125 337.996094 C 345.738281 332.09375 351.316406 326.304688 357.324219 320.992188 C 358.035156 320.363281 358.757812 319.75 359.480469 319.136719 C 359.660156 318.988281 359.996094 318.714844 360.308594 318.457031 C 361.519531 317.53125 362.746094 316.628906 363.992188 315.753906 C 367.265625 313.453125 370.722656 311.445312 374.308594 309.699219 C 374.382812 309.664062 374.484375 309.617188 374.59375 309.566406 C 375.375 309.257812 376.164062 308.984375 376.953125 308.710938 C 378.902344 308.039062 380.875 307.445312 382.851562 306.878906 C 387.25 305.609375 391.722656 304.613281 396.210938 303.742188 C 398.3125 303.332031 400.421875 302.980469 402.535156 302.644531 C 403.015625 302.570312 403.492188 302.503906 403.972656 302.429688 C 404.375 302.378906 405.675781 302.203125 406.089844 302.152344 C 410.59375 301.59375 415.113281 301.199219 419.636719 300.886719 C 428.621094 300.265625 437.5625 300.464844 446.53125 301.296875 C 448.6875 301.496094 450.839844 301.746094 452.988281 302.003906 C 454.0625 302.132812 455.132812 302.273438 456.207031 302.414062 C 456.316406 302.425781 456.421875 302.441406 456.515625 302.453125 C 456.558594 302.457031 456.59375 302.464844 456.636719 302.46875 C 461.257812 303.125 465.867188 303.859375 470.476562 304.574219 C 489.078125 307.464844 507.890625 310.300781 526.710938 308.140625 C 545.746094 305.953125 564.136719 299.519531 582.363281 293.75 C 599.410156 288.355469 616.5 283.027344 634.054688 279.660156 C 636.171875 279.253906 638.300781 278.890625 640.429688 278.546875 C 640.960938 278.460938 641.496094 278.386719 642.027344 278.308594 C 642.5 278.242188 643.726562 278.074219 644.113281 278.027344 C 648.851562 277.441406 653.613281 277.078125 658.382812 276.871094 C 667.472656 276.472656 676.59375 276.527344 685.6875 276.210938 C 704.433594 275.558594 723.21875 273.984375 741.625 270.144531 C 749.027344 268.605469 756.292969 266.550781 763.410156 264.054688 L 763.410156 226.847656 C 760.636719 227.746094 757.828125 228.546875 755.007812 229.285156 "/>
</g>
<g clip-path="url(#clip20)" clip-rule="nonzero">
<path style=" stroke:none;fill-rule:nonzero;fill:rgb(1.568604%,67.83905%,88.238525%);fill-opacity:1;" d="M 403.636719 273.164062 C 404.054688 279.761719 404.425781 286.363281 404.535156 292.957031 C 431.421875 266.074219 458.304688 239.191406 485.183594 212.308594 C 486.507812 210.984375 488.199219 210.210938 489.953125 209.96875 C 489.894531 195.441406 490.136719 180.914062 490.847656 166.402344 C 490.859375 166.152344 490.878906 165.902344 490.890625 165.652344 L 397.804688 165.652344 C 397.765625 166.144531 397.722656 166.640625 397.691406 167.136719 C 396.605469 184.777344 397.898438 202.425781 399.398438 220.007812 C 400.90625 237.710938 402.511719 255.429688 403.636719 273.164062 "/>
</g>
<g clip-path="url(#clip21)" clip-rule="nonzero">
<path style=" stroke:none;fill-rule:nonzero;fill:rgb(1.568604%,67.83905%,88.238525%);fill-opacity:1;" d="M 383.128906 421.167969 C 424.265625 462.292969 465.441406 503.378906 506.777344 544.304688 C 504.375 532.070312 503.03125 519.582031 501.496094 507.296875 C 500.226562 497.152344 498.6875 486.511719 497.640625 475.332031 C 496.558594 463.796875 495.777344 452.234375 495.25 440.660156 C 493.589844 404.339844 494.105469 367.984375 493.75 331.640625 C 493.417969 298.066406 491.054688 264.578125 490.246094 231.019531 C 461.234375 260.03125 432.222656 289.042969 403.210938 318.050781 C 402.921875 320.113281 402.578125 322.167969 402.175781 324.222656 C 396.511719 352.886719 380.292969 377.179688 362.742188 399.929688 C 362.617188 400.089844 362.492188 400.25 362.367188 400.410156 C 369.289062 407.332031 376.207031 414.25 383.128906 421.167969 "/>
</g>
<g clip-path="url(#clip22)" clip-rule="nonzero">
<path style=" stroke:none;fill-rule:nonzero;fill:rgb(1.568604%,67.83905%,88.238525%);fill-opacity:1;" d="M 351.769531 413.582031 C 346.121094 420.457031 340.328125 427.445312 335.464844 433.867188 C 331.027344 439.730469 326.789062 445.816406 323.476562 452.390625 C 322.960938 453.414062 322.453125 454.4375 321.984375 455.476562 C 321.804688 455.875 321.695312 456.113281 321.636719 456.238281 C 321.59375 456.339844 321.550781 456.453125 321.496094 456.589844 C 320.886719 458.152344 320.304688 459.726562 319.824219 461.335938 C 319.34375 462.957031 318.921875 464.589844 318.550781 466.238281 C 318.347656 467.144531 318.144531 468.046875 317.984375 468.957031 C 318.003906 468.851562 317.679688 470.984375 317.679688 470.78125 C 316.777344 478.6875 317.046875 486.691406 318.054688 494.578125 C 318.050781 494.527344 318.378906 496.832031 318.453125 497.277344 C 318.609375 498.246094 318.765625 499.214844 318.9375 500.179688 C 319.28125 502.09375 319.640625 504.003906 320.039062 505.90625 C 320.796875 509.496094 321.765625 513.050781 322.445312 516.652344 C 323.785156 523.738281 325.171875 530.835938 327.148438 537.773438 C 328.15625 541.324219 329.277344 544.855469 330.664062 548.277344 C 330.769531 548.5 331.332031 549.804688 331.332031 549.796875 C 331.6875 550.554688 332.042969 551.316406 332.433594 552.0625 C 333.152344 553.441406 333.921875 554.785156 334.746094 556.105469 L 494.792969 556.105469 C 446.96875 508.75 399.363281 461.175781 351.769531 413.582031 "/>
</g>
<g clip-path="url(#clip23)" clip-rule="nonzero">
<path style=" stroke:none;fill-rule:nonzero;fill:rgb(1.568604%,67.83905%,88.238525%);fill-opacity:1;" d="M 386.902344 310.589844 L 387.328125 310.164062 C 387.542969 307.839844 387.707031 305.511719 387.777344 303.175781 C 388.335938 285.398438 386.507812 267.464844 385.035156 249.769531 C 383.566406 232.074219 381.78125 214.351562 380.894531 196.617188 C 380.496094 188.671875 380.355469 180.691406 380.636719 172.734375 C 380.386719 172.644531 380.140625 172.542969 379.898438 172.429688 L 314.425781 172.429688 C 312.265625 178.480469 309.539062 184.359375 306.65625 190.066406 C 294.167969 214.796875 276.347656 236.230469 259.46875 258.015625 C 259.238281 258.3125 259.003906 258.613281 258.769531 258.914062 C 258.734375 258.964844 258.570312 259.171875 258.277344 259.550781 C 257.78125 260.199219 257.28125 260.847656 256.785156 261.5 C 255.792969 262.796875 254.800781 264.097656 253.820312 265.402344 C 251.855469 268.007812 249.910156 270.621094 248.003906 273.265625 C 246.566406 275.25 245.15625 277.25 243.757812 279.261719 C 279.699219 315.199219 315.640625 351.140625 351.578125 387.078125 C 353.578125 384.449219 355.605469 381.730469 357.742188 378.765625 C 365.851562 367.523438 373.417969 355.757812 378.914062 342.996094 C 378.945312 342.898438 379.714844 341.042969 379.796875 340.832031 C 380.101562 340.058594 380.402344 339.28125 380.691406 338.5 C 381.265625 336.933594 381.828125 335.359375 382.339844 333.769531 C 383.375 330.542969 384.308594 327.28125 385.066406 323.976562 C 385.296875 322.972656 385.515625 321.972656 385.722656 320.964844 C 383.738281 317.734375 384.128906 313.367188 386.902344 310.589844 "/>
</g>
<g clip-path="url(#clip24)" clip-rule="nonzero">
<path style=" stroke:none;fill-rule:nonzero;fill:rgb(100%,100%,100%);fill-opacity:1;" d="M 755.921875 230.058594 C 748.804688 231.925781 741.558594 233.269531 734.292969 234.34375 C 733.507812 234.449219 732.71875 234.546875 731.933594 234.644531 C 730.179688 234.863281 728.417969 235.054688 726.660156 235.238281 C 722.90625 235.632812 719.148438 235.941406 715.382812 236.203125 C 707.898438 236.726562 700.398438 236.914062 692.910156 237.386719 C 659.519531 239.496094 626.292969 244.773438 593.75 252.707031 C 577.769531 256.601562 561.949219 261.175781 546.273438 266.210938 C 538.589844 268.675781 531.042969 270.976562 523.082031 272.253906 C 522.773438 272.296875 522.488281 272.335938 522.3125 272.355469 C 521.34375 272.472656 520.371094 272.566406 519.402344 272.660156 C 517.460938 272.851562 515.515625 272.984375 513.570312 273.097656 C 509.351562 273.347656 505.121094 273.402344 500.894531 273.378906 C 484.652344 273.285156 468.410156 271.886719 452.175781 271.34375 C 443.71875 271.054688 435.261719 270.707031 426.816406 270.15625 C 422.773438 269.890625 418.730469 269.5625 414.695312 269.175781 C 413.703125 269.082031 412.703125 268.980469 411.707031 268.875 C 400.15625 266.84375 388.714844 264.210938 377.433594 260.90625 C 370.578125 258.898438 363.796875 256.617188 357.089844 254.136719 C 353.902344 252.953125 350.734375 251.710938 347.582031 250.425781 C 346.007812 249.789062 344.441406 249.128906 342.878906 248.464844 C 342.816406 248.4375 342.742188 248.40625 342.660156 248.371094 C 341.808594 247.996094 340.957031 247.617188 340.105469 247.238281 C 313.03125 235.09375 287.007812 219.644531 262.601562 202.566406 C 257.015625 198.660156 251.554688 194.5625 246.179688 190.363281 C 245.691406 189.984375 245.210938 189.601562 244.726562 189.222656 C 244.667969 189.175781 244.609375 189.128906 244.539062 189.074219 C 243.023438 187.855469 241.515625 186.628906 240.011719 185.394531 C 237.238281 183.125 234.492188 180.824219 231.753906 178.503906 C 228.886719 176.074219 226.070312 174.386719 222.359375 174.167969 L 222.359375 233.820312 C 230.898438 241.113281 239.792969 247.945312 249.226562 254 C 262.820312 262.71875 277.222656 269.839844 292.039062 276.0625 C 309.847656 283.546875 328.363281 288.964844 347.167969 293.023438 C 335.160156 301.855469 324.976562 313.082031 314.878906 324.085938 C 303.722656 336.242188 291.964844 347.800781 279.601562 358.652344 C 276.640625 361.257812 273.628906 363.800781 270.589844 366.3125 C 269.332031 367.351562 268.066406 368.375 266.796875 369.394531 C 266.464844 369.65625 266.117188 369.929688 265.9375 370.070312 C 264.925781 370.867188 263.90625 371.652344 262.886719 372.433594 C 256.5625 377.285156 250.070312 381.902344 243.449219 386.316406 C 236.574219 390.902344 229.53125 395.222656 222.359375 399.296875 L 222.359375 432.8125 C 237.671875 424.941406 252.511719 416.125 266.6875 406.113281 C 294.160156 386.707031 318.296875 363.558594 341.199219 338.773438 C 346.652344 332.867188 352.234375 327.078125 358.238281 321.765625 C 358.953125 321.136719 359.675781 320.527344 360.398438 319.910156 C 360.574219 319.761719 360.910156 319.488281 361.226562 319.230469 C 362.4375 318.304688 363.664062 317.402344 364.90625 316.527344 C 368.183594 314.230469 371.640625 312.21875 375.222656 310.476562 C 375.300781 310.4375 375.398438 310.390625 375.511719 310.339844 C 376.289062 310.03125 377.082031 309.757812 377.871094 309.484375 C 379.820312 308.816406 381.792969 308.222656 383.769531 307.652344 C 388.167969 306.382812 392.636719 305.386719 397.128906 304.515625 C 399.226562 304.109375 401.339844 303.757812 403.449219 303.417969 C 403.929688 303.34375 404.410156 303.277344 404.890625 303.207031 C 405.292969 303.15625 406.59375 302.976562 407.007812 302.925781 C 411.507812 302.367188 416.03125 301.972656 420.550781 301.660156 C 429.535156 301.039062 438.480469 301.238281 447.445312 302.074219 C 449.601562 302.273438 451.753906 302.519531 453.90625 302.777344 C 454.976562 302.90625 456.050781 303.046875 457.121094 303.1875 C 457.234375 303.203125 457.339844 303.214844 457.429688 303.226562 C 457.472656 303.230469 457.507812 303.238281 457.554688 303.242188 C 462.171875 303.902344 466.78125 304.632812 471.394531 305.347656 C 489.996094 308.238281 508.804688 311.074219 527.628906 308.914062 C 546.660156 306.726562 565.054688 300.292969 583.28125 294.527344 C 600.328125 289.128906 617.417969 283.800781 634.972656 280.433594 C 637.089844 280.027344 639.21875 279.667969 641.347656 279.320312 C 641.878906 279.238281 642.414062 279.160156 642.941406 279.082031 C 643.417969 279.019531 644.644531 278.847656 645.027344 278.800781 C 649.765625 278.214844 654.53125 277.851562 659.296875 277.644531 C 668.390625 277.246094 677.507812 277.300781 686.605469 276.988281 C 705.347656 276.332031 724.136719 274.757812 742.542969 270.921875 C 749.941406 269.378906 757.207031 267.324219 764.328125 264.828125 L 764.328125 227.621094 C 761.554688 228.519531 758.746094 229.320312 755.921875 230.058594 "/>
</g>
<g clip-path="url(#clip25)" clip-rule="nonzero">
<path style=" stroke:none;fill-rule:nonzero;fill:rgb(100%,100%,100%);fill-opacity:1;" d="M 761.640625 332.527344 C 750.039062 327.058594 738.503906 321.484375 726.671875 316.519531 C 715.625 311.890625 704.300781 307.933594 692.539062 305.523438 C 686.089844 304.199219 679.542969 303.570312 673.015625 302.765625 C 672.910156 302.753906 672.785156 302.738281 672.648438 302.71875 C 672.453125 302.691406 672.253906 302.664062 672.058594 302.636719 C 670.929688 302.476562 669.804688 302.304688 668.679688 302.121094 C 666.359375 301.75 664.050781 301.316406 661.75 300.832031 C 657.714844 299.988281 653.726562 298.925781 649.824219 297.589844 C 648.945312 297.289062 648.078125 296.96875 647.214844 296.636719 C 647.054688 296.574219 646.898438 296.511719 646.742188 296.449219 C 645.117188 295.726562 643.523438 294.929688 641.964844 294.078125 C 640.449219 293.246094 638.980469 292.332031 637.550781 291.371094 C 637.070312 291.046875 636.601562 290.710938 636.136719 290.375 C 635.804688 290.105469 635.472656 289.835938 635.148438 289.558594 C 632.34375 287.195312 629.808594 284.519531 627.484375 281.6875 C 627.414062 281.589844 627.335938 281.496094 627.265625 281.398438 C 626.695312 280.625 626.144531 279.835938 625.597656 279.042969 C 624.367188 277.242188 623.222656 275.382812 622.125 273.5 C 619.777344 269.464844 617.738281 265.261719 615.855469 260.996094 C 615.765625 260.792969 615.675781 260.582031 615.585938 260.375 C 615.5 260.175781 615.417969 259.980469 615.359375 259.839844 C 614.480469 257.714844 613.585938 255.59375 612.671875 253.484375 C 611.347656 250.414062 609.921875 247.386719 608.445312 244.386719 C 605.585938 238.59375 602.433594 232.949219 599.109375 227.40625 C 592.445312 216.292969 584.96875 205.675781 577.203125 195.300781 C 569.894531 185.539062 562.410156 175.898438 554.410156 166.679688 C 551.09375 162.859375 547.726562 159.078125 544.410156 155.25 C 542.847656 153.441406 541.296875 151.625 539.765625 149.785156 C 539.011719 148.875 538.261719 147.960938 537.515625 147.039062 C 537.144531 146.582031 536.78125 146.121094 536.414062 145.660156 C 536.386719 145.625 536.367188 145.597656 536.34375 145.570312 C 533.457031 141.804688 530.753906 137.898438 528.320312 133.828125 C 527.152344 131.878906 526.074219 129.875 525.0625 127.839844 C 524.644531 127 524.253906 126.144531 523.871094 125.289062 C 523.609375 124.644531 523.363281 123.996094 523.125 123.339844 C 521.71875 119.539062 520.707031 115.601562 520.03125 111.605469 C 520.019531 111.539062 520.011719 111.464844 520 111.394531 C 519.988281 111.316406 519.976562 111.238281 519.972656 111.171875 C 519.835938 109.953125 519.75 108.734375 519.6875 107.515625 C 519.558594 105.1875 519.589844 102.855469 519.699219 100.53125 C 519.757812 99.425781 519.851562 98.328125 519.953125 97.230469 C 519.992188 96.855469 520.03125 96.480469 520.074219 96.109375 C 520.546875 93.042969 520.992188 89.976562 521.429688 86.90625 C 522.398438 80.042969 523.296875 73.171875 524.132812 66.289062 C 526.1875 49.382812 527.820312 32.433594 529.476562 15.484375 L 505.859375 15.484375 C 503.824219 36.277344 501.816406 57.074219 499.058594 77.789062 C 499.042969 77.898438 499.027344 78.015625 499.007812 78.164062 C 498.894531 79 498.777344 79.835938 498.660156 80.667969 C 498.425781 82.34375 498.183594 84.019531 497.9375 85.691406 C 497.335938 89.75 496.664062 93.804688 496.277344 97.894531 C 495.703125 104.007812 496.148438 110.015625 497 116.078125 C 498.441406 126.363281 502.429688 136.222656 507.640625 145.179688 C 518.066406 163.101562 533.527344 177.570312 546.429688 193.652344 C 547.234375 194.660156 548.027344 195.675781 548.820312 196.691406 C 549.003906 196.929688 549.191406 197.167969 549.378906 197.40625 C 549.609375 197.707031 550.078125 198.308594 550.265625 198.554688 C 552.3125 201.195312 554.339844 203.851562 556.347656 206.523438 C 560.242188 211.695312 564.042969 216.9375 567.722656 222.261719 C 575.089844 232.917969 581.898438 243.96875 587.707031 255.535156 C 589.097656 258.296875 590.40625 261.09375 591.664062 263.914062 C 591.8125 264.242188 591.953125 264.570312 592.09375 264.898438 C 592.253906 265.269531 592.488281 265.828125 592.589844 266.078125 C 593.445312 268.152344 594.332031 270.222656 595.226562 272.285156 C 597.089844 276.589844 599.15625 280.804688 601.476562 284.886719 C 603.675781 288.757812 606.167969 292.546875 608.949219 296.101562 C 608.144531 296.386719 607.355469 296.738281 606.59375 297.167969 C 580.660156 311.8125 557.945312 331.421875 534.503906 349.570312 C 534.203125 349.804688 533.902344 350.039062 533.601562 350.269531 C 533.488281 350.351562 533.320312 350.480469 533.070312 350.667969 C 531.679688 351.71875 530.269531 352.742188 528.855469 353.753906 C 526.214844 355.652344 523.53125 357.492188 520.835938 359.3125 C 515.316406 363.039062 509.71875 366.648438 504.167969 370.316406 C 492.371094 378.113281 480.65625 386.269531 470.285156 395.898438 C 465.5625 400.28125 464.660156 408.109375 467.996094 413.539062 C 484.191406 439.917969 504.554688 463.527344 525.304688 486.433594 C 535.46875 497.65625 545.769531 508.753906 555.820312 520.070312 C 560.824219 525.703125 565.753906 531.398438 570.578125 537.179688 C 572.882812 539.941406 575.15625 542.734375 577.402344 545.542969 C 577.773438 546.007812 579.042969 547.628906 579.675781 548.4375 C 580.722656 549.792969 581.761719 551.152344 582.792969 552.523438 C 583.683594 553.710938 584.558594 554.90625 585.429688 556.105469 L 616.878906 556.105469 C 617.308594 553.039062 616.757812 549.882812 614.90625 547.238281 C 597.089844 521.800781 576.132812 498.824219 555.207031 475.925781 C 545.007812 464.765625 534.832031 453.578125 525.058594 442.042969 C 522.726562 439.292969 520.421875 436.511719 518.144531 433.714844 C 517.007812 432.316406 515.882812 430.910156 514.761719 429.503906 C 514.226562 428.832031 513.695312 428.15625 513.164062 427.480469 C 512.988281 427.246094 512.804688 427.015625 512.628906 426.785156 C 508.160156 420.972656 503.875 415.023438 499.78125 408.945312 C 500.210938 408.601562 500.640625 408.261719 501.070312 407.921875 C 501.777344 407.390625 502.492188 406.863281 503.203125 406.335938 C 508.582031 402.367188 514.140625 398.640625 519.71875 394.953125 C 531.519531 387.152344 543.234375 379.402344 554.441406 370.765625 C 559.957031 366.511719 565.417969 362.191406 570.886719 357.882812 C 573.765625 355.613281 576.644531 353.351562 579.53125 351.097656 C 580.839844 350.078125 582.15625 349.058594 583.472656 348.039062 C 583.507812 348.011719 583.535156 347.988281 583.570312 347.964844 C 583.601562 347.9375 583.632812 347.917969 583.664062 347.890625 C 584.457031 347.285156 585.246094 346.6875 586.039062 346.085938 C 597.355469 337.507812 609 329.304688 621.382812 322.308594 C 624.945312 320.300781 627.285156 316.886719 628.179688 313.128906 C 639.375 319.757812 652.191406 323.25 665.210938 325.179688 C 668.207031 325.621094 671.210938 326.011719 674.214844 326.375 C 675.234375 326.496094 676.257812 326.613281 677.277344 326.722656 C 677.96875 326.796875 678.664062 326.871094 679.359375 326.949219 C 679.398438 326.957031 679.433594 326.957031 679.46875 326.964844 C 684.835938 327.734375 690.136719 328.898438 695.367188 330.3125 C 700.675781 331.742188 705.898438 333.5 711.050781 335.421875 C 713.515625 336.339844 715.964844 337.3125 718.402344 338.3125 C 718.457031 338.335938 718.527344 338.367188 718.601562 338.398438 C 719.140625 338.628906 719.683594 338.859375 720.222656 339.089844 C 721.546875 339.660156 722.863281 340.242188 724.183594 340.828125 C 737.660156 346.816406 750.839844 353.480469 764.332031 359.433594 L 764.332031 333.789062 C 763.433594 333.367188 762.539062 332.949219 761.640625 332.527344 "/>
</g>
</g>
</svg>
