<?xml version="1.0" encoding="UTF-8"?>
<svg xmlns="http://www.w3.org/2000/svg" xmlns:xlink="http://www.w3.org/1999/xlink" width="750pt" height="749.999995pt" viewBox="0 0 750 749.999995" version="1.2">
<defs>
<clipPath id="clip1">
  <path d="M 198.683594 183 L 569.183594 183 L 569.183594 544 L 198.683594 544 Z M 198.683594 183 "/>
</clipPath>
<clipPath id="clip2">
  <path d="M 222.171875 206 L 545.421875 206 L 545.421875 521 L 222.171875 521 Z M 222.171875 206 "/>
</clipPath>
<clipPath id="clip3">
  <path d="M 252.761719 221.332031 L 302 221.332031 L 302 281 L 252.761719 281 Z M 252.761719 221.332031 "/>
</clipPath>
<clipPath id="clip4">
  <path d="M 506 226 L 530.261719 226 L 530.261719 399 L 506 399 Z M 506 226 "/>
</clipPath>
<clipPath id="clip5">
  <path d="M 510 415 L 530.261719 415 L 530.261719 504.082031 L 510 504.082031 Z M 510 415 "/>
</clipPath>
<clipPath id="clip6">
  <path d="M 396 221.332031 L 490 221.332031 L 490 292 L 396 292 Z M 396 221.332031 "/>
</clipPath>
<clipPath id="clip7">
  <path d="M 361 229 L 506 229 L 506 504.082031 L 361 504.082031 Z M 361 229 "/>
</clipPath>
<clipPath id="clip8">
  <path d="M 316 412 L 494 412 L 494 504.082031 L 316 504.082031 Z M 316 412 "/>
</clipPath>
<clipPath id="clip9">
  <path d="M 252.761719 221.332031 L 387 221.332031 L 387 386 L 252.761719 386 Z M 252.761719 221.332031 "/>
</clipPath>
<clipPath id="clip10">
  <path d="M 252.761719 292 L 341 292 L 341 504.082031 L 252.761719 504.082031 Z M 252.761719 292 "/>
</clipPath>
<clipPath id="clip11">
  <path d="M 252.761719 221.332031 L 530.261719 221.332031 L 530.261719 432 L 252.761719 432 Z M 252.761719 221.332031 "/>
</clipPath>
<clipPath id="clip12">
  <path d="M 465 221.332031 L 530.261719 221.332031 L 530.261719 504.082031 L 465 504.082031 Z M 465 221.332031 "/>
</clipPath>
<clipPath id="clip13">
  <path d="M 243.601562 221.332031 L 302 221.332031 L 302 281 L 243.601562 281 Z M 243.601562 221.332031 "/>
</clipPath>
<clipPath id="clip14">
  <path d="M 396 221.332031 L 398.101562 221.332031 L 398.101562 292 L 396 292 Z M 396 221.332031 "/>
</clipPath>
<clipPath id="clip15">
  <path d="M 361 229 L 398.101562 229 L 398.101562 511.582031 L 361 511.582031 Z M 361 229 "/>
</clipPath>
<clipPath id="clip16">
  <path d="M 316 412 L 398.101562 412 L 398.101562 511.582031 L 316 511.582031 Z M 316 412 "/>
</clipPath>
<clipPath id="clip17">
  <path d="M 243.601562 221.332031 L 387 221.332031 L 387 386 L 243.601562 386 Z M 243.601562 221.332031 "/>
</clipPath>
<clipPath id="clip18">
  <path d="M 243.601562 292 L 341 292 L 341 511.582031 L 243.601562 511.582031 Z M 243.601562 292 "/>
</clipPath>
<clipPath id="clip19">
  <path d="M 243.601562 221.332031 L 398.101562 221.332031 L 398.101562 432 L 243.601562 432 Z M 243.601562 221.332031 "/>
</clipPath>
<clipPath id="clip20">
  <path d="M 396 278.925781 L 491 278.925781 L 491 292 L 396 292 Z M 396 278.925781 "/>
</clipPath>
<clipPath id="clip21">
  <path d="M 382.8125 278.925781 L 503.5625 278.925781 L 503.5625 511.425781 L 382.8125 511.425781 Z M 382.8125 278.925781 "/>
</clipPath>
<clipPath id="clip22">
  <path d="M 382.8125 412 L 495 412 L 495 511.425781 L 382.8125 511.425781 Z M 382.8125 412 "/>
</clipPath>
<clipPath id="clip23">
  <path d="M 382.8125 278.925781 L 387 278.925781 L 387 387 L 382.8125 387 Z M 382.8125 278.925781 "/>
</clipPath>
<clipPath id="clip24">
  <path d="M 382.8125 278.925781 L 503.5625 278.925781 L 503.5625 433 L 382.8125 433 Z M 382.8125 278.925781 "/>
</clipPath>
<clipPath id="clip25">
  <path d="M 465 278.925781 L 503.5625 278.925781 L 503.5625 511.425781 L 465 511.425781 Z M 465 278.925781 "/>
</clipPath>
<clipPath id="clip26">
  <path d="M 236 213 L 290 213 L 290 263 L 236 263 Z M 236 213 "/>
</clipPath>
<clipPath id="clip27">
  <path d="M 289.476562 224.269531 L 242.976562 262.191406 L 224.019531 238.941406 L 270.515625 201.023438 Z M 289.476562 224.269531 "/>
</clipPath>
<clipPath id="clip28">
  <path d="M 289.476562 224.269531 L 242.976562 262.191406 L 224.019531 238.941406 L 270.515625 201.023438 Z M 289.476562 224.269531 "/>
</clipPath>
</defs>
<g id="surface1">
<rect x="0" y="0" width="750" height="749.999995" style="fill:rgb(100%,100%,100%);fill-opacity:1;stroke:none;"/>
<rect x="0" y="0" width="750" height="749.999995" style="fill:rgb(100%,100%,100%);fill-opacity:1;stroke:none;"/>
<path style=" stroke:none;fill-rule:nonzero;fill:rgb(78.039551%,81.568909%,84.709167%);fill-opacity:1;" d="M 149.425781 720.421875 C 109.277344 720.421875 76.691406 685.5 76.691406 648.25 L 76.691406 84.640625 C 76.691406 74.164062 79.015625 63.6875 83.089844 54.375 C 70.289062 66.597656 62.722656 83.476562 62.722656 101.835938 L 62.722656 665.710938 C 62.722656 702.378906 92.984375 732.644531 129.644531 732.644531 L 609.378906 732.644531 C 626.257812 732.644531 641.386719 726.242188 653.023438 716.347656 C 645.457031 719.257812 637.3125 720.421875 629.164062 720.421875 Z M 149.425781 720.421875 "/>
<path style=" stroke:none;fill-rule:nonzero;fill:rgb(96.078491%,96.469116%,96.859741%);fill-opacity:1;" d="M 82.507812 84.640625 L 82.507812 647.085938 C 82.507812 683.753906 112.769531 714.019531 149.425781 714.019531 L 629.164062 714.019531 C 665.824219 714.019531 696.085938 683.753906 696.085938 647.085938 L 696.085938 84.640625 C 696.085938 47.972656 665.824219 17.707031 629.164062 17.707031 L 149.425781 17.707031 C 112.1875 17.707031 82.507812 47.972656 82.507812 84.640625 Z M 82.507812 84.640625 "/>
<path style=" stroke:none;fill-rule:nonzero;fill:rgb(65.098572%,65.098572%,65.098572%);fill-opacity:1;" d="M 667.570312 708.78125 C 687.9375 695.976562 701.902344 673.277344 701.902344 647.085938 L 701.902344 84.640625 C 701.902344 44.480469 669.316406 11.886719 629.164062 11.886719 L 149.425781 11.886719 C 125.570312 11.886719 104.621094 23.527344 91.238281 40.988281 C 70.871094 53.792969 56.90625 76.492188 56.90625 102.375 L 56.90625 665.128906 C 56.90625 705.289062 89.492188 737.886719 129.644531 737.886719 L 609.378906 737.886719 C 633.238281 737.886719 654.1875 726.242188 667.570312 708.78125 Z M 149.425781 17.707031 L 629.164062 17.707031 C 665.824219 17.707031 696.085938 47.972656 696.085938 84.640625 L 696.085938 647.085938 C 696.085938 683.753906 665.824219 714.019531 629.164062 714.019531 L 149.425781 714.019531 C 112.769531 714.019531 82.507812 683.753906 82.507812 647.085938 L 82.507812 84.640625 C 82.507812 47.972656 112.1875 17.707031 149.425781 17.707031 Z M 129.644531 732.644531 C 92.984375 732.644531 62.722656 701.796875 62.722656 665.128906 L 62.722656 102.375 C 62.722656 84.058594 70.289062 67.179688 83.089844 54.957031 C 79.015625 64.269531 76.691406 74.164062 76.691406 85.222656 L 76.691406 647.667969 C 76.691406 687.828125 109.277344 720.421875 149.425781 720.421875 L 629.164062 720.421875 C 637.3125 720.421875 645.457031 718.675781 653.023438 716.347656 C 641.386719 726.242188 626.257812 732.644531 609.378906 732.644531 Z M 129.644531 732.644531 "/>
<g clip-path="url(#clip1)" clip-rule="nonzero">
<path style=" stroke:none;fill-rule:nonzero;fill:rgb(1.568604%,67.83905%,88.238525%);fill-opacity:1;" d="M 198.683594 537.699219 C 198.683594 540.960938 201.351562 543.628906 204.609375 543.628906 C 204.609375 543.628906 204.683594 543.628906 204.683594 543.628906 C 229.582031 543.332031 327.617188 542.148438 417.277344 543.703125 C 521.015625 545.558594 569.183594 534.4375 569.183594 534.4375 L 569.183594 195.222656 C 569.183594 195.222656 465.441406 180.394531 385.785156 184.101562 C 306.128906 187.808594 248.699219 184.101562 224.617188 197.074219 C 200.535156 210.050781 202.386719 367.609375 200.535156 413.949219 C 198.980469 452.800781 198.757812 517.679688 198.683594 537.699219 Z M 198.683594 537.699219 "/>
</g>
<g clip-path="url(#clip2)" clip-rule="nonzero">
<path style=" stroke:none;fill-rule:nonzero;fill:rgb(100%,100%,100%);fill-opacity:1;" d="M 222.171875 515.328125 C 222.171875 518.175781 224.5 520.503906 227.34375 520.503906 C 227.34375 520.503906 227.410156 520.503906 227.410156 520.503906 C 249.132812 520.246094 334.664062 519.210938 412.890625 520.570312 C 503.402344 522.1875 545.421875 512.480469 545.421875 512.480469 L 545.421875 216.371094 C 545.421875 216.371094 454.914062 203.429688 385.414062 206.664062 C 315.914062 209.898438 265.8125 206.664062 244.800781 217.992188 C 223.789062 229.316406 225.40625 366.851562 223.789062 407.304688 C 222.433594 441.21875 222.238281 497.851562 222.171875 515.328125 Z M 222.171875 515.328125 "/>
</g>
<g clip-path="url(#clip3)" clip-rule="nonzero">
<path style=" stroke:none;fill-rule:nonzero;fill:rgb(100%,88.238525%,0%);fill-opacity:1;" d="M 299.550781 114.398438 C 299.417969 107.902344 299.3125 101.402344 299.21875 94.90625 L 221.257812 94.90625 L 221.257812 280.304688 C 226.691406 271.597656 232.667969 263.199219 238.878906 255 C 242.9375 249.640625 247.0625 244.332031 251.199219 239.035156 C 255.019531 234.148438 258.402344 229.828125 261.453125 225.835938 C 268.707031 216.335938 275.792969 206.675781 282.09375 196.507812 C 285.644531 190.785156 288.992188 184.921875 291.945312 178.867188 C 292.773438 177.171875 293.582031 175.464844 294.351562 173.742188 C 294.625 173.136719 294.890625 172.527344 295.15625 171.914062 C 295.300781 171.566406 295.710938 170.589844 295.730469 170.539062 C 296.949219 167.515625 298.054688 164.457031 299.097656 161.371094 C 301.613281 153.941406 301.578125 146.996094 300.972656 138.71875 C 300.378906 130.59375 299.722656 122.546875 299.550781 114.398438 "/>
</g>
<g clip-path="url(#clip4)" clip-rule="nonzero">
<path style=" stroke:none;fill-rule:nonzero;fill:rgb(100%,88.238525%,0%);fill-opacity:1;" d="M 509.199219 304.433594 C 509.664062 322.5 509.738281 340.578125 509.789062 358.652344 C 509.828125 371.882812 509.851562 385.125 510.011719 398.363281 L 641.503906 398.363281 C 634.964844 384.996094 627.621094 371.886719 624.453125 357.234375 C 622.660156 348.96875 621.492188 340.585938 619.796875 332.304688 C 618.074219 323.886719 615.167969 315.839844 613.222656 307.488281 C 607.042969 280.984375 607.316406 253.457031 608.433594 226.234375 L 506.03125 226.234375 C 506.199219 233.992188 506.441406 241.742188 506.730469 249.484375 C 507.425781 267.808594 508.726562 286.105469 509.199219 304.433594 "/>
</g>
<g clip-path="url(#clip5)" clip-rule="nonzero">
<path style=" stroke:none;fill-rule:nonzero;fill:rgb(100%,88.238525%,0%);fill-opacity:1;" d="M 659.675781 441.519531 C 657.386719 434.964844 654.863281 428.960938 652.191406 422.816406 C 651.089844 420.28125 650.027344 417.714844 648.972656 415.175781 L 510.304688 415.175781 C 510.710938 432.667969 511.46875 450.148438 512.957031 467.585938 C 514.417969 484.78125 516.597656 500.277344 518.824219 517.472656 C 519.703125 524.25 520.929688 532.738281 522.484375 540.324219 C 523.484375 545.214844 524.648438 550.066406 526.074219 554.835938 L 655.945312 554.835938 C 654.808594 542.582031 656.128906 530.285156 657.910156 518.132812 C 659.851562 504.890625 662.46875 492.207031 663.476562 479.636719 C 664.582031 465.941406 664.117188 454.210938 659.675781 441.519531 "/>
</g>
<g clip-path="url(#clip6)" clip-rule="nonzero">
<path style=" stroke:none;fill-rule:nonzero;fill:rgb(100%,88.238525%,0%);fill-opacity:1;" d="M 402.71875 271.898438 C 403.140625 278.492188 403.511719 285.09375 403.621094 291.6875 C 430.503906 264.804688 457.386719 237.921875 484.269531 211.039062 C 485.59375 209.714844 487.28125 208.941406 489.035156 208.699219 C 488.976562 194.171875 489.222656 179.644531 489.929688 165.136719 C 489.945312 164.882812 489.960938 164.632812 489.972656 164.382812 L 396.886719 164.382812 C 396.847656 164.875 396.808594 165.371094 396.777344 165.867188 C 395.691406 183.511719 396.984375 201.15625 398.480469 218.738281 C 399.992188 236.441406 401.59375 254.160156 402.71875 271.898438 "/>
</g>
<g clip-path="url(#clip7)" clip-rule="nonzero">
<path style=" stroke:none;fill-rule:nonzero;fill:rgb(100%,88.238525%,0%);fill-opacity:1;" d="M 382.210938 419.898438 C 423.347656 461.023438 464.527344 502.109375 505.859375 543.035156 C 503.460938 530.800781 502.117188 518.3125 500.582031 506.027344 C 499.308594 495.882812 497.773438 485.246094 496.722656 474.0625 C 495.640625 462.527344 494.863281 450.964844 494.335938 439.390625 C 492.675781 403.074219 493.191406 366.714844 492.832031 330.375 C 492.503906 296.796875 490.136719 263.308594 489.328125 229.753906 C 460.316406 258.761719 431.304688 287.773438 402.296875 316.78125 C 402.007812 318.84375 401.664062 320.902344 401.257812 322.953125 C 395.59375 351.617188 379.375 375.910156 361.824219 398.660156 C 361.703125 398.820312 361.574219 398.980469 361.449219 399.140625 C 368.371094 406.0625 375.292969 412.980469 382.210938 419.898438 "/>
</g>
<g clip-path="url(#clip8)" clip-rule="nonzero">
<path style=" stroke:none;fill-rule:nonzero;fill:rgb(1.568604%,67.83905%,88.238525%);fill-opacity:1;" d="M 350.851562 412.316406 C 345.207031 419.191406 339.410156 426.179688 334.546875 432.601562 C 330.109375 438.460938 325.871094 444.546875 322.558594 451.125 C 322.046875 452.144531 321.535156 453.167969 321.066406 454.210938 C 320.890625 454.605469 320.78125 454.84375 320.71875 454.96875 C 320.679688 455.070312 320.632812 455.1875 320.582031 455.320312 C 319.972656 456.882812 319.386719 458.457031 318.910156 460.066406 C 318.425781 461.6875 318.003906 463.320312 317.632812 464.96875 C 317.433594 465.875 317.226562 466.777344 317.066406 467.691406 C 317.089844 467.582031 316.761719 469.714844 316.761719 469.511719 C 315.859375 477.421875 316.128906 485.421875 317.136719 493.308594 C 317.136719 493.261719 317.464844 495.566406 317.535156 496.007812 C 317.691406 496.976562 317.847656 497.945312 318.019531 498.910156 C 318.363281 500.824219 318.722656 502.734375 319.125 504.636719 C 319.878906 508.226562 320.851562 511.78125 321.53125 515.382812 C 322.867188 522.46875 324.253906 529.566406 326.230469 536.503906 C 327.242188 540.054688 328.359375 543.585938 329.75 547.007812 C 329.855469 547.234375 330.417969 548.535156 330.414062 548.53125 C 330.769531 549.289062 331.128906 550.046875 331.515625 550.792969 C 332.234375 552.171875 333.003906 553.519531 333.828125 554.835938 L 493.878906 554.835938 C 446.050781 507.480469 398.445312 459.90625 350.851562 412.316406 "/>
</g>
<g clip-path="url(#clip9)" clip-rule="nonzero">
<path style=" stroke:none;fill-rule:nonzero;fill:rgb(100%,88.238525%,0%);fill-opacity:1;" d="M 385.984375 309.320312 L 386.410156 308.898438 C 386.628906 306.570312 386.789062 304.242188 386.859375 301.90625 C 387.417969 284.132812 385.59375 266.195312 384.121094 248.503906 C 382.648438 230.804688 380.867188 213.085938 379.980469 195.347656 C 379.582031 187.402344 379.4375 179.421875 379.71875 171.464844 C 379.46875 171.378906 379.226562 171.277344 378.984375 171.160156 L 313.507812 171.160156 C 311.347656 177.214844 308.621094 183.089844 305.742188 188.796875 C 293.253906 213.527344 275.433594 234.960938 258.550781 256.746094 C 258.320312 257.042969 258.085938 257.34375 257.855469 257.644531 C 257.816406 257.695312 257.652344 257.90625 257.363281 258.285156 C 256.863281 258.933594 256.363281 259.578125 255.867188 260.230469 C 254.875 261.527344 253.886719 262.828125 252.902344 264.132812 C 250.941406 266.738281 248.992188 269.351562 247.085938 271.996094 C 245.652344 273.980469 244.242188 275.984375 242.84375 277.992188 C 278.785156 313.933594 314.722656 349.871094 350.660156 385.808594 C 352.664062 383.179688 354.691406 380.460938 356.828125 377.496094 C 364.933594 366.253906 372.5 354.488281 378 341.726562 C 378.03125 341.632812 378.800781 339.773438 378.882812 339.5625 C 379.183594 338.789062 379.488281 338.011719 379.773438 337.230469 C 380.351562 335.664062 380.910156 334.089844 381.421875 332.5 C 382.460938 329.273438 383.394531 326.011719 384.148438 322.707031 C 384.378906 321.707031 384.597656 320.703125 384.804688 319.699219 C 382.820312 316.464844 383.210938 312.097656 385.984375 309.320312 "/>
</g>
<g clip-path="url(#clip10)" clip-rule="nonzero">
<path style=" stroke:none;fill-rule:nonzero;fill:rgb(100%,88.238525%,0%);fill-opacity:1;" d="M 339.386719 398.308594 C 304.082031 363.003906 268.777344 327.699219 233.472656 292.394531 C 230.761719 296.894531 228.195312 301.480469 225.871094 306.191406 C 225.046875 307.863281 224.234375 309.546875 223.464844 311.25 C 223.136719 311.980469 222.808594 312.710938 222.488281 313.441406 C 222.355469 313.75 222.265625 313.953125 222.210938 314.082031 C 222.171875 314.171875 222.132812 314.269531 222.085938 314.386719 C 221.804688 315.078125 221.527344 315.769531 221.257812 316.464844 L 221.257812 554.835938 L 314.867188 554.835938 C 313.011719 550.617188 311.515625 546.21875 310.265625 541.832031 C 308.28125 534.859375 306.8125 527.761719 305.46875 520.640625 C 304.011719 512.921875 301.949219 505.363281 300.894531 497.554688 C 298.695312 481.300781 298.550781 464.667969 305.015625 449.289062 C 311.101562 434.820312 320.890625 422.554688 330.851562 410.574219 C 333.242188 407.695312 335.65625 404.828125 338.027344 401.929688 C 338.796875 400.992188 339.558594 400.042969 340.320312 399.097656 C 339.996094 398.859375 339.679688 398.601562 339.386719 398.308594 "/>
</g>
<g clip-path="url(#clip11)" clip-rule="nonzero">
<path style=" stroke:none;fill-rule:nonzero;fill:rgb(100%,100%,100%);fill-opacity:1;" d="M 755.007812 228.789062 C 747.890625 230.65625 740.644531 232 733.378906 233.074219 C 732.589844 233.179688 731.804688 233.277344 731.019531 233.375 C 729.261719 233.59375 727.503906 233.789062 725.742188 233.972656 C 721.992188 234.367188 718.230469 234.671875 714.46875 234.933594 C 706.984375 235.457031 699.480469 235.644531 691.996094 236.117188 C 658.605469 238.226562 625.375 243.503906 592.832031 251.4375 C 576.855469 255.332031 561.035156 259.910156 545.355469 264.941406 C 537.675781 267.410156 530.125 269.710938 522.167969 270.984375 C 521.859375 271.027344 521.570312 271.066406 521.394531 271.089844 C 520.425781 271.203125 519.457031 271.296875 518.484375 271.394531 C 516.546875 271.582031 514.601562 271.714844 512.65625 271.828125 C 508.433594 272.078125 504.203125 272.132812 499.976562 272.109375 C 483.734375 272.019531 467.496094 270.621094 451.257812 270.074219 C 442.800781 269.789062 434.347656 269.441406 425.902344 268.886719 C 421.855469 268.621094 417.816406 268.292969 413.78125 267.910156 C 412.785156 267.8125 411.789062 267.710938 410.792969 267.605469 C 399.238281 265.574219 387.800781 262.941406 376.519531 259.640625 C 369.660156 257.632812 362.882812 255.351562 356.171875 252.867188 C 352.984375 251.6875 349.820312 250.441406 346.667969 249.160156 C 345.089844 248.519531 343.527344 247.859375 341.960938 247.195312 C 341.898438 247.167969 341.824219 247.136719 341.742188 247.101562 C 340.890625 246.726562 340.039062 246.351562 339.1875 245.96875 C 312.117188 233.824219 286.089844 218.375 261.683594 201.296875 C 256.097656 197.390625 250.640625 193.292969 245.261719 189.09375 C 244.777344 188.714844 244.292969 188.332031 243.8125 187.953125 C 243.75 187.90625 243.691406 187.859375 243.625 187.804688 C 242.109375 186.589844 240.601562 185.359375 239.097656 184.125 C 236.324219 181.855469 233.574219 179.554688 230.839844 177.238281 C 227.96875 174.804688 225.152344 173.117188 221.441406 172.898438 L 221.441406 232.550781 C 229.980469 239.84375 238.878906 246.679688 248.3125 252.730469 C 261.902344 261.449219 276.304688 268.570312 291.121094 274.792969 C 308.933594 282.277344 327.445312 287.695312 346.25 291.753906 C 334.242188 300.585938 324.058594 311.8125 313.964844 322.816406 C 302.808594 334.972656 291.050781 346.53125 278.6875 357.382812 C 275.722656 359.988281 272.714844 362.535156 269.671875 365.042969 C 268.417969 366.082031 267.148438 367.105469 265.878906 368.125 C 265.550781 368.386719 265.203125 368.660156 265.023438 368.804688 C 264.007812 369.597656 262.988281 370.382812 261.96875 371.164062 C 255.644531 376.019531 249.152344 380.632812 242.535156 385.050781 C 235.65625 389.636719 228.613281 393.953125 221.441406 398.03125 L 221.441406 431.542969 C 236.753906 423.675781 251.597656 414.855469 265.769531 404.847656 C 293.246094 385.4375 317.378906 362.289062 340.28125 337.503906 C 345.738281 331.601562 351.316406 325.8125 357.324219 320.5 C 358.035156 319.871094 358.757812 319.257812 359.480469 318.644531 C 359.660156 318.492188 359.996094 318.222656 360.308594 317.964844 C 361.519531 317.035156 362.746094 316.136719 363.992188 315.261719 C 367.265625 312.960938 370.722656 310.953125 374.308594 309.207031 C 374.382812 309.167969 374.484375 309.121094 374.59375 309.070312 C 375.375 308.765625 376.164062 308.492188 376.953125 308.21875 C 378.902344 307.546875 380.875 306.953125 382.851562 306.382812 C 387.25 305.113281 391.722656 304.117188 396.210938 303.25 C 398.3125 302.839844 400.421875 302.488281 402.535156 302.152344 C 403.015625 302.074219 403.492188 302.007812 403.972656 301.9375 C 404.375 301.886719 405.675781 301.707031 406.089844 301.65625 C 410.59375 301.101562 415.113281 300.703125 419.636719 300.390625 C 428.621094 299.769531 437.5625 299.96875 446.53125 300.804688 C 448.6875 301.003906 450.839844 301.25 452.988281 301.507812 C 454.0625 301.636719 455.132812 301.777344 456.207031 301.917969 C 456.316406 301.933594 456.421875 301.945312 456.515625 301.957031 C 456.558594 301.960938 456.59375 301.96875 456.636719 301.976562 C 461.257812 302.632812 465.867188 303.363281 470.476562 304.082031 C 489.078125 306.96875 507.886719 309.804688 526.710938 307.644531 C 545.746094 305.460938 564.136719 299.023438 582.363281 293.257812 C 599.410156 287.859375 616.5 282.53125 634.054688 279.167969 C 636.171875 278.761719 638.300781 278.398438 640.429688 278.050781 C 640.960938 277.96875 641.496094 277.890625 642.027344 277.8125 C 642.5 277.75 643.726562 277.582031 644.113281 277.53125 C 648.851562 276.945312 653.613281 276.582031 658.382812 276.375 C 667.472656 275.980469 676.59375 276.035156 685.6875 275.71875 C 704.433594 275.0625 723.21875 273.488281 741.625 269.652344 C 749.027344 268.109375 756.292969 266.058594 763.410156 263.558594 L 763.410156 226.351562 C 760.636719 227.253906 757.828125 228.050781 755.007812 228.789062 "/>
</g>
<g clip-path="url(#clip12)" clip-rule="nonzero">
<path style=" stroke:none;fill-rule:nonzero;fill:rgb(100%,100%,100%);fill-opacity:1;" d="M 760.726562 331.257812 C 749.121094 325.789062 737.589844 320.214844 725.753906 315.25 C 714.710938 310.621094 703.382812 306.664062 691.625 304.253906 C 685.171875 302.933594 678.628906 302.300781 672.097656 301.5 C 671.992188 301.484375 671.867188 301.46875 671.734375 301.453125 C 671.539062 301.421875 671.339844 301.398438 671.144531 301.371094 C 670.015625 301.207031 668.886719 301.035156 667.761719 300.851562 C 665.445312 300.480469 663.132812 300.046875 660.835938 299.566406 C 656.796875 298.71875 652.808594 297.65625 648.90625 296.320312 C 648.03125 296.019531 647.164062 295.699219 646.296875 295.367188 C 646.140625 295.308594 645.980469 295.242188 645.824219 295.179688 C 644.199219 294.457031 642.605469 293.660156 641.046875 292.808594 C 639.53125 291.976562 638.066406 291.0625 636.632812 290.101562 C 636.152344 289.777344 635.6875 289.445312 635.21875 289.105469 C 634.886719 288.839844 634.558594 288.566406 634.230469 288.292969 C 631.425781 285.925781 628.894531 283.253906 626.570312 280.421875 C 626.496094 280.320312 626.421875 280.226562 626.347656 280.128906 C 625.777344 279.355469 625.226562 278.566406 624.683594 277.773438 C 623.449219 275.972656 622.304688 274.113281 621.207031 272.230469 C 618.863281 268.195312 616.824219 263.992188 614.9375 259.726562 C 614.847656 259.523438 614.757812 259.3125 614.667969 259.105469 C 614.585938 258.910156 614.503906 258.710938 614.441406 258.570312 C 613.5625 256.445312 612.667969 254.328125 611.757812 252.21875 C 610.429688 249.144531 609.003906 246.117188 607.527344 243.117188 C 604.667969 237.324219 601.515625 231.679688 598.191406 226.136719 C 591.53125 215.023438 584.054688 204.410156 576.285156 194.035156 C 568.976562 184.269531 561.492188 174.632812 553.496094 165.414062 C 550.175781 161.589844 546.808594 157.808594 543.496094 153.980469 C 541.929688 152.175781 540.382812 150.355469 538.851562 148.519531 C 538.09375 147.609375 537.347656 146.691406 536.601562 145.769531 C 536.230469 145.3125 535.863281 144.851562 535.496094 144.390625 C 535.472656 144.359375 535.449219 144.332031 535.425781 144.300781 C 532.539062 140.535156 529.835938 136.632812 527.402344 132.558594 C 526.234375 130.609375 525.15625 128.605469 524.144531 126.570312 C 523.726562 125.730469 523.335938 124.878906 522.953125 124.023438 C 522.691406 123.375 522.445312 122.726562 522.207031 122.074219 C 520.800781 118.269531 519.789062 114.332031 519.113281 110.339844 C 519.101562 110.269531 519.09375 110.195312 519.082031 110.125 C 519.074219 110.046875 519.0625 109.96875 519.054688 109.902344 C 518.921875 108.6875 518.835938 107.464844 518.769531 106.246094 C 518.644531 103.921875 518.671875 101.589844 518.785156 99.261719 C 518.839844 98.160156 518.933594 97.058594 519.035156 95.960938 C 519.074219 95.585938 519.113281 95.210938 519.160156 94.839844 C 519.628906 91.773438 520.078125 88.707031 520.511719 85.636719 C 521.484375 78.777344 522.382812 71.902344 523.21875 65.019531 C 525.269531 48.117188 526.90625 31.164062 528.558594 14.214844 L 504.945312 14.214844 C 502.90625 35.011719 500.898438 55.804688 498.144531 76.523438 C 498.128906 76.628906 498.109375 76.75 498.09375 76.894531 C 497.976562 77.730469 497.859375 78.566406 497.742188 79.402344 C 497.507812 81.074219 497.265625 82.75 497.019531 84.421875 C 496.421875 88.484375 495.746094 92.539062 495.363281 96.628906 C 494.785156 102.742188 495.230469 108.746094 496.082031 114.808594 C 497.523438 125.09375 501.511719 134.953125 506.722656 143.910156 C 517.152344 161.832031 532.609375 176.300781 545.511719 192.386719 C 546.320312 193.390625 547.109375 194.410156 547.902344 195.421875 C 548.089844 195.660156 548.277344 195.898438 548.460938 196.140625 C 548.691406 196.4375 549.164062 197.042969 549.347656 197.285156 C 551.394531 199.929688 553.421875 202.585938 555.433594 205.253906 C 559.324219 210.429688 563.125 215.671875 566.808594 220.992188 C 574.175781 231.648438 580.980469 242.699219 586.792969 254.269531 C 588.179688 257.027344 589.492188 259.824219 590.75 262.644531 C 590.894531 262.972656 591.035156 263.300781 591.175781 263.628906 C 591.335938 264.003906 591.570312 264.558594 591.675781 264.808594 C 592.527344 266.886719 593.414062 268.953125 594.308594 271.019531 C 596.171875 275.320312 598.242188 279.539062 600.558594 283.617188 C 602.761719 287.492188 605.253906 291.277344 608.03125 294.835938 C 607.226562 295.117188 606.441406 295.46875 605.679688 295.898438 C 579.746094 310.546875 557.03125 330.15625 533.585938 348.304688 C 533.289062 348.535156 532.988281 348.769531 532.6875 349 C 532.574219 349.082031 532.402344 349.210938 532.152344 349.402344 C 530.761719 350.449219 529.355469 351.472656 527.9375 352.488281 C 525.300781 354.386719 522.613281 356.222656 519.917969 358.042969 C 514.398438 361.769531 508.804688 365.378906 503.25 369.050781 C 491.457031 376.847656 479.738281 385 469.367188 394.628906 C 464.644531 399.015625 463.742188 406.839844 467.078125 412.273438 C 483.277344 438.648438 503.640625 462.257812 524.390625 485.167969 C 534.550781 496.386719 544.851562 507.484375 554.90625 518.800781 C 559.90625 524.433594 564.835938 530.128906 569.664062 535.910156 C 571.96875 538.671875 574.238281 541.464844 576.484375 544.277344 C 576.855469 544.738281 578.128906 546.359375 578.761719 547.167969 C 579.808594 548.523438 580.847656 549.886719 581.875 551.253906 C 582.765625 552.441406 583.640625 553.636719 584.511719 554.835938 L 615.960938 554.835938 C 616.390625 551.769531 615.84375 548.613281 613.988281 545.96875 C 596.171875 520.535156 575.214844 497.554688 554.289062 474.65625 C 544.089844 463.496094 533.917969 452.308594 524.144531 440.773438 C 521.808594 438.023438 519.507812 435.242188 517.230469 432.445312 C 516.09375 431.050781 514.964844 429.644531 513.84375 428.238281 C 513.3125 427.5625 512.78125 426.886719 512.246094 426.210938 C 512.070312 425.980469 511.890625 425.746094 511.710938 425.515625 C 507.242188 419.703125 502.957031 413.753906 498.863281 407.675781 C 499.292969 407.335938 499.722656 406.992188 500.15625 406.65625 C 500.863281 406.121094 501.574219 405.59375 502.289062 405.066406 C 507.667969 401.097656 513.222656 397.371094 518.804688 393.683594 C 530.605469 385.882812 542.316406 378.132812 553.523438 369.496094 C 559.039062 365.246094 564.5 360.921875 569.96875 356.613281 C 572.847656 354.34375 575.726562 352.082031 578.613281 349.828125 C 579.925781 348.808594 581.238281 347.789062 582.554688 346.773438 C 582.59375 346.746094 582.621094 346.722656 582.652344 346.695312 C 582.683594 346.671875 582.714844 346.648438 582.75 346.625 C 583.539062 346.019531 584.332031 345.417969 585.121094 344.820312 C 596.4375 336.242188 608.082031 328.035156 620.46875 321.039062 C 624.027344 319.03125 626.367188 315.617188 627.265625 311.859375 C 638.457031 318.488281 651.277344 321.980469 664.292969 323.910156 C 667.289062 324.351562 670.292969 324.742188 673.300781 325.105469 C 674.320312 325.226562 675.339844 325.34375 676.359375 325.453125 C 677.054688 325.527344 677.75 325.601562 678.441406 325.679688 C 678.484375 325.6875 678.515625 325.691406 678.554688 325.695312 C 683.917969 326.464844 689.21875 327.628906 694.449219 329.042969 C 699.761719 330.476562 704.980469 332.230469 710.132812 334.152344 C 712.601562 335.070312 715.050781 336.046875 717.484375 337.046875 C 717.539062 337.070312 717.609375 337.097656 717.683594 337.128906 C 718.222656 337.359375 718.765625 337.589844 719.304688 337.824219 C 720.628906 338.394531 721.949219 338.972656 723.265625 339.558594 C 736.742188 345.546875 749.925781 352.214844 763.414062 358.164062 L 763.414062 332.519531 C 762.515625 332.101562 761.621094 331.679688 760.726562 331.257812 "/>
</g>
<g clip-path="url(#clip13)" clip-rule="nonzero">
<path style=" stroke:none;fill-rule:nonzero;fill:rgb(1.568604%,67.83905%,88.238525%);fill-opacity:1;" d="M 299.550781 114.515625 C 299.417969 108.015625 299.3125 101.519531 299.21875 95.023438 L 221.257812 95.023438 L 221.257812 280.421875 C 226.691406 271.714844 232.667969 263.316406 238.878906 255.117188 C 242.9375 249.757812 247.0625 244.449219 251.199219 239.152344 C 255.019531 234.265625 258.402344 229.945312 261.453125 225.953125 C 268.707031 216.453125 275.792969 206.792969 282.09375 196.625 C 285.644531 190.902344 288.992188 185.039062 291.945312 178.980469 C 292.773438 177.289062 293.582031 175.582031 294.351562 173.859375 C 294.625 173.253906 294.890625 172.644531 295.15625 172.03125 C 295.300781 171.683594 295.710938 170.707031 295.730469 170.65625 C 296.949219 167.632812 298.054688 164.574219 299.097656 161.484375 C 301.613281 154.058594 301.578125 147.113281 300.972656 138.835938 C 300.378906 130.710938 299.722656 122.664062 299.550781 114.515625 "/>
</g>
<g clip-path="url(#clip14)" clip-rule="nonzero">
<path style=" stroke:none;fill-rule:nonzero;fill:rgb(1.568604%,67.83905%,88.238525%);fill-opacity:1;" d="M 402.71875 272.015625 C 403.140625 278.609375 403.511719 285.210938 403.621094 291.804688 C 430.503906 264.921875 457.386719 238.039062 484.269531 211.15625 C 485.59375 209.832031 487.28125 209.058594 489.035156 208.816406 C 488.976562 194.289062 489.222656 179.761719 489.929688 165.253906 C 489.945312 165 489.960938 164.75 489.972656 164.5 L 396.886719 164.5 C 396.847656 164.992188 396.808594 165.488281 396.777344 165.984375 C 395.691406 183.628906 396.984375 201.273438 398.480469 218.855469 C 399.992188 236.558594 401.59375 254.277344 402.71875 272.015625 "/>
</g>
<g clip-path="url(#clip15)" clip-rule="nonzero">
<path style=" stroke:none;fill-rule:nonzero;fill:rgb(1.568604%,67.83905%,88.238525%);fill-opacity:1;" d="M 382.210938 420.015625 C 423.347656 461.140625 464.527344 502.226562 505.859375 543.152344 C 503.460938 530.917969 502.117188 518.429688 500.582031 506.144531 C 499.308594 496 497.773438 485.363281 496.722656 474.179688 C 495.640625 462.644531 494.863281 451.082031 494.335938 439.507812 C 492.675781 403.191406 493.191406 366.832031 492.832031 330.492188 C 492.503906 296.914062 490.136719 263.425781 489.328125 229.867188 C 460.316406 258.878906 431.304688 287.890625 402.296875 316.898438 C 402.007812 318.960938 401.664062 321.019531 401.257812 323.070312 C 395.59375 351.734375 379.375 376.027344 361.824219 398.777344 C 361.703125 398.9375 361.574219 399.097656 361.449219 399.257812 C 368.371094 406.179688 375.292969 413.097656 382.210938 420.015625 "/>
</g>
<g clip-path="url(#clip16)" clip-rule="nonzero">
<path style=" stroke:none;fill-rule:nonzero;fill:rgb(1.568604%,67.83905%,88.238525%);fill-opacity:1;" d="M 350.851562 412.429688 C 345.207031 419.308594 339.410156 426.292969 334.546875 432.71875 C 330.109375 438.578125 325.871094 444.664062 322.558594 451.242188 C 322.046875 452.261719 321.535156 453.285156 321.066406 454.328125 C 320.890625 454.722656 320.78125 454.960938 320.71875 455.085938 C 320.679688 455.1875 320.632812 455.304688 320.582031 455.4375 C 319.972656 457 319.386719 458.574219 318.910156 460.183594 C 318.425781 461.804688 318.003906 463.4375 317.632812 465.085938 C 317.433594 465.992188 317.226562 466.894531 317.066406 467.808594 C 317.089844 467.699219 316.761719 469.832031 316.761719 469.628906 C 315.859375 477.539062 316.128906 485.539062 317.136719 493.425781 C 317.136719 493.378906 317.464844 495.683594 317.535156 496.125 C 317.691406 497.09375 317.847656 498.0625 318.019531 499.027344 C 318.363281 500.941406 318.722656 502.851562 319.125 504.753906 C 319.878906 508.34375 320.851562 511.898438 321.53125 515.5 C 322.867188 522.585938 324.253906 529.683594 326.230469 536.621094 C 327.242188 540.171875 328.359375 543.703125 329.75 547.125 C 329.855469 547.351562 330.417969 548.652344 330.414062 548.644531 C 330.769531 549.40625 331.128906 550.164062 331.515625 550.910156 C 332.234375 552.289062 333.003906 553.632812 333.828125 554.953125 L 493.878906 554.953125 C 446.050781 507.597656 398.445312 460.023438 350.851562 412.429688 "/>
</g>
<g clip-path="url(#clip17)" clip-rule="nonzero">
<path style=" stroke:none;fill-rule:nonzero;fill:rgb(1.568604%,67.83905%,88.238525%);fill-opacity:1;" d="M 385.984375 309.4375 L 386.410156 309.015625 C 386.628906 306.6875 386.789062 304.359375 386.859375 302.023438 C 387.417969 284.25 385.59375 266.3125 384.121094 248.617188 C 382.648438 230.921875 380.867188 213.203125 379.980469 195.464844 C 379.582031 187.519531 379.4375 179.539062 379.71875 171.582031 C 379.46875 171.496094 379.226562 171.394531 378.984375 171.277344 L 313.507812 171.277344 C 311.347656 177.332031 308.621094 183.207031 305.742188 188.914062 C 293.253906 213.644531 275.433594 235.078125 258.550781 256.863281 C 258.320312 257.160156 258.085938 257.460938 257.855469 257.761719 C 257.816406 257.8125 257.652344 258.023438 257.363281 258.402344 C 256.863281 259.050781 256.363281 259.695312 255.867188 260.347656 C 254.875 261.644531 253.886719 262.945312 252.902344 264.25 C 250.941406 266.855469 248.992188 269.46875 247.085938 272.113281 C 245.652344 274.097656 244.242188 276.101562 242.84375 278.109375 C 278.785156 314.050781 314.722656 349.988281 350.660156 385.925781 C 352.664062 383.296875 354.691406 380.578125 356.828125 377.613281 C 364.933594 366.371094 372.5 354.605469 378 341.84375 C 378.03125 341.75 378.800781 339.890625 378.882812 339.679688 C 379.183594 338.90625 379.488281 338.128906 379.773438 337.347656 C 380.351562 335.78125 380.910156 334.207031 381.421875 332.617188 C 382.460938 329.390625 383.394531 326.128906 384.148438 322.824219 C 384.378906 321.824219 384.597656 320.820312 384.804688 319.816406 C 382.820312 316.582031 383.210938 312.214844 385.984375 309.4375 "/>
</g>
<g clip-path="url(#clip18)" clip-rule="nonzero">
<path style=" stroke:none;fill-rule:nonzero;fill:rgb(1.568604%,67.83905%,88.238525%);fill-opacity:1;" d="M 339.386719 398.425781 C 304.082031 363.121094 268.777344 327.816406 233.472656 292.511719 C 230.761719 297.011719 228.195312 301.597656 225.871094 306.308594 C 225.046875 307.980469 224.234375 309.664062 223.464844 311.367188 C 223.136719 312.097656 222.808594 312.828125 222.488281 313.558594 C 222.355469 313.867188 222.265625 314.070312 222.210938 314.199219 C 222.171875 314.289062 222.132812 314.386719 222.085938 314.503906 C 221.804688 315.195312 221.527344 315.886719 221.257812 316.582031 L 221.257812 554.953125 L 314.867188 554.953125 C 313.011719 550.734375 311.515625 546.335938 310.265625 541.949219 C 308.28125 534.976562 306.8125 527.878906 305.46875 520.757812 C 304.011719 513.039062 301.949219 505.480469 300.894531 497.671875 C 298.695312 481.417969 298.550781 464.785156 305.015625 449.40625 C 311.101562 434.9375 320.890625 422.671875 330.851562 410.691406 C 333.242188 407.8125 335.65625 404.945312 338.027344 402.046875 C 338.796875 401.109375 339.558594 400.160156 340.320312 399.214844 C 339.996094 398.976562 339.679688 398.71875 339.386719 398.425781 "/>
</g>
<g clip-path="url(#clip19)" clip-rule="nonzero">
<path style=" stroke:none;fill-rule:nonzero;fill:rgb(100%,100%,100%);fill-opacity:1;" d="M 755.007812 228.90625 C 747.890625 230.773438 740.644531 232.117188 733.378906 233.191406 C 732.589844 233.296875 731.804688 233.394531 731.019531 233.492188 C 729.261719 233.710938 727.503906 233.902344 725.742188 234.089844 C 721.992188 234.484375 718.230469 234.789062 714.46875 235.050781 C 706.984375 235.574219 699.480469 235.761719 691.996094 236.234375 C 658.605469 238.34375 625.375 243.621094 592.832031 251.554688 C 576.855469 255.449219 561.035156 260.023438 545.355469 265.058594 C 537.675781 267.527344 530.125 269.824219 522.167969 271.101562 C 521.859375 271.144531 521.570312 271.183594 521.394531 271.203125 C 520.425781 271.320312 519.457031 271.414062 518.484375 271.511719 C 516.546875 271.699219 514.601562 271.832031 512.65625 271.945312 C 508.433594 272.195312 504.203125 272.25 499.976562 272.226562 C 483.734375 272.136719 467.496094 270.738281 451.257812 270.191406 C 442.800781 269.90625 434.347656 269.558594 425.902344 269.003906 C 421.855469 268.738281 417.816406 268.410156 413.78125 268.027344 C 412.785156 267.929688 411.789062 267.828125 410.792969 267.722656 C 399.238281 265.691406 387.800781 263.058594 376.519531 259.757812 C 369.660156 257.75 362.882812 255.46875 356.171875 252.984375 C 352.984375 251.800781 349.820312 250.558594 346.667969 249.277344 C 345.089844 248.636719 343.527344 247.976562 341.960938 247.3125 C 341.898438 247.285156 341.824219 247.253906 341.746094 247.21875 C 340.890625 246.84375 340.039062 246.46875 339.1875 246.085938 C 312.117188 233.941406 286.089844 218.492188 261.683594 201.414062 C 256.097656 197.507812 250.640625 193.410156 245.261719 189.210938 C 244.777344 188.832031 244.292969 188.449219 243.8125 188.070312 C 243.75 188.023438 243.691406 187.976562 243.625 187.921875 C 242.109375 186.707031 240.601562 185.476562 239.097656 184.242188 C 236.324219 181.972656 233.574219 179.671875 230.839844 177.351562 C 227.96875 174.921875 225.152344 173.234375 221.441406 173.015625 L 221.441406 232.667969 C 229.980469 239.960938 238.878906 246.796875 248.3125 252.847656 C 261.902344 261.566406 276.304688 268.6875 291.121094 274.910156 C 308.933594 282.394531 327.445312 287.8125 346.25 291.871094 C 334.242188 300.703125 324.058594 311.929688 313.964844 322.933594 C 302.808594 335.089844 291.050781 346.648438 278.6875 357.5 C 275.722656 360.105469 272.714844 362.652344 269.671875 365.160156 C 268.417969 366.199219 267.148438 367.222656 265.878906 368.242188 C 265.550781 368.503906 265.203125 368.777344 265.023438 368.921875 C 264.007812 369.714844 262.988281 370.5 261.96875 371.28125 C 255.644531 376.132812 249.152344 380.75 242.535156 385.167969 C 235.65625 389.753906 228.613281 394.070312 221.441406 398.148438 L 221.441406 431.660156 C 236.753906 423.792969 251.597656 414.972656 265.769531 404.960938 C 293.246094 385.554688 317.378906 362.40625 340.28125 337.621094 C 345.738281 331.714844 351.316406 325.929688 357.324219 320.617188 C 358.035156 319.988281 358.757812 319.375 359.480469 318.761719 C 359.660156 318.609375 359.996094 318.339844 360.308594 318.078125 C 361.519531 317.152344 362.746094 316.253906 363.992188 315.378906 C 367.265625 313.078125 370.722656 311.070312 374.308594 309.324219 C 374.382812 309.285156 374.484375 309.238281 374.59375 309.1875 C 375.375 308.878906 376.164062 308.609375 376.953125 308.335938 C 378.902344 307.664062 380.875 307.070312 382.851562 306.5 C 387.25 305.230469 391.722656 304.234375 396.210938 303.363281 C 398.3125 302.957031 400.421875 302.605469 402.535156 302.269531 C 403.015625 302.191406 403.492188 302.125 403.972656 302.054688 C 404.375 302.003906 405.675781 301.824219 406.089844 301.773438 C 410.59375 301.21875 415.113281 300.820312 419.636719 300.507812 C 428.621094 299.886719 437.5625 300.085938 446.53125 300.921875 C 448.6875 301.121094 450.839844 301.367188 452.988281 301.625 C 454.0625 301.753906 455.132812 301.894531 456.207031 302.035156 C 456.316406 302.050781 456.421875 302.0625 456.515625 302.074219 C 456.558594 302.078125 456.59375 302.085938 456.636719 302.09375 C 461.257812 302.75 465.867188 303.480469 470.476562 304.199219 C 489.078125 307.085938 507.890625 309.921875 526.710938 307.761719 C 545.746094 305.578125 564.136719 299.140625 582.363281 293.375 C 599.410156 287.976562 616.5 282.648438 634.054688 279.285156 C 636.171875 278.878906 638.300781 278.515625 640.429688 278.167969 C 640.960938 278.085938 641.496094 278.007812 642.027344 277.929688 C 642.5 277.867188 643.726562 277.695312 644.113281 277.648438 C 648.851562 277.0625 653.613281 276.699219 658.382812 276.492188 C 667.472656 276.097656 676.59375 276.152344 685.6875 275.835938 C 704.433594 275.179688 723.21875 273.605469 741.625 269.769531 C 749.027344 268.226562 756.292969 266.175781 763.410156 263.675781 L 763.410156 226.46875 C 760.636719 227.371094 757.828125 228.167969 755.007812 228.90625 "/>
</g>
<g clip-path="url(#clip20)" clip-rule="nonzero">
<path style=" stroke:none;fill-rule:nonzero;fill:rgb(1.568604%,67.83905%,88.238525%);fill-opacity:1;" d="M 402.765625 271.019531 C 403.1875 277.679688 403.5625 284.347656 403.671875 291.003906 C 430.816406 263.859375 457.960938 236.71875 485.101562 209.574219 C 486.441406 208.234375 488.144531 207.457031 489.917969 207.210938 C 489.855469 192.542969 490.101562 177.875 490.820312 163.226562 C 490.832031 162.972656 490.847656 162.71875 490.863281 162.464844 L 396.875 162.464844 C 396.835938 162.964844 396.796875 163.464844 396.761719 163.964844 C 395.664062 181.777344 396.972656 199.597656 398.484375 217.347656 C 400.007812 235.222656 401.628906 253.113281 402.765625 271.019531 "/>
</g>
<g clip-path="url(#clip21)" clip-rule="nonzero">
<path style=" stroke:none;fill-rule:nonzero;fill:rgb(1.568604%,67.83905%,88.238525%);fill-opacity:1;" d="M 382.058594 420.457031 C 423.59375 461.980469 465.167969 503.460938 506.902344 544.785156 C 504.480469 532.433594 503.125 519.820312 501.574219 507.417969 C 500.289062 497.175781 498.738281 486.433594 497.679688 475.144531 C 496.585938 463.496094 495.796875 451.824219 495.265625 440.136719 C 493.589844 403.46875 494.109375 366.757812 493.75 330.0625 C 493.414062 296.160156 491.027344 262.347656 490.210938 228.46875 C 460.917969 257.757812 431.628906 287.050781 402.335938 316.339844 C 402.042969 318.421875 401.695312 320.5 401.289062 322.570312 C 395.570312 351.515625 379.195312 376.042969 361.472656 399.011719 C 361.347656 399.171875 361.21875 399.335938 361.09375 399.496094 C 368.082031 406.484375 375.070312 413.472656 382.058594 420.457031 "/>
</g>
<g clip-path="url(#clip22)" clip-rule="nonzero">
<path style=" stroke:none;fill-rule:nonzero;fill:rgb(1.568604%,67.83905%,88.238525%);fill-opacity:1;" d="M 350.394531 412.796875 C 344.691406 419.738281 338.839844 426.796875 333.929688 433.28125 C 329.453125 439.199219 325.171875 445.34375 321.828125 451.984375 C 321.308594 453.011719 320.792969 454.046875 320.320312 455.097656 C 320.140625 455.5 320.03125 455.738281 319.96875 455.863281 C 319.929688 455.96875 319.882812 456.085938 319.832031 456.222656 C 319.214844 457.796875 318.625 459.390625 318.140625 461.011719 C 317.65625 462.648438 317.226562 464.300781 316.855469 465.964844 C 316.652344 466.875 316.445312 467.789062 316.28125 468.710938 C 316.304688 468.601562 315.976562 470.753906 315.976562 470.550781 C 315.0625 478.535156 315.335938 486.613281 316.351562 494.578125 C 316.351562 494.527344 316.683594 496.855469 316.753906 497.300781 C 316.914062 498.28125 317.070312 499.257812 317.246094 500.234375 C 317.589844 502.164062 317.953125 504.09375 318.359375 506.015625 C 319.121094 509.640625 320.101562 513.226562 320.789062 516.867188 C 322.136719 524.019531 323.539062 531.183594 325.535156 538.191406 C 326.554688 541.773438 327.683594 545.339844 329.085938 548.796875 C 329.195312 549.023438 329.761719 550.339844 329.757812 550.332031 C 330.117188 551.097656 330.480469 551.863281 330.871094 552.617188 C 331.597656 554.011719 332.375 555.367188 333.207031 556.699219 L 494.804688 556.699219 C 446.515625 508.886719 398.449219 460.851562 350.394531 412.796875 "/>
</g>
<g clip-path="url(#clip23)" clip-rule="nonzero">
<path style=" stroke:none;fill-rule:nonzero;fill:rgb(1.568604%,67.83905%,88.238525%);fill-opacity:1;" d="M 385.867188 308.808594 L 386.296875 308.378906 C 386.515625 306.03125 386.679688 303.679688 386.75 301.320312 C 387.3125 283.375 385.472656 265.265625 383.984375 247.398438 C 382.5 229.53125 380.699219 211.640625 379.804688 193.730469 C 379.402344 185.707031 379.257812 177.652344 379.539062 169.617188 C 379.289062 169.527344 379.042969 169.425781 378.796875 169.308594 L 312.691406 169.308594 C 310.507812 175.421875 307.753906 181.355469 304.847656 187.117188 C 292.238281 212.085938 274.246094 233.726562 257.199219 255.722656 C 256.964844 256.023438 256.730469 256.328125 256.496094 256.628906 C 256.457031 256.679688 256.292969 256.894531 256 257.277344 C 255.496094 257.929688 254.992188 258.585938 254.488281 259.242188 C 253.488281 260.550781 252.488281 261.867188 251.496094 263.183594 C 249.515625 265.8125 247.550781 268.453125 245.621094 271.121094 C 244.175781 273.125 242.75 275.148438 241.339844 277.175781 C 277.628906 313.464844 313.914062 349.75 350.203125 386.035156 C 352.222656 383.378906 354.269531 380.636719 356.425781 377.640625 C 364.613281 366.292969 372.25 354.414062 377.804688 341.527344 C 377.835938 341.429688 378.613281 339.554688 378.695312 339.339844 C 379 338.558594 379.308594 337.777344 379.597656 336.988281 C 380.175781 335.40625 380.746094 333.816406 381.257812 332.210938 C 382.308594 328.953125 383.25 325.660156 384.015625 322.324219 C 384.246094 321.3125 384.46875 320.300781 384.675781 319.285156 C 382.671875 316.019531 383.066406 311.609375 385.867188 308.808594 "/>
</g>
<g clip-path="url(#clip24)" clip-rule="nonzero">
<path style=" stroke:none;fill-rule:nonzero;fill:rgb(100%,100%,100%);fill-opacity:1;" d="M 758.460938 227.496094 C 751.277344 229.382812 743.960938 230.738281 736.625 231.824219 C 735.828125 231.929688 735.035156 232.027344 734.242188 232.128906 C 732.46875 232.347656 730.691406 232.542969 728.914062 232.726562 C 725.125 233.125 721.328125 233.4375 717.53125 233.703125 C 709.972656 234.226562 702.398438 234.417969 694.839844 234.894531 C 661.125 237.023438 627.578125 242.355469 594.71875 250.363281 C 578.585938 254.292969 562.609375 258.917969 546.78125 263.996094 C 539.023438 266.488281 531.402344 268.8125 523.367188 270.097656 C 523.054688 270.140625 522.765625 270.183594 522.589844 270.203125 C 521.609375 270.320312 520.628906 270.414062 519.652344 270.511719 C 517.691406 270.703125 515.730469 270.835938 513.761719 270.953125 C 509.503906 271.203125 505.230469 271.257812 500.964844 271.234375 C 484.5625 271.144531 468.167969 269.730469 451.773438 269.179688 C 443.234375 268.890625 434.695312 268.539062 426.167969 267.980469 C 422.085938 267.714844 418.007812 267.382812 413.933594 266.992188 C 412.925781 266.898438 411.917969 266.796875 410.914062 266.6875 C 399.25 264.636719 387.699219 261.980469 376.308594 258.644531 C 369.386719 256.617188 362.539062 254.3125 355.765625 251.808594 C 352.546875 250.613281 349.351562 249.359375 346.167969 248.0625 C 344.578125 247.417969 342.996094 246.75 341.417969 246.078125 C 341.355469 246.054688 341.28125 246.023438 341.199219 245.984375 C 340.335938 245.605469 339.476562 245.226562 338.617188 244.839844 C 311.28125 232.582031 285.007812 216.980469 260.363281 199.738281 C 254.722656 195.792969 249.210938 191.65625 243.78125 187.417969 C 243.292969 187.035156 242.804688 186.648438 242.316406 186.261719 C 242.257812 186.214844 242.195312 186.167969 242.128906 186.113281 C 240.597656 184.886719 239.074219 183.644531 237.554688 182.402344 C 234.757812 180.109375 231.984375 177.785156 229.21875 175.445312 C 226.320312 172.988281 223.480469 171.285156 219.730469 171.0625 L 219.730469 231.296875 C 228.351562 238.660156 237.335938 245.558594 246.859375 251.667969 C 260.585938 260.472656 275.125 267.660156 290.085938 273.945312 C 308.066406 281.503906 326.761719 286.972656 345.75 291.070312 C 333.625 299.988281 323.34375 311.320312 313.148438 322.433594 C 301.886719 334.707031 290.011719 346.378906 277.53125 357.335938 C 274.539062 359.964844 271.5 362.535156 268.429688 365.070312 C 267.160156 366.117188 265.878906 367.148438 264.597656 368.179688 C 264.265625 368.445312 263.914062 368.722656 263.734375 368.867188 C 262.710938 369.667969 261.679688 370.460938 260.652344 371.25 C 254.265625 376.148438 247.710938 380.808594 241.027344 385.269531 C 234.082031 389.898438 226.972656 394.257812 219.730469 398.375 L 219.730469 432.210938 C 235.191406 424.269531 250.179688 415.363281 264.488281 405.257812 C 292.230469 385.664062 316.597656 362.289062 339.722656 337.261719 C 345.230469 331.300781 350.863281 325.457031 356.929688 320.09375 C 357.648438 319.457031 358.378906 318.839844 359.105469 318.21875 C 359.285156 318.066406 359.625 317.792969 359.945312 317.53125 C 361.164062 316.597656 362.402344 315.6875 363.660156 314.804688 C 366.96875 312.480469 370.457031 310.453125 374.074219 308.691406 C 374.152344 308.652344 374.253906 308.605469 374.367188 308.554688 C 375.152344 308.246094 375.953125 307.96875 376.75 307.691406 C 378.71875 307.015625 380.707031 306.417969 382.703125 305.839844 C 387.144531 304.558594 391.660156 303.554688 396.195312 302.675781 C 398.3125 302.261719 400.445312 301.90625 402.574219 301.566406 C 403.0625 301.492188 403.542969 301.425781 404.03125 301.351562 C 404.4375 301.300781 405.75 301.121094 406.167969 301.070312 C 410.714844 300.507812 415.277344 300.105469 419.84375 299.789062 C 428.914062 299.164062 437.945312 299.363281 447 300.207031 C 449.175781 300.410156 451.347656 300.660156 453.519531 300.917969 C 454.601562 301.050781 455.683594 301.191406 456.769531 301.332031 C 456.882812 301.347656 456.984375 301.359375 457.078125 301.375 C 457.121094 301.378906 457.160156 301.382812 457.203125 301.390625 C 461.867188 302.054688 466.523438 302.792969 471.179688 303.515625 C 489.960938 306.433594 508.953125 309.296875 527.957031 307.117188 C 547.171875 304.910156 565.742188 298.410156 584.148438 292.585938 C 601.359375 287.136719 618.613281 281.757812 636.339844 278.359375 C 638.476562 277.949219 640.628906 277.585938 642.777344 277.234375 C 643.3125 277.152344 643.851562 277.074219 644.386719 276.996094 C 644.867188 276.929688 646.105469 276.757812 646.492188 276.710938 C 651.277344 276.121094 656.085938 275.75 660.902344 275.542969 C 670.082031 275.140625 679.289062 275.199219 688.472656 274.878906 C 707.398438 274.21875 726.367188 272.628906 744.953125 268.753906 C 752.425781 267.195312 759.757812 265.125 766.949219 262.601562 L 766.949219 225.035156 C 764.144531 225.945312 761.308594 226.75 758.460938 227.496094 "/>
</g>
<g clip-path="url(#clip25)" clip-rule="nonzero">
<path style=" stroke:none;fill-rule:nonzero;fill:rgb(100%,100%,100%);fill-opacity:1;" d="M 764.234375 330.957031 C 752.519531 325.433594 740.875 319.804688 728.925781 314.796875 C 717.777344 310.121094 706.335938 306.125 694.464844 303.691406 C 687.953125 302.355469 681.34375 301.71875 674.75 300.910156 C 674.644531 300.894531 674.519531 300.878906 674.382812 300.863281 C 674.183594 300.832031 673.984375 300.804688 673.789062 300.777344 C 672.648438 300.617188 671.507812 300.441406 670.375 300.257812 C 668.03125 299.878906 665.699219 299.445312 663.378906 298.957031 C 659.300781 298.101562 655.273438 297.03125 651.335938 295.683594 C 650.449219 295.378906 649.574219 295.054688 648.699219 294.71875 C 648.539062 294.65625 648.382812 294.59375 648.222656 294.53125 C 646.582031 293.800781 644.972656 292.996094 643.398438 292.132812 C 641.871094 291.296875 640.386719 290.375 638.941406 289.402344 C 638.457031 289.074219 637.984375 288.738281 637.515625 288.398438 C 637.179688 288.125 636.847656 287.851562 636.515625 287.574219 C 633.683594 285.183594 631.128906 282.488281 628.78125 279.628906 C 628.707031 279.527344 628.632812 279.429688 628.558594 279.332031 C 627.980469 278.550781 627.425781 277.753906 626.875 276.953125 C 625.628906 275.136719 624.476562 273.257812 623.367188 271.355469 C 621 267.285156 618.941406 263.039062 617.039062 258.734375 C 616.945312 258.527344 616.855469 258.316406 616.765625 258.105469 C 616.679688 257.90625 616.597656 257.707031 616.539062 257.566406 C 615.648438 255.417969 614.746094 253.28125 613.824219 251.152344 C 612.488281 248.050781 611.046875 244.992188 609.554688 241.964844 C 606.667969 236.113281 603.484375 230.414062 600.128906 224.820312 C 593.402344 213.597656 585.855469 202.878906 578.011719 192.402344 C 570.628906 182.542969 563.074219 172.8125 555 163.503906 C 551.648438 159.644531 548.25 155.828125 544.902344 151.964844 C 543.320312 150.140625 541.757812 148.300781 540.210938 146.449219 C 539.449219 145.527344 538.695312 144.601562 537.941406 143.675781 C 537.566406 143.210938 537.195312 142.746094 536.828125 142.28125 C 536.800781 142.246094 536.78125 142.21875 536.757812 142.191406 C 533.839844 138.386719 531.113281 134.445312 528.65625 130.335938 C 527.476562 128.367188 526.386719 126.34375 525.367188 124.289062 C 524.945312 123.441406 524.546875 122.578125 524.160156 121.714844 C 523.898438 121.0625 523.648438 120.40625 523.410156 119.746094 C 521.988281 115.90625 520.96875 111.933594 520.285156 107.898438 C 520.273438 107.828125 520.265625 107.753906 520.253906 107.683594 C 520.242188 107.601562 520.234375 107.527344 520.226562 107.457031 C 520.089844 106.230469 520.003906 105 519.9375 103.765625 C 519.808594 101.417969 519.839844 99.0625 519.953125 96.714844 C 520.007812 95.601562 520.105469 94.488281 520.207031 93.382812 C 520.246094 93.003906 520.285156 92.625 520.332031 92.25 C 520.804688 89.15625 521.257812 86.058594 521.699219 82.960938 C 522.675781 76.03125 523.585938 69.089844 524.429688 62.140625 C 526.5 45.074219 528.152344 27.957031 529.824219 10.84375 L 505.976562 10.84375 C 503.921875 31.839844 501.894531 52.839844 499.109375 73.753906 C 499.097656 73.859375 499.078125 73.984375 499.058594 74.128906 C 498.945312 74.976562 498.828125 75.816406 498.707031 76.660156 C 498.46875 78.351562 498.226562 80.042969 497.976562 81.730469 C 497.371094 85.832031 496.691406 89.925781 496.304688 94.054688 C 495.722656 100.226562 496.171875 106.292969 497.03125 112.414062 C 498.488281 122.796875 502.515625 132.75 507.773438 141.796875 C 518.304688 159.890625 533.910156 174.5 546.941406 190.738281 C 547.753906 191.753906 548.554688 192.78125 549.351562 193.804688 C 549.542969 194.046875 549.730469 194.289062 549.917969 194.53125 C 550.152344 194.832031 550.625 195.441406 550.8125 195.6875 C 552.878906 198.355469 554.925781 201.039062 556.957031 203.734375 C 560.886719 208.957031 564.722656 214.25 568.441406 219.625 C 575.878906 230.382812 582.75 241.539062 588.617188 253.222656 C 590.019531 256.007812 591.34375 258.832031 592.613281 261.679688 C 592.761719 262.011719 592.902344 262.34375 593.046875 262.675781 C 593.207031 263.050781 593.445312 263.609375 593.546875 263.863281 C 594.410156 265.960938 595.304688 268.050781 596.210938 270.132812 C 598.089844 274.476562 600.179688 278.734375 602.519531 282.855469 C 604.742188 286.765625 607.257812 290.589844 610.0625 294.179688 C 609.253906 294.464844 608.457031 294.824219 607.6875 295.257812 C 581.503906 310.042969 558.570312 329.84375 534.898438 348.167969 C 534.597656 348.402344 534.292969 348.636719 533.988281 348.871094 C 533.875 348.953125 533.703125 349.082031 533.449219 349.273438 C 532.046875 350.332031 530.625 351.367188 529.195312 352.390625 C 526.53125 354.308594 523.820312 356.164062 521.097656 358 C 515.527344 361.761719 509.875 365.40625 504.265625 369.113281 C 492.359375 376.984375 480.527344 385.21875 470.058594 394.941406 C 465.289062 399.371094 464.378906 407.273438 467.746094 412.753906 C 484.101562 439.386719 504.660156 463.226562 525.613281 486.355469 C 535.871094 497.683594 546.273438 508.886719 556.421875 520.316406 C 561.472656 526.003906 566.453125 531.753906 571.324219 537.589844 C 573.648438 540.378906 575.945312 543.199219 578.210938 546.039062 C 578.585938 546.503906 579.871094 548.140625 580.507812 548.957031 C 581.566406 550.328125 582.617188 551.699219 583.65625 553.085938 C 584.554688 554.28125 585.4375 555.488281 586.316406 556.699219 L 618.070312 556.699219 C 618.503906 553.605469 617.949219 550.417969 616.078125 547.746094 C 598.089844 522.066406 576.929688 498.863281 555.800781 475.742188 C 545.503906 464.476562 535.230469 453.179688 525.363281 441.53125 C 523.007812 438.753906 520.683594 435.949219 518.382812 433.125 C 517.234375 431.714844 516.097656 430.292969 514.964844 428.875 C 514.425781 428.195312 513.890625 427.511719 513.351562 426.828125 C 513.171875 426.59375 512.992188 426.363281 512.8125 426.128906 C 508.300781 420.261719 503.972656 414.253906 499.839844 408.113281 C 500.273438 407.769531 500.707031 407.425781 501.144531 407.082031 C 501.855469 406.542969 502.574219 406.011719 503.296875 405.480469 C 508.726562 401.472656 514.339844 397.710938 519.972656 393.988281 C 531.886719 386.113281 543.714844 378.285156 555.027344 369.566406 C 560.597656 365.273438 566.113281 360.910156 571.632812 356.558594 C 574.539062 354.265625 577.445312 351.984375 580.363281 349.707031 C 581.683594 348.675781 583.011719 347.648438 584.339844 346.621094 C 584.378906 346.59375 584.40625 346.570312 584.441406 346.542969 C 584.472656 346.519531 584.503906 346.496094 584.535156 346.472656 C 585.332031 345.859375 586.132812 345.253906 586.929688 344.648438 C 598.359375 335.988281 610.113281 327.703125 622.621094 320.640625 C 626.214844 318.609375 628.578125 315.164062 629.484375 311.371094 C 640.785156 318.0625 653.726562 321.589844 666.871094 323.539062 C 669.894531 323.984375 672.929688 324.378906 675.964844 324.746094 C 676.992188 324.867188 678.023438 324.984375 679.054688 325.09375 C 679.753906 325.171875 680.457031 325.246094 681.15625 325.328125 C 681.199219 325.332031 681.230469 325.335938 681.269531 325.339844 C 686.6875 326.117188 692.039062 327.292969 697.320312 328.71875 C 702.679688 330.167969 707.953125 331.9375 713.152344 333.878906 C 715.644531 334.808594 718.117188 335.789062 720.578125 336.800781 C 720.632812 336.824219 720.703125 336.855469 720.777344 336.882812 C 721.324219 337.117188 721.871094 337.351562 722.414062 337.585938 C 723.753906 338.160156 725.082031 338.746094 726.414062 339.339844 C 740.023438 345.386719 753.332031 352.117188 766.953125 358.125 L 766.953125 332.230469 C 766.046875 331.804688 765.140625 331.382812 764.234375 330.957031 "/>
</g>
<path style=" stroke:none;fill-rule:nonzero;fill:rgb(100%,100%,100%);fill-opacity:1;" d="M 359.277344 271.714844 L 466.527344 271.714844 L 466.527344 298.710938 L 359.277344 298.710938 Z M 359.277344 271.714844 "/>
<g clip-path="url(#clip26)" clip-rule="nonzero">
<g clip-path="url(#clip27)" clip-rule="nonzero">
<g clip-path="url(#clip28)" clip-rule="nonzero">
<path style=" stroke:none;fill-rule:nonzero;fill:rgb(100%,100%,100%);fill-opacity:1;" d="M 243.003906 262.171875 C 232.527344 249.328125 234.445312 230.4375 247.285156 219.964844 C 260.125 209.496094 278.980469 211.449219 289.453125 224.289062 Z M 243.003906 262.171875 "/>
</g>
</g>
</g>
</g>
</svg>
