<?xml version="1.0" encoding="UTF-8"?>
<svg xmlns="http://www.w3.org/2000/svg" xmlns:xlink="http://www.w3.org/1999/xlink" width="810pt" height="809.999993pt" viewBox="0 0 810 809.999993" version="1.2">
<defs>
<clipPath id="clip1">
  <path d="M 201.292969 200 L 597.25 200 L 597.25 621 L 201.292969 621 Z M 201.292969 200 "/>
</clipPath>
<clipPath id="clip2">
  <path d="M 213.148438 189 L 609 189 L 609 610 L 213.148438 610 Z M 213.148438 189 "/>
</clipPath>
<clipPath id="clip3">
  <path d="M 320 322 L 363 322 L 363 521.886719 L 320 521.886719 Z M 320 322 "/>
</clipPath>
<clipPath id="clip4">
  <path d="M 371 364 L 415 364 L 415 521.886719 L 371 521.886719 Z M 371 364 "/>
</clipPath>
<clipPath id="clip5">
  <path d="M 268.425781 370 L 312 370 L 312 521.886719 L 268.425781 521.886719 Z M 268.425781 370 "/>
</clipPath>
<clipPath id="clip6">
  <path d="M 422 417 L 466 417 L 466 521.886719 L 422 521.886719 Z M 422 417 "/>
</clipPath>
<clipPath id="clip7">
  <path d="M 474 391 L 518 391 L 518 521.886719 L 474 521.886719 Z M 474 391 "/>
</clipPath>
<clipPath id="clip8">
  <path d="M 285 268.191406 L 576 268.191406 L 576 497 L 285 497 Z M 285 268.191406 "/>
</clipPath>
</defs>
<g id="surface1">
<rect x="0" y="0" width="810" height="809.999993" style="fill:rgb(100%,100%,100%);fill-opacity:1;stroke:none;"/>
<rect x="0" y="0" width="810" height="809.999993" style="fill:rgb(100%,100%,100%);fill-opacity:1;stroke:none;"/>
<path style=" stroke:none;fill-rule:nonzero;fill:rgb(78.039551%,81.568909%,84.709167%);fill-opacity:1;" d="M 195.515625 714.371094 C 163.535156 714.371094 137.582031 686.578125 137.582031 656.929688 L 137.582031 138.90625 C 137.582031 130.566406 139.4375 122.230469 142.679688 114.816406 C 132.484375 124.542969 126.460938 137.976562 126.460938 153.03125 L 126.460938 670.828125 C 126.460938 700.011719 150.558594 724.097656 179.757812 724.097656 L 614.804688 724.097656 C 628.242188 724.097656 640.292969 719.003906 649.5625 711.128906 C 643.539062 713.445312 637.050781 714.371094 630.5625 714.371094 Z M 195.515625 714.371094 "/>
<path style=" stroke:none;fill-rule:nonzero;fill:rgb(96.078491%,96.469116%,96.859741%);fill-opacity:1;" d="M 142.21875 138.90625 L 142.21875 656.003906 C 142.21875 685.1875 166.316406 709.273438 195.515625 709.273438 L 630.5625 709.273438 C 659.757812 709.273438 683.859375 685.1875 683.859375 656.003906 L 683.859375 138.90625 C 683.859375 109.722656 659.757812 85.632812 630.5625 85.632812 L 195.515625 85.632812 C 165.855469 85.632812 142.21875 109.722656 142.21875 138.90625 Z M 142.21875 138.90625 "/>
<path style=" stroke:none;fill-rule:nonzero;fill:rgb(65.098572%,65.098572%,65.098572%);fill-opacity:1;" d="M 661.148438 705.105469 C 677.371094 694.914062 688.492188 676.847656 688.492188 656.003906 L 688.492188 138.90625 C 688.492188 106.941406 662.539062 81 630.5625 81 L 195.515625 81 C 176.511719 81 159.828125 90.265625 149.167969 104.164062 C 132.949219 114.355469 121.824219 132.417969 121.824219 153.53125 L 121.824219 670.363281 C 121.824219 702.328125 147.777344 728.265625 179.757812 728.265625 L 614.804688 728.265625 C 633.804688 728.265625 650.488281 719.003906 661.148438 705.105469 Z M 195.515625 85.632812 L 630.5625 85.632812 C 659.757812 85.632812 683.859375 109.722656 683.859375 138.90625 L 683.859375 656.003906 C 683.859375 685.1875 659.757812 709.273438 630.5625 709.273438 L 195.515625 709.273438 C 166.316406 709.273438 142.21875 685.1875 142.21875 656.003906 L 142.21875 138.90625 C 142.21875 109.722656 165.855469 85.632812 195.515625 85.632812 Z M 179.757812 724.097656 C 150.558594 724.097656 126.460938 699.546875 126.460938 670.363281 L 126.460938 153.53125 C 126.460938 138.441406 132.484375 125.007812 142.679688 115.28125 C 139.4375 122.691406 137.582031 130.566406 137.582031 139.367188 L 137.582031 656.46875 C 137.582031 688.429688 163.535156 714.371094 195.515625 714.371094 L 630.5625 714.371094 C 637.050781 714.371094 643.539062 712.980469 649.5625 711.128906 C 640.292969 719.003906 628.242188 724.097656 614.804688 724.097656 Z M 179.757812 724.097656 "/>
<g clip-path="url(#clip1)" clip-rule="nonzero">
<path style=" stroke:none;fill-rule:nonzero;fill:rgb(78.039551%,81.568909%,84.709167%);fill-opacity:1;" d="M 590.109375 426.433594 C 590.109375 445.175781 589.511719 463.765625 590.257812 482.507812 C 590.851562 495.59375 593.382812 508.535156 595.015625 521.625 C 595.761719 528.316406 596.800781 534.859375 596.800781 541.554688 C 597.097656 554.941406 597.25 568.476562 596.652344 581.859375 C 596.355469 588.703125 594.570312 595.542969 593.53125 602.386719 C 592.933594 605.507812 590.109375 607.441406 585.644531 608.929688 C 578.507812 611.308594 571.21875 612.796875 563.78125 613.394531 C 550.097656 614.730469 536.410156 615.921875 522.726562 617.257812 C 505.027344 619.042969 487.027344 619.9375 469.179688 620.085938 C 455.496094 620.234375 441.8125 620.234375 428.125 619.9375 C 410.722656 619.640625 393.46875 618.894531 376.066406 618.449219 C 363.273438 618.152344 350.632812 618.152344 337.839844 618.152344 C 323.261719 618.152344 309.132812 616.664062 294.703125 615.625 C 272.691406 613.988281 251.867188 609.972656 231.191406 605.210938 C 225.242188 603.875 221.671875 601.644531 220.183594 597.777344 C 217.65625 591.675781 215.871094 585.28125 214.976562 578.886719 C 214.085938 573.085938 212.894531 567.433594 211.257812 561.929688 C 207.984375 551.371094 206.796875 540.363281 207.390625 529.507812 C 208.285156 510.765625 209.175781 492.175781 210.515625 473.433594 C 211.257812 463.617188 213.636719 453.800781 213.789062 443.835938 C 214.085938 418.550781 213.636719 393.414062 212.894531 368.128906 C 212.597656 354.742188 211.40625 341.210938 210.21875 327.824219 C 209.472656 319.195312 208.136719 310.570312 206.648438 301.941406 C 204.265625 288.261719 204.117188 274.578125 203.96875 260.894531 C 203.820312 249.589844 203.96875 238.285156 201.589844 226.980469 C 201.292969 224.75 201.589844 222.371094 202.484375 220.289062 C 203.820312 216.867188 207.390625 214.339844 213.042969 213.296875 C 218.398438 212.257812 223.753906 211.511719 229.109375 210.472656 C 240.710938 208.390625 252.164062 205.710938 264.0625 204.078125 C 277.449219 202.292969 290.984375 201.101562 304.519531 200.210938 C 311.957031 199.761719 319.542969 200.359375 326.980469 200.65625 C 342.597656 201.101562 358.21875 201.546875 373.835938 202.144531 C 386.03125 202.589844 398.082031 203.480469 410.277344 203.628906 C 429.167969 203.925781 448.058594 204.226562 466.949219 203.925781 C 487.027344 203.480469 506.960938 204.226562 526.890625 206.160156 C 534.628906 206.902344 542.660156 207.199219 550.394531 208.09375 C 555.75 208.835938 561.101562 209.726562 566.457031 210.917969 C 572.109375 212.109375 574.640625 214.636719 575.085938 218.503906 C 577.316406 238.878906 578.804688 259.40625 579.84375 279.78125 C 580.292969 289.449219 582.375 299.265625 583.5625 308.933594 C 584.011719 312.949219 584.160156 316.964844 584.902344 320.980469 C 586.242188 329.011719 587.878906 337.042969 589.066406 345.078125 C 590.257812 352.808594 591.894531 360.542969 592.042969 368.128906 C 592.042969 387.464844 591.296875 406.949219 591 426.285156 Z M 590.109375 426.433594 "/>
</g>
<g clip-path="url(#clip2)" clip-rule="nonzero">
<path style=" stroke:none;fill-rule:nonzero;fill:rgb(90.979004%,90.979004%,90.979004%);fill-opacity:1;" d="M 601.964844 416 C 601.964844 434.742188 601.367188 453.332031 602.113281 472.074219 C 602.707031 485.164062 605.234375 498.101562 606.871094 511.191406 C 607.617188 517.882812 608.65625 524.429688 608.65625 531.121094 C 608.953125 544.507812 609.101562 558.042969 608.507812 571.429688 C 608.210938 578.269531 606.425781 585.113281 605.382812 591.953125 C 604.789062 595.078125 601.964844 597.011719 597.5 598.5 C 590.363281 600.878906 583.074219 602.363281 575.636719 602.960938 C 561.953125 604.296875 548.265625 605.488281 534.582031 606.828125 C 516.882812 608.613281 498.882812 609.503906 481.035156 609.652344 C 467.351562 609.800781 453.667969 609.800781 439.980469 609.503906 C 422.578125 609.207031 405.324219 608.464844 387.921875 608.015625 C 375.128906 607.71875 362.484375 607.71875 349.695312 607.71875 C 335.117188 607.71875 320.988281 606.230469 306.558594 605.191406 C 284.542969 603.554688 263.71875 599.539062 243.046875 594.78125 C 237.09375 593.441406 233.527344 591.210938 232.039062 587.34375 C 229.507812 581.246094 227.722656 574.847656 226.832031 568.453125 C 225.941406 562.652344 224.75 557 223.113281 551.5 C 219.839844 540.9375 218.652344 529.933594 219.246094 519.074219 C 220.136719 500.332031 221.03125 481.742188 222.371094 463 C 223.113281 453.183594 225.492188 443.367188 225.640625 433.402344 C 225.941406 408.117188 225.492188 382.980469 224.75 357.699219 C 224.453125 344.3125 223.261719 330.777344 222.070312 317.390625 C 221.328125 308.765625 219.988281 300.136719 218.503906 291.511719 C 216.121094 277.828125 215.972656 264.144531 215.824219 250.460938 C 215.675781 239.15625 215.824219 227.851562 213.445312 216.546875 C 213.148438 214.316406 213.445312 211.9375 214.335938 209.855469 C 215.675781 206.433594 219.246094 203.90625 224.898438 202.863281 C 230.253906 201.824219 235.609375 201.082031 240.960938 200.039062 C 252.566406 197.957031 264.019531 195.28125 275.917969 193.644531 C 289.304688 191.859375 302.839844 190.667969 316.375 189.777344 C 323.8125 189.332031 331.398438 189.925781 338.835938 190.222656 C 354.453125 190.667969 370.070312 191.117188 385.691406 191.710938 C 397.886719 192.15625 409.933594 193.046875 422.132812 193.199219 C 441.023438 193.496094 459.914062 193.792969 478.804688 193.496094 C 498.882812 193.046875 518.816406 193.792969 538.746094 195.726562 C 546.480469 196.46875 554.515625 196.765625 562.25 197.660156 C 567.605469 198.402344 572.957031 199.296875 578.3125 200.484375 C 583.964844 201.675781 586.496094 204.203125 586.941406 208.070312 C 589.171875 228.449219 590.660156 248.972656 591.699219 269.347656 C 592.144531 279.015625 594.230469 288.832031 595.417969 298.5 C 595.863281 302.515625 596.015625 306.53125 596.757812 310.546875 C 598.097656 318.582031 599.730469 326.613281 600.921875 334.644531 C 602.113281 342.378906 603.75 350.113281 603.898438 357.699219 C 603.898438 377.03125 603.152344 396.515625 602.855469 415.851562 Z M 601.964844 416 "/>
</g>
<g clip-path="url(#clip3)" clip-rule="nonzero">
<path style=" stroke:none;fill-rule:nonzero;fill:rgb(45.098877%,45.098877%,45.098877%);fill-opacity:1;" d="M 326.0625 327.96875 C 325.941406 327.96875 325.828125 328.082031 325.828125 328.203125 L 325.828125 515.816406 C 325.828125 515.941406 325.941406 516.054688 326.0625 516.054688 L 356.660156 516.054688 C 356.785156 516.054688 356.898438 515.941406 356.898438 515.816406 L 356.898438 328.203125 C 356.898438 328.082031 356.785156 327.96875 356.660156 327.96875 Z M 356.660156 521.882812 L 326.0625 521.882812 C 322.726562 521.882812 320.007812 519.160156 320.007812 515.816406 L 320.007812 328.203125 C 320.007812 324.859375 322.726562 322.140625 326.0625 322.140625 L 356.660156 322.140625 C 360 322.140625 362.71875 324.859375 362.71875 328.203125 L 362.71875 515.816406 C 362.71875 519.160156 360 521.882812 356.660156 521.882812 "/>
</g>
<g clip-path="url(#clip4)" clip-rule="nonzero">
<path style=" stroke:none;fill-rule:nonzero;fill:rgb(45.098877%,45.098877%,45.098877%);fill-opacity:1;" d="M 377.316406 516.054688 L 408.375 516.054688 L 408.375 370.628906 L 377.316406 370.628906 Z M 408.765625 521.882812 L 376.921875 521.882812 C 373.933594 521.882812 371.496094 519.441406 371.496094 516.445312 L 371.496094 370.238281 C 371.496094 367.242188 373.933594 364.800781 376.921875 364.800781 L 408.765625 364.800781 C 411.757812 364.800781 414.195312 367.242188 414.195312 370.238281 L 414.195312 516.445312 C 414.195312 519.441406 411.757812 521.882812 408.765625 521.882812 "/>
</g>
<g clip-path="url(#clip5)" clip-rule="nonzero">
<path style=" stroke:none;fill-rule:nonzero;fill:rgb(45.098877%,45.098877%,45.098877%);fill-opacity:1;" d="M 274.339844 516.054688 L 305.40625 516.054688 L 305.40625 376.148438 L 274.339844 376.148438 Z M 305.796875 521.882812 L 273.949219 521.882812 C 270.953125 521.882812 268.519531 519.441406 268.519531 516.445312 L 268.519531 375.757812 C 268.519531 372.761719 270.953125 370.320312 273.949219 370.320312 L 305.796875 370.320312 C 308.789062 370.320312 311.226562 372.761719 311.226562 375.757812 L 311.226562 516.445312 C 311.226562 519.441406 308.789062 521.882812 305.796875 521.882812 "/>
</g>
<g clip-path="url(#clip6)" clip-rule="nonzero">
<path style=" stroke:none;fill-rule:nonzero;fill:rgb(45.098877%,45.098877%,45.098877%);fill-opacity:1;" d="M 428.773438 516.054688 L 459.84375 516.054688 L 459.84375 423.800781 L 428.773438 423.800781 Z M 460.519531 521.882812 L 428.101562 521.882812 C 425.257812 521.882812 422.953125 519.570312 422.953125 516.734375 L 422.953125 423.125 C 422.953125 420.285156 425.257812 417.96875 428.101562 417.96875 L 460.519531 417.96875 C 463.359375 417.96875 465.664062 420.285156 465.664062 423.125 L 465.664062 516.734375 C 465.664062 519.570312 463.359375 521.882812 460.519531 521.882812 "/>
</g>
<g clip-path="url(#clip7)" clip-rule="nonzero">
<path style=" stroke:none;fill-rule:nonzero;fill:rgb(45.098877%,45.098877%,45.098877%);fill-opacity:1;" d="M 511.742188 521.882812 L 479.902344 521.882812 C 476.90625 521.882812 474.472656 519.441406 474.472656 516.445312 L 474.472656 394.863281 C 474.472656 393.253906 475.773438 391.945312 477.382812 391.945312 C 478.988281 391.945312 480.292969 393.253906 480.292969 394.863281 L 480.292969 516.054688 L 511.351562 516.054688 L 511.351562 418.363281 C 511.351562 416.753906 512.65625 415.445312 514.261719 415.445312 C 515.871094 415.445312 517.171875 416.753906 517.171875 418.363281 L 517.171875 516.445312 C 517.171875 519.441406 514.738281 521.882812 511.742188 521.882812 "/>
</g>
<path style=" stroke:none;fill-rule:nonzero;fill:rgb(100%,50.19989%,25.878906%);fill-opacity:1;" d="M 495.550781 381.644531 C 483.898438 381.644531 473.421875 375.175781 468.207031 364.761719 C 460.644531 349.671875 466.746094 331.230469 481.8125 323.660156 C 486.113281 321.496094 490.71875 320.398438 495.5 320.398438 C 507.148438 320.398438 517.628906 326.871094 522.84375 337.289062 C 530.40625 352.375 524.300781 370.804688 509.242188 378.382812 C 504.933594 380.546875 500.328125 381.644531 495.550781 381.644531 Z M 528.050781 334.671875 C 521.832031 322.273438 509.359375 314.570312 495.5 314.570312 C 489.804688 314.570312 484.324219 315.875 479.203125 318.445312 C 461.269531 327.464844 454.003906 349.410156 463.003906 367.371094 C 469.214844 379.773438 481.691406 387.476562 495.550781 387.476562 C 501.242188 387.476562 506.726562 386.167969 511.851562 383.59375 C 529.78125 374.578125 537.046875 352.636719 528.050781 334.671875 "/>
<g clip-path="url(#clip8)" clip-rule="nonzero">
<path style=" stroke:none;fill-rule:nonzero;fill:rgb(100%,50.19989%,25.878906%);fill-opacity:1;" d="M 567.3125 487.65625 L 561.625 490.515625 C 561.109375 490.773438 560.558594 490.902344 559.988281 490.902344 C 558.589844 490.902344 557.289062 490.109375 556.671875 488.871094 L 523.859375 423.40625 C 522.949219 421.582031 523.6875 419.359375 525.5 418.449219 L 531.195312 415.582031 C 531.707031 415.328125 532.257812 415.195312 532.832031 415.195312 C 534.226562 415.195312 535.53125 415.992188 536.152344 417.226562 L 568.957031 482.695312 C 569.871094 484.515625 569.136719 486.742188 567.3125 487.65625 Z M 514.589844 412.832031 L 514.351562 412.363281 C 513.4375 410.542969 514.179688 408.316406 515.992188 407.402344 L 528.042969 401.347656 C 528.550781 401.085938 529.101562 400.960938 529.675781 400.960938 C 531.074219 400.960938 532.375 401.757812 532.996094 402.992188 L 533.230469 403.460938 C 533.667969 404.335938 533.742188 405.335938 533.429688 406.28125 C 533.117188 407.222656 532.460938 407.976562 531.589844 408.417969 L 519.539062 414.476562 C 519.03125 414.730469 518.476562 414.863281 517.902344 414.863281 C 516.511719 414.863281 515.207031 414.066406 514.589844 412.832031 Z M 517.898438 395.671875 C 517.984375 395.628906 518.070312 395.578125 518.152344 395.535156 L 520.160156 394.523438 L 521.675781 397.5625 L 516.765625 400.03125 L 515.246094 396.996094 L 517.679688 395.773438 C 517.753906 395.738281 517.832031 395.710938 517.898438 395.671875 Z M 456.152344 370.816406 C 445.257812 349.070312 454.050781 322.496094 475.761719 311.582031 C 481.960938 308.46875 488.597656 306.882812 495.480469 306.882812 C 512.269531 306.882812 527.375 316.210938 534.898438 331.230469 C 540.179688 341.757812 541.046875 353.722656 537.34375 364.914062 C 533.675781 375.988281 525.957031 384.984375 515.601562 390.292969 L 515.019531 390.585938 C 508.898438 393.613281 502.355469 395.15625 495.566406 395.15625 C 478.78125 395.15625 463.675781 385.832031 456.152344 370.816406 Z M 574.15625 480.082031 L 541.351562 414.613281 C 540.507812 412.929688 539.210938 411.585938 537.65625 410.675781 C 538.207031 409.90625 538.648438 409.039062 538.953125 408.109375 C 539.757812 405.691406 539.566406 403.109375 538.433594 400.851562 L 538.195312 400.378906 C 536.574219 397.140625 533.308594 395.128906 529.675781 395.128906 C 528.824219 395.128906 527.976562 395.261719 527.152344 395.492188 L 525.046875 391.285156 C 533.347656 385.203125 539.5625 376.726562 542.867188 366.75 C 547.058594 354.082031 546.078125 340.539062 540.097656 328.617188 C 531.582031 311.613281 514.488281 301.054688 495.480469 301.054688 C 487.683594 301.054688 480.167969 302.84375 473.148438 306.375 C 448.574219 318.722656 438.613281 348.808594 450.949219 373.429688 C 451.570312 374.667969 452.246094 375.863281 452.957031 377.027344 L 442.953125 394.808594 L 422.761719 345.449219 C 422.316406 344.355469 421.253906 343.640625 420.070312 343.640625 L 395.8125 343.640625 L 343.820312 269.433594 C 343.316406 268.710938 342.511719 268.253906 341.628906 268.199219 C 340.742188 268.140625 339.898438 268.488281 339.296875 269.132812 L 285.777344 327.371094 C 284.683594 328.558594 284.761719 330.402344 285.945312 331.488281 C 287.132812 332.578125 288.96875 332.503906 290.058594 331.316406 L 341.132812 275.742188 L 391.921875 348.226562 C 392.464844 349.003906 393.351562 349.46875 394.304688 349.46875 L 418.117188 349.46875 L 439.84375 402.585938 C 440.269531 403.625 441.242188 404.320312 442.355469 404.390625 C 442.417969 404.398438 442.476562 404.398438 442.539062 404.398438 C 443.582031 404.398438 444.554688 403.832031 445.070312 402.914062 L 456.648438 382.34375 C 465.992188 394.039062 480.152344 400.988281 495.566406 400.988281 C 500.40625 400.988281 505.132812 400.296875 509.699219 398.929688 L 511.828125 403.183594 C 508.308594 405.910156 507.082031 410.847656 509.148438 414.976562 L 509.386719 415.445312 C 510.976562 418.628906 514.160156 420.613281 517.722656 420.683594 C 517.515625 422.457031 517.804688 424.304688 518.65625 426.023438 L 551.46875 491.484375 C 553.09375 494.722656 556.351562 496.730469 559.988281 496.730469 C 561.457031 496.730469 562.925781 496.386719 564.234375 495.730469 L 569.925781 492.863281 C 574.609375 490.503906 576.511719 484.773438 574.15625 480.082031 "/>
</g>
</g>
</svg>
