<?xml version="1.0" encoding="UTF-8"?>
<svg xmlns="http://www.w3.org/2000/svg" xmlns:xlink="http://www.w3.org/1999/xlink" width="810pt" height="809.999993pt" viewBox="0 0 810 809.999993" version="1.2">
<defs>
<clipPath id="clip1">
  <path d="M 231.839844 253.566406 L 578 253.566406 L 578 557.050781 L 231.839844 557.050781 Z M 231.839844 253.566406 "/>
</clipPath>
</defs>
<g id="surface1">
<rect x="0" y="0" width="810" height="809.999993" style="fill:rgb(100%,100%,100%);fill-opacity:1;stroke:none;"/>
<rect x="0" y="0" width="810" height="809.999993" style="fill:rgb(100%,100%,100%);fill-opacity:1;stroke:none;"/>
<path style=" stroke:none;fill-rule:nonzero;fill:rgb(78.039551%,81.568909%,84.709167%);fill-opacity:1;" d="M 195.515625 714.371094 C 163.535156 714.371094 137.582031 686.578125 137.582031 656.929688 L 137.582031 138.90625 C 137.582031 130.566406 139.4375 122.230469 142.679688 114.816406 C 132.484375 124.542969 126.460938 137.976562 126.460938 153.03125 L 126.460938 670.828125 C 126.460938 700.011719 150.558594 724.097656 179.757812 724.097656 L 614.804688 724.097656 C 628.242188 724.097656 640.292969 719.003906 649.5625 711.128906 C 643.539062 713.445312 637.050781 714.371094 630.5625 714.371094 Z M 195.515625 714.371094 "/>
<path style=" stroke:none;fill-rule:nonzero;fill:rgb(96.078491%,96.469116%,96.859741%);fill-opacity:1;" d="M 142.21875 138.90625 L 142.21875 656.003906 C 142.21875 685.1875 166.316406 709.273438 195.515625 709.273438 L 630.5625 709.273438 C 659.757812 709.273438 683.859375 685.1875 683.859375 656.003906 L 683.859375 138.90625 C 683.859375 109.722656 659.757812 85.632812 630.5625 85.632812 L 195.515625 85.632812 C 165.855469 85.632812 142.21875 109.722656 142.21875 138.90625 Z M 142.21875 138.90625 "/>
<path style=" stroke:none;fill-rule:nonzero;fill:rgb(65.098572%,65.098572%,65.098572%);fill-opacity:1;" d="M 661.148438 705.105469 C 677.371094 694.914062 688.492188 676.847656 688.492188 656.003906 L 688.492188 138.90625 C 688.492188 106.941406 662.539062 81 630.5625 81 L 195.515625 81 C 176.511719 81 159.828125 90.265625 149.167969 104.164062 C 132.949219 114.355469 121.824219 132.417969 121.824219 153.53125 L 121.824219 670.363281 C 121.824219 702.328125 147.777344 728.265625 179.757812 728.265625 L 614.804688 728.265625 C 633.804688 728.265625 650.488281 719.003906 661.148438 705.105469 Z M 195.515625 85.632812 L 630.5625 85.632812 C 659.757812 85.632812 683.859375 109.722656 683.859375 138.90625 L 683.859375 656.003906 C 683.859375 685.1875 659.757812 709.273438 630.5625 709.273438 L 195.515625 709.273438 C 166.316406 709.273438 142.21875 685.1875 142.21875 656.003906 L 142.21875 138.90625 C 142.21875 109.722656 165.855469 85.632812 195.515625 85.632812 Z M 179.757812 724.097656 C 150.558594 724.097656 126.460938 699.546875 126.460938 670.363281 L 126.460938 153.53125 C 126.460938 138.441406 132.484375 125.007812 142.679688 115.28125 C 139.4375 122.691406 137.582031 130.566406 137.582031 139.367188 L 137.582031 656.46875 C 137.582031 688.429688 163.535156 714.371094 195.515625 714.371094 L 630.5625 714.371094 C 637.050781 714.371094 643.539062 712.980469 649.5625 711.128906 C 640.292969 719.003906 628.242188 724.097656 614.804688 724.097656 Z M 179.757812 724.097656 "/>
<path style=" stroke:none;fill-rule:evenodd;fill:rgb(64.709473%,47.839355%,100%);fill-opacity:1;" d="M 416.066406 494.285156 C 406.152344 494.285156 395.988281 493.539062 385.835938 492.039062 C 384.785156 491.875 383.738281 491.800781 382.703125 491.800781 C 376.277344 491.800781 370.128906 494.675781 365.988281 499.734375 C 361.359375 505.386719 348.203125 517.972656 332.632812 527.253906 C 336.847656 517.558594 340.15625 506.679688 340.371094 495.480469 C 340.433594 494.78125 340.464844 494.074219 340.464844 493.480469 C 340.464844 485.339844 335.914062 477.871094 328.683594 474.179688 C 288.617188 453.660156 264.699219 420.65625 264.699219 385.894531 C 264.699219 326.128906 332.59375 277.507812 416.066406 277.507812 C 499.535156 277.507812 567.429688 326.128906 567.429688 385.894531 C 567.429688 445.664062 499.535156 494.285156 416.066406 494.285156 "/>
<path style=" stroke:none;fill-rule:evenodd;fill:rgb(32.939148%,32.939148%,32.939148%);fill-opacity:1;" d="M 404.921875 307.757812 C 340.453125 307.757812 285.996094 342.507812 285.996094 383.628906 C 285.996094 386.621094 288.417969 389.050781 291.398438 389.050781 C 294.382812 389.050781 296.804688 386.621094 296.804688 383.628906 C 296.804688 348.992188 347.328125 318.597656 404.921875 318.597656 C 407.90625 318.597656 410.328125 316.167969 410.328125 313.179688 C 410.328125 310.1875 407.90625 307.757812 404.921875 307.757812 "/>
<g clip-path="url(#clip1)" clip-rule="nonzero">
<path style=" stroke:none;fill-rule:evenodd;fill:rgb(32.939148%,32.939148%,32.939148%);fill-opacity:1;" d="M 404.921875 253.566406 C 309.378906 253.566406 231.9375 311.800781 231.9375 383.628906 C 231.9375 428.363281 261.980469 467.804688 307.703125 491.214844 C 307.703125 491.507812 307.617188 491.707031 307.617188 492.019531 C 307.617188 511.453125 293.144531 532.367188 286.769531 543.355469 L 286.796875 543.355469 C 286.285156 544.539062 285.996094 545.851562 285.996094 547.230469 C 285.996094 552.660156 290.371094 557.050781 295.789062 557.050781 C 296.804688 557.050781 298.589844 556.773438 298.546875 556.914062 C 332.332031 551.367188 364.160156 520.238281 371.558594 511.21875 C 382.359375 512.808594 393.492188 513.695312 404.921875 513.695312 C 500.457031 513.695312 577.910156 455.460938 577.910156 383.628906 C 577.910156 311.800781 500.457031 253.566406 404.921875 253.566406 M 404.921875 492.019531 C 395.007812 492.019531 384.847656 491.273438 374.695312 489.773438 C 373.640625 489.609375 372.59375 489.535156 371.558594 489.535156 C 365.132812 489.535156 358.984375 492.410156 354.84375 497.46875 C 350.214844 503.121094 337.058594 515.707031 321.488281 524.988281 C 325.703125 515.292969 329.011719 504.414062 329.226562 493.214844 C 329.289062 492.515625 329.324219 491.808594 329.324219 491.214844 C 329.324219 483.074219 324.769531 475.605469 317.539062 471.914062 C 277.476562 451.394531 253.558594 418.390625 253.558594 383.628906 C 253.558594 323.863281 321.453125 275.242188 404.921875 275.242188 C 488.390625 275.242188 556.285156 323.863281 556.285156 383.628906 C 556.285156 443.398438 488.390625 492.019531 404.921875 492.019531 "/>
</g>
<path style=" stroke:none;fill-rule:nonzero;fill:rgb(32.939148%,32.939148%,32.939148%);fill-opacity:1;" d="M 427.386719 313.433594 C 427.386719 313.804688 427.351562 314.175781 427.277344 314.539062 C 427.207031 314.90625 427.097656 315.261719 426.957031 315.605469 C 426.8125 315.949219 426.640625 316.273438 426.433594 316.585938 C 426.226562 316.894531 425.992188 317.179688 425.730469 317.445312 C 425.464844 317.707031 425.179688 317.945312 424.871094 318.152344 C 424.5625 318.359375 424.238281 318.53125 423.894531 318.675781 C 423.550781 318.816406 423.195312 318.925781 422.832031 318.996094 C 422.46875 319.070312 422.097656 319.105469 421.726562 319.105469 C 421.355469 319.105469 420.988281 319.070312 420.621094 318.996094 C 420.257812 318.925781 419.90625 318.816406 419.5625 318.675781 C 419.21875 318.53125 418.890625 318.359375 418.582031 318.152344 C 418.273438 317.945312 417.988281 317.707031 417.726562 317.445312 C 417.460938 317.179688 417.226562 316.894531 417.019531 316.585938 C 416.816406 316.273438 416.640625 315.949219 416.5 315.605469 C 416.355469 315.261719 416.25 314.90625 416.175781 314.539062 C 416.105469 314.175781 416.066406 313.804688 416.066406 313.433594 C 416.066406 313.058594 416.105469 312.691406 416.175781 312.324219 C 416.25 311.960938 416.355469 311.605469 416.5 311.261719 C 416.640625 310.917969 416.816406 310.589844 417.019531 310.28125 C 417.226562 309.96875 417.460938 309.683594 417.726562 309.421875 C 417.988281 309.15625 418.273438 308.921875 418.582031 308.714844 C 418.890625 308.507812 419.21875 308.332031 419.5625 308.191406 C 419.90625 308.046875 420.257812 307.941406 420.625 307.867188 C 420.988281 307.792969 421.355469 307.757812 421.726562 307.757812 C 422.097656 307.757812 422.46875 307.792969 422.832031 307.867188 C 423.195312 307.941406 423.550781 308.046875 423.894531 308.191406 C 424.238281 308.332031 424.5625 308.507812 424.871094 308.714844 C 425.179688 308.921875 425.464844 309.15625 425.730469 309.421875 C 425.992188 309.683594 426.226562 309.96875 426.433594 310.28125 C 426.640625 310.589844 426.8125 310.917969 426.957031 311.261719 C 427.097656 311.605469 427.207031 311.960938 427.277344 312.324219 C 427.351562 312.691406 427.386719 313.058594 427.386719 313.433594 Z M 427.386719 313.433594 "/>
</g>
</svg>
