<?xml version="1.0" encoding="UTF-8"?>
<svg xmlns="http://www.w3.org/2000/svg" xmlns:xlink="http://www.w3.org/1999/xlink" width="810pt" height="809.999993pt" viewBox="0 0 810 809.999993" version="1.2">
<defs>
<clipPath id="clip1">
  <path d="M 377.722656 135.835938 L 425.144531 135.835938 L 425.144531 327.882812 L 377.722656 327.882812 Z M 377.722656 135.835938 "/>
</clipPath>
<clipPath id="clip2">
  <path d="M 384.367188 132.394531 L 431.789062 132.394531 L 431.789062 331.558594 L 384.367188 331.558594 Z M 384.367188 132.394531 "/>
</clipPath>
<clipPath id="clip3">
  <path d="M 256 437 L 566 437 L 566 549 L 256 549 Z M 256 437 "/>
</clipPath>
<clipPath id="clip4">
  <path d="M 263.425781 431.632812 L 573.179688 454.53125 L 566.011719 551.476562 L 256.257812 528.578125 Z M 263.425781 431.632812 "/>
</clipPath>
<clipPath id="clip5">
  <path d="M 263.425781 431.632812 L 573.179688 454.53125 L 566.011719 551.476562 L 256.257812 528.578125 Z M 263.425781 431.632812 "/>
</clipPath>
<clipPath id="clip6">
  <path d="M 260 432 L 570 432 L 570 544 L 260 544 Z M 260 432 "/>
</clipPath>
<clipPath id="clip7">
  <path d="M 263.425781 431.632812 L 573.179688 454.53125 L 566.011719 551.476562 L 256.257812 528.578125 Z M 263.425781 431.632812 "/>
</clipPath>
<clipPath id="clip8">
  <path d="M 263.425781 431.632812 L 573.179688 454.53125 L 566.011719 551.476562 L 256.257812 528.578125 Z M 263.425781 431.632812 "/>
</clipPath>
<clipPath id="clip9">
  <path d="M 261 432 L 569 432 L 569 544 L 261 544 Z M 261 432 "/>
</clipPath>
<clipPath id="clip10">
  <path d="M 263.425781 431.632812 L 573.179688 454.53125 L 566.011719 551.476562 L 256.257812 528.578125 Z M 263.425781 431.632812 "/>
</clipPath>
<clipPath id="clip11">
  <path d="M 263.425781 431.632812 L 573.179688 454.53125 L 566.011719 551.476562 L 256.257812 528.578125 Z M 263.425781 431.632812 "/>
</clipPath>
<clipPath id="clip12">
  <path d="M 221 199 L 527 199 L 527 307 L 221 307 Z M 221 199 "/>
</clipPath>
<clipPath id="clip13">
  <path d="M 214.820312 211.457031 L 522.507812 193.246094 L 528.253906 290.289062 L 220.5625 308.5 Z M 214.820312 211.457031 "/>
</clipPath>
<clipPath id="clip14">
  <path d="M 523.507812 193.1875 L 215.816406 211.398438 L 221.5625 308.441406 L 529.25 290.226562 Z M 523.507812 193.1875 "/>
</clipPath>
<clipPath id="clip15">
  <path d="M 218 193 L 525 193 L 525 301 L 218 301 Z M 218 193 "/>
</clipPath>
<clipPath id="clip16">
  <path d="M 214.820312 211.457031 L 522.507812 193.246094 L 528.253906 290.289062 L 220.5625 308.5 Z M 214.820312 211.457031 "/>
</clipPath>
<clipPath id="clip17">
  <path d="M 523.507812 193.1875 L 215.816406 211.398438 L 221.5625 308.441406 L 529.25 290.226562 Z M 523.507812 193.1875 "/>
</clipPath>
<clipPath id="clip18">
  <path d="M 218 204 L 522 204 L 522 290 L 218 290 Z M 218 204 "/>
</clipPath>
<clipPath id="clip19">
  <path d="M 214.820312 211.457031 L 522.507812 193.246094 L 528.253906 290.289062 L 220.5625 308.5 Z M 214.820312 211.457031 "/>
</clipPath>
<clipPath id="clip20">
  <path d="M 523.507812 193.1875 L 215.816406 211.398438 L 221.5625 308.441406 L 529.25 290.226562 Z M 523.507812 193.1875 "/>
</clipPath>
<clipPath id="clip21">
  <path d="M 295.578125 332.066406 L 625 332.066406 L 625 412.683594 L 295.578125 412.683594 Z M 295.578125 332.066406 "/>
</clipPath>
<clipPath id="clip22">
  <path d="M 300.054688 327.886719 L 629.625 327.886719 L 629.625 408.5 L 300.054688 408.5 Z M 300.054688 327.886719 "/>
</clipPath>
</defs>
<g id="surface1">
<rect x="0" y="0" width="810" height="809.999993" style="fill:rgb(100%,100%,100%);fill-opacity:1;stroke:none;"/>
<rect x="0" y="0" width="810" height="809.999993" style="fill:rgb(100%,100%,100%);fill-opacity:1;stroke:none;"/>
<path style=" stroke:none;fill-rule:nonzero;fill:rgb(78.039551%,81.568909%,84.709167%);fill-opacity:1;" d="M 195.515625 714.371094 C 163.535156 714.371094 137.582031 686.578125 137.582031 656.929688 L 137.582031 138.90625 C 137.582031 130.566406 139.4375 122.230469 142.679688 114.816406 C 132.484375 124.546875 126.460938 137.976562 126.460938 153.03125 L 126.460938 670.828125 C 126.460938 700.011719 150.558594 724.097656 179.757812 724.097656 L 614.804688 724.097656 C 628.242188 724.097656 640.292969 719.003906 649.5625 711.128906 C 643.539062 713.445312 637.050781 714.371094 630.5625 714.371094 Z M 195.515625 714.371094 "/>
<path style=" stroke:none;fill-rule:nonzero;fill:rgb(96.078491%,96.469116%,96.859741%);fill-opacity:1;" d="M 142.21875 138.90625 L 142.21875 656.003906 C 142.21875 685.1875 166.316406 709.273438 195.515625 709.273438 L 630.5625 709.273438 C 659.757812 709.273438 683.859375 685.1875 683.859375 656.003906 L 683.859375 138.90625 C 683.859375 109.722656 659.757812 85.632812 630.5625 85.632812 L 195.515625 85.632812 C 165.855469 85.632812 142.21875 109.722656 142.21875 138.90625 Z M 142.21875 138.90625 "/>
<path style=" stroke:none;fill-rule:nonzero;fill:rgb(65.098572%,65.098572%,65.098572%);fill-opacity:1;" d="M 661.148438 705.105469 C 677.371094 694.914062 688.492188 676.847656 688.492188 656.003906 L 688.492188 138.90625 C 688.492188 106.941406 662.539062 81.003906 630.5625 81.003906 L 195.515625 81.003906 C 176.511719 81.003906 159.828125 90.265625 149.167969 104.164062 C 132.949219 114.355469 121.824219 132.417969 121.824219 153.53125 L 121.824219 670.363281 C 121.824219 702.328125 147.777344 728.265625 179.757812 728.265625 L 614.804688 728.265625 C 633.804688 728.265625 650.488281 719.003906 661.148438 705.105469 Z M 195.515625 85.632812 L 630.5625 85.632812 C 659.757812 85.632812 683.859375 109.722656 683.859375 138.90625 L 683.859375 656.003906 C 683.859375 685.1875 659.757812 709.273438 630.5625 709.273438 L 195.515625 709.273438 C 166.316406 709.273438 142.21875 685.1875 142.21875 656.003906 L 142.21875 138.90625 C 142.21875 109.722656 165.855469 85.632812 195.515625 85.632812 Z M 179.757812 724.097656 C 150.558594 724.097656 126.460938 699.546875 126.460938 670.363281 L 126.460938 153.53125 C 126.460938 138.441406 132.484375 125.007812 142.679688 115.28125 C 139.4375 122.691406 137.582031 130.566406 137.582031 139.367188 L 137.582031 656.46875 C 137.582031 688.429688 163.535156 714.371094 195.515625 714.371094 L 630.5625 714.371094 C 637.050781 714.371094 643.539062 712.980469 649.5625 711.128906 C 640.292969 719.003906 628.242188 724.097656 614.804688 724.097656 Z M 179.757812 724.097656 "/>
<path style=" stroke:none;fill-rule:nonzero;fill:rgb(32.939148%,32.939148%,32.939148%);fill-opacity:1;" d="M 377.722656 338.421875 L 432.253906 338.421875 L 432.253906 660.773438 L 377.722656 660.773438 Z M 377.722656 338.421875 "/>
<g clip-path="url(#clip1)" clip-rule="nonzero">
<path style=" stroke:none;fill-rule:nonzero;fill:rgb(32.939148%,32.939148%,32.939148%);fill-opacity:1;" d="M 425.144531 160.949219 L 425.144531 322.949219 C 425.144531 325.667969 422.917969 327.808594 420.214844 327.808594 L 382.652344 327.808594 C 379.949219 327.808594 377.722656 325.613281 377.722656 322.949219 L 377.722656 160.949219 C 377.722656 159.746094 378.199219 158.542969 379.046875 157.65625 L 397.804688 137.527344 C 399.765625 135.4375 403.15625 135.4375 405.117188 137.527344 L 423.820312 157.601562 C 424.667969 158.542969 425.144531 159.695312 425.144531 160.949219 Z M 425.144531 160.949219 "/>
</g>
<path style=" stroke:none;fill-rule:nonzero;fill:rgb(32.939148%,32.939148%,32.939148%);fill-opacity:1;" d="M 399.023438 163.25 C 399.023438 166.644531 404.375 166.644531 404.375 163.25 C 404.375 159.851562 399.023438 159.851562 399.023438 163.25 Z M 399.023438 163.25 "/>
<path style=" stroke:none;fill-rule:nonzero;fill:rgb(32.939148%,32.939148%,32.939148%);fill-opacity:1;" d="M 399.023438 196.808594 C 399.023438 200.207031 404.375 200.207031 404.375 196.808594 C 404.375 193.410156 399.023438 193.359375 399.023438 196.808594 Z M 399.023438 196.808594 "/>
<path style=" stroke:none;fill-rule:nonzero;fill:rgb(32.939148%,32.939148%,32.939148%);fill-opacity:1;" d="M 399.023438 229.953125 C 399.023438 233.347656 404.375 233.347656 404.375 229.953125 C 404.375 226.554688 399.023438 226.554688 399.023438 229.953125 Z M 399.023438 229.953125 "/>
<path style=" stroke:none;fill-rule:nonzero;fill:rgb(32.939148%,32.939148%,32.939148%);fill-opacity:1;" d="M 399.023438 263.511719 C 399.023438 266.910156 404.375 266.910156 404.375 263.511719 C 404.375 260.113281 399.023438 260.0625 399.023438 263.511719 Z M 399.023438 263.511719 "/>
<path style=" stroke:none;fill-rule:nonzero;fill:rgb(32.939148%,32.939148%,32.939148%);fill-opacity:1;" d="M 399.023438 297.074219 C 399.023438 300.46875 404.375 300.46875 404.375 297.074219 C 404.375 293.621094 399.023438 293.621094 399.023438 297.074219 Z M 399.023438 297.074219 "/>
<path style=" stroke:none;fill-rule:nonzero;fill:rgb(32.939148%,32.939148%,32.939148%);fill-opacity:1;" d="M 412.957031 178.355469 C 412.957031 181.753906 418.308594 181.753906 418.308594 178.355469 C 418.363281 174.90625 412.957031 174.90625 412.957031 178.355469 Z M 412.957031 178.355469 "/>
<path style=" stroke:none;fill-rule:nonzero;fill:rgb(32.939148%,32.939148%,32.939148%);fill-opacity:1;" d="M 412.957031 211.917969 C 412.957031 215.3125 418.308594 215.3125 418.308594 211.917969 C 418.363281 208.464844 412.957031 208.464844 412.957031 211.917969 Z M 412.957031 211.917969 "/>
<path style=" stroke:none;fill-rule:nonzero;fill:rgb(32.939148%,32.939148%,32.939148%);fill-opacity:1;" d="M 412.957031 245.058594 C 412.957031 248.457031 418.308594 248.457031 418.308594 245.058594 C 418.363281 241.609375 412.957031 241.609375 412.957031 245.058594 Z M 412.957031 245.058594 "/>
<path style=" stroke:none;fill-rule:nonzero;fill:rgb(32.939148%,32.939148%,32.939148%);fill-opacity:1;" d="M 412.957031 278.621094 C 412.957031 282.015625 418.308594 282.015625 418.308594 278.621094 C 418.363281 275.167969 412.957031 275.167969 412.957031 278.621094 Z M 412.957031 278.621094 "/>
<path style=" stroke:none;fill-rule:nonzero;fill:rgb(32.939148%,32.939148%,32.939148%);fill-opacity:1;" d="M 412.957031 312.128906 C 412.957031 315.527344 418.308594 315.527344 418.308594 312.128906 C 418.363281 308.730469 412.957031 308.730469 412.957031 312.128906 Z M 412.957031 312.128906 "/>
<path style=" stroke:none;fill-rule:nonzero;fill:rgb(32.939148%,32.939148%,32.939148%);fill-opacity:1;" d="M 385.035156 178.355469 C 385.035156 181.753906 390.386719 181.753906 390.386719 178.355469 C 390.4375 174.90625 385.035156 174.90625 385.035156 178.355469 Z M 385.035156 178.355469 "/>
<path style=" stroke:none;fill-rule:nonzero;fill:rgb(32.939148%,32.939148%,32.939148%);fill-opacity:1;" d="M 385.035156 211.917969 C 385.035156 215.3125 390.386719 215.3125 390.386719 211.917969 C 390.4375 208.464844 385.035156 208.464844 385.035156 211.917969 Z M 385.035156 211.917969 "/>
<path style=" stroke:none;fill-rule:nonzero;fill:rgb(32.939148%,32.939148%,32.939148%);fill-opacity:1;" d="M 385.035156 245.058594 C 385.035156 248.457031 390.386719 248.457031 390.386719 245.058594 C 390.4375 241.609375 385.035156 241.609375 385.035156 245.058594 Z M 385.035156 245.058594 "/>
<path style=" stroke:none;fill-rule:nonzero;fill:rgb(32.939148%,32.939148%,32.939148%);fill-opacity:1;" d="M 385.035156 278.621094 C 385.035156 282.015625 390.386719 282.015625 390.386719 278.621094 C 390.4375 275.167969 385.035156 275.167969 385.035156 278.621094 Z M 385.035156 278.621094 "/>
<path style=" stroke:none;fill-rule:nonzero;fill:rgb(32.939148%,32.939148%,32.939148%);fill-opacity:1;" d="M 385.035156 312.128906 C 385.035156 315.527344 390.386719 315.527344 390.386719 312.128906 C 390.4375 308.730469 385.035156 308.730469 385.035156 312.128906 Z M 385.035156 312.128906 "/>
<g clip-path="url(#clip2)" clip-rule="nonzero">
<path style=" stroke:none;fill-rule:nonzero;fill:rgb(65.098572%,65.098572%,65.098572%);fill-opacity:1;" d="M 431.789062 158.464844 L 431.789062 326.40625 C 431.789062 329.222656 429.5625 331.445312 426.859375 331.445312 L 389.296875 331.445312 C 386.59375 331.445312 384.367188 329.167969 384.367188 326.40625 L 384.367188 158.464844 C 384.367188 157.21875 384.847656 155.972656 385.695312 155.050781 L 404.449219 134.1875 C 406.410156 132.019531 409.800781 132.019531 411.761719 134.1875 L 430.464844 154.996094 C 431.3125 155.972656 431.789062 157.164062 431.789062 158.464844 Z M 431.789062 158.464844 "/>
</g>
<path style=" stroke:none;fill-rule:nonzero;fill:rgb(65.098572%,65.098572%,65.098572%);fill-opacity:1;" d="M 405.667969 160.851562 C 405.667969 164.371094 411.019531 164.371094 411.019531 160.851562 C 411.019531 157.328125 405.667969 157.328125 405.667969 160.851562 Z M 405.667969 160.851562 "/>
<path style=" stroke:none;fill-rule:nonzero;fill:rgb(65.098572%,65.098572%,65.098572%);fill-opacity:1;" d="M 405.667969 195.640625 C 405.667969 199.164062 411.019531 199.164062 411.019531 195.640625 C 411.019531 192.117188 405.667969 192.0625 405.667969 195.640625 Z M 405.667969 195.640625 "/>
<path style=" stroke:none;fill-rule:nonzero;fill:rgb(65.098572%,65.098572%,65.098572%);fill-opacity:1;" d="M 405.667969 229.996094 C 405.667969 233.519531 411.019531 233.519531 411.019531 229.996094 C 411.019531 226.476562 405.667969 226.476562 405.667969 229.996094 Z M 405.667969 229.996094 "/>
<path style=" stroke:none;fill-rule:nonzero;fill:rgb(65.098572%,65.098572%,65.098572%);fill-opacity:1;" d="M 405.667969 264.789062 C 405.667969 268.3125 411.019531 268.3125 411.019531 264.789062 C 411.019531 261.265625 405.667969 261.210938 405.667969 264.789062 Z M 405.667969 264.789062 "/>
<path style=" stroke:none;fill-rule:nonzero;fill:rgb(65.098572%,65.098572%,65.098572%);fill-opacity:1;" d="M 405.667969 299.578125 C 405.667969 303.101562 411.019531 303.101562 411.019531 299.578125 C 411.019531 296.003906 405.667969 296.003906 405.667969 299.578125 Z M 405.667969 299.578125 "/>
<path style=" stroke:none;fill-rule:nonzero;fill:rgb(65.098572%,65.098572%,65.098572%);fill-opacity:1;" d="M 419.601562 176.511719 C 419.601562 180.035156 424.953125 180.035156 424.953125 176.511719 C 425.007812 172.933594 419.601562 172.933594 419.601562 176.511719 Z M 419.601562 176.511719 "/>
<path style=" stroke:none;fill-rule:nonzero;fill:rgb(65.098572%,65.098572%,65.098572%);fill-opacity:1;" d="M 419.601562 211.300781 C 419.601562 214.824219 424.953125 214.824219 424.953125 211.300781 C 425.007812 207.726562 419.601562 207.726562 419.601562 211.300781 Z M 419.601562 211.300781 "/>
<path style=" stroke:none;fill-rule:nonzero;fill:rgb(65.098572%,65.098572%,65.098572%);fill-opacity:1;" d="M 419.601562 245.660156 C 419.601562 249.183594 424.953125 249.183594 424.953125 245.660156 C 425.007812 242.082031 419.601562 242.082031 419.601562 245.660156 Z M 419.601562 245.660156 "/>
<path style=" stroke:none;fill-rule:nonzero;fill:rgb(65.098572%,65.098572%,65.098572%);fill-opacity:1;" d="M 419.601562 280.449219 C 419.601562 283.972656 424.953125 283.972656 424.953125 280.449219 C 425.007812 276.875 419.601562 276.875 419.601562 280.449219 Z M 419.601562 280.449219 "/>
<path style=" stroke:none;fill-rule:nonzero;fill:rgb(65.098572%,65.098572%,65.098572%);fill-opacity:1;" d="M 419.601562 315.1875 C 419.601562 318.710938 424.953125 318.710938 424.953125 315.1875 C 425.007812 311.664062 419.601562 311.664062 419.601562 315.1875 Z M 419.601562 315.1875 "/>
<path style=" stroke:none;fill-rule:nonzero;fill:rgb(65.098572%,65.098572%,65.098572%);fill-opacity:1;" d="M 391.679688 176.511719 C 391.679688 180.035156 397.03125 180.035156 397.03125 176.511719 C 397.085938 172.933594 391.679688 172.933594 391.679688 176.511719 Z M 391.679688 176.511719 "/>
<path style=" stroke:none;fill-rule:nonzero;fill:rgb(65.098572%,65.098572%,65.098572%);fill-opacity:1;" d="M 391.679688 211.300781 C 391.679688 214.824219 397.03125 214.824219 397.03125 211.300781 C 397.085938 207.726562 391.679688 207.726562 391.679688 211.300781 Z M 391.679688 211.300781 "/>
<path style=" stroke:none;fill-rule:nonzero;fill:rgb(65.098572%,65.098572%,65.098572%);fill-opacity:1;" d="M 391.679688 245.660156 C 391.679688 249.183594 397.03125 249.183594 397.03125 245.660156 C 397.085938 242.082031 391.679688 242.082031 391.679688 245.660156 Z M 391.679688 245.660156 "/>
<path style=" stroke:none;fill-rule:nonzero;fill:rgb(65.098572%,65.098572%,65.098572%);fill-opacity:1;" d="M 391.679688 280.449219 C 391.679688 283.972656 397.03125 283.972656 397.03125 280.449219 C 397.085938 276.875 391.679688 276.875 391.679688 280.449219 Z M 391.679688 280.449219 "/>
<path style=" stroke:none;fill-rule:nonzero;fill:rgb(65.098572%,65.098572%,65.098572%);fill-opacity:1;" d="M 391.679688 315.1875 C 391.679688 318.710938 397.03125 318.710938 397.03125 315.1875 C 397.085938 311.664062 391.679688 311.664062 391.679688 315.1875 Z M 391.679688 315.1875 "/>
<path style=" stroke:none;fill-rule:nonzero;fill:rgb(65.098572%,65.098572%,65.098572%);fill-opacity:1;" d="M 386.238281 343.15625 L 433.65625 343.15625 L 433.65625 653.667969 L 386.238281 653.667969 Z M 386.238281 343.15625 "/>
<g clip-path="url(#clip3)" clip-rule="nonzero">
<g clip-path="url(#clip4)" clip-rule="nonzero">
<g clip-path="url(#clip5)" clip-rule="nonzero">
<path style=" stroke:none;fill-rule:nonzero;fill:rgb(74.899292%,38.42926%,23.529053%);fill-opacity:1;" d="M 491.660156 453.398438 L 531.4375 456.339844 C 533.742188 456.507812 535.851562 457.738281 537.296875 459.734375 C 546.117188 471.964844 554.914062 484.210938 563.734375 496.441406 C 566.390625 500.125 566.128906 505.523438 563.105469 508.964844 C 552.402344 521.15625 541.695312 533.363281 530.972656 545.550781 C 529.234375 547.527344 526.820312 548.578125 524.378906 548.394531 L 264.601562 529.191406 C 259.988281 528.851562 256.570312 524.371094 256.953125 519.195312 L 262.371094 445.882812 C 262.753906 440.707031 266.796875 436.777344 271.40625 437.117188 L 484.625 452.878906 M 484.625 452.878906 L 491.660156 453.398438 "/>
</g>
</g>
</g>
<g clip-path="url(#clip6)" clip-rule="nonzero">
<g clip-path="url(#clip7)" clip-rule="nonzero">
<g clip-path="url(#clip8)" clip-rule="nonzero">
<path style=" stroke:none;fill-rule:nonzero;fill:rgb(100%,50.19989%,25.878906%);fill-opacity:1;" d="M 487.132812 448.191406 L 535.058594 451.734375 C 537.363281 451.90625 539.472656 453.132812 540.917969 455.128906 C 549.738281 467.359375 558.535156 479.605469 567.355469 491.835938 C 570.011719 495.519531 569.75 500.917969 566.726562 504.359375 C 556.023438 516.550781 545.316406 528.757812 534.59375 540.945312 C 532.855469 542.921875 530.441406 543.972656 527.980469 543.789062 L 268.222656 524.585938 C 263.609375 524.246094 260.191406 519.765625 260.574219 514.589844 L 265.992188 441.277344 C 266.375 436.101562 270.417969 432.171875 275.027344 432.511719 L 481.269531 447.757812 M 481.269531 447.757812 L 487.132812 448.191406 "/>
</g>
</g>
</g>
<g clip-path="url(#clip9)" clip-rule="nonzero">
<g clip-path="url(#clip10)" clip-rule="nonzero">
<g clip-path="url(#clip11)" clip-rule="nonzero">
<path style=" stroke:none;fill-rule:nonzero;fill:rgb(100%,50.19989%,25.878906%);fill-opacity:1;" d="M 560.601562 498.449219 C 560.960938 493.605469 561.316406 488.777344 561.636719 483.929688 C 559.605469 481.089844 557.554688 478.265625 555.527344 475.425781 C 550.128906 475.085938 544.710938 474.746094 539.300781 474.363281 C 539.691406 467.746094 540.0625 461.109375 540.375 454.484375 C 539.109375 453.027344 537.429688 452.085938 535.601562 451.8125 C 535.253906 459.214844 534.859375 466.628906 534.414062 474.023438 C 528.277344 473.589844 522.144531 473.117188 516.011719 472.625 C 516.5 465.234375 516.929688 457.820312 517.296875 450.421875 L 512.414062 450.058594 C 512.042969 457.457031 511.617188 464.851562 511.128906 472.242188 C 504.683594 471.726562 498.238281 471.191406 491.796875 470.636719 C 492.320312 463.308594 492.804688 455.976562 493.285156 448.644531 L 488.402344 448.285156 C 487.921875 455.597656 487.4375 462.910156 486.917969 470.21875 C 480.339844 469.65625 473.742188 469.089844 467.164062 468.503906 C 467.660156 461.273438 468.191406 454.0625 468.746094 446.832031 L 463.863281 446.472656 C 463.3125 453.660156 462.757812 460.871094 462.285156 468.066406 C 456.429688 467.554688 450.574219 467.046875 444.738281 466.535156 C 445.128906 459.390625 445.460938 452.265625 445.734375 445.113281 L 440.847656 444.75 C 440.578125 451.882812 440.246094 458.992188 439.859375 466.117188 C 432.949219 465.527344 426.054688 464.941406 419.144531 464.390625 C 419.683594 457.355469 420.300781 450.304688 421.015625 443.285156 L 416.132812 442.921875 C 415.417969 449.945312 414.78125 456.972656 414.257812 464.011719 C 412.152344 463.835938 410.039062 463.679688 407.953125 463.503906 C 404.746094 463.269531 401.523438 463.03125 398.320312 462.792969 C 398.847656 455.894531 399.359375 448.972656 399.832031 442.070312 C 399.839844 441.953125 399.828125 441.835938 399.820312 441.71875 L 394.992188 441.359375 C 394.964844 441.476562 394.9375 441.570312 394.925781 441.707031 C 394.476562 448.613281 393.964844 455.53125 393.414062 462.429688 C 386.539062 461.921875 379.664062 461.394531 372.804688 460.90625 C 373.339844 453.890625 373.917969 446.878906 374.496094 439.84375 L 369.613281 439.484375 C 369.035156 446.496094 368.4375 453.507812 367.917969 460.527344 C 361.941406 460.082031 355.980469 459.683594 350 459.257812 C 350.34375 452.210938 350.648438 445.15625 350.875 438.097656 L 345.992188 437.738281 C 345.765625 444.796875 345.457031 451.867188 345.113281 458.917969 C 338.664062 458.460938 332.214844 458.023438 325.761719 457.585938 C 326.207031 450.503906 326.632812 443.421875 327.078125 436.339844 L 322.195312 435.980469 C 321.75 443.058594 321.324219 450.160156 320.878906 457.242188 C 314.5625 456.816406 308.230469 456.40625 301.914062 455.996094 C 302.148438 448.84375 302.34375 441.683594 302.519531 434.523438 L 297.636719 434.164062 C 297.4375 441.339844 297.261719 448.519531 297.027344 455.695312 C 291.0625 455.3125 285.078125 454.929688 279.117188 454.546875 C 279.746094 447.363281 280.355469 440.15625 280.96875 432.949219 L 276.082031 432.589844 C 275.46875 439.816406 274.839844 447.039062 274.226562 454.261719 C 271.175781 454.074219 268.125 453.871094 265.054688 453.683594 L 264.695312 458.527344 C 267.726562 458.714844 270.757812 458.917969 273.808594 459.105469 C 273.292969 465.03125 272.796875 470.9375 272.28125 476.863281 C 269.308594 476.683594 266.355469 476.484375 263.382812 476.304688 L 263.023438 481.148438 C 265.976562 481.328125 268.910156 481.527344 271.863281 481.707031 C 271.3125 488.097656 270.761719 494.46875 270.210938 500.859375 C 267.335938 500.667969 264.464844 500.492188 261.609375 500.300781 L 261.25 505.148438 C 264.105469 505.320312 266.960938 505.511719 269.8125 505.703125 C 269.269531 511.996094 268.726562 518.289062 268.203125 524.585938 L 268.222656 524.585938 L 273.085938 524.945312 C 273.632812 518.632812 274.175781 512.320312 274.703125 506.003906 C 281.449219 506.445312 288.191406 506.886719 294.917969 507.324219 C 294.601562 513.714844 294.269531 520.101562 293.914062 526.488281 L 298.796875 526.847656 C 299.152344 520.460938 299.488281 514.054688 299.804688 507.664062 C 305.765625 508.066406 311.707031 508.488281 317.667969 508.910156 C 317.269531 515.332031 316.875 521.753906 316.480469 528.15625 L 321.363281 528.515625 C 321.761719 522.09375 322.15625 515.671875 322.554688 509.230469 C 328.867188 509.679688 335.160156 510.105469 341.472656 510.570312 C 340.878906 516.996094 340.265625 523.441406 339.574219 529.863281 L 344.457031 530.222656 C 345.148438 523.804688 345.761719 517.359375 346.355469 510.933594 C 352.433594 511.382812 358.488281 511.828125 364.566406 512.277344 C 364.207031 518.722656 363.886719 525.167969 363.585938 531.636719 L 368.472656 532 C 368.769531 525.550781 369.089844 519.101562 369.449219 512.660156 C 373.941406 512.992188 378.457031 513.324219 382.949219 513.65625 C 384.84375 513.796875 386.738281 513.957031 388.632812 514.097656 C 387.941406 520.515625 387.234375 526.914062 386.464844 533.328125 L 391.351562 533.691406 C 392.097656 527.292969 392.824219 520.894531 393.515625 514.496094 C 399.804688 515 406.109375 515.523438 412.414062 516.070312 C 412.433594 522.460938 412.410156 528.875 412.117188 535.246094 L 417 535.605469 C 417.292969 529.253906 417.316406 522.863281 417.296875 516.488281 C 423.484375 517.023438 429.671875 517.558594 435.878906 518.09375 C 435.257812 524.34375 434.597656 530.609375 433.882812 536.851562 L 438.765625 537.214844 C 439.460938 530.988281 440.140625 524.765625 440.738281 518.511719 C 446.925781 519.046875 453.132812 519.585938 459.320312 520.121094 C 459.042969 526.296875 458.800781 532.476562 458.578125 538.660156 L 463.464844 539.019531 C 463.683594 532.859375 463.921875 526.699219 464.203125 520.539062 C 470.449219 521.078125 476.714844 521.601562 482.964844 522.101562 C 482.476562 528.1875 481.949219 534.265625 481.417969 540.347656 L 486.304688 540.710938 C 486.832031 534.648438 487.339844 528.566406 487.847656 522.503906 C 494.15625 523.007812 500.464844 523.492188 506.773438 523.960938 C 506.167969 530.015625 505.507812 536.046875 504.824219 542.097656 L 509.710938 542.457031 C 510.390625 536.410156 511.035156 530.375 511.660156 524.320312 C 517.953125 524.765625 524.246094 525.171875 530.523438 525.558594 C 529.976562 531.640625 529.410156 537.71875 528.78125 543.808594 C 530.65625 543.734375 532.460938 542.972656 533.914062 541.617188 C 534.441406 536.375 534.925781 531.128906 535.394531 525.859375 C 539.34375 526.09375 543.277344 526.308594 547.230469 526.503906 C 548.605469 524.945312 549.957031 523.390625 551.328125 521.835938 C 546.160156 521.589844 540.992188 521.324219 535.832031 521.019531 C 536.382812 514.628906 536.894531 508.234375 537.386719 501.839844 C 543.347656 502.261719 549.328125 502.644531 555.292969 503.007812 C 554.882812 508.28125 554.4375 513.546875 553.96875 518.816406 C 555.789062 516.746094 557.59375 514.675781 559.417969 512.609375 C 559.683594 509.511719 559.933594 506.390625 560.183594 503.292969 C 562.511719 503.425781 564.839844 503.558594 567.148438 503.671875 C 568.175781 502.265625 568.789062 500.613281 568.992188 498.914062 C 566.253906 498.769531 563.4375 498.601562 560.601562 498.449219 Z M 534.132812 478.875 C 533.753906 484.808594 533.355469 490.726562 532.917969 496.65625 C 526.722656 496.21875 520.53125 495.742188 514.339844 495.246094 C 514.816406 489.316406 515.273438 483.40625 515.671875 477.472656 C 521.824219 477.964844 527.976562 478.417969 534.132812 478.875 Z M 510.808594 477.089844 C 510.390625 483.023438 509.953125 488.9375 509.476562 494.867188 C 503.03125 494.351562 496.605469 493.816406 490.164062 493.261719 C 490.605469 487.332031 491.039062 481.417969 491.460938 475.484375 C 497.902344 476.019531 504.347656 476.554688 510.808594 477.089844 Z M 486.578125 475.066406 C 486.160156 481 485.722656 486.910156 485.285156 492.84375 C 478.785156 492.285156 472.265625 491.726562 465.765625 491.148438 C 466.105469 485.207031 466.484375 479.292969 466.882812 473.355469 C 473.421875 473.917969 480 474.503906 486.578125 475.066406 Z M 461.984375 472.917969 C 461.585938 478.851562 461.226562 484.769531 460.867188 490.707031 C 454.992188 490.195312 449.117188 489.683594 443.261719 489.171875 C 443.699219 483.238281 444.097656 477.324219 444.4375 471.386719 C 450.292969 471.898438 456.128906 472.40625 461.984375 472.917969 Z M 438.378906 488.773438 C 431.507812 488.1875 424.65625 487.601562 417.78125 487.054688 C 418.0625 481.109375 418.382812 475.191406 418.800781 469.257812 C 425.714844 469.808594 432.644531 470.398438 439.558594 470.988281 C 439.195312 476.921875 438.816406 482.839844 438.378906 488.773438 Z M 407.59375 468.371094 C 409.703125 468.527344 411.8125 468.703125 413.917969 468.875 C 413.5 474.808594 413.179688 480.730469 412.898438 486.675781 C 410.691406 486.492188 408.484375 486.328125 406.277344 486.144531 C 402.996094 485.882812 399.695312 485.660156 396.410156 485.417969 C 396.949219 479.492188 397.460938 473.585938 397.941406 467.65625 C 401.144531 467.894531 404.367188 468.132812 407.59375 468.371094 Z M 391.527344 485.054688 C 384.765625 484.554688 377.988281 484.035156 371.226562 483.554688 C 371.625 477.621094 372.023438 471.703125 372.460938 465.773438 C 379.320312 466.28125 386.199219 466.789062 393.054688 467.296875 C 392.578125 473.203125 392.0625 479.128906 391.527344 485.054688 Z M 367.578125 465.394531 C 367.140625 471.324219 366.742188 477.238281 366.34375 483.175781 C 360.441406 482.738281 354.5625 482.324219 348.660156 481.90625 C 349.058594 475.972656 349.4375 470.054688 349.757812 464.113281 C 355.699219 464.554688 361.640625 464.972656 367.578125 465.394531 Z M 344.871094 463.792969 C 344.550781 469.730469 344.191406 475.648438 343.773438 481.582031 C 337.304688 481.125 330.832031 480.683594 324.363281 480.246094 C 324.722656 474.308594 325.101562 468.390625 325.460938 462.453125 C 331.933594 462.894531 338.402344 463.351562 344.871094 463.792969 Z M 320.578125 462.113281 C 320.214844 468.050781 319.835938 473.96875 319.476562 479.90625 C 313.339844 479.488281 307.21875 479.09375 301.082031 478.679688 C 301.324219 472.753906 301.546875 466.808594 301.75 460.878906 C 308.027344 461.28125 314.300781 461.707031 320.578125 462.113281 Z M 278.699219 459.40625 C 284.757812 459.796875 290.800781 460.164062 296.859375 460.574219 C 296.660156 466.503906 296.433594 472.453125 296.195312 478.378906 C 289.859375 477.96875 283.503906 477.558594 277.167969 477.167969 C 277.683594 471.242188 278.199219 465.335938 278.699219 459.40625 Z M 275.121094 501.164062 C 275.671875 494.773438 276.21875 488.402344 276.769531 482.007812 C 283.183594 482.40625 289.617188 482.824219 296.03125 483.238281 C 295.773438 489.652344 295.457031 496.058594 295.160156 502.46875 C 288.472656 502.035156 281.804688 501.597656 275.121094 501.164062 Z M 300.042969 502.8125 C 300.34375 496.382812 300.660156 489.972656 300.917969 483.542969 C 307.019531 483.933594 313.097656 484.34375 319.199219 484.757812 C 318.800781 491.199219 318.402344 497.621094 318.007812 504.0625 C 312.007812 503.636719 306.027344 503.214844 300.042969 502.8125 Z M 322.875 504.382812 C 323.269531 497.941406 323.667969 491.519531 324.066406 485.078125 C 330.535156 485.515625 336.984375 485.953125 343.453125 486.414062 C 342.996094 492.851562 342.484375 499.28125 341.910156 505.710938 C 335.558594 505.28125 329.207031 504.832031 322.875 504.382812 Z M 346.792969 506.089844 C 347.347656 499.640625 347.863281 493.210938 348.339844 486.753906 C 354.222656 487.171875 360.125 487.585938 366.003906 488.019531 C 365.585938 494.480469 365.226562 500.964844 364.84375 507.425781 C 358.828125 506.980469 352.808594 506.535156 346.792969 506.089844 Z M 383.308594 508.808594 C 378.777344 508.457031 374.261719 508.140625 369.730469 507.804688 C 370.089844 501.34375 370.46875 494.859375 370.886719 488.402344 C 377.609375 488.898438 384.351562 489.398438 391.070312 489.894531 C 390.476562 496.359375 389.839844 502.824219 389.167969 509.28125 C 387.214844 509.117188 385.261719 508.953125 383.308594 508.808594 Z M 394.050781 509.664062 C 394.722656 503.203125 395.359375 496.722656 395.957031 490.253906 C 399.277344 490.5 402.597656 490.746094 405.917969 490.992188 C 408.167969 491.15625 410.429688 491.34375 412.675781 491.53125 C 412.65625 492.09375 412.613281 492.65625 412.589844 493.21875 C 412.367188 499.1875 412.375 505.171875 412.402344 511.175781 C 406.273438 510.664062 400.160156 510.152344 394.050781 509.664062 Z M 417.285156 511.59375 C 417.257812 505.570312 417.25 499.566406 417.476562 493.582031 C 417.496094 493.015625 417.539062 492.472656 417.558594 491.910156 C 424.375 492.453125 431.207031 493.035156 438.019531 493.617188 C 437.515625 500.167969 436.933594 506.714844 436.335938 513.238281 C 429.972656 512.6875 423.628906 512.140625 417.285156 511.59375 Z M 441.195312 513.65625 C 441.816406 507.113281 442.378906 500.566406 442.882812 494.015625 C 448.777344 494.53125 454.671875 495.042969 460.566406 495.558594 C 460.199219 502.117188 459.871094 508.683594 459.5625 515.246094 C 453.453125 514.738281 447.324219 514.207031 441.195312 513.65625 Z M 464.460938 515.6875 C 464.769531 509.121094 465.097656 502.558594 465.464844 495.996094 C 471.945312 496.554688 478.425781 497.132812 484.925781 497.691406 C 484.425781 504.222656 483.902344 510.75 483.378906 517.28125 C 477.054688 516.753906 470.765625 516.230469 464.460938 515.6875 Z M 488.242188 517.660156 C 488.765625 511.128906 489.285156 504.621094 489.789062 498.089844 C 496.210938 498.640625 502.636719 499.175781 509.058594 499.6875 C 508.503906 506.15625 507.90625 512.640625 507.269531 519.105469 C 500.9375 518.65625 494.589844 518.167969 488.242188 517.660156 Z M 531 520.722656 C 524.722656 520.335938 518.445312 519.929688 512.171875 519.488281 C 512.808594 513.023438 513.402344 506.558594 513.960938 500.089844 C 520.152344 500.585938 526.363281 501.046875 532.558594 501.503906 C 532.066406 507.898438 531.550781 514.3125 531 520.722656 Z M 537.800781 497 C 538.242188 491.066406 538.640625 485.152344 539.019531 479.214844 C 545 479.636719 550.980469 480.023438 556.984375 480.386719 C 556.585938 486.324219 556.1875 492.238281 555.730469 498.167969 C 549.746094 497.804688 543.765625 497.402344 537.800781 497 Z M 537.800781 497 "/>
</g>
</g>
</g>
<g clip-path="url(#clip12)" clip-rule="nonzero">
<g clip-path="url(#clip13)" clip-rule="nonzero">
<g clip-path="url(#clip14)" clip-rule="nonzero">
<path style=" stroke:none;fill-rule:nonzero;fill:rgb(100%,77.648926%,4.309082%);fill-opacity:1;" d="M 289.242188 213.097656 L 255.148438 215.117188 C 253.054688 215.242188 251.085938 216.234375 249.734375 217.851562 L 241.679688 227.484375 L 232.707031 238.199219 L 225.691406 246.542969 C 223.152344 249.574219 221.6875 253.167969 221.269531 256.875 C 220.773438 261.246094 221.714844 265.691406 224.097656 269.484375 L 224.101562 269.503906 C 224.808594 270.726562 225.703125 271.824219 226.730469 272.871094 L 237.554688 283.976562 L 247.148438 293.789062 L 256.824219 303.695312 C 258.363281 305.28125 260.515625 306.125 262.726562 305.996094 L 519.175781 290.816406 C 525.328125 290.453125 528.550781 283.289062 524.789062 278.371094 C 524.453125 277.921875 524.117188 277.496094 523.761719 277.046875 C 521.148438 273.636719 518.535156 270.191406 515.917969 266.78125 C 512.21875 261.972656 508.539062 257.128906 504.855469 252.320312 C 504.625 251.984375 504.355469 251.6875 504.125 251.351562 C 502.222656 248.875 501.984375 245.5 503.519531 242.777344 C 504.007812 241.910156 504.480469 241.085938 504.96875 240.21875 C 507.988281 234.839844 511.03125 229.480469 514.070312 224.117188 C 516.113281 220.492188 518.15625 216.882812 520.199219 213.257812 C 520.566406 212.632812 520.914062 211.988281 521.265625 211.363281 C 524.269531 206.023438 520.210938 199.429688 514.136719 199.789062 L 297.222656 212.625 M 297.222656 212.625 L 289.242188 213.097656 "/>
</g>
</g>
</g>
<g clip-path="url(#clip15)" clip-rule="nonzero">
<g clip-path="url(#clip16)" clip-rule="nonzero">
<g clip-path="url(#clip17)" clip-rule="nonzero">
<path style=" stroke:none;fill-rule:nonzero;fill:rgb(100%,88.238525%,0%);fill-opacity:1;" d="M 338.78125 204.128906 L 252.792969 209.21875 C 250.699219 209.34375 248.730469 210.335938 247.378906 211.953125 L 239.324219 221.585938 L 230.347656 232.300781 L 223.335938 240.644531 C 220.796875 243.675781 219.328125 247.269531 218.914062 250.976562 C 218.414062 255.289062 219.355469 259.753906 221.742188 263.546875 L 221.742188 263.566406 C 222.449219 264.789062 223.34375 265.886719 224.371094 266.9375 L 235.199219 278.039062 L 244.789062 287.851562 L 254.464844 297.757812 C 256.003906 299.34375 258.160156 300.1875 260.371094 300.058594 L 516.816406 284.878906 C 522.96875 284.515625 526.191406 277.351562 522.429688 272.433594 C 522.09375 271.984375 521.757812 271.558594 521.40625 271.109375 C 518.792969 267.699219 516.175781 264.253906 513.5625 260.84375 C 509.863281 256.035156 506.179688 251.191406 502.5 246.382812 C 502.265625 246.046875 501.996094 245.75 501.765625 245.414062 C 499.863281 242.9375 499.625 239.5625 501.160156 236.839844 C 501.652344 235.976562 502.121094 235.148438 502.613281 234.28125 C 505.632812 228.902344 508.671875 223.542969 511.710938 218.179688 C 513.753906 214.554688 515.800781 210.945312 517.84375 207.320312 C 518.210938 206.695312 518.558594 206.050781 518.90625 205.425781 C 521.910156 200.125 517.855469 193.53125 511.777344 193.890625 L 346.667969 203.660156 M 346.667969 203.660156 L 338.78125 204.128906 "/>
</g>
</g>
</g>
<g clip-path="url(#clip18)" clip-rule="nonzero">
<g clip-path="url(#clip19)" clip-rule="nonzero">
<g clip-path="url(#clip20)" clip-rule="nonzero">
<path style=" stroke:none;fill-rule:nonzero;fill:rgb(100%,88.238525%,0%);fill-opacity:1;" d="M 504.894531 211.535156 C 505.113281 215.242188 508.117188 218.101562 511.691406 218.183594 C 513.734375 214.554688 515.78125 210.949219 517.824219 207.320312 C 516.519531 205.199219 514.125 203.859375 511.472656 204.015625 C 507.628906 204.28125 504.664062 207.632812 504.894531 211.535156 Z M 480.785156 205.871094 C 484.652344 205.640625 487.992188 208.621094 488.222656 212.539062 C 488.457031 216.460938 485.507812 219.808594 481.625 220.039062 C 477.738281 220.269531 474.417969 217.292969 474.1875 213.371094 C 473.953125 209.449219 476.902344 206.101562 480.785156 205.871094 Z M 450.058594 207.691406 C 453.925781 207.460938 457.265625 210.4375 457.496094 214.359375 C 457.730469 218.277344 454.78125 221.628906 450.898438 221.859375 C 447.011719 222.089844 443.691406 219.109375 443.460938 215.191406 C 443.226562 211.269531 446.195312 207.917969 450.058594 207.691406 Z M 419.351562 209.507812 C 423.214844 209.277344 426.558594 212.253906 426.789062 216.175781 C 427.019531 220.097656 424.054688 223.425781 420.1875 223.65625 C 416.324219 223.886719 412.984375 220.90625 412.75 216.988281 C 412.519531 213.066406 415.488281 209.734375 419.351562 209.507812 Z M 388.644531 211.324219 C 392.507812 211.097656 395.847656 214.074219 396.082031 217.992188 C 396.3125 221.914062 393.367188 225.261719 389.484375 225.492188 C 385.617188 225.722656 382.277344 222.746094 382.046875 218.824219 C 381.8125 214.902344 384.777344 211.554688 388.644531 211.324219 Z M 357.9375 213.140625 C 361.800781 212.914062 365.140625 215.890625 365.375 219.8125 C 365.605469 223.730469 362.660156 227.082031 358.773438 227.3125 C 354.890625 227.539062 351.566406 224.542969 351.335938 220.621094 C 351.105469 216.703125 354.050781 213.371094 357.9375 213.140625 Z M 327.210938 214.960938 C 331.074219 214.730469 334.414062 217.710938 334.648438 221.628906 C 334.878906 225.550781 331.933594 228.898438 328.046875 229.128906 C 324.164062 229.359375 320.84375 226.382812 320.609375 222.460938 C 320.378906 218.539062 323.34375 215.191406 327.210938 214.960938 Z M 296.503906 216.777344 C 300.367188 216.550781 303.707031 219.527344 303.941406 223.449219 C 304.171875 227.367188 301.226562 230.71875 297.339844 230.945312 C 293.476562 231.175781 290.136719 228.199219 289.902344 224.277344 C 289.671875 220.359375 292.636719 217.007812 296.503906 216.777344 Z M 265.792969 218.597656 C 269.660156 218.367188 273 221.34375 273.230469 225.265625 C 273.464844 229.1875 270.515625 232.535156 266.632812 232.765625 C 262.75 232.996094 259.425781 230.015625 259.195312 226.097656 C 258.964844 222.175781 261.929688 218.824219 265.792969 218.597656 Z M 239.324219 221.585938 C 241.128906 222.761719 242.367188 224.753906 242.503906 227.082031 C 242.738281 230.984375 239.769531 234.355469 235.90625 234.582031 C 233.714844 234.714844 231.710938 233.820312 230.351562 232.320312 Z M 498.476562 233.222656 C 499.996094 233.132812 501.410156 233.535156 502.59375 234.300781 C 502.105469 235.167969 501.632812 235.996094 501.144531 236.863281 C 499.605469 239.5625 499.863281 242.9375 501.746094 245.433594 C 501.980469 245.773438 502.25 246.066406 502.480469 246.402344 C 501.550781 246.964844 500.46875 247.320312 499.296875 247.390625 C 495.414062 247.621094 492.089844 244.625 491.859375 240.722656 C 491.628906 236.820312 494.59375 233.453125 498.476562 233.222656 Z M 467.769531 235.039062 C 471.636719 234.808594 474.976562 237.789062 475.207031 241.707031 C 475.441406 245.628906 472.492188 248.976562 468.609375 249.207031 C 464.742188 249.4375 461.402344 246.460938 461.171875 242.539062 C 460.9375 238.617188 463.886719 235.269531 467.769531 235.039062 Z M 437.042969 236.859375 C 440.910156 236.628906 444.25 239.605469 444.480469 243.527344 C 444.714844 247.445312 441.765625 250.796875 437.882812 251.027344 C 434.015625 251.253906 430.675781 248.277344 430.445312 244.355469 C 430.210938 240.4375 433.179688 237.085938 437.042969 236.859375 Z M 406.335938 238.675781 C 410.199219 238.445312 413.542969 241.421875 413.773438 245.34375 C 414.003906 249.265625 411.058594 252.613281 407.175781 252.84375 C 403.289062 253.074219 399.96875 250.09375 399.738281 246.175781 C 399.503906 242.253906 402.472656 238.902344 406.335938 238.675781 Z M 375.628906 240.492188 C 379.492188 240.265625 382.835938 243.242188 383.066406 247.160156 C 383.296875 251.082031 380.351562 254.429688 376.46875 254.660156 C 372.582031 254.890625 369.261719 251.914062 369.03125 247.992188 C 368.796875 244.070312 371.761719 240.722656 375.628906 240.492188 Z M 344.921875 242.308594 C 348.785156 242.082031 352.125 245.058594 352.359375 248.980469 C 352.589844 252.898438 349.644531 256.25 345.757812 256.480469 C 341.875 256.707031 338.554688 253.730469 338.320312 249.808594 C 338.089844 245.890625 341.035156 242.539062 344.921875 242.308594 Z M 314.214844 244.128906 C 318.078125 243.898438 321.417969 246.875 321.652344 250.796875 C 321.882812 254.71875 318.9375 258.066406 315.050781 258.296875 C 311.167969 258.527344 307.847656 255.546875 307.613281 251.628906 C 307.382812 247.707031 310.328125 244.359375 314.214844 244.128906 Z M 283.488281 245.945312 C 287.351562 245.71875 290.691406 248.695312 290.925781 252.617188 C 291.15625 256.535156 288.210938 259.886719 284.324219 260.113281 C 280.441406 260.34375 277.121094 257.367188 276.886719 253.445312 C 276.65625 249.527344 279.621094 246.175781 283.488281 245.945312 Z M 252.777344 247.765625 C 256.644531 247.535156 259.984375 250.511719 260.21875 254.433594 C 260.449219 258.351562 257.5 261.703125 253.617188 261.933594 C 249.734375 262.164062 246.414062 259.183594 246.179688 255.261719 C 245.949219 251.34375 248.914062 247.992188 252.777344 247.765625 Z M 513.5625 260.863281 C 516.175781 264.273438 518.792969 267.71875 521.40625 271.128906 C 520.292969 273.203125 518.179688 274.671875 515.683594 274.820312 C 511.816406 275.046875 508.476562 272.050781 508.242188 268.148438 C 508.039062 264.695312 510.328125 261.65625 513.5625 260.863281 Z M 484.136719 262.488281 C 488 262.257812 491.34375 265.234375 491.574219 269.15625 C 491.804688 273.058594 488.859375 276.425781 484.976562 276.65625 C 481.089844 276.886719 477.769531 273.90625 477.539062 269.988281 C 477.304688 266.066406 480.253906 262.71875 484.136719 262.488281 Z M 453.410156 264.304688 C 457.273438 264.078125 460.617188 267.054688 460.847656 270.976562 C 461.078125 274.875 458.132812 278.246094 454.25 278.472656 C 450.363281 278.703125 447.042969 275.726562 446.8125 271.804688 C 446.597656 267.882812 449.546875 264.535156 453.410156 264.304688 Z M 422.703125 266.125 C 426.566406 265.894531 429.90625 268.871094 430.140625 272.792969 C 430.371094 276.695312 427.425781 280.0625 423.542969 280.292969 C 419.675781 280.519531 416.335938 277.542969 416.101562 273.621094 C 415.871094 269.703125 418.835938 266.351562 422.703125 266.125 Z M 391.996094 267.941406 C 395.859375 267.710938 399.199219 270.6875 399.433594 274.609375 C 399.664062 278.511719 396.71875 281.878906 392.832031 282.109375 C 388.96875 282.339844 385.628906 279.359375 385.394531 275.441406 C 385.164062 271.519531 388.128906 268.167969 391.996094 267.941406 Z M 361.289062 269.757812 C 365.152344 269.53125 368.492188 272.507812 368.726562 276.425781 C 368.957031 280.328125 366.011719 283.695312 362.125 283.925781 C 358.242188 284.15625 354.921875 281.179688 354.6875 277.257812 C 354.457031 273.335938 357.402344 269.988281 361.289062 269.757812 Z M 330.5625 271.578125 C 334.425781 271.347656 337.765625 274.324219 338 278.246094 C 338.230469 282.148438 335.285156 285.515625 331.398438 285.746094 C 327.515625 285.976562 324.195312 282.996094 323.960938 279.078125 C 323.75 275.15625 326.695312 271.804688 330.5625 271.578125 Z M 299.851562 273.394531 C 303.71875 273.164062 307.058594 276.144531 307.289062 280.0625 C 307.523438 283.964844 304.574219 287.332031 300.691406 287.5625 C 296.828125 287.792969 293.484375 284.816406 293.253906 280.894531 C 293.042969 276.972656 295.988281 273.625 299.851562 273.394531 Z M 269.144531 275.210938 C 273.011719 274.984375 276.351562 277.960938 276.582031 281.882812 C 276.8125 285.78125 273.867188 289.152344 269.984375 289.378906 C 266.101562 289.609375 262.777344 286.632812 262.546875 282.710938 C 262.316406 278.792969 265.28125 275.441406 269.144531 275.210938 Z M 238.4375 277.03125 C 242.304688 276.800781 245.644531 279.796875 245.875 283.699219 C 245.964844 285.210938 245.570312 286.675781 244.792969 287.871094 L 235.199219 278.058594 C 236.148438 277.457031 237.246094 277.101562 238.4375 277.03125 Z M 218.914062 250.976562 C 219.964844 250.152344 221.285156 249.648438 222.726562 249.5625 C 226.589844 249.332031 229.933594 252.328125 230.164062 256.230469 C 230.394531 260.132812 227.429688 263.5 223.566406 263.730469 C 222.949219 263.765625 222.3125 263.726562 221.726562 263.605469 L 221.722656 263.585938 C 219.355469 259.753906 218.414062 255.289062 218.914062 250.976562 Z M 218.914062 250.976562 "/>
</g>
</g>
</g>
<g clip-path="url(#clip21)" clip-rule="nonzero">
<path style=" stroke:none;fill-rule:nonzero;fill:rgb(26.269531%,76.858521%,39.99939%);fill-opacity:1;" d="M 582.03125 412.683594 L 304.066406 412.683594 C 299.402344 412.683594 295.726562 408.898438 295.726562 404.304688 L 295.726562 340.445312 C 295.726562 335.851562 299.492188 332.066406 304.066406 332.066406 L 582.03125 332.066406 C 584.09375 332.066406 586.15625 332.878906 587.679688 334.320312 L 622.214844 366.207031 C 625.800781 369.539062 625.800781 375.300781 622.214844 378.636719 L 587.769531 410.429688 C 586.15625 411.871094 584.183594 412.683594 582.03125 412.683594 Z M 582.03125 412.683594 "/>
</g>
<path style=" stroke:none;fill-rule:nonzero;fill:rgb(26.269531%,76.858521%,39.99939%);fill-opacity:1;" d="M 578.085938 368.277344 C 572.253906 368.277344 572.253906 377.375 578.085938 377.375 C 583.914062 377.375 583.914062 368.277344 578.085938 368.277344 Z M 578.085938 368.277344 "/>
<path style=" stroke:none;fill-rule:nonzero;fill:rgb(26.269531%,76.858521%,39.99939%);fill-opacity:1;" d="M 520.5 368.277344 C 514.671875 368.277344 514.671875 377.375 520.5 377.375 C 526.332031 377.375 526.421875 368.277344 520.5 368.277344 Z M 520.5 368.277344 "/>
<path style=" stroke:none;fill-rule:nonzero;fill:rgb(26.269531%,76.858521%,39.99939%);fill-opacity:1;" d="M 463.632812 368.277344 C 457.804688 368.277344 457.804688 377.375 463.632812 377.375 C 469.464844 377.375 469.464844 368.277344 463.632812 368.277344 Z M 463.632812 368.277344 "/>
<path style=" stroke:none;fill-rule:nonzero;fill:rgb(26.269531%,76.858521%,39.99939%);fill-opacity:1;" d="M 406.050781 368.277344 C 400.21875 368.277344 400.21875 377.375 406.050781 377.375 C 411.878906 377.375 411.96875 368.277344 406.050781 368.277344 Z M 406.050781 368.277344 "/>
<path style=" stroke:none;fill-rule:nonzero;fill:rgb(26.269531%,76.858521%,39.99939%);fill-opacity:1;" d="M 348.464844 368.277344 C 342.636719 368.277344 342.636719 377.375 348.464844 377.375 C 354.386719 377.375 354.386719 368.277344 348.464844 368.277344 Z M 348.464844 368.277344 "/>
<path style=" stroke:none;fill-rule:nonzero;fill:rgb(26.269531%,76.858521%,39.99939%);fill-opacity:1;" d="M 552.164062 391.964844 C 546.332031 391.964844 546.332031 401.0625 552.164062 401.0625 C 558.082031 401.152344 558.082031 391.964844 552.164062 391.964844 Z M 552.164062 391.964844 "/>
<path style=" stroke:none;fill-rule:nonzero;fill:rgb(26.269531%,76.858521%,39.99939%);fill-opacity:1;" d="M 494.578125 391.964844 C 488.75 391.964844 488.75 401.0625 494.578125 401.0625 C 500.5 401.152344 500.5 391.964844 494.578125 391.964844 Z M 494.578125 391.964844 "/>
<path style=" stroke:none;fill-rule:nonzero;fill:rgb(26.269531%,76.858521%,39.99939%);fill-opacity:1;" d="M 437.710938 391.964844 C 431.882812 391.964844 431.882812 401.0625 437.710938 401.0625 C 443.632812 401.152344 443.632812 391.964844 437.710938 391.964844 Z M 437.710938 391.964844 "/>
<path style=" stroke:none;fill-rule:nonzero;fill:rgb(26.269531%,76.858521%,39.99939%);fill-opacity:1;" d="M 380.128906 391.964844 C 374.296875 391.964844 374.296875 401.0625 380.128906 401.0625 C 386.046875 401.152344 386.046875 391.964844 380.128906 391.964844 Z M 380.128906 391.964844 "/>
<path style=" stroke:none;fill-rule:nonzero;fill:rgb(26.269531%,76.858521%,39.99939%);fill-opacity:1;" d="M 322.632812 391.964844 C 316.804688 391.964844 316.804688 401.0625 322.632812 401.0625 C 328.464844 401.152344 328.464844 391.964844 322.632812 391.964844 Z M 322.632812 391.964844 "/>
<path style=" stroke:none;fill-rule:nonzero;fill:rgb(26.269531%,76.858521%,39.99939%);fill-opacity:1;" d="M 552.164062 344.5 C 546.332031 344.5 546.332031 353.59375 552.164062 353.59375 C 558.082031 353.683594 558.082031 344.5 552.164062 344.5 Z M 552.164062 344.5 "/>
<path style=" stroke:none;fill-rule:nonzero;fill:rgb(26.269531%,76.858521%,39.99939%);fill-opacity:1;" d="M 494.578125 344.5 C 488.75 344.5 488.75 353.59375 494.578125 353.59375 C 500.5 353.683594 500.5 344.5 494.578125 344.5 Z M 494.578125 344.5 "/>
<path style=" stroke:none;fill-rule:nonzero;fill:rgb(26.269531%,76.858521%,39.99939%);fill-opacity:1;" d="M 437.710938 344.5 C 431.882812 344.5 431.882812 353.59375 437.710938 353.59375 C 443.632812 353.683594 443.632812 344.5 437.710938 344.5 Z M 437.710938 344.5 "/>
<path style=" stroke:none;fill-rule:nonzero;fill:rgb(26.269531%,76.858521%,39.99939%);fill-opacity:1;" d="M 380.128906 344.5 C 374.296875 344.5 374.296875 353.59375 380.128906 353.59375 C 386.046875 353.683594 386.046875 344.5 380.128906 344.5 Z M 380.128906 344.5 "/>
<path style=" stroke:none;fill-rule:nonzero;fill:rgb(26.269531%,76.858521%,39.99939%);fill-opacity:1;" d="M 322.632812 344.5 C 316.804688 344.5 316.804688 353.59375 322.632812 353.59375 C 328.464844 353.683594 328.464844 344.5 322.632812 344.5 Z M 322.632812 344.5 "/>
<g clip-path="url(#clip22)" clip-rule="nonzero">
<path style=" stroke:none;fill-rule:nonzero;fill:rgb(59.21936%,92.939758%,66.668701%);fill-opacity:1;" d="M 586.511719 408.5 L 308.546875 408.5 C 303.882812 408.5 300.207031 404.71875 300.207031 400.125 L 300.207031 336.265625 C 300.207031 331.671875 303.972656 327.886719 308.546875 327.886719 L 586.511719 327.886719 C 588.574219 327.886719 590.636719 328.699219 592.160156 330.140625 L 626.691406 362.023438 C 630.28125 365.355469 630.28125 371.121094 626.691406 374.453125 L 592.25 406.25 C 590.636719 407.691406 588.664062 408.5 586.511719 408.5 Z M 586.511719 408.5 "/>
</g>
<path style=" stroke:none;fill-rule:nonzero;fill:rgb(59.21936%,92.939758%,66.668701%);fill-opacity:1;" d="M 582.5625 364.097656 C 576.734375 364.097656 576.734375 373.195312 582.5625 373.195312 C 588.394531 373.195312 588.394531 364.097656 582.5625 364.097656 Z M 582.5625 364.097656 "/>
<path style=" stroke:none;fill-rule:nonzero;fill:rgb(59.21936%,92.939758%,66.668701%);fill-opacity:1;" d="M 524.980469 364.097656 C 519.148438 364.097656 519.148438 373.195312 524.980469 373.195312 C 530.808594 373.195312 530.898438 364.097656 524.980469 364.097656 Z M 524.980469 364.097656 "/>
<path style=" stroke:none;fill-rule:nonzero;fill:rgb(59.21936%,92.939758%,66.668701%);fill-opacity:1;" d="M 468.113281 364.097656 C 462.285156 364.097656 462.285156 373.195312 468.113281 373.195312 C 473.945312 373.195312 473.945312 364.097656 468.113281 364.097656 Z M 468.113281 364.097656 "/>
<path style=" stroke:none;fill-rule:nonzero;fill:rgb(59.21936%,92.939758%,66.668701%);fill-opacity:1;" d="M 410.53125 364.097656 C 404.699219 364.097656 404.699219 373.195312 410.53125 373.195312 C 416.359375 373.195312 416.449219 364.097656 410.53125 364.097656 Z M 410.53125 364.097656 "/>
<path style=" stroke:none;fill-rule:nonzero;fill:rgb(59.21936%,92.939758%,66.668701%);fill-opacity:1;" d="M 352.945312 364.097656 C 347.117188 364.097656 347.117188 373.195312 352.945312 373.195312 C 358.867188 373.195312 358.867188 364.097656 352.945312 364.097656 Z M 352.945312 364.097656 "/>
<path style=" stroke:none;fill-rule:nonzero;fill:rgb(59.21936%,92.939758%,66.668701%);fill-opacity:1;" d="M 556.640625 387.785156 C 550.8125 387.785156 550.8125 396.882812 556.640625 396.882812 C 562.5625 396.972656 562.5625 387.785156 556.640625 387.785156 Z M 556.640625 387.785156 "/>
<path style=" stroke:none;fill-rule:nonzero;fill:rgb(59.21936%,92.939758%,66.668701%);fill-opacity:1;" d="M 499.058594 387.785156 C 493.226562 387.785156 493.226562 396.882812 499.058594 396.882812 C 504.976562 396.972656 504.976562 387.785156 499.058594 387.785156 Z M 499.058594 387.785156 "/>
<path style=" stroke:none;fill-rule:nonzero;fill:rgb(59.21936%,92.939758%,66.668701%);fill-opacity:1;" d="M 442.191406 387.785156 C 436.363281 387.785156 436.363281 396.882812 442.191406 396.882812 C 448.113281 396.972656 448.113281 387.785156 442.191406 387.785156 Z M 442.191406 387.785156 "/>
<path style=" stroke:none;fill-rule:nonzero;fill:rgb(59.21936%,92.939758%,66.668701%);fill-opacity:1;" d="M 384.609375 387.785156 C 378.777344 387.785156 378.777344 396.882812 384.609375 396.882812 C 390.527344 396.972656 390.527344 387.785156 384.609375 387.785156 Z M 384.609375 387.785156 "/>
<path style=" stroke:none;fill-rule:nonzero;fill:rgb(59.21936%,92.939758%,66.668701%);fill-opacity:1;" d="M 327.113281 387.785156 C 321.285156 387.785156 321.285156 396.882812 327.113281 396.882812 C 332.945312 396.972656 332.945312 387.785156 327.113281 387.785156 Z M 327.113281 387.785156 "/>
<path style=" stroke:none;fill-rule:nonzero;fill:rgb(59.21936%,92.939758%,66.668701%);fill-opacity:1;" d="M 556.640625 340.316406 C 550.8125 340.316406 550.8125 349.414062 556.640625 349.414062 C 562.5625 349.503906 562.5625 340.316406 556.640625 340.316406 Z M 556.640625 340.316406 "/>
<path style=" stroke:none;fill-rule:nonzero;fill:rgb(59.21936%,92.939758%,66.668701%);fill-opacity:1;" d="M 499.058594 340.316406 C 493.226562 340.316406 493.226562 349.414062 499.058594 349.414062 C 504.976562 349.503906 504.976562 340.316406 499.058594 340.316406 Z M 499.058594 340.316406 "/>
<path style=" stroke:none;fill-rule:nonzero;fill:rgb(59.21936%,92.939758%,66.668701%);fill-opacity:1;" d="M 442.191406 340.316406 C 436.363281 340.316406 436.363281 349.414062 442.191406 349.414062 C 448.113281 349.503906 448.113281 340.316406 442.191406 340.316406 Z M 442.191406 340.316406 "/>
<path style=" stroke:none;fill-rule:nonzero;fill:rgb(59.21936%,92.939758%,66.668701%);fill-opacity:1;" d="M 384.609375 340.316406 C 378.777344 340.316406 378.777344 349.414062 384.609375 349.414062 C 390.527344 349.503906 390.527344 340.316406 384.609375 340.316406 Z M 384.609375 340.316406 "/>
<path style=" stroke:none;fill-rule:nonzero;fill:rgb(59.21936%,92.939758%,66.668701%);fill-opacity:1;" d="M 327.113281 340.316406 C 321.285156 340.316406 321.285156 349.414062 327.113281 349.414062 C 332.945312 349.503906 332.945312 340.316406 327.113281 340.316406 Z M 327.113281 340.316406 "/>
</g>
</svg>
